<svg xmlns="http://www.w3.org/2000/svg" xmlns:xlink="http://www.w3.org/1999/xlink" preserveAspectRatio="xMidYMid" width="12.969" height="26.032" viewBox="0 0 12.969 26.032">
  <defs>
    <style>
      .cls-1 {
        fill: #245eac;
        fill-rule: evenodd;
      }
    </style>
  </defs>
  <path d="M12.957,23.464 C12.955,23.485 12.952,23.507 12.950,23.528 C12.935,23.657 12.915,23.787 12.881,23.916 C12.858,24.009 12.829,24.099 12.797,24.187 C12.786,24.216 12.773,24.244 12.762,24.273 C12.739,24.330 12.714,24.388 12.688,24.443 C12.672,24.475 12.655,24.507 12.638,24.538 C12.612,24.588 12.585,24.636 12.556,24.683 C12.536,24.715 12.517,24.747 12.496,24.777 C12.466,24.822 12.435,24.865 12.403,24.907 C12.380,24.937 12.358,24.968 12.334,24.997 C12.299,25.039 12.262,25.079 12.225,25.118 C12.176,25.172 12.124,25.223 12.071,25.272 C12.040,25.301 12.009,25.330 11.977,25.358 C11.936,25.392 11.893,25.424 11.850,25.456 C11.825,25.474 11.800,25.494 11.774,25.511 C11.728,25.544 11.679,25.575 11.631,25.604 C11.608,25.618 11.586,25.631 11.564,25.644 C11.510,25.675 11.456,25.704 11.400,25.731 C11.385,25.738 11.370,25.745 11.355,25.752 C11.005,25.915 10.621,26.007 10.225,26.016 C10.223,26.016 10.221,26.016 10.219,26.016 C10.138,26.018 10.057,26.016 9.975,26.011 L9.975,26.011 C9.716,25.994 9.455,25.945 9.196,25.854 L1.964,23.298 C1.384,23.093 0.898,22.717 0.557,22.239 C0.514,22.179 0.474,22.118 0.436,22.054 C0.398,21.992 0.362,21.928 0.329,21.862 C0.263,21.731 0.206,21.595 0.160,21.454 C0.068,21.173 0.019,20.876 0.018,20.571 L0.012,18.350 L-0.004,12.359 L-0.012,9.313 L6.715,9.409 L6.734,16.641 C6.737,17.764 7.400,18.791 8.428,19.266 L11.276,20.583 C11.468,20.672 11.644,20.781 11.807,20.904 L11.807,20.904 C12.148,21.161 12.424,21.486 12.621,21.851 C12.625,21.858 12.628,21.865 12.632,21.872 C12.695,21.991 12.750,22.113 12.795,22.238 C12.797,22.244 12.799,22.249 12.801,22.254 C12.846,22.380 12.883,22.510 12.910,22.641 C12.911,22.643 12.911,22.645 12.912,22.648 C12.937,22.773 12.952,22.900 12.961,23.028 C12.962,23.049 12.964,23.070 12.965,23.091 C12.970,23.215 12.968,23.339 12.957,23.464 ZM3.303,6.515 C1.472,6.515 -0.012,5.055 -0.012,3.255 C-0.012,1.454 1.472,-0.005 3.303,-0.005 C5.133,-0.005 6.617,1.454 6.617,3.255 C6.617,5.055 5.133,6.515 3.303,6.515 Z" class="cls-1"/>
</svg>
