<svg xmlns="http://www.w3.org/2000/svg" xmlns:xlink="http://www.w3.org/1999/xlink" preserveAspectRatio="xMidYMid" width="17.032" height="27.031" viewBox="0 0 17.032 27.031">
  <defs>
    <style>
      .cls-1 {
        fill: #245eac;
        fill-rule: evenodd;
      }
    </style>
  </defs>
  <path d="M13.029,15.223 L13.088,15.207 L13.052,15.127 L13.127,14.823 L14.545,14.844 L14.524,13.398 L15.899,13.044 L15.512,11.653 L16.750,10.948 L16.023,9.706 L17.041,8.698 L16.023,7.691 L16.750,6.449 L15.512,5.745 L15.899,4.353 L14.524,3.999 L14.545,2.553 L13.127,2.575 L12.781,1.172 L11.417,1.567 L10.726,0.304 L9.508,1.045 L8.521,0.007 L7.533,1.045 L6.316,0.304 L5.625,1.567 L4.261,1.172 L3.914,2.575 L2.496,2.553 L2.518,3.999 L1.142,4.353 L1.530,5.745 L0.291,6.449 L1.019,7.691 L0.001,8.698 L1.019,9.706 L0.291,10.948 L1.530,11.653 L1.142,13.044 L2.518,13.398 L2.496,14.844 L3.914,14.823 L4.202,15.989 L1.023,24.660 L4.339,24.044 L6.445,26.730 L8.789,20.338 L11.772,27.017 L13.690,24.189 L17.041,24.569 L12.971,15.455 L13.029,15.223 ZM8.521,12.395 C6.524,12.395 4.905,10.744 4.905,8.706 C4.905,6.669 6.524,5.017 8.521,5.017 C10.518,5.017 12.137,6.669 12.137,8.706 C12.137,10.744 10.518,12.395 8.521,12.395 Z" class="cls-1"/>
</svg>
