<?xml version="1.0" encoding="UTF-8" standalone="no"?>
<svg width="47px" height="33px" viewBox="0 0 47 33" version="1.1" xmlns="http://www.w3.org/2000/svg" xmlns:xlink="http://www.w3.org/1999/xlink" xmlns:sketch="http://www.bohemiancoding.com/sketch/ns">
    <!-- Generator: Sketch 3.3.2 (12043) - http://www.bohemiancoding.com/sketch -->
    <title>Fill 1 Copy 2 + Fill 2 Copy 2 Copy Copy Copy Copy Copy</title>
    <desc>Created with Sketch.</desc>
    <defs></defs>
    <g id="Acounts" stroke="none" stroke-width="1" fill="none" fill-rule="evenodd" sketch:type="MSPage">
        <g id="Desktop---User-cabinet---Profile-(Max-width:-1366px)" sketch:type="MSArtboardGroup" transform="translate(-971.000000, -484.000000)" fill="#C3C8CE">
            <g id="Sell-faster" sketch:type="MSLayerGroup" transform="translate(925.000000, 197.000000)">
                <g id="Fill-1-Copy-2-+-Fill-2-Copy-2-Copy-Copy-Copy-Copy-Copy" transform="translate(46.000000, 287.000000)" sketch:type="MSShapeGroup">
                    <path d="M42.5560016,11.7605496 C42.4047622,11.6129322 42.5143985,11.3640914 42.7297556,11.3640914 L44.7032094,11.3640914 C45.8343235,11.3640914 46.7510593,10.485885 46.7510593,9.40242012 C46.7510593,8.4853177 45.8029988,7.84470502 44.9009464,8.15306138 L41.9955838,9.14467544 C41.4890052,9.31759869 40.9256507,9.12171274 40.6525388,8.67792326 L36.8965158,2.56749991 C36.0884374,1.25253343 34.6132415,0.444621018 33.0195992,0.444621018 L14.279619,0.444621018 C12.6859768,0.444621018 11.2107809,1.25253343 10.402213,2.56749991 L6.64667945,8.67792326 C6.37356753,9.12171274 5.81021303,9.31759869 5.30363448,9.14467544 L2.39876135,8.15306138 C1.49621947,7.84470502 0.547669492,8.4853177 0.547669492,9.40242012 C0.547669492,10.485885 1.46489481,11.3640914 2.59649829,11.3640914 L4.56946267,11.3640914 C4.78481973,11.3640914 4.89445606,11.6129322 4.74370611,11.7605496 L2.21179226,14.2391161 C1.30190866,15.1299755 0.792393428,16.3263794 0.792393428,17.5719891 L0.792393428,31.2394864 C0.792393428,32.0127205 1.44727468,32.639743 2.25535312,32.639743 L6.18219341,32.639743 C6.98978241,32.639743 7.64466366,32.0127205 7.64466366,31.2394864 L7.64466366,30.7760146 C7.64466366,30.3561251 8.00049226,30.0154335 8.43952701,30.0154335 L11.7560258,30.0154335 C12.8019759,30.0154335 10.7105651,28.8907295 11.7560258,28.8907295 L35.5431925,28.8907295 C36.5891426,28.8907295 34.4977318,30.0154335 35.5431925,30.0154335 L38.8601807,30.0154335 C39.2992154,30.0154335 39.6540652,30.3561251 39.6540652,30.7760146 L39.6540652,31.2394864 C39.6540652,32.0127205 40.3094359,32.639743 41.1175143,32.639743 L45.0443546,32.639743 C45.8514541,32.639743 46.5063354,32.0127205 46.5063354,31.2394864 L46.5063354,17.5719891 C46.5063354,16.3263794 45.9973096,15.1299755 45.087426,14.2391161 L42.5560016,11.7605496 L42.5560016,11.7605496 Z M7.9814038,8.91129935 L11.7501524,3.09798531 C12.4040548,2.08950069 13.5557256,1.47606835 14.7954971,1.47606835 L32.5042106,1.47606835 C33.7434926,1.47606835 34.8951635,2.08950069 35.5490658,3.09798531 L39.3183039,8.91129935 C39.6144199,9.36774175 39.2713169,9.95821137 38.7099202,9.95821137 L8.58929806,9.95821137 C8.02839079,9.95821137 7.68528783,9.36774175 7.9814038,8.91129935 L7.9814038,8.91129935 Z M4.10399774,16.4819635 C4.37515186,15.9688172 4.80439765,15.5751708 5.30852896,15.322581 C5.58751425,16.3680872 6.56640999,17.1413212 7.74646882,17.1413212 C8.77284101,17.1413212 9.64944215,16.5564751 10.044916,15.7171647 L10.6856033,15.8629076 C11.7036549,16.0930033 12.5029233,16.8484295 12.7569467,17.8203613 C13.0050968,18.7721421 12.191145,19.6695622 11.1730934,19.5575604 C9.52463294,19.3766705 7.23499579,19.1311101 5.49011412,18.9450653 C4.25572658,18.8133812 3.54357993,17.5434029 4.10399774,16.4819635 L4.10399774,16.4819635 Z M21.3981489,27.3625379 C21.3981489,27.8133567 21.0075695,28.1746679 20.5372101,28.1587346 L7.41902819,27.7172883 C6.97803566,27.7022922 6.65597896,27.4033084 6.55025821,27.0349678 C6.71079712,27.079956 6.87867774,27.1061991 7.05341063,27.1061991 C8.05188429,27.1061991 8.86240997,26.3301533 8.86240997,25.3741548 C8.86240997,24.8544478 8.61621769,24.4012858 8.23787448,24.0840256 C8.55258947,23.9523415 8.89128739,23.86752 9.25054213,23.8923572 L19.4173534,24.5849875 C20.5332945,24.660905 21.3981489,25.5498898 21.3981489,26.6216391 L21.3981489,27.3625379 L21.3981489,27.3625379 Z M23.6496091,21.2521145 L17.9176851,21.2521145 C17.1140117,21.2521145 16.3822871,20.8087937 16.0382052,20.1138203 L14.8933867,17.8020848 C14.6638356,17.338613 15.017217,16.8034414 15.5531624,16.8034414 L31.7465453,16.8034414 C32.2824907,16.8034414 32.6348932,17.338613 32.4058316,17.8020848 L31.2615025,20.1138203 C30.9174206,20.8087937 30.185696,21.2521145 29.3820226,21.2521145 L23.6496091,21.2521145 L23.6496091,21.2521145 Z M39.8806795,27.7172883 L26.7620082,28.1587346 C26.2911593,28.1746679 25.9010693,27.8133567 25.9010693,27.3625379 L25.9010693,26.6216391 C25.9010693,25.5498898 26.7659237,24.660905 27.8823543,24.5849875 L38.0481867,23.8923572 C38.4074414,23.86752 38.7466288,23.9523415 39.0613438,24.0840256 C38.68349,24.4012858 38.4368083,24.8544478 38.4368083,25.3741548 C38.4368083,26.3301533 39.247334,27.1061991 40.2453182,27.1061991 C40.4205405,27.1061991 40.5884211,27.079956 40.74896,27.0349678 C40.6437288,27.4033084 40.3211826,27.7022922 39.8806795,27.7172883 L39.8806795,27.7172883 Z M41.8095936,18.9450653 C40.0642225,19.1311101 37.7745853,19.3766705 36.1266143,19.5575604 C35.1085628,19.6695622 34.2941215,18.7721421 34.542761,17.8203613 C34.796295,16.8484295 35.5950739,16.0930033 36.613615,15.8629076 L37.2547917,15.7171647 C37.6502656,16.5564751 38.5263773,17.1413212 39.5527494,17.1413212 C40.7323188,17.1413212 41.7112146,16.3680872 41.9911788,15.322581 C42.4953101,15.5751708 42.9240664,15.9688172 43.1952205,16.4819635 C43.7556383,17.5434029 43.0439811,18.8133812 41.8095936,18.9450653 L41.8095936,18.9450653 Z" id="Fill-1-Copy-2"></path>
                    <path d="M23.4573009,7.91600207 L26.1291968,3.37219772 C26.4649581,2.79953591 27.0978142,2.44572276 27.7840201,2.44572276 L32.5027871,2.44572276 C33.1410271,2.44572276 33.737664,2.75267324 34.0885982,3.2630077 L37.2690304,7.88179232 C37.531864,8.26372307 37.2455369,8.77218302 36.7673464,8.77218302 L23.9795418,8.77218302 C23.5209291,8.77218302 23.2321549,8.29887007 23.4573009,7.91600207" id="Fill-2-Copy-2"></path>
                </g>
            </g>
        </g>
    </g>
</svg>