<?xml version="1.0" encoding="UTF-8" standalone="no"?>
<svg width="30px" height="30px" viewBox="0 0 30 30" version="1.1" xmlns="http://www.w3.org/2000/svg" xmlns:xlink="http://www.w3.org/1999/xlink" xmlns:sketch="http://www.bohemiancoding.com/sketch/ns">
    <!-- Generator: Sketch 3.3.2 (12043) - http://www.bohemiancoding.com/sketch -->
    <title>menu7 + Shape Copy 7</title>
    <desc>Created with Sketch.</desc>
    <defs></defs>
    <g id="Acounts" stroke="none" stroke-width="1" fill="none" fill-rule="evenodd" sketch:type="MSPage">
        <g id="iPhone-6-User-Cabinet-3" sketch:type="MSArtboardGroup" transform="translate(-17.000000, -96.000000)">
            <g id="menu7-+-Shape-Copy-7" sketch:type="MSLayerGroup" transform="translate(17.000000, 96.000000)">
                <g id="menu7" fill="#CE4354" sketch:type="MSShapeGroup">
                    <path d="M28,0 L2,0 C0.896,0 0,0.896 0,2 L0,28 C0,29.104 0.896,30 2,30 L28,30 C29.104,30 30,29.104 30,28 L30,2 C30,0.896 29.104,0 28,0 L28,0 Z" id="Shape"></path>
                </g>
                <path d="M22,8.86767157 L21.1304167,8 L14.5,14.6177696 L7.86955882,8 L7,8.86767157 L13.6304412,15.4854902 L7,22.1027941 L7.86955882,22.9704412 L14.5,16.3531373 L21.1304167,22.9704412 L22,22.1027941 L15.3690931,15.4854902 L22,8.86767157 Z" id="Shape-Copy-7" fill="#FFFFFF" sketch:type="MSShapeGroup"></path>
            </g>
        </g>
    </g>
</svg>