<?xml version="1.0" encoding="UTF-8" standalone="no"?>
<svg width="30px" height="30px" viewBox="0 0 30 30" version="1.1" xmlns="http://www.w3.org/2000/svg" xmlns:xlink="http://www.w3.org/1999/xlink" xmlns:sketch="http://www.bohemiancoding.com/sketch/ns">
    <!-- Generator: Sketch 3.3.2 (12043) - http://www.bohemiancoding.com/sketch -->
    <title>menu7</title>
    <desc>Created with Sketch.</desc>
    <defs></defs>
    <g id="Acounts" stroke="none" stroke-width="1" fill="none" fill-rule="evenodd" sketch:type="MSPage">
        <g id="iPhone-6-Profile" sketch:type="MSArtboardGroup" transform="translate(-17.000000, -96.000000)" fill="#FFFFFF">
            <g id="menu7" sketch:type="MSLayerGroup" transform="translate(17.000000, 96.000000)">
                <path d="M28,0 L2,0 C0.896,0 0,0.896 0,2 L0,28 C0,29.104 0.896,30 2,30 L28,30 C29.104,30 30,29.104 30,28 L30,2 C30,0.896 29.104,0 28,0 L28,0 Z M23,22 L7,22 C6.448,22 6,21.55 6,21 C6,20.45 6.448,20 7,20 L23,20 C23.55,20 24,20.45 24,21 C24,21.55 23.55,22 23,22 L23,22 Z M23,16 L7,16 C6.448,16 6,15.55 6,15 C6,14.448 6.448,14 7,14 L23,14 C23.55,14 24,14.448 24,15 C24,15.55 23.55,16 23,16 L23,16 Z M23,10 L7,10 C6.448,10 6,9.552 6,9 C6,8.448 6.448,8 7,8 L23,8 C23.55,8 24,8.448 24,9 C24,9.552 23.55,10 23,10 L23,10 Z" id="Shape" sketch:type="MSShapeGroup"></path>
            </g>
        </g>
    </g>
</svg>