<?xml version="1.0" encoding="UTF-8" standalone="no"?>
<svg width="19px" height="19px" viewBox="0 0 19 19" version="1.1" xmlns="http://www.w3.org/2000/svg" xmlns:xlink="http://www.w3.org/1999/xlink" xmlns:sketch="http://www.bohemiancoding.com/sketch/ns">
    <!-- Generator: Sketch 3.3.2 (12043) - http://www.bohemiancoding.com/sketch -->
    <title>Shape Copy 7</title>
    <desc>Created with Sketch.</desc>
    <defs></defs>
    <g id="Acounts" stroke="none" stroke-width="1" fill="none" fill-rule="evenodd" sketch:type="MSPage">
        <g id="iPhone-6-User-Cabinet" sketch:type="MSArtboardGroup" transform="translate(-26.000000, -1796.000000)" fill="#4A4A4A">
            <path d="M37.3073827,1796 C33.0594573,1796 29.6161529,1799.4433 29.6161529,1803.69123 C29.6161529,1805.51938 30.2574832,1807.19606 31.3224227,1808.51896 L26.2391114,1813.60108 C25.9196295,1813.92175 25.9196295,1814.44002 26.2391114,1814.7595 C26.5585932,1815.08017 27.0780471,1815.08017 27.3975289,1814.7595 L32.4808402,1809.67737 C33.8013652,1810.74113 35.4792366,1811.38246 37.308566,1811.38246 C41.5564914,1811.38246 44.9997958,1807.93916 44.9997958,1803.69123 C44.9997958,1799.4433 41.5541249,1796 37.3073827,1796 L37.3073827,1796 Z M37.3073827,1810.19919 C33.7173533,1810.19919 30.799419,1807.28008 30.799419,1803.69123 C30.799419,1800.10238 33.7197198,1797.18327 37.3073827,1797.18327 C40.8950456,1797.18327 43.8153464,1800.10238 43.8153464,1803.69123 C43.8153464,1807.28008 40.8962289,1810.19919 37.3073827,1810.19919 L37.3073827,1810.19919 Z" id="Shape-Copy-7" sketch:type="MSShapeGroup" transform="translate(35.499648, 1805.500000) scale(-1, 1) translate(-35.499648, -1805.500000) "></path>
        </g>
    </g>
</svg>