<?xml version="1.0" encoding="UTF-8"?>
<!DOCTYPE svg PUBLIC "-//W3C//DTD SVG 1.1//EN" "http://www.w3.org/Graphics/SVG/1.1/DTD/svg11.dtd">
<!-- Creator: CorelDRAW X7 -->
<svg xmlns="http://www.w3.org/2000/svg" xml:space="preserve" width="2480px" height="2244px" version="1.1" style="shape-rendering:geometricPrecision; text-rendering:geometricPrecision; image-rendering:optimizeQuality; fill-rule:evenodd; clip-rule:evenodd"
viewBox="0 0 2480 2244"
 xmlns:xlink="http://www.w3.org/1999/xlink">
 <defs>
  <style type="text/css">
   <![CDATA[
    .fil0 {fill:#337AB7}
   ]]>
  </style>
 </defs>
 <g id="Слой_x0020_1">
  <metadata id="CorelCorpID_0Corel-Layer"/>
  <g id="_852711681344">
   <g id="Layer_1_107_">
    <g>
     <path class="fil0" d="M2262 387c-23,-25 -54,-39 -88,-39l-1589 0 -23 -134c-9,-55 -57,-97 -113,-97l-259 0c-63,0 -115,52 -115,115 0,64 52,116 115,116l162 0 213 1283c1,5 4,11 6,15 2,6 3,11 6,17 3,8 9,14 13,21 3,4 8,10 12,13 6,6 14,10 22,15 4,2 8,6 12,7 14,6 28,9 43,9 0,0 1266,0 1266,0 63,0 114,-52 114,-116 0,-63 -51,-115 -114,-115l-1169 0 -19 -114 1302 0c57,0 106,-43 114,-99l116 -805c4,-33 -6,-67 -27,-92l0 0 0 0zm-220 191l-33 229 -410 0 0 -229 443 0 0 0zm-558 0l0 229 -344 0 0 -229 344 0zm0 345l0 230 -344 0 0 -230 344 0zm-460 -345l0 229 -345 0c-5,0 -12,3 -18,4l-37 -233 400 0 0 0zm-344 345l344 0 0 230 -306 0 -38 -230zm919 230l0 -230 393 0 -32 230 -361 0z"/>
     <circle class="fil0" cx="851" cy="2015" r="173"/>
     <circle class="fil0" cx="1886" cy="2015" r="173"/>
    </g>
   </g>
  </g>
  <g id="_852711679360">
  </g>
  <g id="_852711677568">
  </g>
  <g id="_852711678176">
  </g>
  <g id="_852711677856">
  </g>
  <g id="_852711677696">
  </g>
  <g id="_852711678592">
  </g>
  <g id="_852711679136">
  </g>
  <g id="_852711675520">
  </g>
  <g id="_852711677216">
  </g>
  <g id="_852711675616">
  </g>
  <g id="_852711676928">
  </g>
  <g id="_852711676704">
  </g>
  <g id="_852711676608">
  </g>
  <g id="_852711673952">
  </g>
  <g id="_852711673664">
  </g>
 </g>
</svg>
