<?xml version="1.0" encoding="UTF-8" standalone="no"?>
<svg width="20px" height="18px" viewBox="0 0 20 18" version="1.1" xmlns="http://www.w3.org/2000/svg" xmlns:xlink="http://www.w3.org/1999/xlink" xmlns:sketch="http://www.bohemiancoding.com/sketch/ns">
    <!-- Generator: Sketch 3.3.2 (12043) - http://www.bohemiancoding.com/sketch -->
    <title>Shape Copy 3</title>
    <desc>Created with Sketch.</desc>
    <defs></defs>
    <g id="Acounts" stroke="none" stroke-width="1" fill="none" fill-rule="evenodd" sketch:type="MSPage">
        <g id="Desktop---User-cabinet---Watchllist-(Max-width:-1366px)" sketch:type="MSArtboardGroup" transform="translate(-36.000000, -635.000000)" fill="#949BA5">
            <g id="Car-Ad-Copy-7" sketch:type="MSLayerGroup" transform="translate(15.000000, 248.000000)">
                <path d="M40.7806154,387.316385 L37.9968462,387.316385 L37.9968462,388.020462 C37.9968462,389.180769 37.0532308,390.127154 35.8901538,390.127154 C34.7256923,390.127154 33.7848462,389.180769 33.7848462,388.020462 L33.7848462,387.316385 L28.1653846,387.316385 L28.1653846,388.020462 C28.1653846,389.180769 27.2217692,390.127154 26.0586923,390.127154 C24.8956154,390.127154 23.9533846,389.180077 23.9533846,388.019769 L23.9533846,387.316385 L21.1433077,387.281077 L21.1433077,404.867077 L22.548,404.867077 L39.3987692,404.867077 L40.8006923,404.862923 L40.7806154,387.316385 L40.7806154,387.316385 Z M39.3987692,403.466538 L22.548,403.466538 L22.548,392.231769 L39.3987692,392.231769 L39.3987692,403.466538 L39.3987692,403.466538 Z" id="Shape-Copy-3" sketch:type="MSShapeGroup"></path>
            </g>
        </g>
    </g>
</svg>