<?xml version="1.0" encoding="UTF-8" standalone="no"?>
<svg width="14px" height="18px" viewBox="0 0 14 18" version="1.1" xmlns="http://www.w3.org/2000/svg" xmlns:xlink="http://www.w3.org/1999/xlink" xmlns:sketch="http://www.bohemiancoding.com/sketch/ns">
    <!-- Generator: Sketch 3.3.2 (12043) - http://www.bohemiancoding.com/sketch -->
    <title>locator</title>
    <desc>Created with Sketch.</desc>
    <defs></defs>
    <g id="Acounts" stroke="none" stroke-width="1" fill="none" fill-rule="evenodd" sketch:type="MSPage">
        <g id="Desktop---User-cabinet---Watchllist-(Max-width:-1366px)" sketch:type="MSArtboardGroup" transform="translate(-188.000000, -636.000000)" fill="#949BA5">
            <g id="Car-Ad-Copy-7" sketch:type="MSLayerGroup" transform="translate(15.000000, 248.000000)">
                <g id="locator" transform="translate(173.764822, 388.009346)" sketch:type="MSShapeGroup">
                    <path d="M6.37177484,0 C2.87025745,0 0.0216155052,2.8024614 0.0216155052,6.24680195 C0.0216155052,9.5622754 5.78322506,17.3084026 6.02855048,17.6364156 L6.25750545,17.9429127 C6.28428083,17.9789391 6.32691797,18 6.37177484,18 C6.41732536,18 6.45968504,17.9789391 6.48673789,17.9429127 L6.71555413,17.6364156 C6.96101827,17.3084026 12.7224891,9.5622754 12.7224891,6.24680195 C12.7224891,2.8024614 9.87338471,0 6.37177484,0 L6.37177484,0 Z M6.37177484,4.00920876 C7.62637964,4.00920876 8.64657266,5.01276187 8.64657266,6.24680195 C8.64657266,7.4802052 7.6263334,8.48439514 6.37177484,8.48439514 C5.11790994,8.48439514 4.09697701,7.4802052 4.09697701,6.24680195 C4.09697701,5.01276187 5.11786369,4.00920876 6.37177484,4.00920876 L6.37177484,4.00920876 Z" id="Shape"></path>
                </g>
            </g>
        </g>
    </g>
</svg>