<?xml version="1.0" encoding="UTF-8" standalone="no"?>
<svg width="24px" height="21px" viewBox="0 0 24 21" version="1.1" xmlns="http://www.w3.org/2000/svg" xmlns:xlink="http://www.w3.org/1999/xlink" xmlns:sketch="http://www.bohemiancoding.com/sketch/ns">
    <!-- Generator: Sketch 3.3.2 (12043) - http://www.bohemiancoding.com/sketch -->
    <title>paint3</title>
    <desc>Created with Sketch.</desc>
    <defs></defs>
    <g id="Acounts" stroke="none" stroke-width="1" fill="none" fill-rule="evenodd" sketch:type="MSPage">
        <g id="Desktop---User-cabinet---Watchllist-(Max-width:-1366px)" sketch:type="MSArtboardGroup" transform="translate(-34.000000, -591.000000)" fill="#949BA5">
            <g id="Car-Ad-Copy-7" sketch:type="MSLayerGroup" transform="translate(15.000000, 248.000000)">
                <g id="paint3" transform="translate(19.000000, 343.292056)" sketch:type="MSShapeGroup">
                    <path d="M16.8846316,6.60280291 L11.2067368,1.08750618 L10.3856842,0.270965228 L8.44673684,2.10332202 C5.13221053,1.647663 2.74989474,2.82022554 1.90610526,4.26253821 C0.881684211,6.01348392 1.92884211,7.92482161 1.96168421,7.98314596 C2.83705263,9.66604659 4.09515789,10.675787 5.70189474,10.9880653 C6.05431579,11.0548953 6.40926316,11.0852725 6.76294737,11.0852725 C8.43284211,11.0852725 10.1027368,10.4036067 11.3722105,9.70614458 C11.7145263,9.93458164 12.1313684,10.0694567 12.5772632,10.0694567 C13.752,10.0694567 14.7069474,9.14720286 14.7069474,8.01473832 C14.7069474,6.88227378 13.752,5.96123502 12.5772632,5.96123502 C11.4025263,5.96123502 10.4475789,6.88227378 10.4475789,8.01473832 C10.4475789,8.12774175 10.464,8.23831501 10.4816842,8.34767317 C9.20336842,9.04635033 7.51705263,9.7037144 6.02526316,9.41452281 C4.93263158,9.20188194 4.08884211,8.49955951 3.43452632,7.24194063 C3.42821053,7.22978972 2.78273684,6.02320465 3.35242105,5.05113208 C3.83242105,4.22973076 5.08421053,3.7011663 6.99410526,3.50189142 L6.69726316,3.78986792 L3.95368421,6.43876567 C3.98273684,6.50316548 4.00421053,6.54204838 4.00547368,6.54447856 C4.26947368,7.05238648 4.56631579,7.46551732 4.89726316,7.79602199 L9.864,3.00491932 C10.1002105,2.77769736 10.4134737,2.65254302 10.7456842,2.65254302 C11.0778947,2.65254302 11.3936842,2.77769736 11.6273684,3.00491932 L17.6538947,8.82155855 C18.1402105,9.28936847 18.1402105,10.0536605 17.6538947,10.5214705 L9.81978947,18.0805498 C9.34989474,18.5337786 8.52757895,18.5337786 8.05642105,18.0805498 L2.02863158,12.2639105 C1.79242105,12.0379037 1.66357895,11.7365612 1.66357895,11.4145621 C1.66357895,11.0937782 1.79242105,10.7900055 2.02863158,10.5639986 L2.67915789,9.93458164 C2.30905263,9.56762424 1.98063158,9.12776141 1.68631579,8.62471385 L0.852631579,9.43031899 C0.303157895,9.96009854 0,10.6648512 0,11.4145621 C0,12.1642731 0.303157895,12.8690257 0.852631579,13.3988053 L6.88042105,19.2154445 C7.42989474,19.745224 8.15873684,20.0368458 8.93684211,20.0368458 C9.71242105,20.0368458 10.4437895,19.745224 10.9932632,19.2154445 L18.8261053,11.6563652 L20.4694737,10.0852529 L20.0134737,9.64174478 C20.8762105,9.18851594 21.2602105,12.9759537 21.2602105,12.9759537 C21.2602105,12.9759537 22.4652632,22.0150135 23.5364211,12.9759537 C24.5595789,4.32572292 17.4997895,6.40595822 16.8846316,6.60280291 L16.8846316,6.60280291 Z" id="Shape"></path>
                </g>
            </g>
        </g>
    </g>
</svg>