<?xml version="1.0" encoding="UTF-8" standalone="no"?>
<svg width="14px" height="22px" viewBox="0 0 14 22" version="1.1" xmlns="http://www.w3.org/2000/svg" xmlns:xlink="http://www.w3.org/1999/xlink" xmlns:sketch="http://www.bohemiancoding.com/sketch/ns">
    <!-- Generator: Sketch 3.3.2 (12043) - http://www.bohemiancoding.com/sketch -->
    <title>users53</title>
    <desc>Created with Sketch.</desc>
    <defs></defs>
    <g id="Acounts" stroke="none" stroke-width="1" fill="none" fill-rule="evenodd" sketch:type="MSPage">
        <g id="Desktop---User-cabinet---Watchllist-(Max-width:-1366px)" sketch:type="MSArtboardGroup" transform="translate(-188.000000, -590.000000)" fill="#949BA5">
            <g id="Car-Ad-Copy-7" sketch:type="MSLayerGroup" transform="translate(15.000000, 248.000000)">
                <g id="users53" transform="translate(173.000000, 342.308411)" sketch:type="MSShapeGroup">
                    <g id="Group">
                        <path d="M6.35914557,13.1290791 L6.35914557,13.8482026 L7.63606962,13.8482026 L7.63606962,13.1290791 C7.42549367,13.1695931 7.21265823,13.1922149 6.99791772,13.1922149 C6.78322152,13.1922595 6.56976582,13.1695931 6.35914557,13.1290791 L6.35914557,13.1290791 Z" id="Shape"></path>
                        <path d="M12.9817215,12.0998093 L10.3598228,11.3123742 C10.1907595,11.5255189 10.0134114,11.720236 9.83118987,11.8992472 L10.5136456,12.1044051 C10.0577152,13.931997 8.82163924,18.9237857 8.47381013,20.7066694 C8.19451899,20.7747579 7.91044304,20.8291484 7.61874684,20.8580615 L8.35671519,19.1031092 L7.64723418,14.3244652 L6.36122785,14.3244652 L5.65170253,19.1031092 L6.38958228,20.8580615 C6.0923038,20.8287915 5.80410759,20.7726162 5.52074051,20.7028768 C5.17224684,18.9185207 3.93887342,13.9375297 3.48223418,12.1081977 L4.16814557,11.9020582 C3.98521519,11.723047 3.80862025,11.5286869 3.6388038,11.3151852 L1.0266519,12.099854 C0.440512658,12.2756972 0.0392974684,12.8179066 0.0392974684,13.4333803 L0.0392974684,14.5896802 C0.0392974684,18.463586 3.15726582,21.6040902 7.00420886,21.6040902 C10.8511076,21.6040902 13.9690759,18.463586 13.9690759,14.5896802 L13.9690759,13.4333803 C13.9691203,12.8179066 13.5679494,12.2756972 12.9817215,12.0998093 L12.9817215,12.0998093 Z" id="Shape"></path>
                        <path d="M11.4992722,5.62064814 C11.6281076,4.80336297 11.5706456,3.92619919 11.4580696,3.24071838 C11.2176329,1.77570004 10.640443,0.744690144 10.640443,0.744690144 L10.3708987,1.88318707 L10.3445823,1.99518061 C10.3425,1.9494462 10.3355886,1.89884832 10.3307152,1.84967824 C10.2662975,1.22862719 9.98979747,0.387426274 9.98979747,0.387426274 C9.36901266,0.685034618 8.35046835,0.655363021 8.35046835,0.655363021 C8.63246203,0.446724848 9.36901266,0.238755959 9.36901266,0.238755959 C7.5343038,-0.343565854 6.36122785,0.265616562 5.79028481,0.724076192 C5.66689873,0.823531814 5.57133544,0.914599075 5.50341772,0.98607862 L5.71266456,0.742905386 L6.1471519,0.23871134 C5.27126582,0.325227469 4.63311392,0.92115806 4.24510127,1.4079061 C3.96518987,1.75892332 3.81141139,2.05479152 3.81141139,2.05479152 L3.88624051,1.66714215 L4.04763924,0.833972647 C3.44555063,1.31893593 3.08248101,2.02409369 2.86003165,2.74317256 C2.52482911,3.82879604 2.48991772,5.15018601 2.50143671,5.61855105 C2.1524557,5.76383032 1.88973418,6.09182416 1.77498734,6.52810818 C1.66622152,6.94440291 1.69462025,7.42972314 1.85535443,7.89411709 C2.10894937,8.62747402 2.64865823,9.16656008 3.2363038,9.28729894 C3.96589873,10.8636415 5.30803797,12.4776425 6.99787342,12.4776425 C8.68646835,12.4776425 10.0286076,10.8660956 10.7582025,9.29077922 C11.3367215,9.17668858 11.8855127,8.63443458 12.1418544,7.89411709 C12.485519,6.89674988 12.2029494,5.91522239 11.4992722,5.62064814 L11.4992722,5.62064814 Z M11.4719367,7.65933222 C11.2606076,8.26922854 10.831038,8.598204 10.5261835,8.598204 C10.3563671,8.61913028 10.251057,8.68061518 10.1943038,8.81277649 C9.57688608,10.2391102 8.41289241,11.7631594 6.99796203,11.7631594 C5.58316456,11.7631594 4.41908228,10.2391548 3.80166456,8.81277649 C3.74553165,8.6823107 3.60291772,8.598204 3.4615,8.598204 C3.16497468,8.598204 2.73606962,8.26922854 2.52540506,7.65933222 C2.41243038,7.33205228 2.38886076,6.9863001 2.46098734,6.71064427 C2.49634177,6.57772444 2.58503797,6.34396581 2.79149367,6.27172774 C2.81368987,6.26405328 2.85732911,6.25954677 2.87872785,6.25744968 C3.05403797,6.24036062 3.19058228,6.09624144 3.19891139,5.919015 C3.20657595,5.75396953 3.22615823,5.59467991 3.2654557,5.43855823 C3.79426582,3.33660449 5.61293671,3.18637251 5.61293671,3.18637251 C5.28584177,3.9606004 4.75725316,4.28788034 4.75725316,4.28788034 C6.50118354,3.57330798 7.04443671,2.79908009 7.04443671,2.79908009 C8.20506329,4.4218264 9.80420886,5.12591331 10.7278101,5.414464 C10.7547911,5.58124961 10.7888165,5.74558117 10.7971013,5.919015 C10.8054304,6.09624144 10.9419304,6.24036062 11.1172848,6.25744968 C11.1386392,6.25954677 11.1823671,6.26405328 11.2051835,6.27172774 C11.5190759,6.38193653 11.7061709,6.97929492 11.4719367,7.65933222 L11.4719367,7.65933222 Z" id="Shape"></path>
                    </g>
                </g>
            </g>
        </g>
    </g>
</svg>