<?xml version="1.0" encoding="utf-8"?>
<!-- Generator: Adobe Illustrator 17.0.0, SVG Export Plug-In . SVG Version: 6.00 Build 0)  -->
<!DOCTYPE svg PUBLIC "-//W3C//DTD SVG 1.1//EN" "http://www.w3.org/Graphics/SVG/1.1/DTD/svg11.dtd">
<svg version="1.1" id="Layer_1" xmlns="http://www.w3.org/2000/svg" xmlns:xlink="http://www.w3.org/1999/xlink" x="0px" y="0px"
	 width="156.667px" height="92.667px" viewBox="0 0 156.667 92.667" enable-background="new 0 0 156.667 92.667"
	 xml:space="preserve">
<g>
	<g>
		<path fill="#ffffff" d="M25.271,86.779c-0.147-0.413-0.228-0.967-0.242-1.661c0-0.056-0.002-0.133-0.005-0.231
			c-0.003-0.098-0.005-0.172-0.005-0.221c0-0.049,0.002-0.123,0.005-0.221c0.004-0.098,0.005-0.172,0.005-0.221
			c0.007-0.196,0.011-0.469,0.011-0.82c0-0.098,0.007-0.329,0.021-0.694c0.028-0.68,0.046-1.24,0.053-1.682
			c0.007-0.091,0.01-0.221,0.01-0.389c0-0.154-0.003-0.263-0.01-0.326c-0.007,0.014-0.026,0.089-0.058,0.226l-0.079,0.352
			l-0.368,1.598c-0.056,0.224-0.116,0.434-0.179,0.631c-0.042,0.119-0.074,0.242-0.095,0.368c-0.035,0.231-0.123,0.368-0.263,0.41
			c-0.063,0.021-0.13,0.032-0.2,0.032c-0.091,0-0.175-0.014-0.252-0.042c-0.098-0.042-0.165-0.077-0.2-0.105
			c-0.084-0.217-0.2-0.645-0.347-1.282c-0.021-0.063-0.046-0.158-0.074-0.284c-0.203-0.799-0.354-1.317-0.452-1.555
			c-0.007,0.063-0.011,0.175-0.011,0.336c0,0.322,0.018,0.729,0.053,1.219c0.042,0.841,0.06,1.384,0.053,1.629
			c0.063,1.009,0.095,1.78,0.095,2.312c0,0.161-0.007,0.361-0.021,0.599c-0.091,0.112-0.231,0.168-0.42,0.168
			c-0.203,0-0.336-0.056-0.399-0.168c-0.049-0.722-0.081-1.738-0.095-3.048c-0.014-1.058-0.039-2.042-0.074-2.953l-0.032-0.494
			c-0.014-0.266-0.021-0.487-0.021-0.662c0-0.589,0.049-0.995,0.147-1.219c0.077-0.168,0.179-0.252,0.305-0.252
			c0.119,0,0.259,0.07,0.42,0.21c0.014,0.035,0.03,0.084,0.047,0.147c0.018,0.063,0.03,0.109,0.037,0.137
			c0.497,1.632,0.89,2.845,1.177,3.636c0.126-0.427,0.228-0.841,0.305-1.24c0.063-0.378,0.161-0.809,0.294-1.293l0.095-0.368
			l0.095-0.357l0.063-0.336c0.035-0.245,0.095-0.438,0.179-0.578c0.084-0.14,0.217-0.21,0.399-0.21c0.091,0,0.161,0.021,0.21,0.063
			c0.182,0.147,0.298,0.42,0.347,0.82c0.014,0.231,0.017,0.396,0.01,0.494v0.42c0,0.252,0.007,0.652,0.021,1.198
			c0.007,0.133,0.011,0.329,0.011,0.589c0,0.364-0.011,0.725-0.032,1.082c-0.014,0.378-0.021,0.659-0.021,0.841
			c0,0.413,0.014,0.778,0.042,1.093c0.042,0.645,0.063,1.303,0.063,1.976c0,0.231-0.137,0.347-0.41,0.347
			C25.439,86.8,25.369,86.793,25.271,86.779z"/>
		<path fill="#ffffff" d="M30.315,85.497c-0.21-0.063-0.459-0.095-0.746-0.095c-0.063,0-0.161,0.002-0.294,0.005
			c-0.133,0.004-0.235,0.005-0.305,0.005c-0.049,0-0.126-0.002-0.231-0.005c-0.105-0.003-0.186-0.005-0.242-0.005
			c-0.063,0.112-0.098,0.238-0.105,0.378c-0.063,0.484-0.116,0.792-0.158,0.925c-0.049,0.133-0.126,0.221-0.231,0.263
			c-0.056,0.014-0.095,0.021-0.116,0.021c-0.084,0-0.172-0.028-0.263-0.084c-0.147-0.091-0.224-0.175-0.231-0.252
			c-0.014-0.056-0.021-0.105-0.021-0.147c0-0.098,0.024-0.231,0.074-0.399l0.095-0.305c0.042-0.126,0.067-0.221,0.074-0.284
			c0.042-0.266,0.067-0.473,0.074-0.62c0.007-0.14,0.032-0.329,0.074-0.568c0.077-0.42,0.21-1.016,0.399-1.787l0.105-0.42
			c0.238-0.953,0.399-1.657,0.483-2.112l0.063-0.315l0.158-0.788c0.056-0.294,0.168-0.641,0.336-1.04
			c0.084-0.028,0.147-0.042,0.189-0.042c0.105,0,0.214,0.046,0.326,0.137c0.119,0.119,0.214,0.273,0.284,0.462
			c0.014,0.035,0.03,0.086,0.047,0.152l0.037,0.142l0.105,0.357c0.084,0.287,0.14,0.557,0.168,0.809
			c0.014,0.084,0.053,0.333,0.116,0.746c0.063,0.406,0.133,0.96,0.21,1.661l0.095,0.893l0.095,0.862
			c0.021,0.308,0.056,0.571,0.105,0.788c0.014,0.063,0.035,0.119,0.063,0.168c0.042,0.098,0.063,0.172,0.063,0.221
			c0,0.014-0.007,0.042-0.021,0.084c-0.021,0.042-0.032,0.095-0.032,0.158c0,0.112,0.018,0.245,0.053,0.399
			c0.098,0.385,0.14,0.645,0.126,0.778c-0.007,0.098-0.051,0.173-0.131,0.226c-0.081,0.053-0.163,0.075-0.247,0.068
			c-0.14,0-0.259-0.042-0.357-0.126c-0.042-0.028-0.077-0.067-0.105-0.116c-0.077-0.14-0.116-0.343-0.116-0.61
			C30.364,85.77,30.343,85.574,30.315,85.497z M30.221,84.75c-0.07-0.525-0.119-0.949-0.147-1.272
			c-0.098-0.995-0.196-1.871-0.294-2.627c-0.035-0.308-0.102-0.729-0.2-1.261c-0.07,0.638-0.231,1.489-0.483,2.554
			c-0.28,1.128-0.462,1.997-0.547,2.606c0.077,0.007,0.2,0.01,0.368,0.01c0.182,0,0.319-0.003,0.41-0.01
			c0.322-0.014,0.62,0.003,0.893,0.053V84.75z"/>
		<path fill="#ffffff" d="M35.822,78.182c0,0.042-0.004,0.074-0.011,0.095c-0.028,0.07-0.046,0.126-0.053,0.168
			c-0.091,0.091-0.256,0.13-0.494,0.116c-0.098,0-0.2-0.01-0.305-0.032c-0.189-0.028-0.469-0.053-0.841-0.074
			c-0.098-0.014-0.189-0.014-0.273,0v0.189c-0.042,0.399-0.063,0.785-0.063,1.156l-0.032,0.525c0,0.063-0.002,0.154-0.005,0.273
			c-0.004,0.119-0.005,0.207-0.005,0.263c0,0.056,0.002,0.144,0.005,0.263c0.003,0.119,0.005,0.207,0.005,0.263
			c0.007,0.112,0.01,0.291,0.01,0.536c0,0.245-0.003,0.431-0.01,0.557c-0.007,0.525-0.025,1.251-0.053,2.176
			c-0.021,0.533-0.032,1.061-0.032,1.587v0.515c-0.084,0.084-0.207,0.126-0.368,0.126c-0.14,0-0.238-0.039-0.294-0.116
			c-0.049-0.07-0.074-0.224-0.074-0.462c0-0.133,0.004-0.235,0.011-0.305v-0.242c0.014-0.561,0.021-0.984,0.021-1.272
			c0-0.287-0.007-0.725-0.021-1.314c-0.007-0.266-0.011-0.666-0.011-1.198c0-0.645,0.007-1.128,0.021-1.45
			c0.007-0.357,0.028-0.711,0.063-1.061c0.021-0.217,0.032-0.445,0.032-0.683c0-0.175-0.003-0.305-0.01-0.389l-0.032-0.347
			c-0.014-0.084,0.005-0.156,0.058-0.215c0.053-0.06,0.121-0.093,0.205-0.1c0.056,0,0.112,0.011,0.168,0.032h0.189
			c0.112,0.014,0.217,0.021,0.315,0.021h0.378c0.196,0,0.469,0.007,0.82,0.021c0.056,0.007,0.14,0.011,0.252,0.011
			c0.161,0,0.277,0.035,0.347,0.105C35.794,77.975,35.822,78.063,35.822,78.182z"/>
		<path fill="#ffffff" d="M39.574,85.497c-0.21-0.063-0.459-0.095-0.746-0.095c-0.063,0-0.161,0.002-0.294,0.005
			c-0.133,0.004-0.235,0.005-0.305,0.005c-0.049,0-0.126-0.002-0.231-0.005c-0.105-0.003-0.186-0.005-0.242-0.005
			c-0.063,0.112-0.098,0.238-0.105,0.378c-0.063,0.484-0.116,0.792-0.158,0.925c-0.049,0.133-0.126,0.221-0.231,0.263
			c-0.056,0.014-0.095,0.021-0.116,0.021c-0.084,0-0.172-0.028-0.263-0.084c-0.147-0.091-0.224-0.175-0.231-0.252
			c-0.014-0.056-0.021-0.105-0.021-0.147c0-0.098,0.024-0.231,0.074-0.399l0.095-0.305c0.042-0.126,0.067-0.221,0.074-0.284
			c0.042-0.266,0.067-0.473,0.074-0.62c0.007-0.14,0.032-0.329,0.074-0.568c0.077-0.42,0.21-1.016,0.399-1.787l0.105-0.42
			c0.238-0.953,0.399-1.657,0.483-2.112l0.063-0.315l0.158-0.788c0.056-0.294,0.168-0.641,0.336-1.04
			c0.084-0.028,0.147-0.042,0.189-0.042c0.105,0,0.214,0.046,0.326,0.137c0.119,0.119,0.214,0.273,0.284,0.462
			c0.014,0.035,0.03,0.086,0.047,0.152l0.037,0.142l0.105,0.357c0.084,0.287,0.14,0.557,0.168,0.809
			c0.014,0.084,0.053,0.333,0.116,0.746c0.063,0.406,0.133,0.96,0.21,1.661l0.095,0.893l0.095,0.862
			c0.021,0.308,0.056,0.571,0.105,0.788c0.014,0.063,0.035,0.119,0.063,0.168c0.042,0.098,0.063,0.172,0.063,0.221
			c0,0.014-0.007,0.042-0.021,0.084c-0.021,0.042-0.032,0.095-0.032,0.158c0,0.112,0.018,0.245,0.053,0.399
			c0.098,0.385,0.14,0.645,0.126,0.778c-0.007,0.098-0.051,0.173-0.131,0.226c-0.081,0.053-0.163,0.075-0.247,0.068
			c-0.14,0-0.259-0.042-0.357-0.126c-0.042-0.028-0.077-0.067-0.105-0.116c-0.077-0.14-0.116-0.343-0.116-0.61
			C39.623,85.77,39.602,85.574,39.574,85.497z M39.48,84.75c-0.07-0.525-0.119-0.949-0.147-1.272
			c-0.098-0.995-0.196-1.871-0.294-2.627c-0.035-0.308-0.102-0.729-0.2-1.261c-0.07,0.638-0.231,1.489-0.483,2.554
			c-0.28,1.128-0.462,1.997-0.547,2.606c0.077,0.007,0.2,0.01,0.368,0.01c0.182,0,0.319-0.003,0.41-0.01
			c0.322-0.014,0.62,0.003,0.893,0.053V84.75z"/>
		<path fill="#ffffff" d="M46.406,84.172c0.035,0.091,0.053,0.203,0.053,0.336c0,0.231-0.042,0.448-0.126,0.652
			c0.028,0.084,0.024,0.154-0.011,0.21l-0.042-0.042v0.095c-0.056,0.091-0.07,0.133-0.042,0.126c0.014,0,0.024-0.007,0.032-0.021
			l-0.095,0.158c-0.084,0.147-0.179,0.291-0.284,0.431c-0.084,0.084-0.154,0.14-0.21,0.168v0.01
			c-0.336,0.322-0.641,0.529-0.914,0.62c-0.112,0.028-0.245,0.042-0.399,0.042c-0.322,0-0.68-0.074-1.072-0.221v0.011
			c-0.084-0.091-0.182-0.168-0.294-0.231c-0.294-0.133-0.515-0.368-0.662-0.704c-0.084-0.175-0.126-0.354-0.126-0.536v-0.011
			c-0.021-0.063-0.032-0.133-0.032-0.21c0-0.105,0.035-0.256,0.105-0.452c0.049-0.168,0.14-0.34,0.273-0.515v-0.01
			c0.007-0.056,0.039-0.109,0.095-0.158v0.011l0.021-0.021l0.053-0.026c0.021-0.01,0.042-0.019,0.063-0.026
			c0.07-0.014,0.123-0.021,0.158-0.021c0.126-0.007,0.24,0.026,0.342,0.1c0.102,0.074,0.152,0.163,0.152,0.268
			c0,0.007-0.011,0.042-0.032,0.105c-0.028,0.07-0.056,0.126-0.084,0.168h-0.011c-0.126,0.182-0.214,0.315-0.263,0.399
			c-0.028,0.063-0.053,0.133-0.074,0.21v0.01c0,0.259,0.077,0.469,0.231,0.631c0.175,0.189,0.329,0.322,0.462,0.399
			c0.147,0.084,0.298,0.126,0.452,0.126c0.07,0,0.126-0.007,0.168-0.021c0.056-0.014,0.221-0.124,0.494-0.331
			c0.273-0.207,0.445-0.349,0.515-0.426c0.133-0.154,0.214-0.287,0.242-0.399c0.028-0.112,0.042-0.312,0.042-0.599
			c0-0.119-0.011-0.242-0.032-0.368c-0.035-0.336-0.228-0.627-0.578-0.872c-0.28-0.175-0.68-0.298-1.198-0.368h0.01
			c-0.112-0.063-0.168-0.147-0.168-0.252v-0.284c0-0.112,0.056-0.2,0.168-0.263l0.147-0.063c0.364,0.014,0.711-0.084,1.04-0.294
			c0.182-0.119,0.319-0.235,0.41-0.347c0.091-0.112,0.147-0.256,0.168-0.431v-0.011c0.021-0.112,0.032-0.228,0.032-0.347
			c0-0.462-0.151-0.872-0.452-1.23c-0.161-0.196-0.333-0.357-0.515-0.483c-0.203-0.147-0.368-0.238-0.494-0.273
			c-0.049-0.014-0.105-0.021-0.168-0.021c-0.147,0-0.298,0.042-0.452,0.126c-0.14,0.077-0.291,0.21-0.452,0.399
			c-0.161,0.161-0.242,0.371-0.242,0.631l0.074,0.126c0.028,0.049,0.112,0.175,0.252,0.378c0.049,0.063,0.084,0.123,0.105,0.179
			c0.021,0.063,0.032,0.098,0.032,0.105c0,0.105-0.049,0.193-0.147,0.263c-0.098,0.07-0.214,0.102-0.347,0.095
			c-0.021,0-0.049-0.002-0.084-0.005c-0.035-0.003-0.06-0.005-0.074-0.005h0.011c-0.063-0.028-0.112-0.053-0.147-0.074
			c-0.056-0.056-0.088-0.105-0.095-0.147v-0.011c-0.126-0.168-0.217-0.34-0.273-0.515c-0.063-0.154-0.095-0.27-0.095-0.347
			c0-0.056,0.007-0.126,0.021-0.21c0-0.182,0.042-0.364,0.126-0.547c0.147-0.329,0.364-0.564,0.652-0.704
			c0.14-0.084,0.242-0.161,0.305-0.231v0.01c0.378-0.147,0.739-0.221,1.083-0.221c0.161,0,0.287,0.014,0.378,0.042
			c0.28,0.091,0.592,0.301,0.935,0.631c0.091,0.056,0.154,0.112,0.189,0.168c0.07,0.084,0.168,0.231,0.294,0.441
			c0.014,0.028,0.039,0.067,0.074,0.116l0.074,0.105v0.084c0.105,0.105,0.165,0.245,0.179,0.42v0.01
			c0.084,0.203,0.126,0.42,0.126,0.652c0,0.133-0.017,0.245-0.053,0.336v0.011c-0.028,0.364-0.214,0.75-0.557,1.156
			c-0.196,0.182-0.378,0.326-0.547,0.431c0.189,0.126,0.371,0.277,0.547,0.452c0.336,0.371,0.522,0.785,0.557,1.24V84.172z
			 M42.244,84.582l0.042,0.021l-0.042-0.011V84.582z M42.99,86.516H43l-0.01,0.042h-0.011L42.99,86.516z M46.269,85.528l0.011-0.01
			L46.269,85.528z M46.332,85.381c0,0.056-0.018,0.102-0.053,0.137v-0.095l0.021-0.032c0-0.007,0.002-0.01,0.005-0.01
			c0.004,0,0.005-0.004,0.005-0.011L46.332,85.381z"/>
		<path fill="#ffffff" d="M50.588,78.434c0.056-0.091,0.161-0.137,0.315-0.137h0.042c0.126,0,0.224,0.035,0.294,0.105
			c0.049,0.049,0.074,0.172,0.074,0.368c0,0.091-0.002,0.224-0.005,0.399c-0.004,0.175-0.009,0.305-0.016,0.389v0.599
			c0.007,0.105,0.01,0.266,0.01,0.484c0,0.273-0.004,0.476-0.01,0.61c-0.028,0.371-0.046,0.669-0.053,0.893
			c-0.021,0.575-0.032,1.135-0.032,1.682c0,0.715,0.021,1.398,0.063,2.049c-0.028,0.161-0.046,0.305-0.053,0.431
			c-0.021,0.161-0.053,0.305-0.095,0.431c-0.084,0.196-0.203,0.294-0.357,0.294c-0.084,0-0.165-0.018-0.242-0.053
			c-0.035-1.121-0.053-2.204-0.053-3.247c0-0.392,0.025-0.869,0.074-1.429c0.035-0.568,0.049-1.03,0.042-1.387
			c-0.084,0.168-0.196,0.441-0.336,0.82c-0.238,0.645-0.459,1.167-0.662,1.566c-0.287,0.554-0.596,1.212-0.925,1.976
			c-0.196,0.455-0.41,0.855-0.641,1.198c-0.112,0.161-0.196,0.266-0.252,0.315c-0.084,0.077-0.2,0.133-0.347,0.168
			c-0.049,0.021-0.098,0.032-0.147,0.032c-0.091,0-0.172-0.032-0.242-0.095c-0.007-0.147,0.004-0.298,0.032-0.452
			c0.014-0.112,0.028-0.273,0.042-0.483c0.042-0.764,0.07-1.706,0.084-2.827c0-1.037,0.024-1.972,0.074-2.806
			c0.028-0.329,0.042-0.687,0.042-1.072c0-0.35,0.032-0.683,0.095-0.998c0.14-0.07,0.263-0.105,0.368-0.105
			c0.07,0,0.133,0.021,0.189,0.063c0.042,0.084,0.063,0.179,0.063,0.284c0,0.007-0.01,0.105-0.032,0.294
			c0,0.014-0.005,0.049-0.016,0.105c-0.01,0.056-0.016,0.098-0.016,0.126c-0.049,0.631-0.077,1.167-0.084,1.608
			c-0.035,0.89-0.06,1.878-0.074,2.964c-0.014,0.694-0.028,1.216-0.042,1.566c0.252-0.547,0.533-1.114,0.841-1.703l0.767-1.566
			C49.902,80.736,50.308,79.583,50.588,78.434z"/>
		<path fill="#ffffff" d="M56.904,86.8c-0.084,0.063-0.2,0.095-0.347,0.095c-0.175,0-0.322-0.039-0.441-0.116
			c-0.056-0.294-0.084-0.75-0.084-1.366v-0.704c0-0.287-0.004-0.49-0.011-0.61c-0.224-0.042-0.459-0.063-0.704-0.063
			c-0.098,0-0.245,0.007-0.441,0.021c-0.021,0-0.056,0.002-0.105,0.005c-0.049,0.004-0.088,0.005-0.116,0.005
			c-0.308,0.028-0.536,0.046-0.683,0.053c-0.168,0.014-0.294,0.021-0.378,0.021c-0.028,0-0.07-0.002-0.126-0.005
			c-0.056-0.004-0.098-0.005-0.126-0.005c-0.007,0.105-0.011,0.28-0.011,0.525c0,0.35,0.014,0.848,0.042,1.492
			c0,0.049,0.004,0.116,0.011,0.2c0.007,0.084,0.01,0.151,0.01,0.2c0,0.175-0.081,0.277-0.242,0.305
			c-0.028,0.007-0.074,0.011-0.137,0.011c-0.091,0-0.189-0.018-0.294-0.053c-0.063-0.028-0.119-0.06-0.168-0.095
			c-0.07-0.49-0.105-1.082-0.105-1.776c0-0.224,0.007-0.561,0.021-1.009c0.028-0.799,0.042-1.359,0.042-1.682
			c0-0.322-0.01-0.599-0.032-0.83c0-0.028,0.002-0.075,0.005-0.142c0.003-0.067,0.005-0.121,0.005-0.163
			c0-0.098-0.007-0.273-0.021-0.525c0-0.056-0.007-0.137-0.021-0.242c-0.014-0.105-0.021-0.182-0.021-0.231
			c-0.014-0.21-0.021-0.357-0.021-0.441c0-0.182,0.003-0.312,0.01-0.389c0-0.035,0.002-0.089,0.005-0.163
			c0.004-0.074,0.009-0.128,0.016-0.163c0-0.133,0.004-0.231,0.011-0.294c0-0.063-0.007-0.158-0.021-0.284
			c0-0.028-0.002-0.068-0.005-0.121c-0.003-0.053-0.005-0.089-0.005-0.11c0-0.07,0.011-0.133,0.032-0.189
			c0.049-0.126,0.168-0.189,0.357-0.189c0.175,0.014,0.305,0.084,0.389,0.21c0.077,0.119,0.116,0.28,0.116,0.483
			c0,0.147-0.007,0.354-0.021,0.62c0,0.049-0.002,0.123-0.005,0.221c-0.003,0.098-0.005,0.172-0.005,0.221
			c0,0.147,0.007,0.354,0.021,0.62c0.07,1.079,0.105,1.888,0.105,2.428c0,0.28-0.011,0.557-0.032,0.83
			c0.427,0.007,0.862-0.014,1.303-0.063c0.259-0.028,0.561-0.042,0.904-0.042c0.21,0,0.368,0.004,0.473,0.011
			c0.07-0.799,0.126-1.598,0.168-2.396c0.028-0.694,0.042-1.517,0.042-2.47c0-0.035-0.002-0.096-0.005-0.184
			c-0.004-0.088-0.005-0.156-0.005-0.205c0-0.112,0.046-0.203,0.137-0.273c0.112-0.028,0.193-0.042,0.242-0.042
			c0.133,0,0.247,0.035,0.342,0.105c0.095,0.07,0.145,0.165,0.152,0.284c0.007,0.077,0.011,0.2,0.011,0.368
			c0,0.238-0.011,0.487-0.032,0.746c-0.042,0.54-0.06,0.946-0.053,1.219c0,0.042,0.002,0.109,0.005,0.2
			c0.004,0.091,0.005,0.158,0.005,0.2c0,0.56-0.053,1.335-0.158,2.323v0.484c0,0.553-0.003,0.977-0.01,1.272
			c-0.007,0.21-0.011,0.525-0.011,0.946C56.883,86.103,56.89,86.407,56.904,86.8z"/>
		<path fill="#ffffff" d="M66.794,78.434c0.056-0.091,0.161-0.137,0.315-0.137h0.042c0.126,0,0.224,0.035,0.294,0.105
			c0.049,0.049,0.074,0.172,0.074,0.368c0,0.091-0.002,0.224-0.005,0.399c-0.004,0.175-0.009,0.305-0.016,0.389v0.599
			c0.007,0.105,0.011,0.266,0.011,0.484c0,0.273-0.004,0.476-0.011,0.61c-0.028,0.371-0.046,0.669-0.053,0.893
			c-0.021,0.575-0.032,1.135-0.032,1.682c0,0.715,0.021,1.398,0.063,2.049c-0.028,0.161-0.046,0.305-0.053,0.431
			c-0.021,0.161-0.053,0.305-0.095,0.431c-0.084,0.196-0.203,0.294-0.357,0.294c-0.084,0-0.165-0.018-0.242-0.053
			c-0.035-1.121-0.053-2.204-0.053-3.247c0-0.392,0.025-0.869,0.074-1.429c0.035-0.568,0.049-1.03,0.042-1.387
			c-0.084,0.168-0.196,0.441-0.336,0.82c-0.238,0.645-0.459,1.167-0.662,1.566c-0.287,0.554-0.596,1.212-0.925,1.976
			c-0.196,0.455-0.41,0.855-0.641,1.198c-0.112,0.161-0.196,0.266-0.252,0.315c-0.084,0.077-0.2,0.133-0.347,0.168
			c-0.049,0.021-0.098,0.032-0.147,0.032c-0.091,0-0.172-0.032-0.242-0.095c-0.007-0.147,0.004-0.298,0.032-0.452
			c0.014-0.112,0.028-0.273,0.042-0.483c0.042-0.764,0.07-1.706,0.084-2.827c0-1.037,0.024-1.972,0.074-2.806
			c0.028-0.329,0.042-0.687,0.042-1.072c0-0.35,0.032-0.683,0.095-0.998c0.14-0.07,0.263-0.105,0.368-0.105
			c0.07,0,0.133,0.021,0.189,0.063c0.042,0.084,0.063,0.179,0.063,0.284c0,0.007-0.01,0.105-0.032,0.294
			c0,0.014-0.005,0.049-0.016,0.105c-0.01,0.056-0.016,0.098-0.016,0.126c-0.049,0.631-0.077,1.167-0.084,1.608
			c-0.035,0.89-0.06,1.878-0.074,2.964c-0.014,0.694-0.028,1.216-0.042,1.566c0.252-0.547,0.532-1.114,0.841-1.703l0.767-1.566
			C66.107,80.736,66.514,79.583,66.794,78.434z"/>
		<path fill="#ffffff" d="M79.121,86.442c-0.042,0.042-0.074,0.091-0.095,0.147c-0.007,0.035-0.032,0.063-0.074,0.084
			c-0.077,0.063-0.165,0.084-0.263,0.063c-0.126-0.042-0.259-0.158-0.399-0.347c-0.147-0.168-0.224-0.256-0.231-0.263
			c-0.07-0.084-0.247-0.314-0.531-0.688l-0.904-1.198c-0.319-0.424-0.492-0.657-0.52-0.699l-0.336-0.431l-0.163-0.194
			c-0.066-0.081-0.11-0.135-0.131-0.163l-0.053-0.063c-0.007,0.462-0.024,1.118-0.052,1.965c-0.021,0.533-0.032,1.061-0.032,1.587
			v0.515c-0.084,0.084-0.207,0.126-0.368,0.126c-0.14,0-0.238-0.039-0.294-0.116c-0.049-0.07-0.074-0.224-0.074-0.462
			c0-0.133,0.003-0.235,0.011-0.305v-0.242c0.014-0.561,0.021-0.984,0.021-1.272c0-0.287-0.007-0.725-0.021-1.314
			c-0.007-0.266-0.011-0.666-0.011-1.198c0-0.645,0.007-1.128,0.021-1.45c0.007-0.357,0.028-0.711,0.063-1.061
			c0.021-0.217,0.032-0.445,0.032-0.683c0-0.175-0.003-0.305-0.011-0.389l-0.032-0.347c-0.014-0.084,0.005-0.156,0.058-0.215
			c0.052-0.06,0.121-0.093,0.205-0.1c0.154,0,0.301,0.07,0.441,0.21c0.063,0.07,0.098,0.14,0.105,0.21
			c0.028,0.133,0.038,0.298,0.032,0.494c-0.042,0.399-0.063,0.785-0.063,1.156l-0.032,0.525c0,0.063-0.002,0.154-0.005,0.273
			c-0.003,0.119-0.005,0.207-0.005,0.263c0,0.056,0.002,0.144,0.005,0.263c0.004,0.119,0.005,0.207,0.005,0.263l0.011,0.252
			l0.032-0.042c0.021-0.028,0.065-0.082,0.131-0.163l0.163-0.194l0.336-0.431c0.161-0.21,0.76-0.925,1.797-2.144
			c0.007-0.007,0.084-0.095,0.231-0.263c0.14-0.189,0.273-0.305,0.399-0.347c0.098-0.021,0.186,0,0.263,0.063
			c0.042,0.021,0.067,0.049,0.074,0.084c0.021,0.056,0.053,0.105,0.095,0.147c-0.014,0.168-0.13,0.378-0.347,0.631
			c-0.035,0.049-0.137,0.165-0.305,0.347c-0.161,0.168-0.497,0.543-1.009,1.125c-0.511,0.581-0.851,0.984-1.019,1.209
			c-0.084,0.112-0.2,0.28-0.347,0.504c0.168,0.259,0.287,0.434,0.357,0.525c1.359,1.752,2.088,2.676,2.186,2.775
			c0.168,0.182,0.27,0.298,0.305,0.347C78.992,86.064,79.107,86.274,79.121,86.442z"/>
		<path fill="#ffffff" d="M83.441,83.079c-0.014,0.301-0.06,0.648-0.137,1.04c-0.021,0.119-0.046,0.298-0.074,0.536
			c-0.042,0.294-0.112,0.557-0.21,0.788c-0.091,0.189-0.2,0.371-0.326,0.547c-0.063,0.084-0.119,0.151-0.168,0.2
			c-0.266,0.266-0.596,0.459-0.988,0.578c-0.189,0.056-0.368,0.084-0.536,0.084c-0.266,0-0.504-0.07-0.715-0.21
			c-0.126-0.084-0.256-0.222-0.389-0.415c-0.133-0.193-0.231-0.377-0.294-0.552c-0.147-0.385-0.238-0.907-0.273-1.566
			c-0.014-0.364-0.017-0.645-0.011-0.841v-0.862v-0.368c0-0.687,0.021-1.259,0.063-1.718c0.042-0.459,0.14-0.874,0.294-1.245
			c0.182-0.455,0.445-0.809,0.788-1.061c0.231-0.175,0.466-0.263,0.704-0.263c0.196,0,0.399,0.063,0.609,0.189
			c0.21,0.133,0.382,0.256,0.515,0.368c0.245,0.203,0.385,0.329,0.42,0.378c0.091,0.133,0.207,0.448,0.347,0.946
			c0.056,0.161,0.098,0.329,0.126,0.504c0.028,0.147,0.066,0.329,0.116,0.546c0.091,0.399,0.137,1.019,0.137,1.86v0.494V83.079z
			 M80.509,79.149c-0.28,0.617-0.42,1.447-0.42,2.491c0,0.217,0.003,0.382,0.01,0.494c0.007,0.168,0.011,0.42,0.011,0.757
			c0,0.413,0.025,0.939,0.074,1.576c0.021,0.287,0.067,0.55,0.137,0.788c0.028,0.147,0.102,0.333,0.221,0.557
			c0.126,0.231,0.249,0.371,0.368,0.42c0.056,0.028,0.123,0.042,0.2,0.042c0.21,0,0.42-0.105,0.631-0.315
			c0.259-0.252,0.438-0.515,0.536-0.788c0.056-0.161,0.112-0.483,0.168-0.967c0.098-0.652,0.147-1.17,0.147-1.555
			c0-0.035-0.002-0.088-0.005-0.158c-0.003-0.07-0.005-0.123-0.005-0.158c-0.007-0.084-0.011-0.207-0.011-0.368
			c-0.028-0.645-0.084-1.146-0.168-1.503c-0.042-0.161-0.07-0.298-0.084-0.41c-0.021-0.154-0.091-0.438-0.21-0.851
			c-0.07-0.238-0.179-0.392-0.326-0.462c-0.077-0.035-0.154-0.056-0.231-0.063c-0.273-0.049-0.438-0.084-0.494-0.105
			c-0.112,0.07-0.207,0.161-0.284,0.273C80.708,78.935,80.621,79.037,80.509,79.149z"/>
		<path fill="#ffffff" d="M89.421,81.755v0.326c0,0.533-0.028,0.918-0.084,1.156l-0.063,0.336c-0.014,0.07-0.042,0.175-0.084,0.315
			v-0.011c-0.091,0.315-0.165,0.515-0.221,0.599v-0.01c-0.021,0.042-0.105,0.123-0.252,0.242c-0.133,0.098-0.245,0.175-0.336,0.231
			c-0.126,0.084-0.256,0.126-0.389,0.126c-0.154,0-0.305-0.056-0.452-0.168l-0.095-0.074c-0.014,0.631-0.021,1.104-0.021,1.419
			v0.515c-0.084,0.084-0.207,0.126-0.368,0.126c-0.14,0-0.238-0.039-0.294-0.116c-0.049-0.07-0.074-0.224-0.074-0.462
			c0-0.133,0.003-0.235,0.01-0.305v-0.242c0.014-0.434,0.021-0.767,0.021-0.998c-0.161,0.112-0.326,0.196-0.494,0.252
			c-0.119,0.035-0.231,0.053-0.336,0.053c-0.182,0-0.336-0.049-0.462-0.147c-0.189-0.126-0.336-0.329-0.441-0.61
			c-0.084-0.245-0.14-0.567-0.168-0.967v-0.525V82.07c0-0.862,0.074-1.478,0.221-1.85c0.112-0.287,0.28-0.508,0.504-0.662
			c0.147-0.112,0.298-0.168,0.452-0.168c0.133,0,0.263,0.042,0.389,0.126c0.091,0.056,0.203,0.133,0.336,0.231l0.032,0.021
			c0-0.063,0.007-0.165,0.021-0.305c0.021-0.217,0.032-0.445,0.032-0.683c0-0.175-0.004-0.305-0.011-0.389l-0.032-0.347
			c-0.014-0.084,0.005-0.156,0.058-0.215c0.053-0.06,0.121-0.093,0.205-0.1c0.154,0,0.301,0.07,0.441,0.21
			c0.063,0.07,0.098,0.14,0.105,0.21c0.028,0.133,0.039,0.298,0.032,0.494c-0.035,0.315-0.052,0.589-0.052,0.82
			c0.098-0.049,0.21-0.074,0.336-0.074c0.105,0,0.217,0.018,0.336,0.053c0.259,0.084,0.469,0.207,0.631,0.368
			c0.014,0.014,0.033,0.037,0.058,0.068c0.025,0.032,0.04,0.054,0.047,0.068l0.116,0.378l0.221,0.462
			c0,0.021,0.005,0.067,0.016,0.137l0.026,0.179C89.393,81.342,89.421,81.559,89.421,81.755z M86.625,83.983
			c0.035-0.112,0.063-0.245,0.084-0.399l-0.011-0.41c-0.007-0.266-0.01-0.666-0.01-1.198c0-0.413,0.003-0.722,0.01-0.925
			c-0.014-0.049-0.028-0.116-0.042-0.2c-0.014-0.084-0.06-0.256-0.137-0.515c-0.035-0.133-0.095-0.217-0.179-0.252
			c-0.021-0.014-0.063-0.028-0.126-0.042c-0.021-0.007-0.051-0.014-0.089-0.021c-0.039-0.007-0.074-0.014-0.105-0.021
			c-0.032-0.007-0.061-0.014-0.089-0.021c-0.042,0.028-0.095,0.081-0.158,0.158c-0.056,0.07-0.109,0.13-0.158,0.179
			c-0.161,0.378-0.242,0.879-0.242,1.503v0.294c0.007,0.112,0.011,0.27,0.011,0.473c0,0.196,0.014,0.518,0.042,0.967
			c0.007,0.154,0.035,0.312,0.084,0.473v0.011c0.014,0.063,0.06,0.172,0.137,0.326c0.056,0.133,0.119,0.214,0.189,0.242
			c0.056,0.014,0.095,0.021,0.116,0.021c0.133,0,0.252-0.06,0.357-0.179C86.457,84.299,86.562,84.144,86.625,83.983z M85.69,80.074
			l0.042,0.032l-0.042-0.042V80.074z M88.817,82.113c0.003-0.042,0.005-0.074,0.005-0.095c0-0.224-0.032-0.54-0.095-0.946v-0.01
			c-0.028-0.259-0.063-0.455-0.105-0.589c-0.063-0.161-0.168-0.315-0.315-0.462c-0.105-0.119-0.224-0.179-0.357-0.179
			c-0.021,0-0.06,0.007-0.116,0.021c-0.07,0.028-0.133,0.109-0.189,0.242c-0.077,0.154-0.123,0.263-0.137,0.326v0.011
			c0,0.049-0.002,0.121-0.005,0.215c-0.003,0.095-0.005,0.166-0.005,0.215c0,0.056,0.002,0.144,0.005,0.263
			c0.003,0.119,0.005,0.207,0.005,0.263c0.007,0.112,0.01,0.291,0.01,0.536c0,0.245-0.003,0.431-0.01,0.557l-0.021,1.251
			c0.028,0.147,0.07,0.284,0.126,0.41c0.049,0.049,0.102,0.109,0.158,0.179c0.063,0.077,0.116,0.13,0.158,0.158
			c0.028-0.007,0.058-0.014,0.089-0.021s0.067-0.014,0.105-0.021c0.039-0.007,0.068-0.014,0.089-0.021
			c0.063-0.014,0.105-0.028,0.126-0.042c0.084-0.035,0.144-0.119,0.179-0.252c0.077-0.259,0.123-0.431,0.137-0.515
			c0.007-0.063,0.025-0.151,0.053-0.263c0.049-0.217,0.08-0.518,0.095-0.904c0-0.098,0.003-0.175,0.011-0.231
			C88.811,82.186,88.813,82.155,88.817,82.113z M87.729,84.362l-0.042,0.021v0.011L87.729,84.362z"/>
		<path fill="#ffffff" d="M90.545,78.707c-0.014,0.14-0.021,0.371-0.021,0.694c0,0.378,0.011,0.785,0.032,1.219
			c0.021,0.539,0.032,1.075,0.032,1.608v0.515c0.007,0,0.026,0.002,0.058,0.005c0.032,0.003,0.058,0.005,0.079,0.005
			c0.035,0,0.13-0.007,0.284-0.021c0.231-0.021,0.477-0.032,0.736-0.032c0.224,0,0.385,0.007,0.484,0.021
			c0.182,0.021,0.312,0.081,0.389,0.179c0.042,0.056,0.063,0.116,0.063,0.179c0,0.077-0.032,0.144-0.095,0.2
			c-0.063,0.063-0.221,0.088-0.473,0.074c-0.063,0-0.158-0.007-0.284-0.021c-0.063-0.007-0.137-0.011-0.221-0.011
			c-0.273,0-0.62,0.018-1.04,0.053c-0.007,0.07-0.012,0.175-0.016,0.315c-0.003,0.14-0.005,0.249-0.005,0.326
			c-0.007,0.049-0.011,0.123-0.011,0.221c0,0.098-0.003,0.172-0.011,0.221c-0.014,0.224-0.028,0.568-0.042,1.03
			c-0.007,0.168-0.011,0.41-0.011,0.725c0.378-0.042,0.75-0.063,1.114-0.063c0.273,0,0.54,0.01,0.799,0.032
			c0.14,0.014,0.252,0.021,0.336,0.021c0.266,0,0.459,0.046,0.578,0.137c0.07,0.049,0.116,0.13,0.137,0.242
			c-0.07,0.189-0.263,0.291-0.578,0.305c-0.119,0.007-0.256,0-0.41-0.021c-0.364-0.035-0.571-0.053-0.62-0.053
			c-0.084,0-0.147,0.004-0.189,0.011l-0.389,0.032l-0.389,0.032c-0.168,0.014-0.287,0.021-0.357,0.021
			c-0.126,0-0.273-0.039-0.442-0.116c-0.182-0.084-0.287-0.168-0.315-0.252c-0.042-0.14-0.063-0.301-0.063-0.483
			c0-0.364,0.021-0.753,0.063-1.167c0.014-0.266,0.021-0.459,0.021-0.578c0.014-0.483,0.028-0.841,0.042-1.072
			c0.021-0.448,0.032-0.946,0.032-1.492c0-0.49-0.007-0.869-0.021-1.135l-0.074-1.576c0.021-0.063,0.039-0.238,0.052-0.525
			c0-0.231,0.028-0.406,0.084-0.525c0.224-0.028,0.466-0.039,0.725-0.032c0.196,0.014,0.347,0.021,0.452,0.021
			c0.042,0,0.102-0.002,0.179-0.005c0.077-0.004,0.133-0.005,0.168-0.005c0.301-0.021,0.62-0.032,0.956-0.032
			c0.294,0,0.55,0.014,0.767,0.042c0.119,0.021,0.273,0.081,0.462,0.179c0.014,0.098,0.021,0.161,0.021,0.189
			c0,0.154-0.06,0.259-0.179,0.315c-0.105,0.042-0.319,0.063-0.641,0.063h-0.546c-0.133,0.007-0.329,0.011-0.589,0.011
			C91.351,78.728,90.98,78.721,90.545,78.707z"/>
		<path fill="#ffffff" d="M98.617,78.434c0.056-0.091,0.161-0.137,0.315-0.137h0.042c0.126,0,0.224,0.035,0.294,0.105
			c0.049,0.049,0.074,0.172,0.074,0.368c0,0.091-0.002,0.224-0.005,0.399s-0.009,0.305-0.016,0.389v0.599
			c0.007,0.105,0.011,0.266,0.011,0.484c0,0.273-0.003,0.476-0.011,0.61c-0.028,0.371-0.046,0.669-0.052,0.893
			c-0.021,0.575-0.032,1.135-0.032,1.682c0,0.715,0.021,1.398,0.063,2.049c-0.028,0.161-0.046,0.305-0.053,0.431
			c-0.021,0.161-0.052,0.305-0.095,0.431c-0.084,0.196-0.203,0.294-0.357,0.294c-0.084,0-0.165-0.018-0.242-0.053
			c-0.035-1.121-0.053-2.204-0.053-3.247c0-0.392,0.025-0.869,0.074-1.429c0.035-0.568,0.049-1.03,0.042-1.387
			c-0.084,0.168-0.196,0.441-0.336,0.82c-0.238,0.645-0.459,1.167-0.662,1.566c-0.287,0.554-0.596,1.212-0.925,1.976
			c-0.196,0.455-0.41,0.855-0.641,1.198c-0.112,0.161-0.196,0.266-0.252,0.315c-0.084,0.077-0.2,0.133-0.347,0.168
			c-0.049,0.021-0.098,0.032-0.147,0.032c-0.091,0-0.172-0.032-0.242-0.095c-0.007-0.147,0.003-0.298,0.032-0.452
			c0.014-0.112,0.028-0.273,0.042-0.483c0.042-0.764,0.07-1.706,0.084-2.827c0-1.037,0.025-1.972,0.074-2.806
			c0.028-0.329,0.042-0.687,0.042-1.072c0-0.35,0.032-0.683,0.095-0.998c0.14-0.07,0.263-0.105,0.368-0.105
			c0.07,0,0.133,0.021,0.189,0.063c0.042,0.084,0.063,0.179,0.063,0.284c0,0.007-0.011,0.105-0.032,0.294
			c0,0.014-0.005,0.049-0.016,0.105c-0.011,0.056-0.016,0.098-0.016,0.126c-0.049,0.631-0.077,1.167-0.084,1.608
			c-0.035,0.89-0.06,1.878-0.074,2.964c-0.014,0.694-0.028,1.216-0.042,1.566c0.252-0.547,0.532-1.114,0.841-1.703l0.767-1.566
			C97.93,80.736,98.336,79.583,98.617,78.434z M96.452,76.626c0.168,0.301,0.469,0.452,0.904,0.452c0.497,0,0.792-0.151,0.883-0.452
			h0.126c-0.028,0.287-0.138,0.524-0.331,0.709c-0.193,0.186-0.426,0.279-0.699,0.279c-0.252,0-0.475-0.093-0.667-0.279
			c-0.193-0.186-0.303-0.422-0.331-0.709H96.452z"/>
		<path fill="#ffffff" d="M104.933,86.8c-0.084,0.063-0.2,0.095-0.347,0.095c-0.175,0-0.322-0.039-0.441-0.116
			c-0.056-0.294-0.084-0.75-0.084-1.366v-0.704c0-0.287-0.003-0.49-0.011-0.61c-0.224-0.042-0.459-0.063-0.704-0.063
			c-0.098,0-0.245,0.007-0.441,0.021c-0.021,0-0.056,0.002-0.105,0.005c-0.049,0.004-0.088,0.005-0.116,0.005
			c-0.308,0.028-0.536,0.046-0.683,0.053c-0.168,0.014-0.294,0.021-0.378,0.021c-0.028,0-0.07-0.002-0.126-0.005
			c-0.056-0.004-0.098-0.005-0.126-0.005c-0.007,0.105-0.011,0.28-0.011,0.525c0,0.35,0.014,0.848,0.042,1.492
			c0,0.049,0.003,0.116,0.011,0.2c0.007,0.084,0.011,0.151,0.011,0.2c0,0.175-0.081,0.277-0.242,0.305
			c-0.028,0.007-0.074,0.011-0.137,0.011c-0.091,0-0.189-0.018-0.294-0.053c-0.063-0.028-0.119-0.06-0.168-0.095
			c-0.07-0.49-0.105-1.082-0.105-1.776c0-0.224,0.007-0.561,0.021-1.009c0.028-0.799,0.042-1.359,0.042-1.682
			c0-0.322-0.011-0.599-0.032-0.83c0-0.028,0.002-0.075,0.005-0.142c0.003-0.067,0.005-0.121,0.005-0.163
			c0-0.098-0.007-0.273-0.021-0.525c0-0.056-0.007-0.137-0.021-0.242c-0.014-0.105-0.021-0.182-0.021-0.231
			c-0.014-0.21-0.021-0.357-0.021-0.441c0-0.182,0.003-0.312,0.011-0.389c0-0.035,0.002-0.089,0.005-0.163
			c0.003-0.074,0.009-0.128,0.016-0.163c0-0.133,0.003-0.231,0.011-0.294c0-0.063-0.007-0.158-0.021-0.284
			c0-0.028-0.002-0.068-0.005-0.121c-0.004-0.053-0.005-0.089-0.005-0.11c0-0.07,0.01-0.133,0.032-0.189
			c0.049-0.126,0.168-0.189,0.357-0.189c0.175,0.014,0.305,0.084,0.389,0.21c0.077,0.119,0.116,0.28,0.116,0.483
			c0,0.147-0.007,0.354-0.021,0.62c0,0.049-0.002,0.123-0.005,0.221c-0.004,0.098-0.005,0.172-0.005,0.221
			c0,0.147,0.007,0.354,0.021,0.62c0.07,1.079,0.105,1.888,0.105,2.428c0,0.28-0.01,0.557-0.032,0.83
			c0.427,0.007,0.862-0.014,1.303-0.063c0.259-0.028,0.561-0.042,0.904-0.042c0.21,0,0.368,0.004,0.473,0.011
			c0.07-0.799,0.126-1.598,0.168-2.396c0.028-0.694,0.042-1.517,0.042-2.47c0-0.035-0.002-0.096-0.005-0.184
			c-0.003-0.088-0.005-0.156-0.005-0.205c0-0.112,0.046-0.203,0.137-0.273c0.112-0.028,0.193-0.042,0.242-0.042
			c0.133,0,0.247,0.035,0.342,0.105c0.095,0.07,0.145,0.165,0.152,0.284c0.007,0.077,0.01,0.2,0.01,0.368
			c0,0.238-0.01,0.487-0.032,0.746c-0.042,0.54-0.06,0.946-0.052,1.219c0,0.042,0.002,0.109,0.005,0.2
			c0.003,0.091,0.005,0.158,0.005,0.2c0,0.56-0.052,1.335-0.158,2.323v0.484c0,0.553-0.004,0.977-0.011,1.272
			c-0.007,0.21-0.011,0.525-0.011,0.946C104.912,86.103,104.919,86.407,104.933,86.8z"/>
		<path fill="#ffffff" d="M106.877,81.713c0.533,0.126,0.972,0.298,1.319,0.515c0.347,0.217,0.622,0.518,0.825,0.904
			c0.224,0.413,0.336,0.858,0.336,1.335c0,0.063-0.007,0.165-0.021,0.305c-0.049,0.659-0.245,1.174-0.589,1.545
			c-0.343,0.371-0.82,0.571-1.429,0.599c-0.021,0-0.049,0.002-0.084,0.005c-0.035,0.004-0.063,0.005-0.084,0.005
			c-0.063,0-0.137-0.007-0.221-0.021c-0.084-0.021-0.217-0.039-0.399-0.053c-0.014,0-0.049,0.007-0.105,0.021
			c-0.105,0.021-0.2,0.028-0.284,0.021c-0.126-0.014-0.186-0.105-0.179-0.273c0.007-0.063,0.01-0.14,0.01-0.231
			c0-0.497-0.007-1.132-0.021-1.902c0-0.056-0.002-0.145-0.005-0.268c-0.003-0.123-0.005-0.215-0.005-0.278
			c0-0.063,0.002-0.159,0.005-0.289c0.003-0.13,0.005-0.229,0.005-0.3c0.021-0.813,0.052-1.647,0.095-2.501
			c0.042-0.862,0.063-1.576,0.063-2.144c0-0.28,0.049-0.55,0.147-0.809h0.21h0.053c0.056,0,0.112,0.011,0.168,0.032
			c0.168,0.056,0.27,0.231,0.305,0.525c-0.028,0.273-0.049,0.536-0.063,0.788c-0.021,0.336-0.032,0.862-0.032,1.576
			c-0.007,0.098-0.012,0.245-0.016,0.441C106.879,81.457,106.877,81.608,106.877,81.713z M108.516,84.519
			c0-0.49-0.116-0.925-0.347-1.303c-0.287-0.469-0.708-0.722-1.261-0.757c0,0.112-0.002,0.275-0.005,0.489
			c-0.003,0.214-0.009,0.373-0.016,0.478c-0.014,0.827-0.021,1.454-0.021,1.881c0,0.203,0.007,0.536,0.021,0.998
			c0.112,0.028,0.231,0.042,0.357,0.042c0.414,0,0.736-0.193,0.967-0.578C108.415,85.42,108.516,85.003,108.516,84.519z
			 M110.818,86.758c-0.084,0.084-0.207,0.126-0.368,0.126c-0.14,0-0.238-0.039-0.294-0.116c-0.049-0.07-0.074-0.224-0.074-0.462
			c0-0.133,0.004-0.235,0.011-0.305v-0.242c0.014-0.561,0.021-0.984,0.021-1.272c0-0.287-0.007-0.725-0.021-1.314
			c-0.007-0.266-0.011-0.666-0.011-1.198c0-0.645,0.007-1.128,0.021-1.45c0.007-0.357,0.028-0.711,0.063-1.061
			c0.021-0.217,0.032-0.445,0.032-0.683c0-0.175-0.003-0.305-0.01-0.389l-0.032-0.347c-0.014-0.084,0.005-0.156,0.058-0.215
			c0.052-0.06,0.121-0.093,0.205-0.1c0.154,0,0.301,0.07,0.442,0.21c0.063,0.07,0.098,0.14,0.105,0.21
			c0.028,0.133,0.038,0.298,0.032,0.494c-0.042,0.399-0.063,0.785-0.063,1.156l-0.032,0.525c0,0.063-0.002,0.154-0.005,0.273
			c-0.004,0.119-0.005,0.207-0.005,0.263c0,0.056,0.002,0.144,0.005,0.263c0.003,0.119,0.005,0.207,0.005,0.263
			c0.007,0.112,0.011,0.291,0.011,0.536c0,0.245-0.003,0.431-0.011,0.557c-0.007,0.525-0.024,1.251-0.052,2.176
			c-0.021,0.539-0.032,1.068-0.032,1.587V86.758z"/>
		<path fill="#ffffff" d="M115.726,78.434c0.056-0.091,0.161-0.137,0.315-0.137h0.042c0.126,0,0.224,0.035,0.294,0.105
			c0.049,0.049,0.074,0.172,0.074,0.368c0,0.091-0.002,0.224-0.005,0.399s-0.009,0.305-0.016,0.389v0.599
			c0.007,0.105,0.011,0.266,0.011,0.484c0,0.273-0.003,0.476-0.011,0.61c-0.028,0.371-0.046,0.669-0.052,0.893
			c-0.021,0.575-0.032,1.135-0.032,1.682c0,0.715,0.021,1.398,0.063,2.049c-0.028,0.161-0.046,0.305-0.053,0.431
			c-0.021,0.161-0.052,0.305-0.095,0.431c-0.084,0.196-0.203,0.294-0.357,0.294c-0.084,0-0.165-0.018-0.242-0.053
			c-0.035-1.121-0.053-2.204-0.053-3.247c0-0.392,0.025-0.869,0.074-1.429c0.035-0.568,0.049-1.03,0.042-1.387
			c-0.084,0.168-0.196,0.441-0.336,0.82c-0.238,0.645-0.459,1.167-0.662,1.566c-0.287,0.554-0.596,1.212-0.925,1.976
			c-0.196,0.455-0.41,0.855-0.641,1.198c-0.112,0.161-0.196,0.266-0.252,0.315c-0.084,0.077-0.2,0.133-0.347,0.168
			c-0.049,0.021-0.098,0.032-0.147,0.032c-0.091,0-0.172-0.032-0.242-0.095c-0.007-0.147,0.003-0.298,0.032-0.452
			c0.014-0.112,0.028-0.273,0.042-0.483c0.042-0.764,0.07-1.706,0.084-2.827c0-1.037,0.025-1.972,0.074-2.806
			c0.028-0.329,0.042-0.687,0.042-1.072c0-0.35,0.032-0.683,0.095-0.998c0.14-0.07,0.263-0.105,0.368-0.105
			c0.07,0,0.133,0.021,0.189,0.063c0.042,0.084,0.063,0.179,0.063,0.284c0,0.007-0.011,0.105-0.032,0.294
			c0,0.014-0.005,0.049-0.016,0.105c-0.011,0.056-0.016,0.098-0.016,0.126c-0.049,0.631-0.077,1.167-0.084,1.608
			c-0.035,0.89-0.06,1.878-0.074,2.964c-0.014,0.694-0.028,1.216-0.042,1.566c0.252-0.547,0.532-1.114,0.841-1.703l0.767-1.566
			C115.039,80.736,115.446,79.583,115.726,78.434z M113.561,76.626c0.168,0.301,0.469,0.452,0.904,0.452
			c0.497,0,0.792-0.151,0.883-0.452h0.126c-0.028,0.287-0.138,0.524-0.331,0.709c-0.193,0.186-0.426,0.279-0.699,0.279
			c-0.252,0-0.475-0.093-0.667-0.279c-0.193-0.186-0.303-0.422-0.331-0.709H113.561z"/>
		<path fill="#ffffff" d="M126.467,84.467c0,0.063-0.007,0.165-0.021,0.305c-0.049,0.659-0.245,1.174-0.589,1.545
			c-0.343,0.371-0.82,0.571-1.429,0.599c-0.021,0-0.049,0.002-0.084,0.005c-0.035,0.004-0.063,0.005-0.084,0.005
			c-0.063,0-0.137-0.007-0.221-0.021c-0.084-0.021-0.217-0.039-0.399-0.053c-0.014,0-0.049,0.007-0.105,0.021
			c-0.105,0.021-0.2,0.028-0.284,0.021c-0.126-0.014-0.186-0.105-0.179-0.273c0.007-0.063,0.01-0.14,0.01-0.231
			c0-0.497-0.007-1.132-0.021-1.902c0-0.056-0.002-0.145-0.005-0.268c-0.003-0.123-0.005-0.215-0.005-0.278
			c0-0.063,0.002-0.159,0.005-0.289c0.003-0.13,0.005-0.229,0.005-0.3c0.021-0.813,0.053-1.647,0.095-2.501
			c0.042-0.862,0.063-1.576,0.063-2.144c0-0.161,0.014-0.308,0.042-0.441v-0.032c0-0.07,0.009-0.13,0.026-0.179
			c0.017-0.049,0.033-0.088,0.047-0.116s0.021-0.046,0.021-0.053h0.473c0.112,0.014,0.217,0.021,0.315,0.021h0.378
			c0.196,0,0.469,0.007,0.82,0.021c0.056,0.007,0.14,0.01,0.252,0.01c0.161,0,0.277,0.035,0.347,0.105
			c0.056,0.056,0.084,0.144,0.084,0.263c0,0.042-0.004,0.074-0.011,0.095c-0.028,0.07-0.046,0.126-0.053,0.168
			c-0.091,0.091-0.256,0.13-0.494,0.116c-0.098,0-0.2-0.01-0.305-0.032c-0.189-0.028-0.469-0.053-0.841-0.074h-0.079h-0.084h-0.068
			c-0.021,0.14-0.038,0.361-0.052,0.662c-0.021,0.336-0.032,0.862-0.032,1.576c-0.007,0.098-0.012,0.245-0.016,0.441
			c-0.003,0.196-0.005,0.347-0.005,0.452c0.533,0.126,0.972,0.298,1.319,0.515c0.347,0.217,0.622,0.518,0.825,0.904
			C126.354,83.545,126.467,83.99,126.467,84.467z M125.626,84.519c0-0.49-0.116-0.925-0.347-1.303
			c-0.287-0.469-0.708-0.722-1.261-0.757c0,0.112-0.002,0.275-0.005,0.489c-0.003,0.214-0.009,0.373-0.016,0.478
			c-0.014,0.827-0.021,1.454-0.021,1.881c0,0.203,0.007,0.536,0.021,0.998c0.112,0.028,0.231,0.042,0.357,0.042
			c0.414,0,0.736-0.193,0.967-0.578C125.524,85.42,125.626,85.003,125.626,84.519z"/>
		<path fill="#ffffff" d="M130.797,85.497c-0.21-0.063-0.459-0.095-0.746-0.095c-0.063,0-0.161,0.002-0.294,0.005
			c-0.133,0.004-0.235,0.005-0.305,0.005c-0.049,0-0.126-0.002-0.231-0.005c-0.105-0.003-0.186-0.005-0.242-0.005
			c-0.063,0.112-0.098,0.238-0.105,0.378c-0.063,0.484-0.116,0.792-0.158,0.925c-0.049,0.133-0.126,0.221-0.231,0.263
			c-0.056,0.014-0.095,0.021-0.116,0.021c-0.084,0-0.172-0.028-0.263-0.084c-0.147-0.091-0.224-0.175-0.231-0.252
			c-0.014-0.056-0.021-0.105-0.021-0.147c0-0.098,0.025-0.231,0.074-0.399l0.095-0.305c0.042-0.126,0.066-0.221,0.074-0.284
			c0.042-0.266,0.066-0.473,0.074-0.62c0.007-0.14,0.032-0.329,0.074-0.568c0.077-0.42,0.21-1.016,0.399-1.787l0.105-0.42
			c0.238-0.953,0.399-1.657,0.484-2.112l0.063-0.315l0.158-0.788c0.056-0.294,0.168-0.641,0.336-1.04
			c0.084-0.028,0.147-0.042,0.189-0.042c0.105,0,0.214,0.046,0.326,0.137c0.119,0.119,0.214,0.273,0.284,0.462
			c0.014,0.035,0.03,0.086,0.047,0.152l0.037,0.142l0.105,0.357c0.084,0.287,0.14,0.557,0.168,0.809
			c0.014,0.084,0.052,0.333,0.116,0.746c0.063,0.406,0.133,0.96,0.21,1.661l0.094,0.893l0.095,0.862
			c0.021,0.308,0.056,0.571,0.105,0.788c0.014,0.063,0.035,0.119,0.063,0.168c0.042,0.098,0.063,0.172,0.063,0.221
			c0,0.014-0.007,0.042-0.021,0.084c-0.021,0.042-0.031,0.095-0.031,0.158c0,0.112,0.017,0.245,0.053,0.399
			c0.098,0.385,0.14,0.645,0.126,0.778c-0.007,0.098-0.051,0.173-0.131,0.226c-0.081,0.053-0.163,0.075-0.247,0.068
			c-0.14,0-0.259-0.042-0.357-0.126c-0.042-0.028-0.077-0.067-0.105-0.116c-0.077-0.14-0.116-0.343-0.116-0.61
			C130.846,85.77,130.825,85.574,130.797,85.497z M130.702,84.75c-0.07-0.525-0.119-0.949-0.147-1.272
			c-0.098-0.995-0.196-1.871-0.294-2.627c-0.035-0.308-0.102-0.729-0.2-1.261c-0.07,0.638-0.231,1.489-0.483,2.554
			c-0.28,1.128-0.462,1.997-0.546,2.606c0.077,0.007,0.2,0.01,0.368,0.01c0.182,0,0.319-0.003,0.41-0.01
			c0.322-0.014,0.62,0.003,0.893,0.053V84.75z"/>
		<path fill="#ffffff" d="M133.865,83.048c0,0.105,0.002,0.256,0.005,0.452c0.003,0.196,0.009,0.343,0.016,0.441
			c0,0.715,0.01,1.24,0.031,1.576c0.014,0.252,0.035,0.515,0.063,0.788c-0.035,0.294-0.137,0.47-0.305,0.525
			c-0.056,0.021-0.112,0.032-0.168,0.032h-0.053h-0.21c-0.098-0.259-0.147-0.529-0.147-0.809c0-0.568-0.021-1.282-0.063-2.144
			c-0.042-0.855-0.074-1.689-0.095-2.501c0-0.07-0.002-0.17-0.005-0.299c-0.003-0.13-0.005-0.226-0.005-0.289
			c0-0.063,0.002-0.156,0.005-0.279s0.005-0.212,0.005-0.268c0.014-0.771,0.021-1.405,0.021-1.902c0-0.091-0.003-0.168-0.01-0.231
			c-0.007-0.168,0.052-0.259,0.179-0.273c0.084-0.007,0.179,0,0.284,0.021c0.056,0.014,0.091,0.021,0.105,0.021
			c0.182-0.014,0.315-0.032,0.399-0.053c0.084-0.014,0.158-0.021,0.221-0.021c0.021,0,0.049,0.002,0.084,0.005
			c0.035,0.004,0.063,0.005,0.084,0.005c0.61,0.028,1.086,0.228,1.429,0.599c0.343,0.371,0.54,0.886,0.589,1.545
			c0.014,0.14,0.021,0.242,0.021,0.305c0,0.476-0.112,0.921-0.336,1.335c-0.203,0.385-0.478,0.687-0.825,0.904
			C134.837,82.75,134.398,82.922,133.865,83.048z M135.505,80.242c0-0.483-0.102-0.9-0.305-1.251
			c-0.231-0.385-0.553-0.578-0.967-0.578c-0.126,0-0.245,0.014-0.357,0.042c-0.014,0.462-0.021,0.795-0.021,0.998
			c0,0.427,0.007,1.054,0.021,1.881c0.007,0.105,0.012,0.265,0.016,0.478c0.004,0.214,0.005,0.377,0.005,0.489
			c0.554-0.035,0.974-0.287,1.261-0.757C135.389,81.167,135.505,80.732,135.505,80.242z"/>
	</g>
	<path fill-rule="evenodd" clip-rule="evenodd" fill="none" stroke="#ffffff" stroke-miterlimit="10" d="M141.407,83.329
		c2.423-0.117,4.746,0.399,7.147,0.469"/>
	<path fill-rule="evenodd" clip-rule="evenodd" fill="none" stroke="#ffffff" stroke-miterlimit="10" d="M10.029,83.607
		c2.423,0.117,4.746-0.399,7.147-0.469"/>
</g>
<g>
	<path fill-rule="evenodd" clip-rule="evenodd" fill="#ffffff" d="M91.888,10.655c-0.453-0.127-0.718-0.6-0.591-1.053
		c0.127-0.453,0.6-0.718,1.053-0.591l16.375,3.226l0.098,0.034l14.258,4.502l15.835,2.413c0.235,0.035,0.432,0.163,0.562,0.342
		l0.001,0l11.619,15.996c0.231,0.319,0.209,0.743-0.027,1.035l-11.897,14.731c-0.095,0.119-0.218,0.205-0.351,0.256l0.001,0.002
		l-9.997,3.972c-0.128,0.05-0.26,0.068-0.389,0.057l-10.824-0.184l-12.396,4.084c-0.071,0.024-0.144,0.036-0.217,0.041
		l-12.404,1.241l-12.443,4.098c-0.192,0.063-0.393,0.055-0.569-0.013l-14.232-4.495l-14.262-0.234
		c-0.082-0.002-0.161-0.014-0.236-0.037l-0.001,0.002l-14.363-4.464l-17.341-3.159c-0.227-0.041-0.417-0.168-0.542-0.342
		L5.509,35.642c-0.256-0.322-0.241-0.773,0.015-1.076l-0.002-0.002L17.42,20.415c0.139-0.166,0.328-0.265,0.526-0.294l12.928-2.669
		l11.762-3.295c0.046-0.012,0.091-0.021,0.137-0.026l0-0.001l11.68-1.31l12.623-3.72c0.443-0.158,0.932,0.074,1.09,0.517
		c0.158,0.443-0.074,0.932-0.517,1.09l-12.71,3.752c-0.063,0.022-0.128,0.038-0.198,0.045l-11.715,1.314l-11.708,3.281l0-0.001
		l-0.06,0.014l-12.721,2.626L7.276,35.131l12.493,15.703l17.038,3.103c0.051,0.006,0.103,0.017,0.154,0.033l14.29,4.441
		l14.254,0.234c0.08,0.001,0.161,0.014,0.24,0.039l14.135,4.463l12.269-4.04v0.001c0.059-0.019,0.121-0.033,0.184-0.039
		l12.436-1.244l12.444-4.099l0.001,0.002c0.088-0.029,0.182-0.044,0.28-0.042l10.857,0.184l9.638-3.829l11.344-14.047l-11.026-15.18
		l-15.544-2.368v-0.001c-0.043-0.006-0.084-0.016-0.127-0.029l-14.333-4.526l-0.04-0.009L91.888,10.655z"/>
	<path fill="none" d="M92.35,9.011l-0.462,1.644L92.35,9.011z"/>
	<path fill="#ffffff" d="M67.648,10.707L79.388,6.72l12.5,3.935l0.462-1.644c0,0-12.419-4.159-12.968-4.157
		C78.75,4.855,67.075,9.099,67.075,9.099L67.648,10.707z"/>
</g>
<path fill-rule="evenodd" clip-rule="evenodd" fill="#ffffff" d="M29.88,43.489c-0.087-0.111-0.312-0.403-0.693-0.839
	c-0.104-0.12-0.582-0.728-1.399-1.781c-0.805-1.036-1.997-2.484-3.526-4.291c-0.152-0.179-0.431-0.529-0.814-1.036
	c0.335-0.439,0.601-0.776,0.79-1c0.381-0.452,1.157-1.285,2.295-2.543c1.166-1.29,1.923-2.159,2.284-2.563
	c0.376-0.422,0.591-0.711,0.682-0.827c0.479-0.613,0.752-1.103,0.788-1.479c-0.096-0.075-0.172-0.174-0.215-0.289
	c-0.025-0.072-0.079-0.114-0.166-0.158c-0.186-0.094-0.377-0.141-0.598-0.049c-0.289,0.121-0.571,0.441-0.896,0.875
	c-0.318,0.42-0.51,0.608-0.527,0.627c-2.336,2.769-3.693,4.31-4.052,4.743c-0.247,0.296-0.503,0.584-0.754,0.875
	c-0.131,0.132-0.25,0.263-0.37,0.388c-0.152,0.158-0.253,0.268-0.299,0.319c-0.022,0.025-0.049,0.056-0.072,0.083
	c-0.012-0.162-0.023-0.319-0.023-0.481c0-0.108-0.009-0.276-0.012-0.5c-0.005-0.227-0.012-0.393-0.012-0.503
	c0-0.105,0.007-0.279,0.012-0.5c0.004-0.23,0.007-0.405,0.012-0.526c0.015-0.334,0.065-0.67,0.071-1.007
	c0.014-0.709,0.073-1.449,0.143-2.228c0.034-0.371-0.026-0.69-0.071-0.935c-0.023-0.127-0.092-0.263-0.24-0.368
	c-0.303-0.217-0.648-0.297-0.993-0.238c-0.191,0.034-0.346,0.136-0.466,0.268c-0.116,0.127-0.149,0.268-0.131,0.413
	c0.026,0.208,0.047,0.426,0.072,0.631c0.019,0.152,0.024,0.394,0.024,0.718c0,0.439-0.028,0.865-0.073,1.269
	c-0.071,0.656-0.12,1.318-0.143,1.972c-0.021,0.596-0.035,1.488-0.035,2.675c0,0.982-0.002,1.72,0.012,2.205
	c0.03,1.086,0.048,1.893,0.048,2.424c0,0.53-0.02,1.312-0.048,2.341c-0.004,0.147,0.004,0.299,0,0.443
	c-0.005,0.125-0.012,0.315-0.012,0.563c0,0.436,0.047,0.734,0.155,0.877c0.127,0.167,0.348,0.272,0.669,0.326
	c0.357,0.059,0.634,0.03,0.825-0.101c0-0.327,0-0.655,0-0.981c0-1,0.027-2.005,0.072-3.009c0.07-1.611,0.107-2.86,0.12-3.742
	c0.035,0.041,0.078,0.078,0.119,0.12c0.052,0.053,0.147,0.162,0.299,0.323c0.12,0.125,0.24,0.255,0.371,0.383
	c0.252,0.29,0.51,0.574,0.754,0.872c0.064,0.079,0.457,0.563,1.171,1.458c0.682,0.856,1.368,1.741,2.045,2.644
	c0.636,0.851,1.043,1.403,1.196,1.601c0.012,0.015,0.211,0.213,0.525,0.634c0.329,0.44,0.607,0.769,0.897,0.894
	c0.21,0.09,0.417,0.058,0.597-0.041c0.08-0.044,0.135-0.091,0.156-0.162c0.036-0.119,0.12-0.214,0.215-0.293
	C30.634,44.607,30.364,44.11,29.88,43.489L29.88,43.489z M42.947,37.913c-0.031,0.799-0.148,1.718-0.311,2.746
	c-0.049,0.31-0.098,0.785-0.167,1.41c-0.083,0.761-0.243,1.445-0.478,2.025c-0.191,0.472-0.441,0.921-0.73,1.334
	c-0.14,0.199-0.275,0.357-0.382,0.466c-0.594,0.598-1.34,0.978-2.224,1.127c-0.427,0.072-0.84,0.071-1.208,0.012
	c-0.61-0.097-1.146-0.371-1.614-0.781c-0.281-0.247-0.586-0.622-0.884-1.124c-0.296-0.494-0.51-0.961-0.658-1.386
	c-0.326-0.939-0.553-2.18-0.621-3.712c-0.037-0.846-0.027-1.5-0.024-1.953c0.005-0.666,0-1.335,0-2.003c0-0.286,0-0.567,0-0.853
	c0-1.593,0.05-2.929,0.143-3.997c0.093-1.078,0.333-2.069,0.669-2.976c0.414-1.118,1.011-2.045,1.77-2.766
	c0.529-0.503,1.054-0.806,1.59-0.893c0.441-0.071,0.913,0,1.376,0.247c0.478,0.256,0.861,0.523,1.16,0.763
	c0.558,0.447,0.878,0.731,0.956,0.848c0.207,0.315,0.447,1.121,0.777,2.386c0.108,0.415,0.224,0.847,0.286,1.3
	c0.055,0.386,0.157,0.862,0.264,1.428c0.2,1.046,0.311,2.693,0.311,4.929c0,0.439,0,0.876,0,1.315
	C42.947,37.838,42.949,37.878,42.947,37.913L42.947,37.913z M36.324,28.208c-0.322,0.778-0.564,1.676-0.718,2.679
	c-0.153,0.998-0.226,2.123-0.226,3.366c0,0.519,0.015,0.911,0.023,1.176c0.012,0.404,0.023,1.006,0.023,1.808
	c0,0.988,0.063,2.243,0.168,3.775c0.047,0.685,0.169,1.32,0.312,1.92c0.082,0.35,0.225,0.831,0.49,1.402
	c0.28,0.602,0.569,0.97,0.837,1.138c0.123,0.077,0.277,0.145,0.442,0.168c0.477,0.07,0.955-0.13,1.422-0.584
	c0.581-0.567,0.992-1.187,1.209-1.861c0.126-0.397,0.237-1.218,0.382-2.453c0.198-1.667,0.335-3.002,0.335-4.001
	c0-0.09-0.002-0.227-0.012-0.409c-0.01-0.179-0.01-0.319-0.012-0.41c-0.007-0.217-0.014-0.532-0.024-0.949
	c-0.046-1.664-0.188-2.957-0.383-3.863c-0.088-0.409-0.157-0.756-0.191-1.04c-0.047-0.389-0.203-1.107-0.467-2.133
	c-0.151-0.586-0.407-0.953-0.741-1.087c-0.165-0.065-0.351-0.079-0.514-0.086c-0.622-0.027-0.993-0.084-1.124-0.117
	c-0.25,0.207-0.466,0.462-0.634,0.752C36.782,27.637,36.587,27.908,36.324,28.208L36.324,28.208z M55.8,32.322
	c-0.119-0.523-0.216-0.92-0.262-1.179c-0.068-0.393-0.187-0.747-0.287-1.074c-0.325-1.063-0.569-1.748-0.777-2.006
	c-0.038-0.048-0.35-0.301-0.944-0.721c-0.263-0.185-0.655-0.401-1.16-0.654c-0.064-0.033-0.143-0.046-0.215-0.072
	c0.013-0.401,0.074-1.009,0.12-1.825c0.034-0.593-0.02-1.095-0.071-1.487c-0.027-0.204-0.09-0.42-0.24-0.598
	c-0.313-0.377-0.651-0.545-0.993-0.474c-0.193,0.04-0.349,0.178-0.466,0.372c-0.119,0.197-0.155,0.417-0.131,0.657
	c0.032,0.34,0.053,0.684,0.071,1.019c0.013,0.245,0.024,0.631,0.024,1.149s-0.012,0.902-0.024,1.154
	c-0.347,0.123-0.695,0.318-1.039,0.579c-0.776,0.587-1.37,1.359-1.781,2.295c-0.337,0.768-0.583,1.599-0.67,2.498
	c-0.087,0.892-0.131,2.029-0.131,3.396c0,0.238,0,0.477,0,0.714c0,0.564,0.012,1.133,0,1.695c-0.008,0.373-0.013,0.927,0.024,1.638
	c0.067,1.313,0.282,2.362,0.61,3.148c0.145,0.349,0.376,0.735,0.681,1.148c0.301,0.409,0.583,0.74,0.86,0.944
	c0.4,0.295,0.826,0.473,1.257,0.541c-0.013,0.301-0.024,0.602-0.024,0.899c0,0.241,0.004,0.479,0,0.717
	c-0.004,0.202-0.024,0.504-0.024,0.894c0,0.702,0.058,1.178,0.169,1.398c0.125,0.248,0.348,0.402,0.669,0.455
	c0.356,0.059,0.634-0.019,0.825-0.244c0-0.514,0-1.033,0-1.552c0-0.856,0.012-1.705,0.023-2.562c0.873-0.139,1.6-0.446,2.153-0.958
	c0.125-0.116,0.266-0.244,0.383-0.388c0.321-0.395,0.585-0.766,0.741-1.112c0.235-0.519,0.38-1.098,0.466-1.682
	c0.077-0.528,0.114-0.929,0.167-1.189c0.171-0.837,0.28-1.593,0.312-2.284c0-0.015,0-0.042,0-0.067c0-0.365,0-0.73,0-1.098
	C56.113,34.565,56,33.195,55.8,32.322L55.8,32.322z M53.853,39.956c-0.145,1.023-0.245,1.719-0.371,2.049
	c-0.216,0.565-0.619,1.096-1.208,1.566c-0.112,0.089-0.238,0.168-0.358,0.251c0-0.286,0.019-0.574,0.024-0.856
	c0.061-2.782,0.092-4.976,0.119-6.557c0.006-0.38,0.024-0.942,0.024-1.686c0-0.74-0.019-1.283-0.024-1.619
	c-0.002-0.167-0.008-0.436-0.012-0.794c-0.004-0.357-0.012-0.626-0.012-0.796c0-0.165,0.008-0.433,0.012-0.793
	c0.004-0.357,0.007-0.635,0.012-0.822c0.014-0.534,0.048-1.064,0.071-1.597c0.073,0.027,0.159,0.051,0.24,0.075
	c0.31,0.096,0.567,0.399,0.73,0.902c0.287,0.894,0.436,1.508,0.477,1.803c0.026,0.19,0.101,0.479,0.193,0.865
	c0.178,0.748,0.326,1.819,0.37,3.205c0.011,0.346,0.019,0.61,0.024,0.781c0.001,0.064,0.008,0.178,0.012,0.331
	c0.003,0.148,0.012,0.267,0.012,0.353C54.187,37.443,54.051,38.553,53.853,39.956L53.853,39.956z M49.573,43.007
	c-0.272-0.472-0.425-0.876-0.503-1.176c-0.133-0.509-0.266-1.042-0.312-1.612c-0.105-1.283-0.168-2.341-0.168-3.174
	c0-0.669-0.004-1.178-0.023-1.522c-0.012-0.219-0.023-0.556-0.023-1.003c0-2.085,0.323-3.768,0.956-5.06
	c0.228-0.222,0.433-0.45,0.587-0.666c0.092-0.129,0.179-0.233,0.238-0.3c-0.024,0.706-0.048,1.416-0.071,2.123
	c-0.032,0.95-0.049,2.379-0.049,4.284c0,1.573,0.011,2.757,0.024,3.539c0.03,1.739,0.048,3.04,0.048,3.888c0,0.519,0,1.033,0,1.551
	C50.062,43.731,49.822,43.44,49.573,43.007L49.573,43.007z M61.636,23.771c-0.035,0.478-0.048,1.255-0.048,2.345
	c0,1.274,0.03,2.641,0.071,4.099c0.051,1.818,0.072,3.627,0.072,5.422c0,0.583,0,1.157,0,1.737c0.013,0,0.061,0.013,0.131,0.021
	c0.07,0.011,0.135,0.02,0.179,0.02c0.071,0,0.289-0.022,0.634-0.06c0.523-0.058,1.078-0.086,1.662-0.079
	c0.501,0.007,0.875,0.047,1.088,0.09c0.416,0.087,0.71,0.297,0.884,0.65c0.097,0.195,0.144,0.413,0.144,0.635
	c0,0.275-0.082,0.506-0.216,0.699c-0.149,0.212-0.502,0.276-1.064,0.218c-0.14-0.014-0.359-0.041-0.646-0.098
	c-0.14-0.029-0.314-0.054-0.502-0.06c-0.609-0.021-1.399,0.008-2.343,0.09c-0.012,0.237-0.026,0.592-0.036,1.064
	c-0.009,0.467-0.007,0.84-0.012,1.098c-0.003,0.159-0.023,0.409-0.023,0.74c0,0.33-0.018,0.577-0.024,0.743
	c-0.036,0.747-0.063,1.906-0.096,3.456c-0.012,0.561-0.023,1.376-0.023,2.436c0.859-0.02,1.699,0.03,2.51,0.145
	c0.62,0.087,1.223,0.203,1.806,0.364c0.321,0.089,0.576,0.16,0.765,0.185c0.596,0.083,1.029,0.315,1.302,0.676
	c0.154,0.201,0.252,0.511,0.3,0.92c-0.156,0.658-0.588,0.944-1.303,0.883c-0.26-0.022-0.572-0.116-0.921-0.234
	c-0.819-0.277-1.293-0.4-1.4-0.417c-0.189-0.031-0.337-0.037-0.43-0.037c-0.299,0-0.588-0.023-0.874-0.034
	c-0.298-0.016-0.587-0.029-0.873-0.042c-0.38-0.016-0.659-0.043-0.812-0.067c-0.285-0.046-0.613-0.23-0.992-0.552
	c-0.405-0.343-0.656-0.662-0.718-0.951c-0.1-0.472-0.131-1.014-0.131-1.616c0-1.202,0.055-2.48,0.131-3.835
	c0.05-0.872,0.042-1.518,0.048-1.905c0.025-1.596,0.073-2.78,0.096-3.543c0.045-1.483,0.072-3.129,0.072-4.941
	c0-1.623-0.016-2.88-0.048-3.753c-0.06-1.734-0.12-3.468-0.168-5.203c0.048-0.21,0.109-0.798,0.12-1.75
	c0.009-0.765,0.072-1.357,0.191-1.767c0.502-0.172,1.054-0.311,1.638-0.359c0.439-0.037,0.78-0.053,1.017-0.088
	c0.093-0.014,0.229-0.045,0.406-0.082c0.176-0.038,0.303-0.059,0.383-0.079c0.681-0.171,1.401-0.327,2.152-0.444
	c0.667-0.104,1.246-0.158,1.734-0.124c0.261,0.018,0.61,0.196,1.04,0.48c0.036,0.351,0.048,0.583,0.048,0.685
	c0,0.555-0.132,0.96-0.406,1.191c-0.222,0.186-0.719,0.322-1.436,0.413c-0.415,0.052-0.838,0.098-1.243,0.162
	c-0.298,0.048-0.743,0.134-1.327,0.209C63.455,23.616,62.616,23.692,61.636,23.771L61.636,23.771z M86.925,48.681
	c-0.087-0.157-0.311-0.566-0.693-1.183c-0.1-0.165-0.594-1.054-1.399-2.687c-0.814-1.654-2.004-4.11-3.527-7.405
	c-0.156-0.339-0.431-1.018-0.813-2.017c0.335-0.864,0.601-1.515,0.79-1.939c0.379-0.845,1.136-2.372,2.296-4.496
	c1.142-2.092,1.926-3.404,2.283-3.989c0.378-0.622,0.597-1.04,0.681-1.195c0.472-0.868,0.753-1.59,0.789-2.194
	c-0.094-0.169-0.175-0.358-0.214-0.567c-0.025-0.126-0.09-0.229-0.167-0.327c-0.191-0.239-0.379-0.38-0.598-0.32
	c-0.289,0.08-0.566,0.505-0.897,1.143c-0.309,0.594-0.511,0.881-0.526,0.909c-2.334,4.317-3.688,6.96-4.053,7.748
	c-0.249,0.541-0.502,1.09-0.754,1.637c-0.132,0.247-0.252,0.501-0.37,0.744c-0.149,0.306-0.254,0.522-0.299,0.628
	c-0.02,0.048-0.047,0.105-0.071,0.16c-0.012-0.327-0.023-0.657-0.023-0.988c0-0.218-0.01-0.563-0.012-1.031
	c-0.002-0.458-0.012-0.808-0.012-1.025c0-0.218,0.009-0.563,0.012-1.029c0.002-0.46,0.008-0.824,0.012-1.068
	c0.013-0.678,0.066-1.368,0.071-2.051c0.012-1.446,0.076-2.942,0.143-4.488c0.033-0.762-0.028-1.414-0.071-1.943
	c-0.022-0.269-0.092-0.567-0.238-0.856c-0.302-0.599-0.647-0.949-0.994-0.981c-0.185-0.018-0.348,0.11-0.466,0.326
	c-0.114,0.209-0.148,0.495-0.131,0.83c0.023,0.459,0.048,0.928,0.071,1.387c0.018,0.331,0.023,0.846,0.023,1.544
	c0,0.944-0.029,1.849-0.071,2.702c-0.07,1.382-0.11,2.787-0.132,4.204c-0.02,1.277-0.048,3.198-0.048,5.759
	c0,2.118,0.012,3.711,0.024,4.76c0.029,2.334,0.048,4.081,0.048,5.218c0,1.143-0.032,2.831-0.048,5.058
	c-0.002,0.317,0.01,0.646,0,0.961c-0.008,0.276-0.024,0.684-0.024,1.21c0,0.95,0.046,1.561,0.156,1.818
	c0.122,0.286,0.362,0.399,0.669,0.35c0.356-0.058,0.646-0.267,0.825-0.628c0-0.668,0-1.344,0-2.017c0-2.059,0.029-4.137,0.072-6.218
	c0.069-3.321,0.107-5.887,0.12-7.698c0.036,0.083,0.08,0.166,0.119,0.245c0.052,0.106,0.15,0.321,0.299,0.631
	c0.119,0.246,0.238,0.5,0.37,0.748c0.252,0.547,0.515,1.09,0.753,1.633c0.066,0.149,0.452,1.04,1.172,2.615
	c0.672,1.466,1.365,2.916,2.046,4.34c0.628,1.316,1.043,2.122,1.195,2.408c0.009,0.02,0.217,0.304,0.526,0.894
	c0.331,0.632,0.607,1.049,0.897,1.131c0.208,0.059,0.409-0.082,0.597-0.323c0.081-0.103,0.136-0.208,0.156-0.326
	c0.034-0.213,0.12-0.402,0.214-0.572C87.678,50.257,87.405,49.539,86.925,48.681L86.925,48.681z M96.884,32.912
	c0.339-1.334,0.514-2.153,0.586-2.419c0.185-0.693,0.396-1.391,0.574-2.084c0.186-0.728,0.388-1.414,0.574-2.056
	c0.227-0.788,0.419-1.601,0.634-2.393c0.048-0.285,0.117-0.571,0.168-0.853c0.158-0.889,0.331-1.517,0.526-1.866
	c0.134-0.242,0.313-0.346,0.514-0.316c0.223,0.034,0.434,0.21,0.623,0.504c0.2,0.315,0.31,0.597,0.31,0.838
	c0,0.021,0.001,0.051,0,0.067c-0.135,1.577-0.685,3.843-1.59,6.818c-0.392,1.29-0.789,2.601-1.184,3.916
	c-0.088,0.29-0.572,2.004-1.399,5.173c-0.842,3.23-1.323,5.079-1.47,5.483c-0.062,0.168-0.214,0.605-0.443,1.299
	c-0.219,0.663-0.456,1.33-0.669,1.996c-0.199,0.62-0.372,1.037-0.478,1.214c-1.417,2.353-2.403,3.573-2.941,3.614
	c-0.192-0.067-0.305-0.166-0.359-0.275c-0.047-0.092-0.112-0.243-0.167-0.45c-0.105-0.398-0.119-0.793,0-1.18
	c1.124-1.595,2.066-3.595,2.798-5.988c0.254-0.829,0.583-1.736,0.957-2.71c0.182-0.473,0.389-0.958,0.561-1.443
	c0.167-0.464,0.315-0.853,0.431-1.142c0.119-0.296,0.18-0.492,0.203-0.564c0.024-0.071,0.069-0.215,0.12-0.425
	c0.049-0.205,0.069-0.376,0.048-0.491c-0.021-0.111-0.083-0.219-0.156-0.313c-0.167-0.456-0.322-0.91-0.478-1.365
	c-0.238-0.694-0.477-1.394-0.705-2.096c-0.442-1.228-0.907-2.468-1.303-3.731c-0.302-0.966-0.603-2.022-0.932-3.14
	c-0.107-0.364-0.211-0.761-0.335-1.161c-0.456-1.48-0.802-2.9-1.04-4.23c-0.059-0.109-0.096-0.252-0.096-0.422
	c0-0.222,0.065-0.41,0.168-0.56c0.106-0.156,0.263-0.221,0.455-0.188c0.119-0.053,0.242-0.069,0.334-0.056
	c0.26,0.04,0.517,0.245,0.754,0.593c0.307,0.452,0.519,0.927,0.645,1.394c0.562,2.075,1.148,4.121,1.722,6.143
	c0.561,1.98,1.136,3.929,1.71,5.857C96.657,33.577,96.799,33.25,96.884,32.912L96.884,32.912z M112.773,45.299
	c-0.025-1.521-0.048-2.675-0.048-3.456c0-0.785,0.02-1.981,0.048-3.585c0.013-0.72,0.023-1.814,0.023-3.261
	c0-1.755-0.027-3.08-0.047-3.956c-0.022-0.969-0.073-1.946-0.143-2.905c-0.044-0.593-0.072-1.221-0.072-1.874
	c0-0.478,0.011-0.835,0.023-1.06c0.017-0.306,0.048-0.623,0.072-0.935c0.016-0.222-0.018-0.431-0.132-0.605
	c-0.119-0.183-0.276-0.309-0.466-0.35c-0.139-0.03-0.264-0.015-0.371,0.026c-0.144-0.021-0.29-0.062-0.43-0.067
	c-0.248-0.008-0.494-0.026-0.717-0.056c-0.283-0.038-0.579-0.09-0.85-0.131c-0.942-0.143-1.781-0.281-2.51-0.339
	c-0.126-0.009-0.324-0.029-0.573-0.063c-0.164-0.022-0.3-0.033-0.384-0.026c-0.023-0.026-0.048-0.049-0.072-0.076
	c-0.119-0.026-0.238-0.052-0.346-0.082c-0.119,0.011-0.238,0.022-0.358,0.034c-0.12,0.161-0.24,0.323-0.359,0.485
	c0,2.904,0,5.807,0,8.712c0,2.901,0,5.805,0,8.709c-0.012,0.168-0.023,0.337-0.023,0.503c-0.024,0.18-0.036,0.36-0.048,0.538
	c-0.024,0.153-0.036,0.3-0.049,0.447c-0.023,0.172-0.035,0.338-0.047,0.51c-0.036,0.098-0.072,0.196-0.096,0.289
	c-0.035,0.184-0.071,0.368-0.096,0.545c-0.036,0.196-0.071,0.39-0.107,0.579c-0.048,0.102-0.096,0.202-0.143,0.304
	c-0.048,0.174-0.096,0.35-0.144,0.523c-0.072,0.188-0.133,0.371-0.191,0.56c-0.072,0.083-0.132,0.162-0.192,0.244
	c-0.071,0.203-0.143,0.398-0.214,0.601c-0.085,0.129-0.167,0.256-0.24,0.384c-0.096,0.116-0.191,0.24-0.276,0.356
	c-0.096,0.045-0.191,0.091-0.287,0.135c-0.107,0.174-0.215,0.35-0.311,0.522c-0.108,0.049-0.215,0.099-0.311,0.143
	c-0.12,0.112-0.24,0.229-0.348,0.338c-0.119-0.034-0.239-0.071-0.358-0.113c-0.119,0.071-0.239,0.146-0.358,0.213
	c-0.12,0.237-0.24,0.478-0.359,0.716c0,0.277,0,0.552,0,0.826c0.12,0.214,0.24,0.424,0.359,0.635
	c0.119-0.094,0.239-0.193,0.358-0.29c0.12-0.048,0.24-0.101,0.358-0.157c0.228-0.125,0.456-0.248,0.682-0.368
	c0.215-0.076,0.431-0.155,0.647-0.23c0.094-0.157,0.191-0.308,0.298-0.462c0.095-0.08,0.202-0.162,0.311-0.241
	c0.096-0.14,0.191-0.287,0.286-0.43c0.085-0.082,0.169-0.164,0.264-0.254c0.072-0.174,0.156-0.339,0.239-0.511
	c0.072-0.091,0.143-0.184,0.228-0.282c0.071-0.165,0.143-0.335,0.214-0.5c0.06-0.071,0.12-0.147,0.192-0.214
	c0.059-0.185,0.12-0.368,0.192-0.556c0.048-0.091,0.107-0.184,0.167-0.274c0.047-0.203,0.094-0.402,0.143-0.605
	c0.035-0.151,0.071-0.301,0.119-0.451c0.036-0.132,0.071-0.26,0.12-0.391c0.024-0.176,0.048-0.357,0.083-0.533
	c0.024-0.106,0.06-0.212,0.097-0.324c0.023-0.213,0.048-0.435,0.071-0.658c0.013-0.165,0.024-0.33,0.049-0.5
	c0.023-0.127,0.047-0.251,0.071-0.376c0-0.093,0.012-0.187,0.024-0.281c0-0.225,0.012-0.454,0.023-0.684
	c0-0.082,0.013-0.166,0.024-0.248c0-2.592,0-5.184,0-7.773c0-2.592,0-5.184,0-7.776c0.12,0.014,0.254,0.038,0.383,0.053
	c0.212,0.024,0.455,0.01,0.681-0.008c0.044-0.003,0.91,0.078,2.571,0.135c0.21,0.008,0.418,0.02,0.609,0.083
	c0,0.176-0.012,0.358,0,0.53c0.077,1.127,0.132,2.207,0.143,3.242c0.006,0.488,0.059,0.982,0.072,1.47
	c0.005,0.157,0.001,0.402,0.013,0.735c0.012,0.334,0.012,0.587,0.012,0.764c0,0.176-0.003,0.424-0.012,0.732
	c-0.01,0.309-0.01,0.56-0.013,0.733c-0.003,0.31-0.023,0.808-0.023,1.491s0.021,1.21,0.023,1.555c0.015,1.464,0.057,3.49,0.12,6.058
	c0.038,1.491,0.072,2.969,0.072,4.41c0,0.478,0,0.955,0,1.432c0.191,0.207,0.469,0.276,0.825,0.217
	c0.319-0.052,0.546-0.199,0.669-0.428c0.109-0.204,0.167-0.638,0.167-1.285c0-0.364-0.021-0.641-0.023-0.826
	C112.77,45.746,112.777,45.514,112.773,45.299L112.773,45.299z M119.815,34.385c1.195,0.327,2.191,0.762,2.977,1.277
	c0.772,0.508,1.389,1.214,1.853,2.083c0.498,0.932,0.766,1.93,0.766,3.013c0,0.143-0.025,0.379-0.048,0.699
	c-0.113,1.508-0.558,2.741-1.328,3.708c-0.777,0.979-1.853,1.638-3.227,1.928c-0.043,0.009-0.112,0.024-0.192,0.041
	c-0.069,0.014-0.149,0.039-0.191,0.045c-0.131,0.018-0.303,0.039-0.49,0.031c-0.189-0.008-0.491-0.011-0.909,0.022
	c-0.018,0.002-0.109,0.039-0.227,0.088c-0.235,0.096-0.459,0.153-0.647,0.16c-0.283,0.012-0.427-0.201-0.406-0.631
	c0.009-0.167,0.024-0.365,0.024-0.597c0-1.262-0.019-2.874-0.048-4.835c-0.001-0.137-0.01-0.374-0.012-0.681
	c-0.003-0.312-0.012-0.548-0.012-0.709c0-0.162,0.009-0.41,0.012-0.737c0.003-0.327,0.01-0.591,0.012-0.766
	c0.015-1.033,0.052-2.092,0.084-3.145c0.033-1.055,0.086-2.138,0.132-3.219c0.091-2.177,0.143-3.987,0.143-5.426
	c0-0.709,0.107-1.382,0.334-2.002c0.157,0.022,0.312,0.049,0.479,0.075c0.036,0.004,0.077,0.012,0.108,0.015
	c0.13,0.015,0.263,0.076,0.382,0.138c0.378,0.198,0.691,0.663,0.694,1.402c0.003,0.666-0.116,1.312-0.143,1.928
	c-0.038,0.819-0.067,2.123-0.072,3.888c-0.001,0.239-0.027,0.611-0.036,1.09C119.818,33.746,119.815,34.126,119.815,34.385
	L119.815,34.385z M123.508,41.027c0-1.146-0.268-2.155-0.777-3.025c-0.644-1.099-1.601-1.698-2.844-1.773
	c0,0.278-0.009,0.684-0.012,1.21c-0.003,0.523-0.032,0.924-0.037,1.184c-0.037,2.045-0.047,3.597-0.047,4.654
	c0,0.504,0.012,1.327,0.047,2.464c0.252,0.034,0.531,0.023,0.801-0.014c0.931-0.132,1.672-0.699,2.189-1.683
	C123.284,43.172,123.508,42.161,123.508,41.027L123.508,41.027z M132.189,27.99c0.036,0.631,0.048,1.101,0.048,1.417
	c0,0.596-0.048,1.492-0.096,2.685c-0.029,0.736,0.006,1.466,0.072,2.165c0.082,0.879,0.143,1.982,0.143,3.305
	c0,0.277,0.003,0.555,0,0.83c-0.003,0.216-0.034,0.56-0.036,1.019c-0.003,0.463-0.012,0.808-0.012,1.036c0,0.278,0.004,0.56,0,0.831
	c-0.002,0.127-0.024,0.3-0.024,0.518c0,0.176,0,0.354,0,0.53c0,1.026-0.057,1.74-0.191,2.126c-0.099,0.285-0.229,0.504-0.347,0.631
	c-0.128,0.137-0.267,0.192-0.407,0.177c-0.295-0.031-0.511-0.227-0.597-0.602c-0.11-0.478-0.183-1.069-0.215-1.75
	c-0.009-0.187-0.004-0.42-0.013-0.68c-0.009-0.245-0.023-0.639-0.023-1.165c0-0.823,0.027-1.494,0.059-2.011
	c0.02-0.322,0.023-0.822,0.023-1.499c0-0.818-0.021-1.447-0.047-1.867c-0.111-1.745-0.156-3.039-0.156-3.861
	c0-0.59,0.033-1.161,0.071-1.713c0.027-0.402,0.049-0.699,0.049-0.876c0-0.425-0.049-0.902-0.12-1.428
	c-0.072-0.026-0.207-0.048-0.406-0.075c-0.272-0.035-0.768-0.069-1.494-0.11c-0.499-0.027-0.877-0.073-1.112-0.1
	c-0.345-0.04-0.633-0.09-0.813-0.174c-0.509-0.236-0.754-0.548-0.754-0.863c0-0.05,0.018-0.119,0.047-0.211
	c0.06-0.192,0.219-0.291,0.468-0.279c0.283,0.014,0.589,0.041,0.883,0.064c0.512,0.042,0.947,0.117,1.28,0.173
	c0.055,0.009,0.159,0.029,0.286,0.057c0.117,0.025,0.231,0.049,0.311,0.059c0.201,0.028,0.506,0.063,0.922,0.098
	c0.45,0.038,1.116,0.104,1.961,0.218c0.859,0.116,1.476,0.219,1.828,0.267c0.717,0.096,1.236,0.222,1.543,0.321
	c0.524,0.171,0.79,0.433,0.79,0.778c0,0.321-0.218,0.458-0.647,0.436c-0.102-0.005-0.301-0.04-0.55-0.094
	c-0.115-0.025-0.279-0.063-0.466-0.086c-0.165-0.021-0.411-0.056-0.742-0.105c-0.332-0.048-0.588-0.095-0.752-0.117
	C132.611,28.025,132.345,27.994,132.189,27.99z"/>
</svg>
