<?xml version="1.0" encoding="UTF-8" standalone="no"?>
<svg width="18px" height="18px" viewBox="0 0 18 18" version="1.1" xmlns="http://www.w3.org/2000/svg" xmlns:xlink="http://www.w3.org/1999/xlink" xmlns:sketch="http://www.bohemiancoding.com/sketch/ns">
    <!-- Generator: Sketch 3.3.2 (12043) - http://www.bohemiancoding.com/sketch -->
    <title>gear39</title>
    <desc>Created with Sketch.</desc>
    <defs></defs>
    <g id="Acounts" stroke="none" stroke-width="1" fill="none" fill-rule="evenodd" sketch:type="MSPage">
        <g id="Desktop---User-cabinet---Profile-(Max-width:-1366px)-Copy" sketch:type="MSArtboardGroup" transform="translate(-1173.000000, -311.000000)" fill="#827575">
            <g id="Cars" sketch:type="MSLayerGroup" transform="translate(128.000000, 161.000000)">
                <g id="Ad-2-Copy" transform="translate(0.000000, 73.000000)" sketch:type="MSShapeGroup">
                    <g id="gear39" transform="translate(1045.000000, 77.000000)">
                        <g id="Settings">
                            <path d="M17.943234,8.00065499 C17.9147705,7.74763078 17.6197542,7.55749428 17.3646538,7.55749428 C16.5398806,7.55749428 15.8079991,7.07321212 15.5010616,6.32425244 C15.1874937,5.55714307 15.3896854,4.662517 16.0043641,4.09867085 C16.1978492,3.92179501 16.2213568,3.62570714 16.0590811,3.42003288 C15.6369499,2.88398055 15.1571549,2.39976536 14.6332917,1.9801122 C14.4281532,1.81549243 14.1271763,1.83839722 13.9492959,2.03536497 C13.4128417,2.62948294 12.4492334,2.85029311 11.704627,2.5396051 C10.9297487,2.21364724 10.4411133,1.42845515 10.4889321,0.585599248 C10.5046707,0.320854761 10.3111856,0.0906683709 10.0472448,0.0599277386 C9.37496925,-0.0178279783 8.6968001,-0.0202390083 8.02251538,0.0545698942 C7.76158836,0.0833683079 7.5681032,0.308129881 7.57687667,0.569525715 C7.60621087,1.40407695 7.11168183,2.17553958 6.34450548,2.48977715 C5.60880647,2.79028525 4.65196244,2.57135033 4.11657983,1.98252323 C3.93963702,1.78856926 3.64354915,1.76472686 3.43740608,1.92539521 C2.8980051,2.34859795 2.40742747,2.83321498 1.98141186,3.36484709 C1.81525171,3.57152594 1.83969688,3.87109641 2.03512425,4.04890987 C2.66152324,4.61617165 2.86378186,5.51856659 2.53835979,6.29451641 C2.22767179,7.03430077 1.45949085,7.51108195 0.58006766,7.51108195 C0.294695473,7.50190664 0.0914322504,7.69344958 0.0602228067,7.9529032 C-0.0189393444,8.62906316 -0.0198769672,9.31801498 0.0563383695,9.99966673 C0.0846009988,10.2537625 0.388591696,10.4422247 0.646504931,10.4422247 C1.43022362,10.4221997 2.18266589,10.9074195 2.4983099,11.6755335 C2.81294932,12.4426429 2.61069069,13.3367331 1.99507437,13.9010481 C1.80252683,14.0779239 1.77808167,14.373543 1.94035738,14.5792173 C2.35853714,15.111854 2.83839908,15.596538 3.36413756,16.0196737 C3.5703476,16.1858339 3.87038688,16.1623933 4.04913797,15.9654256 C4.58760133,15.3698342 5.55114267,15.1494259 6.29280228,15.4607166 C7.06962275,15.7856699 7.55825816,16.570795 7.5104394,17.4141197 C7.49483468,17.6789981 7.68925746,17.9095864 7.9521267,17.9398582 C8.29603333,17.9799751 8.64201614,18 8.98893656,18 C9.31824307,18 9.64761656,17.9819173 9.97692307,17.945283 C10.2379171,17.9164846 10.4312683,17.691723 10.4224948,17.4298584 C10.39229,16.595776 10.8876896,15.8243133 11.6538614,15.5106115 C12.3945164,15.2080943 13.3473421,15.4295072 13.8827916,16.0177315 C14.060739,16.2112836 14.3547508,16.2346572 14.5620324,16.0745247 C15.1004288,15.6523265 15.5900018,15.1681113 16.0180266,14.6350058 C16.1841198,14.4287958 16.1606792,14.1287565 15.9642472,13.95101 C15.3378482,13.3837482 15.134585,12.4812193 15.4600071,11.7058053 C15.76594,10.975866 16.5055904,10.4857572 17.3011633,10.4857572 L17.4124726,10.488637 C17.6705197,10.5095996 17.9079392,10.3108235 17.9392156,10.0474185 C18.0185117,9.3706558 18.0194494,8.68230674 17.943234,8.00065499 L17.943234,8.00065499 Z M9.01405146,12.0210475 C7.35861148,12.0210475 6.01205124,10.6744872 6.01205124,9.01904726 C6.01205124,7.36367426 7.35861148,6.01704704 9.01405146,6.01704704 C10.6694245,6.01704704 12.0159847,7.36367426 12.0159847,9.01904726 C12.0159847,10.6744872 10.6694245,12.0210475 9.01405146,12.0210475 L9.01405146,12.0210475 Z" id="Shape"></path>
                        </g>
                    </g>
                </g>
            </g>
        </g>
    </g>
</svg>