<?xml version="1.0" encoding="UTF-8" standalone="no"?>
<svg width="18px" height="18px" viewBox="0 0 18 18" version="1.1" xmlns="http://www.w3.org/2000/svg" xmlns:xlink="http://www.w3.org/1999/xlink" xmlns:sketch="http://www.bohemiancoding.com/sketch/ns">
    <!-- Generator: Sketch 3.3.2 (12043) - http://www.bohemiancoding.com/sketch -->
    <title>link23</title>
    <desc>Created with Sketch.</desc>
    <defs></defs>
    <g id="Acounts" stroke="none" stroke-width="1" fill="none" fill-rule="evenodd" sketch:type="MSPage">
        <g id="iPhone-6-User-Cabinet-2" sketch:type="MSArtboardGroup" transform="translate(-304.000000, -784.000000)" fill="#535860">
            <g id="link23" sketch:type="MSLayerGroup" transform="translate(304.000000, 784.000000)">
                <path d="M16.5659738,8.15976471 L13.1941179,11.5231765 C11.3331223,13.3812157 8.31411354,13.3812157 6.45280349,11.5231765 C6.15961572,11.231451 5.93025328,10.9027451 5.72883406,10.5637647 L7.29554148,9.00058824 C7.37001747,8.92564706 7.46198253,8.88270588 7.54986026,8.83211765 C7.65817467,9.20137255 7.84725328,9.55094118 8.13827948,9.84137255 C9.06767686,10.7694902 10.5799913,10.7681961 11.5088384,9.84137255 L14.8796332,6.47803922 C15.809738,5.55003922 15.809738,4.04137255 14.8796332,3.11407843 C13.9507467,2.18678431 12.4388253,2.18678431 11.5088384,3.11407843 L10.3101878,4.31141176 C9.33748035,3.9334902 8.28951092,3.83188235 7.26932751,3.98105882 L9.82355895,1.43247059 C11.685655,-0.425215686 14.7038777,-0.425215686 16.5659738,1.43247059 C18.4271659,3.29007843 18.4271659,6.30219608 16.5659738,8.15976471 L16.5659738,8.15976471 Z M7.65227948,13.6903529 L6.45276419,14.8876863 C5.52344541,15.8145098 4.0110524,15.8145098 3.08157642,14.8876863 C2.15217904,13.9595686 2.15217904,12.450902 3.08157642,11.5231765 L6.45276419,8.15976471 C7.38282969,7.23184314 8.89420087,7.23184314 9.82351965,8.15976471 C10.1138777,8.44956863 10.3031528,8.79905882 10.4124891,9.16784314 C10.5008777,9.11658824 10.5917031,9.07494118 10.6661397,9.00054902 L12.2327293,7.438 C12.032607,7.09768627 11.8020655,6.77015686 11.5087598,6.47811765 C9.6479214,4.62043137 6.62863755,4.62043137 4.7668952,6.47811765 L1.39621834,9.84156863 C-0.465327511,11.6998039 -0.465327511,14.7110588 1.39621834,16.5691373 C3.2579607,18.4262353 6.27653712,18.4262353 8.13824017,16.5691373 L10.6931397,14.02 C9.67240611,14.1700392 8.62416157,14.0675686 7.65227948,13.6903529 L7.65227948,13.6903529 Z" id="Shape" sketch:type="MSShapeGroup"></path>
            </g>
        </g>
    </g>
</svg>