<?xml version="1.0" encoding="UTF-8" standalone="no"?>
<svg width="8px" height="11px" viewBox="0 0 8 11" version="1.1" xmlns="http://www.w3.org/2000/svg" xmlns:xlink="http://www.w3.org/1999/xlink" xmlns:sketch="http://www.bohemiancoding.com/sketch/ns">
    <!-- Generator: Sketch 3.3.2 (12043) - http://www.bohemiancoding.com/sketch -->
    <title>sort14</title>
    <desc>Created with Sketch.</desc>
    <defs></defs>
    <g id="Acounts" stroke="none" stroke-width="1" fill="none" fill-rule="evenodd" sketch:type="MSPage">
        <g id="Desktop---User-cabinet---Profile-(Max-width:-1366px)-Copy" sketch:type="MSArtboardGroup" transform="translate(-808.000000, -215.000000)" fill="#C44742">
            <g id="Cars" sketch:type="MSLayerGroup" transform="translate(128.000000, 161.000000)">
                <g id="sort14" transform="translate(680.000000, 54.000000)" sketch:type="MSShapeGroup">
                    <g id="Group">
                        <path d="M0.520385883,4.49995553 L7.52028327,4.49995553 C7.65570443,4.49995553 7.77292896,4.45050998 7.87184743,4.35153679 C7.97071116,4.25259097 8.02034826,4.13542116 8.02034826,4 C8.02034826,3.86457884 7.97073853,3.74746376 7.87184743,3.64838112 L4.37188505,0.148418741 C4.27299395,0.0495823671 4.1558515,0 4.02034826,0 C3.88484501,0 3.76770257,0.0495823671 3.66872938,0.148418741 L0.168767,3.64838112 C0.0697938091,3.74735431 0.0203482587,3.86457884 0.0203482587,4 C0.0203482587,4.13539379 0.0697938091,4.25259097 0.168767,4.35153679 C0.267849644,4.45050998 0.384992091,4.49995553 0.520385883,4.49995553 L0.520385883,4.49995553 Z" id="Shape"></path>
                        <path d="M7.52028327,5.9091791 L0.520385883,5.9091791 C0.384882637,5.9091791 0.267740191,5.95865202 0.168767,6.05751576 C0.0697938091,6.15648895 0.0203482587,6.27363139 0.0203482587,6.40905255 C0.0203482587,6.54447371 0.0697938091,6.66169824 0.168767,6.76061671 L3.66872938,10.2605244 C3.76781202,10.3594975 3.88495447,10.4090525 4.02034826,10.4090525 C4.15574205,10.4090525 4.27299395,10.3594975 4.37188505,10.2605244 L7.87184743,6.76058934 C7.97071116,6.66169824 8.02034826,6.54447371 8.02034826,6.40902519 C8.02034826,6.27363139 7.97073853,6.15648895 7.87184743,6.05748839 C7.77295633,5.95854256 7.65570443,5.9091791 7.52028327,5.9091791 L7.52028327,5.9091791 Z" id="Shape"></path>
                    </g>
                </g>
            </g>
        </g>
    </g>
</svg>