<?xml version="1.0" encoding="UTF-8" standalone="no"?>
<svg width="16px" height="13px" viewBox="0 0 16 13" version="1.1" xmlns="http://www.w3.org/2000/svg" xmlns:xlink="http://www.w3.org/1999/xlink" xmlns:sketch="http://www.bohemiancoding.com/sketch/ns">
    <!-- Generator: Sketch 3.3.2 (12043) - http://www.bohemiancoding.com/sketch -->
    <title>photography19</title>
    <desc>Created with Sketch.</desc>
    <defs></defs>
    <g id="Acounts" stroke="none" stroke-width="1" fill="none" fill-rule="evenodd" sketch:type="MSPage">
        <g id="Desktop---User-cabinet---Profile-(Max-width:-1366px)-Copy" sketch:type="MSArtboardGroup" transform="translate(-407.000000, -214.000000)" fill="#C44742">
            <g id="photography19" sketch:type="MSLayerGroup" transform="translate(407.000000, 214.000000)">
                <path d="M2.08924841,12.052 L13.8009321,12.052 C14.9529116,12.052 15.890502,11.1218023 15.890502,9.97946558 L15.890502,3.83932523 C15.890502,2.69763133 14.9551615,1.76904077 13.805432,1.76679081 L13.8215032,1.76646938 L13.8215032,1.44440371 C13.832753,1.26729973 13.7183265,1.12362372 13.5405796,1.12362372 L12.4155997,1.12362372 C12.2378529,1.12362372 12.0941769,1.26729973 12.0941769,1.44504655 L12.0941769,1.76646938 L11.6785772,1.76646938 C11.5069374,0.794165318 10.6513098,0.052 9.62243531,0.052 L6.26774522,0.052 C5.23919216,0.052 4.383886,0.794165318 4.21192479,1.76646938 L2.08924841,1.76646938 C0.937268977,1.76646938 0,2.69634564 0,3.83932523 L0,9.97946558 C0,11.1218023 0.937268977,12.052 2.08924841,12.052 L2.08924841,12.052 Z M0.690737665,3.83932523 C0.690737665,3.07723169 1.31815503,2.45752847 2.08924841,2.45752847 L4.17849681,2.45752847 L4.86923448,2.45752847 L4.92291209,1.76646938 C5.08394493,1.17890845 5.62297102,0.743059088 6.26774522,0.743059088 L9.62243531,0.743059088 C10.2675309,0.743059088 10.806557,1.17858703 10.9675899,1.76646938 L11.0212675,2.45752847 L11.7120051,2.45752847 L13.8009321,2.45752847 C14.5723469,2.45752847 15.1997643,3.07723169 15.1997643,3.83932523 L15.1997643,9.97946558 C15.1997643,10.7412377 14.5723469,11.3612623 13.8009321,11.3612623 L2.08924841,11.3612623 C1.31847646,11.3612623 0.690737665,10.7412377 0.690737665,9.97946558 L0.690737665,3.83932523 L0.690737665,3.83932523 Z M5.86210961,2.30195982 L9.98017893,2.30195982 C10.1244978,2.30195982 10.2411743,2.18528333 10.2411743,2.04096448 C10.2411743,1.89664563 10.1244978,1.77996914 9.98017893,1.77996914 L5.86210961,1.77996914 C5.71811218,1.77996914 5.60111427,1.89664563 5.60111427,2.04096448 C5.60111427,2.18528333 5.71811218,2.30195982 5.86210961,2.30195982 L5.86210961,2.30195982 Z M7.9455724,10.7637373 C10.0955697,10.7637373 11.8450742,9.01455424 11.8450742,6.8642355 C11.8450742,4.71423817 10.0958911,2.9647337 7.9455724,2.9647337 C5.79525366,2.9647337 4.04607061,4.71391675 4.04607061,6.8642355 C4.04607061,9.01455424 5.79525366,10.7637373 7.9455724,10.7637373 L7.9455724,10.7637373 Z M7.9455724,3.61754347 C9.73589757,3.61754347 11.1922644,5.07391032 11.1922644,6.86455692 C11.1922644,8.65488209 9.73589757,10.1115704 7.9455724,10.1115704 C6.15524723,10.1115704 4.69855895,8.65520351 4.69855895,6.86455692 C4.69855895,5.07391032 6.1549258,3.61754347 7.9455724,3.61754347 L7.9455724,3.61754347 Z M5.89039481,7.08183875 C5.89039481,5.7887547 6.94209032,4.7370592 8.23517437,4.7370592 C8.35538651,4.7370592 8.45277763,4.63966808 8.45277763,4.51945594 C8.45277763,4.3992438 8.35538651,4.30185268 8.23517437,4.30185268 C6.70263031,4.30185268 5.45550972,5.54897327 5.45550972,7.08151733 C5.45550972,7.20172947 5.55290084,7.29912059 5.67311298,7.29912059 C5.7930037,7.29944201 5.89039481,7.20205089 5.89039481,7.08183875 L5.89039481,7.08183875 Z" id="Shape" sketch:type="MSShapeGroup"></path>
            </g>
        </g>
    </g>
</svg>