<?xml version="1.0" encoding="UTF-8" standalone="no"?>
<svg width="18px" height="18px" viewBox="0 0 18 18" version="1.1" xmlns="http://www.w3.org/2000/svg" xmlns:xlink="http://www.w3.org/1999/xlink" xmlns:sketch="http://www.bohemiancoding.com/sketch/ns">
    <!-- Generator: Sketch 3.3.2 (12043) - http://www.bohemiancoding.com/sketch -->
    <title>Shape Copy</title>
    <desc>Created with Sketch.</desc>
    <defs></defs>
    <g id="Acounts" stroke="none" stroke-width="1" fill="none" fill-rule="evenodd" sketch:type="MSPage">
        <g id="iPhone-6-User-Cabinet-3" sketch:type="MSArtboardGroup" transform="translate(-307.000000, -418.000000)" fill="#FFFFFF">
            <path d="M320.184713,428.738854 C320.872611,427.617847 321.216561,426.394917 321.216561,425.070064 C321.216561,423.108293 320.52228,421.43949 319.133758,420.063694 C317.745236,418.687898 316.070051,418 314.10828,418 C312.14651,418 310.471325,418.687898 309.082803,420.063694 C307.69428,421.43949 307,423.108293 307,425.070064 C307,427.031834 307.69428,428.707019 309.082803,430.095541 C310.471325,431.484064 312.14651,432.178344 314.10828,432.178344 C315.433134,432.178344 316.656064,431.834395 317.77707,431.146497 L322.630573,436 L325.038217,433.592357 L320.184713,428.738854 L320.184713,428.738854 Z M317.22293,428.184713 C316.369439,429.038204 315.33121,429.464968 314.10828,429.464968 C312.910841,429.464968 311.878994,429.038204 311.012739,428.184713 C310.146484,427.331223 309.713376,426.299376 309.713376,425.089172 C309.713376,423.878968 310.146484,422.847121 311.012739,421.993631 C311.878994,421.14014 312.910841,420.70065 314.10828,420.675159 C315.33121,420.70065 316.369439,421.14014 317.22293,421.993631 C318.07642,422.847121 318.503185,423.878968 318.503185,425.089172 C318.503185,426.299376 318.07642,427.331223 317.22293,428.184713 L317.22293,428.184713 Z" id="Shape-Copy" sketch:type="MSShapeGroup"></path>
        </g>
    </g>
</svg>