<?xml version="1.0" encoding="UTF-8" standalone="no"?>
<svg width="18px" height="16px" viewBox="0 0 18 16" version="1.1" xmlns="http://www.w3.org/2000/svg" xmlns:xlink="http://www.w3.org/1999/xlink" xmlns:sketch="http://www.bohemiancoding.com/sketch/ns">
    <!-- Generator: Sketch 3.3.2 (12043) - http://www.bohemiancoding.com/sketch -->
    <title>photography38</title>
    <desc>Created with Sketch.</desc>
    <defs></defs>
    <g id="Acounts" stroke="none" stroke-width="1" fill="none" fill-rule="evenodd" sketch:type="MSPage">
        <g id="Desktop---User-cabinet---Profile-(Max-width:-1366px)-Copy" sketch:type="MSArtboardGroup" transform="translate(-382.000000, -212.000000)" fill="#9B9B9B">
            <g id="Cars" sketch:type="MSLayerGroup" transform="translate(128.000000, 161.000000)">
                <g id="photography38" transform="translate(254.000000, 51.000000)" sketch:type="MSShapeGroup">
                    <path d="M8.3196,12.2685915 C6.1134,12.2685915 4.3251,10.6646564 4.3251,8.6859046 C4.3251,7.85312833 4.6449,7.08842715 5.1762,6.4800565 L10.779,11.5049666 C10.1007,11.9817613 9.2484,12.2685915 8.3196,12.2685915 L8.3196,12.2685915 Z M2.5371,12.8807292 C1.8753,12.8807292 1.3368,12.3977458 1.3368,11.8041741 L1.3368,5.73768825 C1.3368,5.14411654 1.8753,4.66113321 2.5371,4.66113321 L3.1485,4.66113321 L2.268,3.8711393 C1.2369,3.99033798 0.4371,4.78087002 0.4371,5.73768825 L0.4371,11.8041741 C0.4371,12.8427901 1.3794,13.6879437 2.5374,13.6879437 L13.2129,13.6879437 L12.3129,12.8807292 L2.5371,12.8807292 L2.5371,12.8807292 Z M17.6631,15.8423991 C17.5458,15.9476061 17.3925,16.000075 17.2389,16.000075 C17.0853,16.000075 16.932,15.9476061 16.8147,15.8423991 L0.1758,0.91861781 C-0.0585,0.708472974 -0.0585,0.367828463 0.1758,0.157683627 C0.4101,-0.052461209 0.7899,-0.052461209 1.0242,0.157683627 L4.7448,3.49470828 C5.0763,2.80050383 5.8446,2.31213907 6.7389,2.31213907 L9.9003,2.31213907 C10.9422,2.31213907 11.8149,2.97432402 12.0225,3.8541878 L14.1021,3.8541878 C15.2601,3.8541878 16.2024,4.69934136 16.2024,5.73795732 L16.2024,11.8041741 C16.2024,12.3450078 15.9435,12.8293365 15.5349,13.1726718 L17.6631,15.0814649 C17.8977,15.2916098 17.8977,15.6322543 17.6631,15.8423991 L17.6631,15.8423991 Z M5.481,4.15500973 L6.8277,5.36287166 C7.2885,5.19577826 7.7919,5.10321767 8.3196,5.10321767 C10.5255,5.10321767 12.3141,6.70715284 12.3141,8.6859046 C12.3141,9.15920136 12.2112,9.61070332 12.0246,10.0239971 L14.8995,12.6025093 C15.1449,12.4052799 15.3024,12.1219476 15.3024,11.8039051 L15.3024,5.73768825 C15.3024,5.14411654 14.7639,4.66113321 14.1021,4.66113321 L11.6196,4.66113321 C11.3712,4.66113321 11.1696,4.48031716 11.1696,4.25752597 C11.1696,3.62978217 10.6005,3.11908448 9.9006,3.11908448 L6.7389,3.11908448 C6.0783,3.11935355 5.5401,3.57596788 5.481,4.15500973 L5.481,4.15500973 Z" id="Shape"></path>
                </g>
            </g>
        </g>
    </g>
</svg>