<?xml version="1.0" encoding="UTF-8" standalone="no"?>
<svg width="12px" height="12px" viewBox="0 0 12 12" version="1.1" xmlns="http://www.w3.org/2000/svg" xmlns:xlink="http://www.w3.org/1999/xlink" xmlns:sketch="http://www.bohemiancoding.com/sketch/ns">
    <!-- Generator: Sketch 3.3.2 (12043) - http://www.bohemiancoding.com/sketch -->
    <title>magnifying-glass19 copy</title>
    <desc>Created with Sketch.</desc>
    <defs></defs>
    <g id="Acounts" stroke="none" stroke-width="1" fill="none" fill-rule="evenodd" sketch:type="MSPage">
        <g id="Desktop---User-cabinet---Profile-(Max-width:-1366px)-Copy" sketch:type="MSArtboardGroup" transform="translate(-207.000000, -214.000000)" fill="#C44742">
            <g id="Cars" sketch:type="MSLayerGroup" transform="translate(128.000000, 161.000000)">
                <g id="magnifying-glass19-copy" transform="translate(79.000000, 53.000000)" sketch:type="MSShapeGroup">
                    <path d="M8.77118644,7.15677966 C9.22881356,6.41102542 9.45762712,5.5974661 9.45762712,4.71610169 C9.45762712,3.41102542 8.99575424,2.30084746 8.0720339,1.38559322 C7.14831356,0.470338983 6.03388983,0.0127118644 4.72881356,0.0127118644 C3.42373729,0.0127118644 2.30931356,0.470338983 1.38559322,1.38559322 C0.461872881,2.30084746 0,3.41102542 0,4.71610169 C0,6.02117797 0.461872881,7.13560169 1.38559322,8.05932203 C2.30931356,8.98304237 3.42373729,9.44491525 4.72881356,9.44491525 C5.61017797,9.44491525 6.42373729,9.21610169 7.16949153,8.75847458 L10.3983051,11.9872881 L12,10.3855932 L8.77118644,7.15677966 L8.77118644,7.15677966 Z M6.80084746,6.78813559 C6.23305932,7.35592373 5.54237288,7.63983051 4.72881356,7.63983051 C3.93221186,7.63983051 3.24577119,7.35592373 2.66949153,6.78813559 C2.09321186,6.22034746 1.80508475,5.53390678 1.80508475,4.72881356 C1.80508475,3.92372034 2.09321186,3.23727966 2.66949153,2.66949153 C3.24577119,2.10170339 3.93221186,1.80933051 4.72881356,1.79237288 C5.54237288,1.80933051 6.23305932,2.10170339 6.80084746,2.66949153 C7.36863559,3.23727966 7.65254237,3.92372034 7.65254237,4.72881356 C7.65254237,5.53390678 7.36863559,6.22034746 6.80084746,6.78813559 L6.80084746,6.78813559 Z" id="Shape-Copy"></path>
                </g>
            </g>
        </g>
    </g>
</svg>