<?xml version="1.0" encoding="UTF-8" standalone="no"?>
<svg width="18px" height="18px" viewBox="0 0 18 18" version="1.1" xmlns="http://www.w3.org/2000/svg" xmlns:xlink="http://www.w3.org/1999/xlink" xmlns:sketch="http://www.bohemiancoding.com/sketch/ns">
    <!-- Generator: Sketch 3.3.2 (12043) - http://www.bohemiancoding.com/sketch -->
    <title>info8</title>
    <desc>Created with Sketch.</desc>
    <defs></defs>
    <g id="Acounts" stroke="none" stroke-width="1" fill="none" fill-rule="evenodd" sketch:type="MSPage">
        <g id="iPhone-6-User-Cabinet" sketch:type="MSArtboardGroup" transform="translate(-25.000000, -280.000000)" fill="#827575">
            <g id="Info" sketch:type="MSLayerGroup" transform="translate(17.000000, 270.000000)">
                <g id="info8" transform="translate(8.000000, 10.000000)" sketch:type="MSShapeGroup">
                    <path d="M9.00113622,0 C4.03207644,0 0.00075,4.02978157 0.00075,8.99961378 C0.00075,13.9702184 4.03207644,18 9.00036378,18 C13.9717409,18 17.9992051,13.9702184 17.9992051,8.99961378 C17.9999776,4.02900914 13.9717409,0 9.00113622,0 L9.00113622,0 Z M10.5676298,15.1443162 L7.44004966,15.1443162 L7.44004966,7.65326353 L10.5676298,7.65326353 C10.5676298,7.65326353 10.5676298,15.1443162 10.5676298,15.1443162 L10.5676298,15.1443162 Z M9.00113622,6.34321761 C8.0379126,6.34321761 7.25621067,5.56383298 7.25621067,4.5990645 C7.25621067,3.63584088 8.0379126,2.85336652 9.00113622,2.85336652 C9.96513227,2.85336652 10.7452893,3.63584088 10.7452893,4.5990645 C10.7445169,5.56383298 9.96513227,6.34321761 9.00113622,6.34321761 L9.00113622,6.34321761 Z" id="Shape"></path>
                </g>
            </g>
        </g>
    </g>
</svg>