<?xml version="1.0" encoding="UTF-8" standalone="no"?>
<svg width="18px" height="19px" viewBox="0 0 18 19" version="1.1" xmlns="http://www.w3.org/2000/svg" xmlns:xlink="http://www.w3.org/1999/xlink" xmlns:sketch="http://www.bohemiancoding.com/sketch/ns">
    <!-- Generator: Sketch 3.3.2 (12043) - http://www.bohemiancoding.com/sketch -->
    <title>Group</title>
    <desc>Created with Sketch.</desc>
    <defs></defs>
    <g id="Acounts" stroke="none" stroke-width="1" fill="none" fill-rule="evenodd" sketch:type="MSPage">
        <g id="Desktop---User-cabinet---Profile-(Max-width:-1366px)" sketch:type="MSArtboardGroup" transform="translate(-147.000000, -461.000000)">
            <g id="smartphones17-(2)" sketch:type="MSLayerGroup" transform="translate(147.000000, 461.000000)">
                <g id="Group" sketch:type="MSShapeGroup">
                    <path d="M16.9660588,8.52220588 L15.1178824,8.52220588 L14.8706471,8.52220588 C14.3242941,8.52220588 13.8811765,8.96532353 13.8811765,9.51352941 L13.8811765,9.621 C13.8811765,10.1697353 14.3242941,10.6131176 14.8714412,10.6131176 L16.7214706,10.6131176 L16.9660588,10.6131176 C17.5134706,10.6131176 17.9579118,10.1678824 17.9579118,9.621 L17.9568529,9.51220588 C17.9579118,8.96532353 17.5134706,8.52220588 16.9660588,8.52220588 L16.9660588,8.52220588 Z" id="Shape" fill="#E1E3E5"></path>
                    <path d="M16.9671176,6.04905882 L16.5306176,6.04905882 L16.5306176,1.25311765 C16.5306176,0.563823529 15.9667941,0 15.2772353,0 L7.00808824,0 C6.31879412,0 5.75497059,0.564088235 5.75497059,1.25311765 L5.75497059,4.69402941 C4.08705882,5.63691176 2.36673529,6.62188235 2.36302941,6.62426471 C1.42914706,7.00861765 0.0608823529,8.24876471 0.0608823529,11.1772059 C0.0608823529,11.4387353 0.0780882353,11.6801471 0.102176471,11.9133529 C0.109852941,11.9816471 0.118323529,12.0472941 0.127588235,12.1132059 C0.151676471,12.2844706 0.181852941,12.4483235 0.217852941,12.6039706 C0.230823529,12.6595588 0.240882353,12.7175294 0.254911765,12.7707353 C0.303352941,12.9507353 0.359470588,13.1196176 0.422470588,13.2802941 C0.454235294,13.3599706 0.488647059,13.4325 0.523323529,13.5071471 C0.560382353,13.5857647 0.597705882,13.6630588 0.637676471,13.7353235 C0.684,13.8224118 0.730323529,13.9063235 0.781147059,13.986 C0.793323529,14.0045294 0.806558824,14.0214706 0.819,14.0402647 C2.025,15.8632941 4.24985294,15.8715 4.24985294,15.8715 L5.75497059,15.8715 L5.75497059,17.2953529 C5.75497059,17.9838529 6.31879412,18.5476765 7.00808824,18.5476765 L15.2769706,18.5476765 C15.9665294,18.5476765 16.5303529,17.9835882 16.5303529,17.2953529 L16.5303529,15.5586176 L16.7214706,15.5586176 L16.7214706,15.5575588 L16.9652647,15.5575588 C17.5134706,15.5575588 17.9579118,15.1141765 17.9568529,14.5659706 L17.9579118,14.4579706 C17.9568529,13.9105588 17.5134706,13.4685 16.9660588,13.4685 L16.7214706,13.4685 L15.1176176,13.4685 L14.8703824,13.4685 C14.3229706,13.4685 13.8809118,13.9116176 13.8809118,14.4587647 L13.8809118,14.5686176 C13.8809118,15.1144412 14.3240294,15.5594118 14.8711765,15.5594118 L15.6584118,15.5594118 L15.6584118,16.2301765 L6.62664706,16.2301765 L6.62664706,7.23255882 C7.08035294,6.94482353 7.50044118,6.66794118 7.74,6.48238235 C8.95367647,5.54373529 10.1056765,4.79620588 10.2615882,4.11829412 C10.4646176,3.23867647 9.78935294,2.4975 8.61802941,3.10605882 C8.24902941,3.29770588 7.49170588,3.71779412 6.62664706,4.20352941 L6.62664706,1.98582353 L15.6584118,1.98714706 L15.6584118,6.04852941 L15.1176176,6.04852941 L15.1176176,6.04958824 L14.8717059,6.04958824 C14.3240294,6.04958824 13.8795882,6.49270588 13.8795882,7.04144118 L13.8795882,7.14891176 C13.8795882,7.69738235 14.3240294,8.13944118 14.8703824,8.13944118 L15.1162941,8.13944118 L16.7201471,8.13944118 L16.9665882,8.13944118 C17.5134706,8.13944118 17.9568529,7.69632353 17.9568529,7.14891176 L17.9568529,7.03852941 C17.9579118,6.4935 17.5147941,6.04905882 16.9671176,6.04905882 L16.9671176,6.04905882 Z M11.1414706,16.6701176 C11.4887647,16.6701176 11.7688235,16.9504412 11.7688235,17.2969412 C11.7688235,17.6442353 11.4885,17.9235 11.1414706,17.9235 C10.7955,17.9235 10.5159706,17.6434412 10.5159706,17.2969412 C10.5165,16.9515 10.7968235,16.6701176 11.1414706,16.6701176 L11.1414706,16.6701176 Z M12.4657941,1.20652941 L9.81979412,1.20652941 C9.73667647,1.20652941 9.66785294,1.13902941 9.66785294,1.05564706 C9.66785294,0.970941176 9.73667647,0.903441176 9.81979412,0.903441176 L12.4657941,0.903441176 C12.5489118,0.903441176 12.6166765,0.970676471 12.6166765,1.05564706 C12.6166765,1.13876471 12.5489118,1.20652941 12.4657941,1.20652941 L12.4657941,1.20652941 Z" id="Shape" fill="#DBDDDF"></path>
                    <path d="M16.9660588,10.9953529 L16.7214706,10.9953529 L14.8706471,10.9953529 C14.3242941,10.9953529 13.8798529,11.4397941 13.8798529,11.9869412 L13.8798529,12.0954706 C13.8798529,12.6431471 14.3232353,13.0862647 14.8706471,13.0862647 L15.1165588,13.0862647 L16.7204118,13.0862647 L16.9655294,13.0862647 C17.5137353,13.0862647 17.9557941,12.6431471 17.9571176,12.0954706 L17.9571176,11.9869412 C17.9568529,11.4397941 17.5147941,10.9953529 16.9660588,10.9953529 L16.9660588,10.9953529 Z" id="Shape" fill="#E1E3E5"></path>
                </g>
            </g>
        </g>
    </g>
</svg>