<?xml version="1.0" encoding="UTF-8" standalone="no"?>
<svg width="18px" height="14px" viewBox="0 0 18 14" version="1.1" xmlns="http://www.w3.org/2000/svg" xmlns:xlink="http://www.w3.org/1999/xlink" xmlns:sketch="http://www.bohemiancoding.com/sketch/ns">
    <!-- Generator: Sketch 3.3.2 (12043) - http://www.bohemiancoding.com/sketch -->
    <title>email126</title>
    <desc>Created with Sketch.</desc>
    <defs></defs>
    <g id="Acounts" stroke="none" stroke-width="1" fill="none" fill-rule="evenodd" sketch:type="MSPage">
        <g id="Desktop---User-cabinet---Profile-(Max-width:-1366px)" sketch:type="MSArtboardGroup" transform="translate(-148.000000, -558.000000)" fill="#DBDDDF">
            <g id="email126" sketch:type="MSLayerGroup" transform="translate(148.000000, 558.549598)">
                <g id="Layer_5_31_" transform="translate(0.000000, 0.048257)" sketch:type="MSShapeGroup">
                    <path d="M17.2240214,0.0343592493 L0.74919571,0.0343592493 C0.337126005,0.0343592493 0,0.371581769 0,0.783506702 L0,11.6882735 C0,12.1003432 0.337126005,12.4374692 0.74919571,12.4374692 L17.2240214,12.4374692 C17.6360429,12.4374692 17.9731689,12.1003432 17.9731689,11.6882735 L17.9731689,0.783506702 C17.9731689,0.371533512 17.6360429,0.0343592493 17.2240214,0.0343592493 L17.2240214,0.0343592493 Z M11.7243217,6.75627346 C13.1145684,7.69362466 16.7068954,10.4744558 16.7068954,10.4744558 C16.8499786,10.5714048 16.8602091,10.8199786 16.7885952,10.9680804 C16.7170295,11.1162306 16.4931635,11.2063753 16.3500804,11.1094745 C16.3500804,11.1094745 12.5261662,8.34857373 11.0629544,7.34689544 C10.9819786,7.29149598 10.9102681,7.35799464 10.9102681,7.35799464 L9.30585523,8.63811796 C9.21812332,8.71011796 9.1024504,8.74978552 8.98035925,8.74978552 C8.8582681,8.74978552 8.74264343,8.71011796 8.65481501,8.63811796 L7.03196783,7.3429866 C7.03196783,7.3429866 6.97608579,7.29429491 6.91253083,7.33835389 C5.46616086,8.34234853 1.65889544,11.1094263 1.65889544,11.1094263 C1.51586059,11.2063753 1.24368901,11.1162306 1.17212332,10.9680322 C1.10055764,10.8199786 1.1107882,10.5713566 1.25382306,10.4744075 C1.25382306,10.4744075 4.85068633,7.70226273 6.21873458,6.76978552 C6.29686327,6.71650938 6.21487399,6.63818767 6.21487399,6.63818767 L1.14186595,2.07062735 C0.957426273,1.919437 0.902219839,1.64866488 1.0161555,1.45413941 C1.08381233,1.33841823 1.20300804,1.26931367 1.33484718,1.26931367 C1.42769437,1.26931367 1.52136193,1.30420375 1.59862198,1.36751743 L8.81319571,7.69043968 C8.85580697,7.72532976 8.91670777,7.74540483 8.98035925,7.74540483 C9.04401072,7.74540483 9.10491153,7.72532976 9.14757105,7.69043968 L16.3620965,1.36751743 C16.4393566,1.3041555 16.5330241,1.26931367 16.6259196,1.26931367 C16.7577587,1.26931367 16.8769062,1.33841823 16.9446113,1.45413941 C17.0584987,1.64866488 17.0032922,1.91948525 16.8189491,2.07062735 L11.732429,6.65242359 C11.7323807,6.65247185 11.6607185,6.71327614 11.7243217,6.75627346 L11.7243217,6.75627346 Z" id="Shape"></path>
                </g>
            </g>
        </g>
    </g>
</svg>