<?xml version="1.0" encoding="UTF-8" standalone="no"?>
<svg width="19px" height="20px" viewBox="0 0 19 20" version="1.1" xmlns="http://www.w3.org/2000/svg" xmlns:xlink="http://www.w3.org/1999/xlink" xmlns:sketch="http://www.bohemiancoding.com/sketch/ns">
    <!-- Generator: Sketch 3.3.2 (12043) - http://www.bohemiancoding.com/sketch -->
    <title>closed1</title>
    <desc>Created with Sketch.</desc>
    <defs></defs>
    <g id="Acounts" stroke="none" stroke-width="1" fill="none" fill-rule="evenodd" sketch:type="MSPage">
        <g id="Desktop---User-cabinet---Profile-(Max-width:-1366px)" sketch:type="MSArtboardGroup" transform="translate(-148.000000, -601.000000)" fill="#DBDDDF">
            <g id="closed1" sketch:type="MSLayerGroup" transform="translate(148.500000, 601.000000)">
                <path d="M6.35069822,8.3652071 L11.4132781,8.3652071 L11.4132781,6.14897041 L11.4132781,6.1272426 C11.4132781,5.77959763 11.3444734,5.45368047 11.2069349,5.14949112 C11.0693964,4.84530178 10.8846391,4.58094675 10.6528757,4.35642604 C10.4212189,4.13190533 10.1532071,3.95446154 9.84894675,3.82409467 C9.54468639,3.69372781 9.21884024,3.62854438 8.87119527,3.62854438 C8.5235503,3.62854438 8.19763314,3.69372781 7.89344379,3.82409467 C7.58925444,3.95446154 7.32127811,4.13552663 7.08951479,4.36728994 C6.85775148,4.59905325 6.67668639,4.86702959 6.54631953,5.17121893 C6.41595266,5.47540828 6.35076923,5.80132544 6.35076923,6.14897041 L6.35069822,8.3652071 L6.35069822,8.3652071 Z M17.3232781,8.3652071 C17.5115858,8.3652071 17.6708876,8.43039053 17.8012899,8.5607574 C17.9316568,8.69112426 17.9968402,8.85046154 17.9968402,9.03876923 L17.9968402,19.0335976 C17.9968402,19.2219053 17.9316568,19.3812426 17.8012899,19.5116095 C17.6708876,19.6419763 17.5115858,19.7071598 17.3232781,19.7071598 L0.679739645,19.7071598 C0.491431953,19.7071598 0.332094675,19.6419763 0.201727811,19.5116095 C0.0713609467,19.3812426 0.00617751479,19.2219053 0.00617751479,19.0335976 L0.00617751479,9.03873373 C0.00617751479,8.85042604 0.0713609467,8.69108876 0.201727811,8.56072189 C0.332094675,8.43035503 0.491431953,8.3651716 0.679739645,8.3651716 L1.63576331,8.3651716 L2.74388166,8.3651716 L2.74388166,6.14897041 C2.74388166,5.3088284 2.90684024,4.51214201 3.2327574,3.75891124 C3.55867456,3.00568047 3.99685207,2.35384615 4.54728994,1.80340828 C5.09772781,1.25297041 5.74594083,0.814792899 6.49192899,0.48887574 C7.23791716,0.16295858 8.03098225,0 8.87112426,0 C9.71126627,0 10.5079527,0.16295858 11.2611834,0.48887574 C12.0144142,0.814792899 12.666142,1.25297041 13.2165799,1.80340828 C13.7671243,2.35384615 14.2053018,3.00568047 14.5311124,3.75891124 C14.8569231,4.51214201 15.0200237,5.3088284 15.0200237,6.14897041 L15.0200237,6.17069822 L15.0200237,8.3652071 L16.3670414,8.3652071 L17.3232781,8.3652071 L17.3232781,8.3652071 Z" id="Shape" sketch:type="MSShapeGroup"></path>
            </g>
        </g>
    </g>
</svg>