<?xml version="1.0" encoding="UTF-8" standalone="no"?>
<svg width="67px" height="74px" viewBox="0 0 67 74" version="1.1" xmlns="http://www.w3.org/2000/svg" xmlns:xlink="http://www.w3.org/1999/xlink" xmlns:sketch="http://www.bohemiancoding.com/sketch/ns">
    <!-- Generator: Sketch 3.3.2 (12043) - http://www.bohemiancoding.com/sketch -->
    <title>Group</title>
    <desc>Created with Sketch.</desc>
    <defs></defs>
    <g id="Acounts" stroke="none" stroke-width="1" fill="none" fill-rule="evenodd" sketch:type="MSPage">
        <g id="Desktop---User-cabinet---Profile-(Max-width:-1366px)" sketch:type="MSArtboardGroup" transform="translate(-960.000000, -262.000000)">
            <g id="Sell-faster" sketch:type="MSLayerGroup" transform="translate(925.000000, 197.000000)">
                <g id="Group" transform="translate(35.000000, 65.000000)" sketch:type="MSShapeGroup">
                    <rect id="Rectangle-70-Copy-11" fill="#FFFFFF" x="0" y="0" width="67" height="74"></rect>
                    <g id="Fill-1-Copy-2-+-Fill-2-Copy-2-Copy-Copy-Copy-Copy-Copy-Copy-Copy-Copy" transform="translate(16.000000, 49.000000)" fill="#C3C8CE">
                        <path d="M28.0965552,7.86555891 C27.9973731,7.76875204 28.0692721,7.60556332 28.2105023,7.60556332 L29.504685,7.60556332 C30.2464648,7.60556332 30.8476562,7.02963929 30.8476562,6.31910761 C30.8476562,5.71767574 30.2259222,5.29756467 29.63436,5.49978346 L27.7290356,6.15007975 C27.3968235,6.26348208 27.027378,6.1350209 26.8482724,5.84398565 L24.3850885,1.83679597 C23.8551541,0.974446542 22.8877269,0.444621018 21.8426231,0.444621018 L9.55302366,0.444621018 C8.50791983,0.444621018 7.54049263,0.974446542 7.01023725,1.83679597 L4.54737431,5.84398565 C4.36826868,6.1350209 3.99882319,6.26348208 3.66661113,6.15007975 L1.76160767,5.49978346 C1.16972454,5.29756467 0.547669492,5.71767574 0.547669492,6.31910761 C0.547669492,7.02963929 1.14918196,7.60556332 1.89128271,7.60556332 L3.18514437,7.60556332 C3.32637462,7.60556332 3.39827365,7.76875204 3.29941248,7.86555891 L1.63899413,9.49099232 C1.04229634,10.0752141 0.70815841,10.8598107 0.70815841,11.6766763 L0.70815841,20.6397629 C0.70815841,21.1468465 1.13762675,21.5580452 1.66756116,21.5580452 L4.24276634,21.5580452 C4.77237977,21.5580452 5.20184812,21.1468465 5.20184812,20.6397629 L5.20184812,20.3358201 C5.20184812,20.0604583 5.435199,19.8370342 5.72311612,19.8370342 L7.89806194,19.8370342 C8.58399158,19.8370342 7.21245328,19.0994581 7.89806194,19.0994581 L23.4975848,19.0994581 C24.1835144,19.0994581 22.8119761,19.8370342 23.4975848,19.8370342 L25.6728516,19.8370342 C25.9607687,19.8370342 26.1934776,20.0604583 26.1934776,20.3358201 L26.1934776,20.6397629 C26.1934776,21.1468465 26.6232669,21.5580452 27.1532014,21.5580452 L29.7284065,21.5580452 C30.257699,21.5580452 30.6871673,21.1468465 30.6871673,20.6397629 L30.6871673,11.6766763 C30.6871673,10.8598107 30.3533504,10.0752141 29.7566526,9.49099232 L28.0965552,7.86555891 L28.0965552,7.86555891 Z M5.42268087,5.9970327 L7.89421021,2.18468605 C8.3230366,1.52332612 9.07829744,1.1210398 9.8913343,1.1210398 L21.5046334,1.1210398 C22.3173493,1.1210398 23.0726101,1.52332612 23.5014365,2.18468605 L25.9732868,5.9970327 C26.1674784,6.29636568 25.942473,6.68359315 25.5743114,6.68359315 L5.82133534,6.68359315 C5.45349474,6.68359315 5.22848928,6.29636568 5.42268087,5.9970327 L5.42268087,5.9970327 Z M2.87989445,10.9618421 C3.05771617,10.6253229 3.33921373,10.3671713 3.6698209,10.201524 C3.85277827,10.8871625 4.49473394,11.3942461 5.26861151,11.3942461 C5.94170203,11.3942461 6.51657333,11.0107065 6.77592342,10.4602903 L7.19608341,10.5558679 C7.86371731,10.7067636 8.38787412,11.202169 8.55446162,11.8395577 C8.71719738,12.4637315 8.18341124,13.0522558 7.51577734,12.9788055 C6.43472399,12.8601786 4.93318967,12.6991412 3.78890368,12.5771338 C2.97939758,12.4907759 2.51237483,11.6579295 2.87989445,10.9618421 L2.87989445,10.9618421 Z M14.2213253,18.0972765 C14.2213253,18.3929216 13.965185,18.629868 13.6567253,18.619419 L5.05387733,18.3299203 C4.7646763,18.320086 4.55347289,18.1240137 4.48414167,17.8824575 C4.5894224,17.9119605 4.6995178,17.9291706 4.81410689,17.9291706 C5.46890168,17.9291706 6.00044097,17.4202431 6.00044097,16.7933034 C6.00044097,16.4524817 5.83898912,16.1553 5.59087325,15.9472421 C5.797262,15.8608842 6.01937867,15.8052587 6.2549764,15.8215468 L12.922328,16.2757708 C13.6541575,16.3255572 14.2213253,16.9085497 14.2213253,17.6113982 L14.2213253,18.0972765 L14.2213253,18.0972765 Z M15.6978234,14.0900868 L11.9388519,14.0900868 C11.4118063,14.0900868 10.9319444,13.7993589 10.706297,13.3435983 L9.95552987,11.827572 C9.80499127,11.5236292 10.0367373,11.1726659 10.388208,11.1726659 L21.0077597,11.1726659 C21.3592304,11.1726659 21.5903345,11.5236292 21.4401168,11.827572 L20.6896707,13.3435983 C20.4640232,13.7993589 19.9841614,14.0900868 19.4571158,14.0900868 L15.6978234,14.0900868 L15.6978234,14.0900868 Z M26.3420904,18.3299203 L17.7389214,18.619419 C17.4301407,18.629868 17.1743214,18.3929216 17.1743214,18.0972765 L17.1743214,17.6113982 C17.1743214,16.9085497 17.7414892,16.3255572 18.4736397,16.2757708 L25.1403493,15.8215468 C25.3759471,15.8052587 25.5983847,15.8608842 25.8047735,15.9472421 C25.5569786,16.1553 25.3952057,16.4524817 25.3952057,16.7933034 C25.3952057,17.4202431 25.926745,17.9291706 26.5812189,17.9291706 C26.6961289,17.9291706 26.8062243,17.9119605 26.911505,17.8824575 C26.8424948,18.1240137 26.6309704,18.320086 26.3420904,18.3299203 L26.3420904,18.3299203 Z M27.607064,12.5771338 C26.4624571,12.6991412 24.9609227,12.8601786 23.8801904,12.9788055 C23.2125565,13.0522558 22.6784493,12.4637315 22.8415061,11.8395577 C23.0077726,11.202169 23.5316084,10.7067636 24.1995633,10.5558679 L24.6200443,10.4602903 C24.8793944,11.0107065 25.4539447,11.3942461 26.1270352,11.3942461 C26.9005918,11.3942461 27.5425475,10.8871625 27.7261468,10.201524 C28.056754,10.3671713 28.3379305,10.6253229 28.5157523,10.9618421 C28.8832719,11.6579295 28.4165701,12.4907759 27.607064,12.5771338 L27.607064,12.5771338 Z" id="Fill-1-Copy-2"></path>
                        <path d="M15.5717084,5.34432097 L17.3239264,2.36451338 C17.5441172,1.9889642 17.9591416,1.75693504 18.4091525,1.75693504 L21.5036998,1.75693504 C21.9222549,1.75693504 22.3135269,1.95823186 22.543668,2.29290703 L24.629382,5.32188636 C24.8017471,5.57235493 24.6139751,5.9058008 24.3003797,5.9058008 L15.9141918,5.9058008 C15.6134356,5.9058008 15.4240586,5.59540418 15.5717084,5.34432097" id="Fill-2-Copy-2"></path>
                    </g>
                    <g id="Fill-1-Copy-2-+-Fill-2-Copy-2-Copy-Copy-Copy-Copy-Copy-Copy-Copy-Copy-Copy" transform="translate(16.000000, 26.000000)" fill="#C3C8CE">
                        <path d="M28.0965552,7.86555891 C27.9973731,7.76875204 28.0692721,7.60556332 28.2105023,7.60556332 L29.504685,7.60556332 C30.2464648,7.60556332 30.8476562,7.02963929 30.8476562,6.31910761 C30.8476562,5.71767574 30.2259222,5.29756467 29.63436,5.49978346 L27.7290356,6.15007975 C27.3968235,6.26348208 27.027378,6.1350209 26.8482724,5.84398565 L24.3850885,1.83679597 C23.8551541,0.974446542 22.8877269,0.444621018 21.8426231,0.444621018 L9.55302366,0.444621018 C8.50791983,0.444621018 7.54049263,0.974446542 7.01023725,1.83679597 L4.54737431,5.84398565 C4.36826868,6.1350209 3.99882319,6.26348208 3.66661113,6.15007975 L1.76160767,5.49978346 C1.16972454,5.29756467 0.547669492,5.71767574 0.547669492,6.31910761 C0.547669492,7.02963929 1.14918196,7.60556332 1.89128271,7.60556332 L3.18514437,7.60556332 C3.32637462,7.60556332 3.39827365,7.76875204 3.29941248,7.86555891 L1.63899413,9.49099232 C1.04229634,10.0752141 0.70815841,10.8598107 0.70815841,11.6766763 L0.70815841,20.6397629 C0.70815841,21.1468465 1.13762675,21.5580452 1.66756116,21.5580452 L4.24276634,21.5580452 C4.77237977,21.5580452 5.20184812,21.1468465 5.20184812,20.6397629 L5.20184812,20.3358201 C5.20184812,20.0604583 5.435199,19.8370342 5.72311612,19.8370342 L7.89806194,19.8370342 C8.58399158,19.8370342 7.21245328,19.0994581 7.89806194,19.0994581 L23.4975848,19.0994581 C24.1835144,19.0994581 22.8119761,19.8370342 23.4975848,19.8370342 L25.6728516,19.8370342 C25.9607687,19.8370342 26.1934776,20.0604583 26.1934776,20.3358201 L26.1934776,20.6397629 C26.1934776,21.1468465 26.6232669,21.5580452 27.1532014,21.5580452 L29.7284065,21.5580452 C30.257699,21.5580452 30.6871673,21.1468465 30.6871673,20.6397629 L30.6871673,11.6766763 C30.6871673,10.8598107 30.3533504,10.0752141 29.7566526,9.49099232 L28.0965552,7.86555891 L28.0965552,7.86555891 Z M5.42268087,5.9970327 L7.89421021,2.18468605 C8.3230366,1.52332612 9.07829744,1.1210398 9.8913343,1.1210398 L21.5046334,1.1210398 C22.3173493,1.1210398 23.0726101,1.52332612 23.5014365,2.18468605 L25.9732868,5.9970327 C26.1674784,6.29636568 25.942473,6.68359315 25.5743114,6.68359315 L5.82133534,6.68359315 C5.45349474,6.68359315 5.22848928,6.29636568 5.42268087,5.9970327 L5.42268087,5.9970327 Z M2.87989445,10.9618421 C3.05771617,10.6253229 3.33921373,10.3671713 3.6698209,10.201524 C3.85277827,10.8871625 4.49473394,11.3942461 5.26861151,11.3942461 C5.94170203,11.3942461 6.51657333,11.0107065 6.77592342,10.4602903 L7.19608341,10.5558679 C7.86371731,10.7067636 8.38787412,11.202169 8.55446162,11.8395577 C8.71719738,12.4637315 8.18341124,13.0522558 7.51577734,12.9788055 C6.43472399,12.8601786 4.93318967,12.6991412 3.78890368,12.5771338 C2.97939758,12.4907759 2.51237483,11.6579295 2.87989445,10.9618421 L2.87989445,10.9618421 Z M14.2213253,18.0972765 C14.2213253,18.3929216 13.965185,18.629868 13.6567253,18.619419 L5.05387733,18.3299203 C4.7646763,18.320086 4.55347289,18.1240137 4.48414167,17.8824575 C4.5894224,17.9119605 4.6995178,17.9291706 4.81410689,17.9291706 C5.46890168,17.9291706 6.00044097,17.4202431 6.00044097,16.7933034 C6.00044097,16.4524817 5.83898912,16.1553 5.59087325,15.9472421 C5.797262,15.8608842 6.01937867,15.8052587 6.2549764,15.8215468 L12.922328,16.2757708 C13.6541575,16.3255572 14.2213253,16.9085497 14.2213253,17.6113982 L14.2213253,18.0972765 L14.2213253,18.0972765 Z M15.6978234,14.0900868 L11.9388519,14.0900868 C11.4118063,14.0900868 10.9319444,13.7993589 10.706297,13.3435983 L9.95552987,11.827572 C9.80499127,11.5236292 10.0367373,11.1726659 10.388208,11.1726659 L21.0077597,11.1726659 C21.3592304,11.1726659 21.5903345,11.5236292 21.4401168,11.827572 L20.6896707,13.3435983 C20.4640232,13.7993589 19.9841614,14.0900868 19.4571158,14.0900868 L15.6978234,14.0900868 L15.6978234,14.0900868 Z M26.3420904,18.3299203 L17.7389214,18.619419 C17.4301407,18.629868 17.1743214,18.3929216 17.1743214,18.0972765 L17.1743214,17.6113982 C17.1743214,16.9085497 17.7414892,16.3255572 18.4736397,16.2757708 L25.1403493,15.8215468 C25.3759471,15.8052587 25.5983847,15.8608842 25.8047735,15.9472421 C25.5569786,16.1553 25.3952057,16.4524817 25.3952057,16.7933034 C25.3952057,17.4202431 25.926745,17.9291706 26.5812189,17.9291706 C26.6961289,17.9291706 26.8062243,17.9119605 26.911505,17.8824575 C26.8424948,18.1240137 26.6309704,18.320086 26.3420904,18.3299203 L26.3420904,18.3299203 Z M27.607064,12.5771338 C26.4624571,12.6991412 24.9609227,12.8601786 23.8801904,12.9788055 C23.2125565,13.0522558 22.6784493,12.4637315 22.8415061,11.8395577 C23.0077726,11.202169 23.5316084,10.7067636 24.1995633,10.5558679 L24.6200443,10.4602903 C24.8793944,11.0107065 25.4539447,11.3942461 26.1270352,11.3942461 C26.9005918,11.3942461 27.5425475,10.8871625 27.7261468,10.201524 C28.056754,10.3671713 28.3379305,10.6253229 28.5157523,10.9618421 C28.8832719,11.6579295 28.4165701,12.4907759 27.607064,12.5771338 L27.607064,12.5771338 Z" id="Fill-1-Copy-2"></path>
                        <path d="M15.5717084,5.34432097 L17.3239264,2.36451338 C17.5441172,1.9889642 17.9591416,1.75693504 18.4091525,1.75693504 L21.5036998,1.75693504 C21.9222549,1.75693504 22.3135269,1.95823186 22.543668,2.29290703 L24.629382,5.32188636 C24.8017471,5.57235493 24.6139751,5.9058008 24.3003797,5.9058008 L15.9141918,5.9058008 C15.6134356,5.9058008 15.4240586,5.59540418 15.5717084,5.34432097" id="Fill-2-Copy-2"></path>
                    </g>
                    <g id="Fill-1-Copy-2-+-Fill-2-Copy-2-Copy-Copy-Copy-Copy-Copy-Copy-Copy-Copy-Copy-Copy" transform="translate(16.000000, 4.000000)" fill="#15B95E">
                        <path d="M28.0965552,7.86555891 C27.9973731,7.76875204 28.0692721,7.60556332 28.2105023,7.60556332 L29.504685,7.60556332 C30.2464648,7.60556332 30.8476562,7.02963929 30.8476562,6.31910761 C30.8476562,5.71767574 30.2259222,5.29756467 29.63436,5.49978346 L27.7290356,6.15007975 C27.3968235,6.26348208 27.027378,6.1350209 26.8482724,5.84398565 L24.3850885,1.83679597 C23.8551541,0.974446542 22.8877269,0.444621018 21.8426231,0.444621018 L9.55302366,0.444621018 C8.50791983,0.444621018 7.54049263,0.974446542 7.01023725,1.83679597 L4.54737431,5.84398565 C4.36826868,6.1350209 3.99882319,6.26348208 3.66661113,6.15007975 L1.76160767,5.49978346 C1.16972454,5.29756467 0.547669492,5.71767574 0.547669492,6.31910761 C0.547669492,7.02963929 1.14918196,7.60556332 1.89128271,7.60556332 L3.18514437,7.60556332 C3.32637462,7.60556332 3.39827365,7.76875204 3.29941248,7.86555891 L1.63899413,9.49099232 C1.04229634,10.0752141 0.70815841,10.8598107 0.70815841,11.6766763 L0.70815841,20.6397629 C0.70815841,21.1468465 1.13762675,21.5580452 1.66756116,21.5580452 L4.24276634,21.5580452 C4.77237977,21.5580452 5.20184812,21.1468465 5.20184812,20.6397629 L5.20184812,20.3358201 C5.20184812,20.0604583 5.435199,19.8370342 5.72311612,19.8370342 L7.89806194,19.8370342 C8.58399158,19.8370342 7.21245328,19.0994581 7.89806194,19.0994581 L23.4975848,19.0994581 C24.1835144,19.0994581 22.8119761,19.8370342 23.4975848,19.8370342 L25.6728516,19.8370342 C25.9607687,19.8370342 26.1934776,20.0604583 26.1934776,20.3358201 L26.1934776,20.6397629 C26.1934776,21.1468465 26.6232669,21.5580452 27.1532014,21.5580452 L29.7284065,21.5580452 C30.257699,21.5580452 30.6871673,21.1468465 30.6871673,20.6397629 L30.6871673,11.6766763 C30.6871673,10.8598107 30.3533504,10.0752141 29.7566526,9.49099232 L28.0965552,7.86555891 L28.0965552,7.86555891 Z M5.42268087,5.9970327 L7.89421021,2.18468605 C8.3230366,1.52332612 9.07829744,1.1210398 9.8913343,1.1210398 L21.5046334,1.1210398 C22.3173493,1.1210398 23.0726101,1.52332612 23.5014365,2.18468605 L25.9732868,5.9970327 C26.1674784,6.29636568 25.942473,6.68359315 25.5743114,6.68359315 L5.82133534,6.68359315 C5.45349474,6.68359315 5.22848928,6.29636568 5.42268087,5.9970327 L5.42268087,5.9970327 Z M2.87989445,10.9618421 C3.05771617,10.6253229 3.33921373,10.3671713 3.6698209,10.201524 C3.85277827,10.8871625 4.49473394,11.3942461 5.26861151,11.3942461 C5.94170203,11.3942461 6.51657333,11.0107065 6.77592342,10.4602903 L7.19608341,10.5558679 C7.86371731,10.7067636 8.38787412,11.202169 8.55446162,11.8395577 C8.71719738,12.4637315 8.18341124,13.0522558 7.51577734,12.9788055 C6.43472399,12.8601786 4.93318967,12.6991412 3.78890368,12.5771338 C2.97939758,12.4907759 2.51237483,11.6579295 2.87989445,10.9618421 L2.87989445,10.9618421 Z M14.2213253,18.0972765 C14.2213253,18.3929216 13.965185,18.629868 13.6567253,18.619419 L5.05387733,18.3299203 C4.7646763,18.320086 4.55347289,18.1240137 4.48414167,17.8824575 C4.5894224,17.9119605 4.6995178,17.9291706 4.81410689,17.9291706 C5.46890168,17.9291706 6.00044097,17.4202431 6.00044097,16.7933034 C6.00044097,16.4524817 5.83898912,16.1553 5.59087325,15.9472421 C5.797262,15.8608842 6.01937867,15.8052587 6.2549764,15.8215468 L12.922328,16.2757708 C13.6541575,16.3255572 14.2213253,16.9085497 14.2213253,17.6113982 L14.2213253,18.0972765 L14.2213253,18.0972765 Z M15.6978234,14.0900868 L11.9388519,14.0900868 C11.4118063,14.0900868 10.9319444,13.7993589 10.706297,13.3435983 L9.95552987,11.827572 C9.80499127,11.5236292 10.0367373,11.1726659 10.388208,11.1726659 L21.0077597,11.1726659 C21.3592304,11.1726659 21.5903345,11.5236292 21.4401168,11.827572 L20.6896707,13.3435983 C20.4640232,13.7993589 19.9841614,14.0900868 19.4571158,14.0900868 L15.6978234,14.0900868 L15.6978234,14.0900868 Z M26.3420904,18.3299203 L17.7389214,18.619419 C17.4301407,18.629868 17.1743214,18.3929216 17.1743214,18.0972765 L17.1743214,17.6113982 C17.1743214,16.9085497 17.7414892,16.3255572 18.4736397,16.2757708 L25.1403493,15.8215468 C25.3759471,15.8052587 25.5983847,15.8608842 25.8047735,15.9472421 C25.5569786,16.1553 25.3952057,16.4524817 25.3952057,16.7933034 C25.3952057,17.4202431 25.926745,17.9291706 26.5812189,17.9291706 C26.6961289,17.9291706 26.8062243,17.9119605 26.911505,17.8824575 C26.8424948,18.1240137 26.6309704,18.320086 26.3420904,18.3299203 L26.3420904,18.3299203 Z M27.607064,12.5771338 C26.4624571,12.6991412 24.9609227,12.8601786 23.8801904,12.9788055 C23.2125565,13.0522558 22.6784493,12.4637315 22.8415061,11.8395577 C23.0077726,11.202169 23.5316084,10.7067636 24.1995633,10.5558679 L24.6200443,10.4602903 C24.8793944,11.0107065 25.4539447,11.3942461 26.1270352,11.3942461 C26.9005918,11.3942461 27.5425475,10.8871625 27.7261468,10.201524 C28.056754,10.3671713 28.3379305,10.6253229 28.5157523,10.9618421 C28.8832719,11.6579295 28.4165701,12.4907759 27.607064,12.5771338 L27.607064,12.5771338 Z" id="Fill-1-Copy-2"></path>
                        <path d="M15.5717084,5.34432097 L17.3239264,2.36451338 C17.5441172,1.9889642 17.9591416,1.75693504 18.4091525,1.75693504 L21.5036998,1.75693504 C21.9222549,1.75693504 22.3135269,1.95823186 22.543668,2.29290703 L24.629382,5.32188636 C24.8017471,5.57235493 24.6139751,5.9058008 24.3003797,5.9058008 L15.9141918,5.9058008 C15.6134356,5.9058008 15.4240586,5.59540418 15.5717084,5.34432097" id="Fill-2-Copy-2"></path>
                    </g>
                    <path d="M50,28.2978607 L55.8829803,28.2978607 L55.8829803,71.0805718 L58.8893101,71.0805718 L58.8893101,28.2978607 L64.7200003,28.2978607 L57.423794,21 L50,28.2978607 Z" id="Fill-2" fill="#15B95E"></path>
                </g>
            </g>
        </g>
    </g>
</svg>