<?xml version="1.0" encoding="UTF-8" standalone="no"?>
<svg width="15px" height="15px" viewBox="0 0 15 15" version="1.1" xmlns="http://www.w3.org/2000/svg" xmlns:xlink="http://www.w3.org/1999/xlink" xmlns:sketch="http://www.bohemiancoding.com/sketch/ns">
    <!-- Generator: Sketch 3.3.2 (12043) - http://www.bohemiancoding.com/sketch -->
    <title>Shape Copy 3</title>
    <desc>Created with Sketch.</desc>
    <defs></defs>
    <g id="Acounts" stroke="none" stroke-width="1" fill="none" fill-rule="evenodd" sketch:type="MSPage">
        <g id="Desktop---User-cabinet---Profile-(Max-width:-1366px)" sketch:type="MSArtboardGroup" transform="translate(-1120.000000, -26.000000)" fill="#4C525A">
            <path d="M1127.5,26 C1123.358,26 1120,29.358 1120,33.5 C1120,37.643 1123.358,41 1127.5,41 C1131.643,41 1135,37.643 1135,33.5 C1135,29.358 1131.643,26 1127.5,26 L1127.5,26 Z M1131.098,32.607 L1127.855,35.85 C1127.756,35.95 1127.627,35.997 1127.5,35.996 C1127.371,35.996 1127.243,35.948 1127.145,35.85 L1123.902,32.607 C1123.707,32.412 1123.707,32.095 1123.902,31.9 C1124.097,31.705 1124.414,31.705 1124.609,31.9 L1127.5,34.791 L1130.391,31.9 C1130.586,31.705 1130.903,31.705 1131.098,31.9 C1131.293,32.095 1131.293,32.412 1131.098,32.607 L1131.098,32.607 Z" id="Shape-Copy-3" sketch:type="MSShapeGroup"></path>
        </g>
    </g>
</svg>