<?xml version="1.0" encoding="UTF-8" standalone="no"?>
<svg width="26px" height="26px" viewBox="0 0 26 26" version="1.1" xmlns="http://www.w3.org/2000/svg" xmlns:xlink="http://www.w3.org/1999/xlink" xmlns:sketch="http://www.bohemiancoding.com/sketch/ns">
    <!-- Generator: Sketch 3.3.2 (12043) - http://www.bohemiancoding.com/sketch -->
    <title>triangle38 (1)</title>
    <desc>Created with Sketch.</desc>
    <defs></defs>
    <g id="Acounts" stroke="none" stroke-width="1" fill="none" fill-rule="evenodd" sketch:type="MSPage">
        <g id="Desktop---User-cabinet---Profile-(Max-width:-1366px)" sketch:type="MSArtboardGroup" transform="translate(-670.000000, -592.000000)" fill="#CD2F41">
            <g id="triangle38-(1)" sketch:type="MSLayerGroup" transform="translate(670.000000, 592.000000)">
                <path d="M25.657125,22.72075 L14.382875,1.59575 C14.10175,1.067625 13.550875,0.736125 12.95125,0.736125 L12.949625,0.736125 C12.35,0.736125 11.80075,1.066 11.518,1.594125 L0.193375,22.719125 C-0.076375,23.226125 -0.06175,23.833875 0.23075,24.321375 C0.524875,24.8105 1.054625,25.111125 1.625,25.111125 L24.22225,25.111125 C24.79425,25.111125 25.322375,24.812125 25.6165,24.321375 C25.910625,23.83225 25.92525,23.2245 25.657125,22.72075 L25.657125,22.72075 Z M12.949625,21.861125 C12.052625,21.861125 11.324625,21.133125 11.324625,20.236125 C11.324625,19.339125 12.052625,18.611125 12.949625,18.611125 C13.845,18.611125 14.574625,19.339125 14.574625,20.236125 C14.574625,21.133125 13.846625,21.861125 12.949625,21.861125 L12.949625,21.861125 Z M14.57625,15.387125 C14.57625,16.28575 13.846625,17.012125 12.95125,17.012125 C12.05425,17.012125 11.32625,16.28575 11.32625,15.387125 L11.32625,8.887125 C11.32625,7.990125 12.05425,7.262125 12.95125,7.262125 C13.846625,7.262125 14.57625,7.990125 14.57625,8.887125 L14.57625,15.387125 L14.57625,15.387125 Z" id="Shape" sketch:type="MSShapeGroup"></path>
            </g>
        </g>
    </g>
</svg>