<?xml version="1.0" encoding="UTF-8" standalone="no"?>
<svg width="18px" height="18px" viewBox="0 0 18 18" version="1.1" xmlns="http://www.w3.org/2000/svg" xmlns:xlink="http://www.w3.org/1999/xlink" xmlns:sketch="http://www.bohemiancoding.com/sketch/ns">
    <!-- Generator: Sketch 3.3.2 (12043) - http://www.bohemiancoding.com/sketch -->
    <title>silhouette121</title>
    <desc>Created with Sketch.</desc>
    <defs></defs>
    <g id="Acounts" stroke="none" stroke-width="1" fill="none" fill-rule="evenodd" sketch:type="MSPage">
        <g id="Desktop---User-cabinet---Profile-(Max-width:-1366px)" sketch:type="MSArtboardGroup" transform="translate(-149.000000, -414.000000)" fill="#DBDDDF">
            <g id="silhouette121" sketch:type="MSLayerGroup" transform="translate(149.000000, 414.000000)">
                <path d="M8.55547688,10.6533671 C6.06226161,10.6533671 4.04222023,8.22040725 4.04222023,5.22140597 C4.04222023,2.22272892 6.06226161,0 8.55547688,0 C11.0490794,0 13.0707989,2.22272892 13.0707989,5.22140597 C13.0707989,8.22040725 11.0490149,10.6533671 8.55547688,10.6533671 L8.55547688,10.6533671 Z M1.53493432,17.9966015 C1.53493432,17.9966015 0.57761401,18.0600858 0.155946428,17.4763415 C-0.0718947732,17.160995 0.0868195364,16.5219369 0.242629355,16.1653484 L0.624214958,15.2916772 C0.624214958,15.2916772 1.67951344,12.9204508 2.88081101,11.5463624 C3.61874541,10.7037525 4.49641812,10.8956321 5.06408479,11.1696716 C5.41372099,11.3382714 5.80905452,11.8295453 6.09795458,12.0899022 C6.49606351,12.4486307 7.19888585,12.856318 8.34790257,12.8792735 L9.05285487,12.8792735 C10.2011616,12.856318 10.9039839,12.4486307 11.3017702,12.0899022 C11.5903475,11.8296101 11.974773,11.3230974 12.3212466,11.1489209 C12.8422478,10.8868779 13.6352384,10.7256705 14.3538741,11.5464273 C15.5555589,12.9205805 16.5072639,15.3347998 16.5072639,15.3347998 L16.8983375,16.1915462 C17.0601499,16.5456706 17.2258995,17.1815512 17.0043837,17.5011127 C16.6091147,18.0724714 15.7216313,17.9966664 15.7216313,17.9966664 L1.53493432,17.9966015 L1.53493432,17.9966015 Z" id="Shape" sketch:type="MSShapeGroup"></path>
            </g>
        </g>
    </g>
</svg>