<?xml version="1.0" encoding="UTF-8" standalone="no"?>
<svg width="67px" height="74px" viewBox="0 0 67 74" version="1.1" xmlns="http://www.w3.org/2000/svg" xmlns:xlink="http://www.w3.org/1999/xlink" xmlns:sketch="http://www.bohemiancoding.com/sketch/ns">
    <!-- Generator: Sketch 3.3.2 (12043) - http://www.bohemiancoding.com/sketch -->
    <title>Group</title>
    <desc>Created with Sketch.</desc>
    <defs>
        <rect id="path-1" x="0" y="0" width="67" height="74"></rect>
    </defs>
    <g id="Acounts" stroke="none" stroke-width="1" fill="none" fill-rule="evenodd" sketch:type="MSPage">
        <g id="Desktop---User-cabinet---Profile-(Max-width:-1366px)" sketch:type="MSArtboardGroup" transform="translate(-960.000000, -362.000000)">
            <g id="Sell-faster" sketch:type="MSLayerGroup" transform="translate(925.000000, 197.000000)">
                <g id="Group" transform="translate(35.000000, 165.000000)">
                    <g id="paint60">
                        <mask id="mask-2" sketch:name="Mask" fill="white">
                            <use xlink:href="#path-1"></use>
                        </mask>
                        <use id="Mask" fill="#FFFFFF" sketch:type="MSShapeGroup" xlink:href="#path-1"></use>
                        <g mask="url(#mask-2)">
                            <g transform="translate(23.000000, 48.000000)"></g>
                        </g>
                    </g>
                    <g id="Fill-1-Copy-2-+-Fill-2-Copy-2-Copy-Copy-Copy-Copy" transform="translate(15.000000, 13.000000)" fill="#F5A623" sketch:type="MSShapeGroup">
                        <path d="M35.3124269,9.62226786 C35.1869303,9.50148998 35.2779052,9.29789299 35.4566057,9.29789299 L37.0941525,9.29789299 C38.0327365,9.29789299 38.7934322,8.57936047 38.7934322,7.69288919 C38.7934322,6.94253266 38.0067437,6.41839501 37.2582321,6.67068658 L34.8473993,7.48200718 C34.4270469,7.62348984 33.9595825,7.46321951 33.7329577,7.10011903 L30.6162578,2.10068174 C29.9457246,1.02480008 28.7216259,0.363780833 27.3992419,0.363780833 L11.8490456,0.363780833 C10.5266616,0.363780833 9.30256285,1.02480008 8.63162354,2.10068174 L5.51532975,7.10011903 C5.28870497,7.46321951 4.8212406,7.62348984 4.40088819,7.48200718 L1.99046155,6.67068658 C1.24154382,6.41839501 0.454449153,6.94253266 0.454449153,7.69288919 C0.454449153,8.57936047 1.21555101,9.29789299 2.15454113,9.29789299 L3.79168179,9.29789299 C3.97038233,9.29789299 4.06135715,9.50148998 3.93626677,9.62226786 L1.83531698,11.6501859 C1.08030719,12.3790708 0.657517951,13.3579468 0.657517951,14.377082 L0.657517951,25.5595798 C0.657517951,26.1922258 1.20093006,26.7052442 1.87146323,26.7052442 L5.12990517,26.7052442 C5.80003221,26.7052442 6.34344431,26.1922258 6.34344431,25.5595798 L6.34344431,25.1803756 C6.34344431,24.8368297 6.63870635,24.558082 7.00301177,24.558082 L9.75500013,24.558082 C10.6229162,24.558082 8.88749022,23.6378696 9.75500013,23.6378696 L29.4932874,23.6378696 C30.3612034,23.6378696 28.6257775,24.558082 29.4932874,24.558082 L32.2456819,24.558082 C32.6099873,24.558082 32.904437,24.8368297 32.904437,25.1803756 L32.904437,25.5595798 C32.904437,26.1922258 33.4482553,26.7052442 34.1187885,26.7052442 L37.3772304,26.7052442 C38.0469513,26.7052442 38.5903634,26.1922258 38.5903634,25.5595798 L38.5903634,14.377082 C38.5903634,13.3579468 38.1679803,12.3790708 37.4129705,11.6501859 L35.3124269,9.62226786 L35.3124269,9.62226786 Z M6.62286698,7.29106311 L9.75012648,2.53471526 C10.2927263,1.70959147 11.2483681,1.20769229 12.2771146,1.20769229 L26.971579,1.20769229 C27.9999194,1.20769229 28.9555612,1.70959147 29.498161,2.53471526 L32.6258267,7.29106311 C32.8715399,7.66451597 32.5868374,8.14762748 32.1209976,8.14762748 L7.12728988,8.14762748 C6.66185619,8.14762748 6.37715373,7.66451597 6.62286698,7.29106311 L6.62286698,7.29106311 Z M3.40544493,13.4852428 C3.63044516,13.0653959 3.98662784,12.7433216 4.40494956,12.5366572 C4.63644799,13.3920713 5.44872319,14.0247174 6.42792093,14.0247174 C7.27959148,14.0247174 8.00698391,13.5462069 8.33514309,12.8594984 L8.86677721,12.9787426 C9.71154341,13.1670027 10.3747661,13.7850787 10.5855515,14.5802956 C10.7914633,15.3590253 10.1160565,16.0932781 9.27129025,16.0016403 C7.90341883,15.8536395 6.00350714,15.6527265 4.55562661,15.500508 C3.53134759,15.3927665 2.94041739,14.3536933 3.40544493,13.4852428 L3.40544493,13.4852428 Z M17.7559108,22.387531 C17.7559108,22.7563828 17.431813,23.052001 17.0415148,23.0389647 L6.15621488,22.6777813 C5.79028491,22.6655118 5.52304637,22.4208887 5.43532065,22.1195191 C5.56853378,22.1563276 5.70783897,22.1777992 5.8528301,22.1777992 C6.68135079,22.1777992 7.35391466,21.5428527 7.35391466,20.7606721 C7.35391466,20.3354573 7.14962744,19.9646884 6.83568308,19.7051118 C7.09682956,19.5973703 7.37787677,19.5279709 7.67598177,19.5482923 L16.1122719,20.1149898 C17.0382657,20.1771041 17.7559108,20.9044553 17.7559108,21.7813411 L17.7559108,22.387531 L17.7559108,22.387531 Z M19.6241437,17.3880937 L14.8678663,17.3880937 C14.2009884,17.3880937 13.5938127,17.0253766 13.308298,16.456762 L12.3583421,14.5653421 C12.1678636,14.1861379 12.4610949,13.7482702 12.9058156,13.7482702 L26.342878,13.7482702 C26.7875987,13.7482702 27.0800178,14.1861379 26.8899454,14.5653421 L25.9403957,16.456762 C25.6548809,17.0253766 25.0477052,17.3880937 24.3808273,17.3880937 L19.6241437,17.3880937 L19.6241437,17.3880937 Z M33.0924787,22.6777813 L22.2067727,23.0389647 C21.8160684,23.052001 21.4923767,22.7563828 21.4923767,22.387531 L21.4923767,21.7813411 C21.4923767,20.9044553 22.2100218,20.1771041 23.1364217,20.1149898 L31.5718996,19.5482923 C31.8700046,19.5279709 32.1514579,19.5973703 32.4126044,19.7051118 C32.0990662,19.9646884 31.8943728,20.3354573 31.8943728,20.7606721 C31.8943728,21.5428527 32.5669367,22.1777992 33.3950513,22.1777992 C33.5404485,22.1777992 33.6797537,22.1563276 33.8129668,22.1195191 C33.7256473,22.4208887 33.4580026,22.6655118 33.0924787,22.6777813 L33.0924787,22.6777813 Z M34.693067,15.500508 C33.2447803,15.6527265 31.3448687,15.8536395 29.9774034,16.0016403 C29.1326372,16.0932781 28.4568242,15.3590253 28.6631421,14.5802956 C28.8735214,13.7850787 29.5363379,13.1670027 30.3815103,12.9787426 L30.9135505,12.8594984 C31.2417097,13.5462069 31.968696,14.0247174 32.8203666,14.0247174 C33.7991582,14.0247174 34.6114334,13.3920713 34.8437441,12.5366572 C35.2620658,12.7433216 35.6178423,13.0653959 35.8428426,13.4852428 C36.3078701,14.3536933 35.717346,15.3927665 34.693067,15.500508 L34.693067,15.500508 Z" id="Fill-1-Copy-2"></path>
                        <path d="M19.4645688,6.47672897 L21.681674,2.75907086 C21.9602844,2.29052938 22.4854203,2.0010459 23.0548252,2.0010459 L26.9703978,2.0010459 C27.5000012,2.0010459 27.9950829,2.2521872 28.2862836,2.66973358 L30.9253657,6.44873917 C31.1434616,6.76122797 30.9058711,7.17724066 30.5090747,7.17724066 L19.8979176,7.17724066 C19.5173667,7.17724066 19.2777455,6.7899846 19.4645688,6.47672897" id="Fill-2-Copy-2"></path>
                    </g>
                    <g id="Fill-1-Copy-2-+-Fill-2-Copy-2-Copy-Copy-Copy-Copy-Copy-Copy-Copy-Copy-Copy-Copy-Copy" transform="translate(7.000000, 45.000000)" fill="#C3C8CE" sketch:type="MSShapeGroup">
                        <path d="M22.6585123,6.34319267 C22.5785267,6.26512261 22.6365098,6.13351881 22.7504051,6.13351881 L23.7941008,6.13351881 C24.3923103,6.13351881 24.8771421,5.66906394 24.8771421,5.09605453 C24.8771421,4.61102882 24.3757437,4.27222957 23.8986774,4.43530924 L22.3621255,4.95974173 C22.0942125,5.05119523 21.7962726,4.9475975 21.6518326,4.71289166 L19.6653939,1.48128708 C19.2380275,0.785843986 18.4578443,0.358565337 17.6150186,0.358565337 L7.70405134,0.358565337 C6.86122567,0.358565337 6.08104244,0.785843986 5.65341713,1.48128708 L3.66723735,4.71289166 C3.52279732,4.9475975 3.22485741,5.05119523 2.95694446,4.95974173 L1.42065135,4.43530924 C0.94332624,4.27222957 0.441668945,4.61102882 0.441668945,5.09605453 C0.441668945,5.66906394 0.926759642,6.13351881 1.525228,6.13351881 L2.56866482,6.13351881 C2.68256018,6.13351881 2.74054327,6.26512261 2.66081652,6.34319267 L1.32176946,7.65402606 C0.840561562,8.12517265 0.571095492,8.75791185 0.571095492,9.41667441 L0.571095492,16.6449701 C0.571095492,17.0539085 0.917440931,17.3855203 1.34480739,17.3855203 L3.42158576,17.3855203 C3.84869336,17.3855203 4.1950388,17.0539085 4.1950388,16.6449701 L4.1950388,16.3998549 C4.1950388,16.177789 4.383225,15.9976083 4.61541623,15.9976083 L6.36940479,15.9976083 C6.92257385,15.9976083 5.81649458,15.4027888 6.36940479,15.4027888 L18.9496651,15.4027888 C19.5028342,15.4027888 18.3967549,15.9976083 18.9496651,15.9976083 L20.7039126,15.9976083 C20.9361038,15.9976083 21.1237723,16.177789 21.1237723,16.3998549 L21.1237723,16.6449701 C21.1237723,17.0539085 21.4703766,17.3855203 21.897743,17.3855203 L23.9745214,17.3855203 C24.4013702,17.3855203 24.7477156,17.0539085 24.7477156,16.6449701 L24.7477156,9.41667441 C24.7477156,8.75791185 24.4785084,8.12517265 23.9973005,7.65402606 L22.6585123,6.34319267 L22.6585123,6.34319267 Z M4.37312973,4.83631669 L6.36629855,1.76184359 C6.71212629,1.2284888 7.32120762,0.904064354 7.9768825,0.904064354 L17.3424463,0.904064354 C17.9978623,0.904064354 18.6069436,1.2284888 18.9527714,1.76184359 L20.9461991,4.83631669 C21.1028052,5.07771426 20.9213492,5.38999448 20.6244447,5.38999448 L4.69462527,5.38999448 C4.39797963,5.38999448 4.21652361,5.07771426 4.37312973,4.83631669 L4.37312973,4.83631669 Z M2.32249552,8.84019521 C2.46590014,8.56880883 2.6929143,8.36062202 2.95953299,8.22703548 C3.10707925,8.77996974 3.62478544,9.18890812 4.24888025,9.18890812 C4.79169518,9.18890812 5.25530108,8.879602 5.46445437,8.43571798 L5.80329307,8.51279666 C6.34170751,8.63448681 6.76441461,9.03400722 6.89875937,9.54803037 C7.02999789,10.0513963 6.59952519,10.5260127 6.06111076,10.4667786 C5.18929354,10.3711118 3.97837876,10.2412429 3.05556748,10.1428498 C2.40273998,10.0732064 2.02610873,9.40155608 2.32249552,8.84019521 L2.32249552,8.84019521 Z M11.4688107,14.5945778 C11.4688107,14.8330013 11.262246,15.0240871 11.0134881,15.0156605 L4.07570753,14.7821938 C3.84248089,14.7742629 3.67215555,14.61614 3.61624329,14.4213367 C3.7011471,14.4451295 3.78993371,14.4590086 3.88234427,14.4590086 C4.41040458,14.4590086 4.8390653,14.0485831 4.8390653,13.5429866 C4.8390653,13.2681304 4.70886219,13.0284678 4.50876875,12.8606791 C4.67521129,12.7910357 4.85433763,12.7461764 5.0443358,12.759312 L10.4212323,13.1256216 C11.0114173,13.1657719 11.4688107,13.6359271 11.4688107,14.2027405 L11.4688107,14.5945778 L11.4688107,14.5945778 Z M12.659535,11.3629733 L9.62810639,11.3629733 C9.20306961,11.3629733 8.81608423,11.1285153 8.63411051,10.7609664 L8.02865312,9.53836456 C7.90725102,9.29324937 8.09414295,9.01021444 8.37758709,9.01021444 L16.9417417,9.01021444 C17.2251858,9.01021444 17.4115601,9.29324937 17.2904168,9.53836456 L16.6852183,10.7609664 C16.5032446,11.1285153 16.1162592,11.3629733 15.6912224,11.3629733 L12.659535,11.3629733 L12.659535,11.3629733 Z M21.2436213,14.7821938 L14.3055818,15.0156605 C14.0565651,15.0240871 13.8502592,14.8330013 13.8502592,14.5945778 L13.8502592,14.2027405 C13.8502592,13.6359271 14.3076526,13.1657719 14.8980965,13.1256216 L20.2744753,12.759312 C20.4644734,12.7461764 20.6438586,12.7910357 20.8103012,12.8606791 C20.6104666,13.0284678 20.4800046,13.2681304 20.4800046,13.5429866 C20.4800046,14.0485831 20.9086654,14.4590086 21.4364668,14.4590086 C21.5291362,14.4590086 21.6179228,14.4451295 21.7028266,14.4213367 C21.6471732,14.61614 21.476589,14.7742629 21.2436213,14.7821938 L21.2436213,14.7821938 Z M22.2637613,10.1428498 C21.3406912,10.2412429 20.1297764,10.3711118 19.258218,10.4667786 C18.7198036,10.5260127 18.289072,10.0513963 18.4205694,9.54803037 C18.5546553,9.03400722 18.9771036,8.63448681 19.5157769,8.51279666 L19.8548744,8.43571798 C20.0640277,8.879602 20.5273748,9.18890812 21.0701897,9.18890812 C21.6940256,9.18890812 22.2117318,8.77996974 22.3597958,8.22703548 C22.6264145,8.36062202 22.8531698,8.56880883 22.9965744,8.84019521 C23.2929612,9.40155608 22.9165888,10.0732064 22.2637613,10.1428498 L22.2637613,10.1428498 Z" id="Fill-1-Copy-2"></path>
                        <path d="M12.5578294,4.30993627 L13.9709084,1.90686563 C14.1484816,1.60400339 14.4831787,1.4168831 14.8460907,1.4168831 L17.3416934,1.4168831 C17.6792378,1.4168831 17.9947798,1.57921924 18.1803774,1.84911858 L19.8624048,4.29184384 C20.0014089,4.49383462 19.8499799,4.76274258 19.5970804,4.76274258 L12.8340256,4.76274258 C12.5914803,4.76274258 12.438757,4.51242273 12.5578294,4.30993627" id="Fill-2-Copy-2"></path>
                    </g>
                    <g id="Fill-1-Copy-2-+-Fill-2-Copy-2-Copy-Copy-Copy-Copy-Copy-Copy-Copy-Copy-Copy-Copy-Copy-Copy" transform="translate(36.000000, 45.000000)" fill="#C3C8CE" sketch:type="MSShapeGroup">
                        <path d="M22.6585123,6.34319267 C22.5785267,6.26512261 22.6365098,6.13351881 22.7504051,6.13351881 L23.7941008,6.13351881 C24.3923103,6.13351881 24.8771421,5.66906394 24.8771421,5.09605453 C24.8771421,4.61102882 24.3757437,4.27222957 23.8986774,4.43530924 L22.3621255,4.95974173 C22.0942125,5.05119523 21.7962726,4.9475975 21.6518326,4.71289166 L19.6653939,1.48128708 C19.2380275,0.785843986 18.4578443,0.358565337 17.6150186,0.358565337 L7.70405134,0.358565337 C6.86122567,0.358565337 6.08104244,0.785843986 5.65341713,1.48128708 L3.66723735,4.71289166 C3.52279732,4.9475975 3.22485741,5.05119523 2.95694446,4.95974173 L1.42065135,4.43530924 C0.94332624,4.27222957 0.441668945,4.61102882 0.441668945,5.09605453 C0.441668945,5.66906394 0.926759642,6.13351881 1.525228,6.13351881 L2.56866482,6.13351881 C2.68256018,6.13351881 2.74054327,6.26512261 2.66081652,6.34319267 L1.32176946,7.65402606 C0.840561562,8.12517265 0.571095492,8.75791185 0.571095492,9.41667441 L0.571095492,16.6449701 C0.571095492,17.0539085 0.917440931,17.3855203 1.34480739,17.3855203 L3.42158576,17.3855203 C3.84869336,17.3855203 4.1950388,17.0539085 4.1950388,16.6449701 L4.1950388,16.3998549 C4.1950388,16.177789 4.383225,15.9976083 4.61541623,15.9976083 L6.36940479,15.9976083 C6.92257385,15.9976083 5.81649458,15.4027888 6.36940479,15.4027888 L18.9496651,15.4027888 C19.5028342,15.4027888 18.3967549,15.9976083 18.9496651,15.9976083 L20.7039126,15.9976083 C20.9361038,15.9976083 21.1237723,16.177789 21.1237723,16.3998549 L21.1237723,16.6449701 C21.1237723,17.0539085 21.4703766,17.3855203 21.897743,17.3855203 L23.9745214,17.3855203 C24.4013702,17.3855203 24.7477156,17.0539085 24.7477156,16.6449701 L24.7477156,9.41667441 C24.7477156,8.75791185 24.4785084,8.12517265 23.9973005,7.65402606 L22.6585123,6.34319267 L22.6585123,6.34319267 Z M4.37312973,4.83631669 L6.36629855,1.76184359 C6.71212629,1.2284888 7.32120762,0.904064354 7.9768825,0.904064354 L17.3424463,0.904064354 C17.9978623,0.904064354 18.6069436,1.2284888 18.9527714,1.76184359 L20.9461991,4.83631669 C21.1028052,5.07771426 20.9213492,5.38999448 20.6244447,5.38999448 L4.69462527,5.38999448 C4.39797963,5.38999448 4.21652361,5.07771426 4.37312973,4.83631669 L4.37312973,4.83631669 Z M2.32249552,8.84019521 C2.46590014,8.56880883 2.6929143,8.36062202 2.95953299,8.22703548 C3.10707925,8.77996974 3.62478544,9.18890812 4.24888025,9.18890812 C4.79169518,9.18890812 5.25530108,8.879602 5.46445437,8.43571798 L5.80329307,8.51279666 C6.34170751,8.63448681 6.76441461,9.03400722 6.89875937,9.54803037 C7.02999789,10.0513963 6.59952519,10.5260127 6.06111076,10.4667786 C5.18929354,10.3711118 3.97837876,10.2412429 3.05556748,10.1428498 C2.40273998,10.0732064 2.02610873,9.40155608 2.32249552,8.84019521 L2.32249552,8.84019521 Z M11.4688107,14.5945778 C11.4688107,14.8330013 11.262246,15.0240871 11.0134881,15.0156605 L4.07570753,14.7821938 C3.84248089,14.7742629 3.67215555,14.61614 3.61624329,14.4213367 C3.7011471,14.4451295 3.78993371,14.4590086 3.88234427,14.4590086 C4.41040458,14.4590086 4.8390653,14.0485831 4.8390653,13.5429866 C4.8390653,13.2681304 4.70886219,13.0284678 4.50876875,12.8606791 C4.67521129,12.7910357 4.85433763,12.7461764 5.0443358,12.759312 L10.4212323,13.1256216 C11.0114173,13.1657719 11.4688107,13.6359271 11.4688107,14.2027405 L11.4688107,14.5945778 L11.4688107,14.5945778 Z M12.659535,11.3629733 L9.62810639,11.3629733 C9.20306961,11.3629733 8.81608423,11.1285153 8.63411051,10.7609664 L8.02865312,9.53836456 C7.90725102,9.29324937 8.09414295,9.01021444 8.37758709,9.01021444 L16.9417417,9.01021444 C17.2251858,9.01021444 17.4115601,9.29324937 17.2904168,9.53836456 L16.6852183,10.7609664 C16.5032446,11.1285153 16.1162592,11.3629733 15.6912224,11.3629733 L12.659535,11.3629733 L12.659535,11.3629733 Z M21.2436213,14.7821938 L14.3055818,15.0156605 C14.0565651,15.0240871 13.8502592,14.8330013 13.8502592,14.5945778 L13.8502592,14.2027405 C13.8502592,13.6359271 14.3076526,13.1657719 14.8980965,13.1256216 L20.2744753,12.759312 C20.4644734,12.7461764 20.6438586,12.7910357 20.8103012,12.8606791 C20.6104666,13.0284678 20.4800046,13.2681304 20.4800046,13.5429866 C20.4800046,14.0485831 20.9086654,14.4590086 21.4364668,14.4590086 C21.5291362,14.4590086 21.6179228,14.4451295 21.7028266,14.4213367 C21.6471732,14.61614 21.476589,14.7742629 21.2436213,14.7821938 L21.2436213,14.7821938 Z M22.2637613,10.1428498 C21.3406912,10.2412429 20.1297764,10.3711118 19.258218,10.4667786 C18.7198036,10.5260127 18.289072,10.0513963 18.4205694,9.54803037 C18.5546553,9.03400722 18.9771036,8.63448681 19.5157769,8.51279666 L19.8548744,8.43571798 C20.0640277,8.879602 20.5273748,9.18890812 21.0701897,9.18890812 C21.6940256,9.18890812 22.2117318,8.77996974 22.3597958,8.22703548 C22.6264145,8.36062202 22.8531698,8.56880883 22.9965744,8.84019521 C23.2929612,9.40155608 22.9165888,10.0732064 22.2637613,10.1428498 L22.2637613,10.1428498 Z" id="Fill-1-Copy-2"></path>
                        <path d="M12.5578294,4.30993627 L13.9709084,1.90686563 C14.1484816,1.60400339 14.4831787,1.4168831 14.8460907,1.4168831 L17.3416934,1.4168831 C17.6792378,1.4168831 17.9947798,1.57921924 18.1803774,1.84911858 L19.8624048,4.29184384 C20.0014089,4.49383462 19.8499799,4.76274258 19.5970804,4.76274258 L12.8340256,4.76274258 C12.5914803,4.76274258 12.438757,4.51242273 12.5578294,4.30993627" id="Fill-2-Copy-2"></path>
                    </g>
                </g>
            </g>
        </g>
    </g>
</svg>