<?xml version="1.0" encoding="UTF-8" standalone="no"?>
<svg width="15px" height="15px" viewBox="0 0 15 15" version="1.1" xmlns="http://www.w3.org/2000/svg" xmlns:xlink="http://www.w3.org/1999/xlink" xmlns:sketch="http://www.bohemiancoding.com/sketch/ns">
    <!-- Generator: Sketch 3.3.2 (12043) - http://www.bohemiancoding.com/sketch -->
    <title>Shape Copy 5</title>
    <desc>Created with Sketch.</desc>
    <defs></defs>
    <g id="Acounts" stroke="none" stroke-width="1" fill="none" fill-rule="evenodd" sketch:type="MSPage">
        <g id="iPhone-6-User-Cabinet-3" sketch:type="MSArtboardGroup" transform="translate(-344.000000, -104.000000)" fill="#FFFFFF">
            <path d="M351.5,104 C347.358,104 344,107.358 344,111.5 C344,115.643 347.358,119 351.5,119 C355.643,119 359,115.643 359,111.5 C359,107.358 355.643,104 351.5,104 L351.5,104 Z M355.098,110.607 L351.855,113.85 C351.756,113.95 351.627,113.997 351.5,113.996 C351.371,113.996 351.243,113.948 351.145,113.85 L347.902,110.607 C347.707,110.412 347.707,110.095 347.902,109.9 C348.097,109.705 348.414,109.705 348.609,109.9 L351.5,112.791 L354.391,109.9 C354.586,109.705 354.903,109.705 355.098,109.9 C355.293,110.095 355.293,110.412 355.098,110.607 L355.098,110.607 Z" id="Shape-Copy-5" sketch:type="MSShapeGroup"></path>
        </g>
    </g>
</svg>