<?xml version="1.0" encoding="UTF-8" standalone="no"?>
<svg width="14px" height="14px" viewBox="0 0 14 14" version="1.1" xmlns="http://www.w3.org/2000/svg" xmlns:xlink="http://www.w3.org/1999/xlink" xmlns:sketch="http://www.bohemiancoding.com/sketch/ns">
    <!-- Generator: Sketch 3.3.2 (12043) - http://www.bohemiancoding.com/sketch -->
    <title>Shape Copy 3</title>
    <desc>Created with Sketch.</desc>
    <defs></defs>
    <g id="Acounts" stroke="none" stroke-width="1" fill="none" fill-rule="evenodd" sketch:type="MSPage">
        <g id="Desktop---User-cabinet---Profile-(Max-width:-1366px)" sketch:type="MSArtboardGroup" transform="translate(-633.000000, -361.000000)" fill="#FFFFFF">
            <g id="Add-money" sketch:type="MSLayerGroup" transform="translate(597.000000, 349.000000)">
                <path d="M43,12 C39.15,12 36,15.15 36,19 C36,22.85 39.15,26 43,26 C46.85,26 50,22.85 50,19 C50,15.15 46.85,12 43,12 L43,12 Z M46.5,19.7 L43.7,19.7 L43.7,22.5 L42.3,22.5 L42.3,19.7 L39.5,19.7 L39.5,18.3 L42.3,18.3 L42.3,15.5 L43.7,15.5 L43.7,18.3 L46.5,18.3 L46.5,19.7 L46.5,19.7 Z" id="Shape-Copy-3" sketch:type="MSShapeGroup"></path>
            </g>
        </g>
    </g>
</svg>