<?xml version="1.0" encoding="utf-8"?>
<!-- Generator: Adobe Illustrator 18.1.1, SVG Export Plug-In . SVG Version: 6.00 Build 0)  -->
<svg version="1.1" id="Layer_1" xmlns="http://www.w3.org/2000/svg" xmlns:xlink="http://www.w3.org/1999/xlink" x="0px" y="0px"
	 viewBox="0 0 516.2 416.3" enable-background="new 0 0 516.2 416.3" xml:space="preserve">
<g>
	<ellipse fill="#F6F7F8" cx="255.4" cy="362.3" rx="177.9" ry="54"/>
	<path fill="#353F49" d="M427.9,45.4h0.3v-18h-9.1l-0.2-0.4l-0.2,0.4H266.2h-22H97.2L96.9,27l-0.2,0.4H85.2v18h3.4
		c-29.5,65.2-73.8,160-80.3,166.1c0,0,0.9-0.7,1.9-0.7v8c3,0,4.7-1.9,9.1-9.7c2.7-4.7,6.4-11.6,10.9-20.4
		c7.5-14.8,17.4-35.5,29.5-61.4c15.5-33.2,30.8-66.7,37.5-81.5l82.9,170.7l7.2-3.5L105.9,45.4h138.3v324h22v-324h144.4
		c-29.5,65.2-73.8,160-80.3,166.1c0,0,0.9-0.7,1.9-0.7v8c3,0,4.7-1.9,9.1-9.7c2.7-4.7,6.4-11.6,10.9-20.4
		c7.5-14.8,17.4-35.5,29.5-61.4c15.5-33.2,30.8-66.7,37.5-81.5l82.9,170.7l7.2-3.5L427.9,45.4z"/>
	<path fill="#353F49" d="M322,198.4c0.2,53.4,43.6,96.7,97.1,96.7c53.5,0,96.9-43.2,97.1-96.7H322z"/>
	<path fill="#F6F7F8" d="M0,198.4c0.2,53.4,43.6,96.7,97.1,96.7c53.5,0,96.9-43.2,97.1-96.7H0z"/>
	<circle fill="#F6F7F8" cx="256.7" cy="36.4" r="36.4"/>
</g>
</svg>
