<?xml version="1.0" encoding="utf-8"?>
<!-- Generator: Adobe Illustrator 18.1.1, SVG Export Plug-In . SVG Version: 6.00 Build 0)  -->
<svg version="1.1" id="Layer_1" xmlns="http://www.w3.org/2000/svg" xmlns:xlink="http://www.w3.org/1999/xlink" x="0px" y="0px"
	 viewBox="0 0 92.9 87.7" enable-background="new 0 0 92.9 87.7" xml:space="preserve">
<g>
	
		<rect x="26.4" y="-21.8" transform="matrix(9.199446e-003 1 -1 9.199446e-003 56.8199 -23.2671)" fill="#943640" width="27.6" height="77.6"/>
	<g opacity="0.5">
		<polygon fill="#323C46" points="1.5,32.1 46.8,30.8 1.5,31.2 		"/>
	</g>
	
		<rect x="27.9" y="-14.8" transform="matrix(0.2725 0.9621 -0.9621 0.2725 53.3645 -22.6171)" fill="#4F2821" width="27.6" height="77.6"/>
	
		<rect x="32.5" y="-7.4" transform="matrix(0.5032 0.8642 -0.8642 0.5032 50.1745 -24.3921)" fill="#C84928" width="27.6" height="77.6"/>
	
		<rect x="38" y="-0.5" transform="matrix(0.7107 0.7035 -0.7035 0.7107 41.9241 -25.3562)" fill="#1E574A" width="27.6" height="77.6"/>
	
		<rect x="46.1" y="4.5" transform="matrix(0.8631 0.5051 -0.5051 0.8631 30.1009 -24.3252)" fill="#FFFFFF" width="27.6" height="77.6"/>
	<g opacity="0.5">
		<polygon fill="#323C46" points="55,45.5 45.3,79 71.8,86.7 72.1,85.7 46.3,79.1 		"/>
	</g>
	
		<rect x="55.6" y="6.1" transform="matrix(0.9679 0.2513 -0.2513 0.9679 13.5205 -15.9938)" fill="#B4B6B8" width="27.6" height="77.6"/>
	<rect x="65.3" y="6.1" fill="#ECECEC" width="27.6" height="80.3"/>
	<g opacity="0.5">
		<polyline fill="#323C46" points="8.1,47.8 0,22.7 0.8,22.2 8.1,47.8 		"/>
	</g>
	<g opacity="0.5">
		<polygon fill="#323C46" points="5.8,39.1 17.8,59.5 5.4,39.7 		"/>
		<line fill="#323C46" x1="19.2" y1="62.1" x2="19.7" y2="62.9"/>
		<polygon fill="#323C46" points="19.2,62.1 19.2,62.1 17.8,59.5 		"/>
	</g>
	<g opacity="0.5">
		<polygon fill="#323C46" points="14.7,56.2 26.4,67.7 14.1,56.9 		"/>
		<polygon fill="#323C46" points="33.4,75.2 33.7,75 24.1,65.5 		"/>
	</g>
	<g opacity="0.5">
		<polygon fill="#323C46" points="28.4,69.9 30,70.8 28.4,69.8 		"/>
		<polygon fill="#323C46" points="51.1,83.9 51.5,83.4 30,70.8 		"/>
		<polygon fill="#323C46" points="27.7,69.4 28.4,69.8 44.7,42 		"/>
		<polygon fill="#323C46" points="68.7,3.5 68.7,3.5 70.2,4.4 		"/>
	</g>
	<g opacity="0.5">
		<polygon fill="#323C46" points="65.3,43.5 64.1,86.9 91.7,87.7 91.7,86.4 65.3,86.4 		"/>
	</g>
	<circle opacity="0.5" fill="#323C46" cx="78.7" cy="14.5" r="3.2"/>
	<circle fill="#FFFFFF" cx="79.1" cy="13.9" r="3.2"/>
	<circle fill="#323C46" cx="79.1" cy="13.9" r="2.3"/>
</g>
</svg>
