<?xml version="1.0" encoding="utf-8"?>
<!-- Generator: Adobe Illustrator 18.1.1, SVG Export Plug-In . SVG Version: 6.00 Build 0)  -->
<svg version="1.1" id="Layer_1" xmlns="http://www.w3.org/2000/svg" xmlns:xlink="http://www.w3.org/1999/xlink" x="0px" y="0px"
	 viewBox="0 0 92.9 87.7" enable-background="new 0 0 92.9 87.7" xml:space="preserve">
<g>
	<g opacity="0.5">
		<g>
			<path fill="#323C46" d="M77.1,41.6c0,11.6,0,23.2,0,34.9c0,2.3-0.7,4.1-2.4,5.7c-6.8,6.7-4.6,5.6-13.5,5.6
				c-14.3,0.1-28.5,0-42.8,0c-0.7,0-1.4,0-2.1,0c-3.2-0.1-5.1-2-5.1-5.2c-0.1-3.8,0-7.5,0-11.3c0-19.6,0-39.1,0-58.7
				c0-2.6,0.8-4.6,2.6-6.4c6.6-6.5,4.3-5.3,12.9-5.4c14.9-0.1,29.7,0.1,44.6-0.1c3.8,0,6,2.2,5.9,5.9C77,18.3,77.1,29.9,77.1,41.6z"
				/>
		</g>
	</g>
	<path fill="#B4B6B8" d="M72.1,82H21.2c-2.8,0-5.1-2.3-5.1-5.1V7.7c0-2.8,2.3-5.1,5.1-5.1h50.9c2.8,0,5.1,2.3,5.1,5.1v69.2
		C77.2,79.7,74.9,82,72.1,82z"/>
	<path fill="#ECECEC" d="M72.1,78.6H21.2c-2.8,0-5.1-2.3-5.1-5.1V5.7c0-2.8,2.3-5.1,5.1-5.1h50.9c2.8,0,5.1,2.3,5.1,5.1v67.7
		C77.2,76.3,74.9,78.6,72.1,78.6z"/>
	<g opacity="0.28">
		<g>
			<g>
				<path fill="#323C46" d="M34.7,26H24.4c-1.6,0-3.2,1.2-3.2,2.8V39c0,1.6,1.6,3,3.2,3h10.3c1.6,0,2.5-1.4,2.5-3V28.7
					C37.2,27.1,36.3,26,34.7,26z"/>
			</g>
			<g>
				<path fill="#323C46" d="M51.8,26H41.5c-1.6,0-3.3,1.2-3.3,2.8V39c0,1.6,1.7,3,3.3,3h10.3c1.6,0,3.4-1.4,3.4-3V28.7
					C55.2,27.1,53.4,26,51.8,26z"/>
			</g>
			<g>
				<path fill="#323C46" d="M68.9,26H58.6c-1.6,0-3.4,1.2-3.4,2.8V39c0,1.6,1.8,3,3.4,3h10.3c1.6,0,3.3-1.4,3.3-3V28.7
					C72.2,27.1,70.5,26,68.9,26z"/>
			</g>
			<g>
				<path fill="#323C46" d="M34.7,43H24.4c-1.6,0-3.2,1.2-3.2,2.8V56c0,1.6,1.6,3,3.2,3h10.3c1.6,0,2.5-1.4,2.5-3V45.7
					C37.2,44.1,36.3,43,34.7,43z"/>
			</g>
			<g>
				<path fill="#323C46" d="M51.8,43H41.5c-1.6,0-3.3,1.2-3.3,2.8V56c0,1.6,1.7,3,3.3,3h10.3c1.6,0,3.4-1.4,3.4-3V45.7
					C55.2,44.1,53.4,43,51.8,43z"/>
			</g>
			<g>
				<path fill="#323C46" d="M68.9,43H58.6c-1.6,0-3.4,1.2-3.4,2.8V56c0,1.6,1.8,3,3.4,3h10.3c1.6,0,3.3-1.4,3.3-3V45.7
					C72.2,44.1,70.5,43,68.9,43z"/>
			</g>
			<g>
				<path fill="#323C46" d="M34.7,60H24.4c-1.6,0-3.2,1.2-3.2,2.8V73c0,1.6,1.6,3,3.2,3h10.3c1.6,0,2.5-1.4,2.5-3V62.7
					C37.2,61.1,36.3,60,34.7,60z"/>
			</g>
			<g>
				<path fill="#323C46" d="M51.8,60H41.5c-1.6,0-3.3,1.2-3.3,2.8V73c0,1.6,1.7,3,3.3,3h10.3c1.6,0,3.4-1.4,3.4-3V62.7
					C55.2,61.1,53.4,60,51.8,60z"/>
			</g>
			<g>
				<path fill="#323C46" d="M68.9,60H58.6c-1.6,0-3.4,1.2-3.4,2.8V73c0,1.6,1.8,3,3.4,3h10.3c1.6,0,3.3-1.4,3.3-3V62.7
					C72.2,61.1,70.5,60,68.9,60z"/>
			</g>
		</g>
	</g>
	<rect x="21.5" y="7.8" fill="#323C46" width="50.3" height="14.6"/>
	<path fill="#323C46" d="M34.6,40.8H24.5c-1.7,0-3-1.3-3-3V27.7c0-1.7,1.3-3,3-3h10.1c1.7,0,3,1.3,3,3v10.1
		C37.6,39.4,36.3,40.8,34.6,40.8z"/>
	<path fill="#323C46" d="M51.7,40.8H41.6c-1.7,0-3-1.3-3-3V27.7c0-1.7,1.3-3,3-3h10.1c1.7,0,3,1.3,3,3v10.1
		C54.7,39.4,53.4,40.8,51.7,40.8z"/>
	<path fill="#323C46" d="M68.8,40.8H58.7c-1.7,0-3-1.3-3-3V27.7c0-1.7,1.3-3,3-3h10.1c1.7,0,3,1.3,3,3v10.1
		C71.8,39.4,70.4,40.8,68.8,40.8z"/>
	<path fill="#323C46" d="M34.6,57.9H24.5c-1.7,0-3-1.3-3-3V44.7c0-1.7,1.3-3,3-3h10.1c1.7,0,3,1.3,3,3v10.1
		C37.6,56.5,36.3,57.9,34.6,57.9z"/>
	<path fill="#323C46" d="M51.7,57.9H41.6c-1.7,0-3-1.3-3-3V44.7c0-1.7,1.3-3,3-3h10.1c1.7,0,3,1.3,3,3v10.1
		C54.7,56.5,53.4,57.9,51.7,57.9z"/>
	<path fill="#323C46" d="M68.8,57.9H58.7c-1.7,0-3-1.3-3-3V44.7c0-1.7,1.3-3,3-3h10.1c1.7,0,3,1.3,3,3v10.1
		C71.8,56.5,70.4,57.9,68.8,57.9z"/>
	<path fill="#323C46" d="M34.6,75H24.5c-1.7,0-3-1.3-3-3V61.8c0-1.7,1.3-3,3-3h10.1c1.7,0,3,1.3,3,3v10.1C37.6,73.6,36.3,75,34.6,75
		z"/>
	<path fill="#EE4B22" d="M51.7,75H41.6c-1.7,0-3-1.3-3-3V61.8c0-1.7,1.3-3,3-3h10.1c1.7,0,3,1.3,3,3v10.1C54.7,73.6,53.4,75,51.7,75
		z"/>
	<path fill="#EE4B22" d="M68.8,75H58.7c-1.7,0-3-1.3-3-3V61.8c0-1.7,1.3-3,3-3h10.1c1.7,0,3,1.3,3,3v10.1C71.8,73.6,70.4,75,68.8,75
		z"/>
	<rect x="61.4" y="29.2" fill="#ECECEC" width="4.6" height="8"/>
	<path fill="#ECECEC" d="M29.3,34.3c0-0.6,0.5-1.1,1.1-1.1H33v-4.5h-2.7c-3.1,0-5.5,2.5-5.5,5.5v3.4h4.5V34.3z"/>
	<polygon fill="#ECECEC" points="41.7,28.5 41.7,33 44.7,33 44.7,36.7 49.1,36.7 49.1,33 52.1,33 52.1,28.5 	"/>
	<polygon fill="#ECECEC" points="25.5,71.2 30,71.2 30,66.9 34.1,66.9 34.1,62.5 25.5,62.5 	"/>
	<polygon fill="#ECECEC" points="68.1,47 65,47.9 65,45.2 60.5,45.2 60.5,54.9 65,54.9 65,52.6 69.4,51.3 	"/>
	<path fill="#ECECEC" d="M30,50.9c0.2-0.6,0.7-0.8,1.3-0.8h2.4v-4.5h-2.4c-2.6,0-4.9,1.5-5.6,4l-0.8,2.6l4.3,1.3L30,50.9z"/>
	<path fill="#ECECEC" d="M48.8,46.1h-4.6h-2v1.7l1.7,2.9c0.4,0.7,0.6,1.4,0.6,2.2v0.6h4.5V53c0-0.8,0.2-1.5,0.6-2.2l1.7-2.9v-1.7
		H48.8z"/>
	<rect x="46" y="62.5" fill="#ECECEC" width="1.9" height="8.8"/>
	<rect x="42.6" y="65.9" fill="#ECECEC" width="8.8" height="1.9"/>
	<rect x="59.4" y="67.7" fill="#ECECEC" width="8.8" height="1.9"/>
	<rect x="59.4" y="64.2" fill="#ECECEC" width="8.8" height="1.9"/>
	<path fill="none" stroke="#E6E6E6" stroke-miterlimit="10" d="M65.1,20.3h2.2c1.2,0,2.1-1,2.1-2.1v-6.4c0-1.2-1-2.1-2.1-2.1h-2.2
		c-1.2,0-2.1,1-2.1,2.1v6.4C63,19.3,63.9,20.3,65.1,20.3z"/>
	<path fill="none" stroke="#E6E6E6" stroke-miterlimit="10" d="M69.5,14.6"/>
	<path fill="none" stroke="#E6E6E6" stroke-miterlimit="10" d="M62.7,14.6"/>
</g>
</svg>
