<?xml version="1.0" encoding="utf-8"?>
<!-- Generator: Adobe Illustrator 18.1.1, SVG Export Plug-In . SVG Version: 6.00 Build 0)  -->
<svg version="1.1" id="Layer_1" xmlns="http://www.w3.org/2000/svg" xmlns:xlink="http://www.w3.org/1999/xlink" x="0px" y="0px"
	 viewBox="0 0 516.2 416.3" enable-background="new 0 0 516.2 416.3" xml:space="preserve">
<g>
	<path fill="#F6F7F8" d="M289,223.4c0-22-14.9-30-30.9-61s-47-80-55-109s-26-40.5-37-22.5s-13,53.7,0,83.8s13,57.9-19,57.9
		s-89.4-2.3-89.4,27.7c0,26.5,11.4,28.5,21.4,37.2c0,0-21.4,8-21.4,24.7s14.8,24.7,19.4,26c0,0-14.7,8.7-14.7,24s16.7,24.7,27.3,28
		c0,0-9.3,13.5-9.3,24.2c0,10.7,15.3,32.2,42,32.2s97.7,0,97.7,0s46.7-4,68.8-17h92.2v-156H289z"/>
	<rect x="348.1" y="209.4" fill="#353F49" width="106" height="187"/>
	<circle fill="#F6F7F8" cx="406.2" cy="252.9" r="19"/>
</g>
</svg>
