<?xml version="1.0" encoding="utf-8"?>
<!-- Generator: Adobe Illustrator 18.1.1, SVG Export Plug-In . SVG Version: 6.00 Build 0)  -->
<svg version="1.1" id="Layer_1" xmlns="http://www.w3.org/2000/svg" xmlns:xlink="http://www.w3.org/1999/xlink" x="0px" y="0px"
	 viewBox="0 0 90.2 42.7" enable-background="new 0 0 90.2 42.7" xml:space="preserve">
<g>
	<path fill="#FFFFFF" d="M39.4,3.1c4.5,1.5,10.4,3.2,13.9,8.6c3.5,5.4,1.8,11.2-3.7,14.4c-5.3,3.6-9.7-0.4-9.3-3.7s5.9-9.8,5.9-9.8
		l-5.9-6.2L39.4,3.1z"/>
	<path fill-rule="evenodd" clip-rule="evenodd" fill="#003E7E" d="M39.4,3.1l-10.9,8.4c-0.8,0.6-0.3,1.5,0.4,1.5h3.2v11.2h8.3
		c-0.7-1.9-0.1-4.2,2.3-5.6C46.4,16.4,50.5,9.6,39.4,3.1L39.4,3.1z M42,10.9v4h-2v-4H42L42,10.9z M39.5,10.9v4h-2v-4H39.5L39.5,10.9
		z"/>
	<path fill="#72AADC" d="M45.6,27.4l-3.1-0.8v7.2c0,0.1,0,0.3-0.2,0.3c-0.1,0-0.2-0.2-0.3-0.3l-4.5-6.4c-0.8-1.1-1.9-1.2-2.6-1.2
		c-1.4,0-2.8,0.6-2.8,2.2v10.3h3.6v-6.7c0-0.4,0.2-0.4,0.2-0.4c0.1,0,0.2,0.2,0.3,0.3l4,5.6c0.8,1.1,1.8,1.2,2.7,1.2
		c2.6,0,2.7-1.8,2.7-2.2V27.4L45.6,27.4z M30.6,38.8V26.5h-4v12.4H30.6L30.6,38.8z M0,38.8h4v-4.9c0.1,0.4,0.3,0.8,0.7,1.2l5.6,6.3
		c1.5,1.8,4.3,2,5.1-1l1.5-4.6h4.4l1,3h4.2l-3.9-11.1c-0.8-2.4-6.1-2.6-6.9,0.1l-3.6,10.2l-2.9-2.9v-0.1l0,0c2.5,0,3.6-2.1,3.6-4.5
		c0-2.5-1.7-4.2-4.9-4.2H2.1c-0.5,0-1.2,0.1-1.7,0.6C0,27.6,0,28.3,0,28.8V38.8L0,38.8z M4,33.2v-2.7c0-0.3,0-0.6,0.2-0.8
		c0.2-0.2,0.4-0.2,0.6-0.2h2.2c1,0,1.9,0.4,1.9,1.3c0,1-1.2,1.4-2.3,1.4H5.2C4.6,32.3,4.1,32.6,4,33.2L4,33.2z M19,29.2
		c0-0.1,0.1-0.3,0.2-0.3c0.1,0,0.1,0.2,0.2,0.3l1.1,3.6h-2.5L19,29.2L19,29.2z M28.6,22.9L28.6,22.9c1.1,0,2,0.9,2,2v0.6h-4v-0.6
		C26.6,23.8,27.5,22.9,28.6,22.9L28.6,22.9z"/>
	<path fill="#003E7E" d="M84.8,41.2l5.4-14.7h-4.3l-2,6c-0.3,0.9-1.1,0.7-1.3,0.1l-2-6.1h-4.3l3.5,9.3c0.4,1,1.4,1.7,2.5,1.6
		l-0.9,2.6C80.4,42.6,83.8,44,84.8,41.2L84.8,41.2z M64.4,38.8h4.2l1-3H74l1,3h4.2l-3.9-11.1c-0.8-2.4-6.1-2.6-6.9,0.1L64.4,38.8
		L64.4,38.8z M71.6,29.2c0-0.1,0.1-0.3,0.2-0.3c0.1,0,0.1,0.2,0.2,0.3l1.1,3.6h-2.5L71.6,29.2L71.6,29.2z M52,34
		c0,0.1-0.1,0.3-0.2,0.3c-0.1,0-0.1-0.1-0.2-0.4l-2.1-7.5l-3.8,0.9l2.7,9c0.6,2.1,1.5,2.6,3,2.6c1.9,0,2.5-0.8,2.9-2.1l1.6-5.4
		c0-0.1,0.1-0.3,0.2-0.3c0.1,0,0.1,0.2,0.2,0.3l1.6,5.4c0.4,1.3,1,2.1,2.9,2.1c1.6,0,2.5-0.9,3-2.6l3.4-10h-4.1l-2.4,7.5
		c-0.1,0.3-0.2,0.4-0.2,0.4c-0.1,0-0.2-0.2-0.2-0.3l-1.9-6.3c-0.4-1.3-1.6-1.3-2.3-1.3c-0.7,0-1.9,0.1-2.3,1.3L52,34L52,34z"/>
	<path fill-rule="evenodd" clip-rule="evenodd" fill="#72AADC" d="M48.2,22.4c0.5,0,0.9,0.4,0.9,0.9c0,0.5-0.4,0.9-0.9,0.9
		s-0.9-0.4-0.9-0.9C47.3,22.8,47.7,22.4,48.2,22.4L48.2,22.4z M51,22.1c2.1-2.6,2.6-5.8,0.9-9.4c-0.4-0.7-1.2-0.3-1.1,0.3
		c1,3.7,0.3,5.8-1.2,7.8C48.6,21.9,50.1,23.1,51,22.1L51,22.1z M59.8,20.1v-9.7h1.6c0.6,0,1.1-0.7,0.3-1.3L49.9,0l-6.1,4.7
		c5.1,2.5,10.4,6.8,10.5,12.2c0,8.8-7.9,12.1-12.9,9c3.6,4,13,1.1,14.8-5.9H59.8L59.8,20.1z"/>
</g>
</svg>
