<?xml version="1.0" encoding="utf-8"?>
<!-- Generator: Adobe Illustrator 18.1.1, SVG Export Plug-In . SVG Version: 6.00 Build 0)  -->
<svg version="1.1" id="Layer_1" xmlns="http://www.w3.org/2000/svg" xmlns:xlink="http://www.w3.org/1999/xlink" x="0px" y="0px"
	 viewBox="0 0 35.7 36.7" enable-background="new 0 0 35.7 36.7" xml:space="preserve">
<path fill="#353F49" d="M21.6,0C14,0.3,8.1,6.7,8.4,14.3c0.1,3.2,1.3,6,3.2,8.3L0,35.1l1.8,1.7l11.5-12.4c2.5,2.1,5.8,3.4,9.3,3.3
	c7.5-0.3,13.4-6.7,13.2-14.3S29.1-0.3,21.6,0z M22.5,25.1c-6.2,0.2-11.4-4.7-11.6-10.9C10.6,7.9,15.5,2.7,21.7,2.5
	s11.4,4.7,11.6,10.9C33.5,19.6,28.7,24.9,22.5,25.1z"/>
</svg>
