<?xml version="1.0" encoding="UTF-8"?>
<!DOCTYPE svg PUBLIC "-//W3C//DTD SVG 1.1//EN" "http://www.w3.org/Graphics/SVG/1.1/DTD/svg11.dtd">
<!-- Creator: CorelDRAW X7 -->
<svg xmlns="http://www.w3.org/2000/svg" xml:space="preserve" width="800px" height="250px" version="1.1" style="shape-rendering:geometricPrecision; text-rendering:geometricPrecision; image-rendering:optimizeQuality; fill-rule:evenodd; clip-rule:evenodd"
viewBox="0 0 800 250"
 xmlns:xlink="http://www.w3.org/1999/xlink">
 <defs>
  <style type="text/css">
   <![CDATA[
    .fil1 {fill:#2B2A29}
    .fil2 {fill:#EC691F}
    .fil0 {fill:#1974B9}
   ]]>
  </style>
 </defs>
 <g id="Слой_x0020_1">
  <metadata id="CorelCorpID_0Corel-Layer"/>
  <path class="fil0" d="M355 151l-32 0 -10 18 -17 0 46 -81 19 0 13 81 -16 0 -3 -18zm-2 -13l-4 -33 -20 33 24 0z"/>
  <path class="fil0" d="M395 110l16 0 -12 59 -16 0 12 -59zm5 -22l16 0 -3 15 -16 0 3 -15z"/>
  <path class="fil0" d="M425 110l15 0 -2 12c5,-9 11,-13 18,-13 2,0 5,1 7,2l-6 13c-1,-1 -3,-1 -5,-1 -2,0 -5,1 -8,3 -3,2 -5,5 -6,8 -2,4 -4,9 -5,17l-4 18 -16 0 12 -59z"/>
  <path class="fil1" d="M474 169l-5 -81 11 0 1 40c1,2 1,7 1,16 0,2 0,4 0,5 0,1 0,2 0,5 5,-9 8,-15 10,-19l25 -47 11 0 2 48c1,5 1,12 1,19 1,-2 2,-4 4,-8 2,-6 4,-11 6,-13l23 -46 11 0 -42 81 -11 0 -3 -49c0,-4 0,-9 0,-15 -3,5 -5,9 -6,12l-28 52 -11 0z"/>
  <polygon class="fil1" points="567,169 584,88 643,88 641,97 593,97 588,123 634,123 632,132 586,132 580,160 631,160 629,169 "/>
  <path class="fil1" d="M641 169l17 -81 26 0c4,0 8,0 10,1 3,0 6,1 9,3 2,2 4,4 6,6 1,3 2,6 2,9 0,5 -1,9 -4,12 -2,4 -6,6 -11,8 4,1 7,4 10,6 2,3 3,7 3,11 0,4 -1,8 -4,12 -2,5 -6,8 -10,10 -4,2 -9,3 -14,3l-40 0zm13 -9l19 0c5,0 8,0 10,0 3,-1 6,-2 8,-3 2,-2 4,-4 5,-6 1,-2 2,-5 2,-7 0,-4 -1,-7 -4,-9 -2,-2 -7,-3 -13,-3l-21 0 -6 28zm8 -37l16 0c8,0 14,-1 17,-4 4,-2 6,-6 6,-11 0,-2 -1,-4 -2,-6 -1,-2 -2,-3 -4,-3 -2,-1 -5,-2 -10,-2l-18 0 -5 26z"/>
  <path class="fil2" d="M219 171c35,1 63,-23 65,-55 2,-40 -27,-64 -66,-64 -23,0 -44,7 -59,20l-93 -19 1 6 2 13c1,4 2,7 5,9l3 18c0,4 2,7 5,10l3 18c2,10 14,18 26,21l14 2c3,39 31,65 73,65 21,0 49,-6 74,-32l-3 -5c-21,19 -43,26 -66,26 -35,0 -65,-23 -63,-68 2,-37 28,-76 77,-76 34,0 57,22 55,55 -1,29 -21,47 -43,47 0,0 -1,-1 -1,-2 5,-17 11,-41 18,-61l6 -11 -1 -1 -15 3 -2 5c-3,-4 -8,-6 -13,-6 -8,0 -17,3 -27,10 -20,14 -31,37 -32,53 0,12 5,19 13,19 13,0 31,-15 46,-34l0 0c-2,8 -8,25 -10,33 2,1 5,1 8,1zm-142 -100l-1 -7 75 15c-5,4 -9,9 -12,15l-44 -9c-10,-3 -18,-10 -18,-14zm8 27l-2 -7 10 2c1,0 1,0 2,0l39 8c-2,5 -4,10 -6,16l-24 -5c-10,-2 -19,-10 -19,-14zm8 28l-1 -8 34 7c0,4 -1,8 -1,12 0,2 0,3 0,5l-12 -2c-10,-2 -19,-10 -20,-14zm126 2c-13,20 -29,32 -36,32 -3,0 -4,-2 -4,-8 1,-15 12,-36 24,-47 6,-5 12,-8 18,-8l0 0c4,0 8,2 11,4 -5,13 -8,20 -13,27z"/>
 </g>
</svg>
