<?xml version="1.0" encoding="UTF-8" standalone="no"?>
<svg width="31px" height="31px" viewBox="0 0 31 31" version="1.1" xmlns="http://www.w3.org/2000/svg" xmlns:xlink="http://www.w3.org/1999/xlink" xmlns:sketch="http://www.bohemiancoding.com/sketch/ns">
    <!-- Generator: Sketch 3.3.2 (12043) - http://www.bohemiancoding.com/sketch -->
    <title>Rectangle 157 + call60 Copy 3</title>
    <desc>Created with Sketch.</desc>
    <defs></defs>
    <g id="Acounts" stroke="none" stroke-width="1" fill="none" fill-rule="evenodd" sketch:type="MSPage">
        <g id="Desktop---User-cabinet---Watchllist-(Max-width:-1366px)" sketch:type="MSArtboardGroup" transform="translate(-33.000000, -431.000000)">
            <g id="Car-Ad-Copy-7" sketch:type="MSLayerGroup" transform="translate(15.000000, 248.000000)">
                <g id="Rectangle-157-+-call60-Copy-3" transform="translate(18.000000, 183.000000)" sketch:type="MSShapeGroup">
                    <rect id="Rectangle-157" fill="#15B95E" x="0" y="0" width="31" height="31" rx="4"></rect>
                    <g id="call60" transform="translate(7.000000, 6.000000)" fill="#FFFFFF">
                        <path d="M5.301,6.587 L1.404,2.688 C1.907,2.185 2.409,1.681 2.913,1.177 C3.146,0.944 3.522,0.94 3.756,1.17 L6.792,4.209 C7.024,4.441 7.024,4.823 6.789,5.057 L6.124,5.721 L5.505,6.34 C5.429,6.417 5.36,6.499 5.301,6.587 L5.301,6.587 Z M8.507,12.938 C7.869,12.389 7.257,11.806 6.663,11.213 C6.07,10.616 5.489,10.006 4.939,9.365 C4.489,8.845 4.401,8.092 4.636,7.458 L0.636,3.457 C-0.295,4.414 -0.176,6.787 0.844,8.872 C1.282,9.774 1.85,10.588 2.437,11.362 C3.023,12.13 3.666,12.856 4.343,13.538 C5.022,14.219 5.744,14.865 6.514,15.451 C7.288,16.04 8.104,16.604 9,17.041 C11.088,18.06 13.462,18.172 14.418,17.24 L10.417,13.239 C9.783,13.474 9.029,13.387 8.507,12.938 L8.507,12.938 Z M16.702,14.119 L13.666,11.082 C13.433,10.852 13.051,10.852 12.818,11.085 L12.816,11.085 L12.149,11.751 L11.534,12.369 C11.458,12.445 11.375,12.512 11.287,12.574 L15.183,16.472 C15.687,15.967 16.19,15.465 16.695,14.962 C16.93,14.729 16.935,14.352 16.702,14.119 L16.702,14.119 Z" id="Shape"></path>
                    </g>
                </g>
            </g>
        </g>
    </g>
</svg>