<?xml version="1.0" encoding="UTF-8" standalone="no"?>
<svg width="22px" height="21px" viewBox="0 0 22 21" version="1.1" xmlns="http://www.w3.org/2000/svg" xmlns:xlink="http://www.w3.org/1999/xlink" xmlns:sketch="http://www.bohemiancoding.com/sketch/ns">
    <!-- Generator: Sketch 3.3.2 (12043) - http://www.bohemiancoding.com/sketch -->
    <title>car20</title>
    <desc>Created with Sketch.</desc>
    <defs></defs>
    <g id="Acounts" stroke="none" stroke-width="1" fill="none" fill-rule="evenodd" sketch:type="MSPage">
        <g id="Desktop---User-cabinet---Watchllist-(Max-width:-1366px)" sketch:type="MSArtboardGroup" transform="translate(-35.000000, -552.000000)" fill="#949BA5">
            <g id="Car-Ad-Copy-7" sketch:type="MSLayerGroup" transform="translate(15.000000, 248.000000)">
                <g id="car20" transform="translate(19.000000, 304.000000)" sketch:type="MSShapeGroup">
                    <g id="Group" transform="translate(1.000000, 0.000000)">
                        <path d="M10.1512075,3.08320755 C8.03445283,3.08320755 6.04443396,3.9074717 4.54766038,5.40418868 C1.458,8.49390566 1.458,13.5213396 4.54766038,16.6111698 C6.04443396,18.1078868 8.03445283,18.9321509 10.1512075,18.9321509 C12.2679623,18.9321509 14.2579811,18.1079434 15.7546981,16.6111698 C18.8443585,13.5213396 18.8443585,8.49390566 15.7546981,5.40418868 C14.2579811,3.90741509 12.2679057,3.08320755 10.1512075,3.08320755 L10.1512075,3.08320755 Z M14.5539623,15.410434 C13.3779623,16.5863774 11.8143396,17.2340377 10.1512075,17.2340377 C8.48801887,17.2340377 6.92439623,16.586434 5.74845283,15.410434 C3.32077358,12.9826981 3.32077358,9.03254717 5.74839623,6.60492453 C6.92439623,5.42898113 8.48801887,4.78132075 10.1512075,4.78132075 C11.8143396,4.78132075 13.3779623,5.42892453 14.5539623,6.60492453 C16.9816415,9.03254717 16.9815849,12.9826981 14.5539623,15.410434 L14.5539623,15.410434 Z" id="Shape"></path>
                        <path d="M13.4272075,7.33550943 C12.1468868,8.28967925 10.6056226,9.44915094 10.0956792,9.87820755 C9.82471698,9.89145283 9.55760377,10.0002453 9.35071698,10.2071887 C8.90858491,10.6493208 8.90858491,11.3661509 9.35071698,11.8082264 C9.79284906,12.2503585 10.5096792,12.2503585 10.9516981,11.8082264 C11.1586415,11.6013396 11.267434,11.3341698 11.2806792,11.0632642 C11.7096226,10.5533774 12.8691509,9.0120566 13.8233774,7.73162264 C13.9072642,7.61898113 13.8958868,7.46173585 13.7964906,7.36245283 C13.6970943,7.26288679 13.5398491,7.25156604 13.4272075,7.33550943 L13.4272075,7.33550943 Z" id="Shape"></path>
                        <path d="M21.7203962,9.75928302 C21.6543962,9.31143396 21.5763962,8.86867925 21.4649434,8.42977358 C21.1346604,7.12975472 20.5717925,5.89432075 19.8040755,4.79411321 C19.0612642,3.72956604 18.1367547,2.79362264 17.0743585,2.04684906 C16.0033585,1.29384906 14.7994528,0.733698113 13.5327736,0.401886792 C12.8418113,0.220924528 12.1300755,0.102509434 11.4164717,0.0646981132 C10.9646604,0.0408113208 10.5188491,0.0434716981 10.067717,0.0669056604 C9.52013208,0.0953773585 8.97798113,0.182150943 8.44154717,0.291962264 C7.99013208,0.384339623 7.54001887,0.513792453 7.10750943,0.672566038 C6.76658491,0.797603774 6.42543396,0.927849057 6.09996226,1.09013208 C5.85016981,1.21471698 5.60326415,1.3425283 5.35822642,1.47662264 C5.14720755,1.59192453 4.94275472,1.72590566 4.74407547,1.86067925 C4.4609434,2.05284906 4.18573585,2.25356604 3.92043396,2.46996226 C3.12384906,3.11949057 2.412,3.8835283 1.83832075,4.73756604 C1.49530189,5.24818868 1.19292453,5.77833962 0.937415094,6.33860377 C0.373811321,7.57426415 0.0590377358,8.92335849 0.00730188679,10.2799811 C-0.0189056604,10.9653962 0.0263207547,11.6493962 0.129056604,12.3271132 C0.235981132,13.0315472 0.426622642,13.7182075 0.673528302,14.3858491 C1.03443396,15.3611321 1.56339623,16.2718868 2.19724528,17.0941132 C3.04109434,18.188717 4.13660377,19.1093208 5.34571698,19.7754906 C6.51328302,20.4186792 7.81449057,20.8312642 9.14071698,20.9706792 L8.4299434,20.4119434 C7.38458491,20.1551321 6.38049057,19.7201887 5.4810566,19.1316226 C4.32701887,18.3763019 3.32869811,17.3688679 2.59873585,16.1976226 C2.03150943,15.2875472 1.61620755,14.2844717 1.38554717,13.2366226 C1.12975472,12.0744906 1.10524528,10.8767547 1.29084906,9.70330189 C1.45035849,8.69473585 1.78607547,7.70371698 2.2785283,6.80932075 C2.55916981,6.30384906 2.87218868,5.81722642 3.24277358,5.37232075 C3.59292453,4.95198113 3.97001887,4.55722642 4.38735849,4.20254717 C4.90398113,3.76341509 5.46566038,3.39050943 6.06198113,3.06916981 C6.9494717,2.59103774 7.92984906,2.286 8.92511321,2.13786792 C10.203566,1.94750943 11.5256038,2.04266038 12.7642075,2.41171698 C14.0003774,2.78009434 15.152434,3.42198113 16.1123774,4.2840566 C17.0820566,5.15513208 17.8586038,6.24826415 18.3496981,7.45641509 C18.6069057,8.08913208 18.7887736,8.74749057 18.8893019,9.4230566 L21.8109623,10.9151887 C21.7910377,10.5301698 21.7766604,10.1411321 21.7203962,9.75928302 L21.7203962,9.75928302 Z" id="Shape"></path>
                    </g>
                </g>
            </g>
        </g>
    </g>
</svg>