<?xml version="1.0" encoding="UTF-8" standalone="no"?>
<svg width="20px" height="18px" viewBox="0 0 20 18" version="1.1" xmlns="http://www.w3.org/2000/svg" xmlns:xlink="http://www.w3.org/1999/xlink" xmlns:sketch="http://www.bohemiancoding.com/sketch/ns">
    <!-- Generator: Sketch 3.3.2 (12043) - http://www.bohemiancoding.com/sketch -->
    <title>Shape Copy 2 + cogwheel33 (1)</title>
    <desc>Created with Sketch.</desc>
    <defs></defs>
    <g id="Acounts" stroke="none" stroke-width="1" fill="none" fill-rule="evenodd" sketch:type="MSPage">
        <g id="Desktop---User-cabinet---Watchllist-(Max-width:-1366px)" sketch:type="MSArtboardGroup" transform="translate(-185.000000, -554.000000)" fill="#949BA5">
            <g id="Car-Ad-Copy-7" sketch:type="MSLayerGroup" transform="translate(15.000000, 248.000000)">
                <g id="Shape-Copy-2-+-cogwheel33-(1)" transform="translate(170.000000, 306.000000)" sketch:type="MSShapeGroup">
                    <path d="M19.6373077,0.0353076923 L16.8535385,0.0353076923 L16.8535385,0.739384615 C16.8535385,1.89969231 15.9099231,2.84607692 14.7468462,2.84607692 C13.5823846,2.84607692 12.6415385,1.89969231 12.6415385,0.739384615 L12.6415385,0.0353076923 L7.02207692,0.0353076923 L7.02207692,0.739384615 C7.02207692,1.89969231 6.07846154,2.84607692 4.91538462,2.84607692 C3.75230769,2.84607692 2.81007692,1.899 2.81007692,0.738692308 L2.81007692,0.0353076923 L2.30926389e-13,-1.77635684e-15 L2.30926389e-13,17.586 L1.40469231,17.586 L18.2554615,17.586 L19.6573846,17.5818462 L19.6373077,0.0353076923 L19.6373077,0.0353076923 Z M18.2554615,16.1854615 L1.40469231,16.1854615 L1.40469231,4.95069231 L18.2554615,4.95069231 L18.2554615,16.1854615 L18.2554615,16.1854615 Z" id="Shape-Copy-2"></path>
                    <g id="cogwheel33-(1)" transform="translate(5.000000, 6.000000)">
                        <g id="Group">
                            <path d="M9.92712121,3.71817273 C9.91366667,3.64939091 9.86906061,3.58862727 9.80409091,3.55047273 C9.73839394,3.51231818 9.65887879,3.50053636 9.58357576,3.51755455 C9.41160606,3.5562 9.23327273,3.54752727 9.07115152,3.49137273 C8.63281818,3.3399 8.41354545,2.8956 8.58151515,2.50123636 C8.64536364,2.35221818 8.76018182,2.22594545 8.91378788,2.13602727 C8.97909091,2.09803636 9.02366667,2.03727273 9.03678788,1.96835455 C9.05024242,1.89957273 9.03133333,1.82882727 8.98439394,1.77313636 C8.6759697,1.40694545 8.30824242,1.08728182 7.89245455,0.823118182 C7.82912121,0.783 7.7499697,0.7686 7.67409091,0.782345455 C7.59839394,0.796581818 7.53233333,0.838527273 7.49193939,0.898145455 C7.40184848,1.03243636 7.27012121,1.13691818 7.11090909,1.20046364 C7.001,1.24450909 6.88490909,1.26695455 6.76554545,1.26695455 C6.42909091,1.26695455 6.12393939,1.08829091 5.98727273,0.811990909 C5.91451515,0.664609091 5.89575758,0.5028 5.93269697,0.344127273 C5.94869697,0.275836364 5.93233333,0.204763636 5.88809091,0.147436364 C5.84333333,0.0904363636 5.77454545,0.0527727273 5.69778788,0.0432818182 C5.19336364,-0.0201 4.67760606,-0.0132 4.18081818,0.0632727273 C4.1040303,0.0750545455 4.03681818,0.115009091 3.99412121,0.173318182 C3.95142424,0.231627273 3.93760606,0.303354545 3.95627273,0.371127273 C3.99821212,0.524263636 3.98721212,0.682118182 3.9249697,0.827727273 C3.79978788,1.12186364 3.48015152,1.31953636 3.13042424,1.31953636 C3.02624242,1.31953636 2.92381818,1.30216364 2.82509091,1.2681 C2.65906061,1.21063636 2.51857576,1.10710909 2.41884848,0.968563636 C2.37690909,0.909927273 2.30966667,0.869645455 2.23324242,0.857536364 C2.15681818,0.845427273 2.07821212,0.862281818 2.01633333,0.904063636 C1.60772727,1.1805 1.25072727,1.51082727 0.955212121,1.88533636 C0.910090909,1.9425 0.89369697,2.01422727 0.909727273,2.08268182 C0.925727273,2.1513 0.973030303,2.21091818 1.03963636,2.24694545 C1.19075758,2.32832727 1.30812121,2.44753636 1.37945455,2.59183636 C1.47187879,2.77884545 1.47806061,2.98701818 1.39663636,3.17795455 C1.31518182,3.36889091 1.15569697,3.5199 0.947909091,3.60308182 C0.781515152,3.66940909 0.596272727,3.68547273 0.417939394,3.6501 C0.341969697,3.63485455 0.262181818,3.64895455 0.198121212,3.68858182 C0.133969697,3.72853636 0.0911212121,3.79060909 0.0801212121,3.86004545 C0.0076969697,4.31956364 0.0141515152,4.78156364 0.0994848485,5.23322727 C0.112606061,5.30285455 0.157818182,5.36427273 0.223606061,5.40256364 C0.289393939,5.44071818 0.369909091,5.45200909 0.445969697,5.4345 C0.62,5.3934 0.80069697,5.40177273 0.965636364,5.45874545 C1.17781818,5.53210909 1.34548485,5.67556364 1.43790909,5.86227273 C1.53033333,6.04914545 1.53618182,6.25729091 1.45475758,6.44839091 C1.38915152,6.60133636 1.26987879,6.7299 1.10930303,6.82014545 C1.04269697,6.85764545 0.996757576,6.91808182 0.982212121,6.98735455 C0.968030303,7.05679091 0.986484848,7.12819091 1.03342424,7.18486364 C1.34312121,7.55563636 1.71260606,7.87906364 2.13184848,8.14551818 C2.196,8.18648182 2.27624242,8.20137273 2.35321212,8.18582727 C2.42963636,8.17074545 2.4959697,8.12721818 2.53527273,8.0661 C2.62618182,7.92460909 2.76090909,7.81521818 2.9250303,7.74938182 C3.03539394,7.70533636 3.15148485,7.68305455 3.27048485,7.68305455 C3.60684848,7.68305455 3.91245455,7.86155455 4.0490303,8.13801818 C4.12463636,8.29093636 4.14181818,8.45882727 4.09933333,8.62358182 C4.0810303,8.69236364 4.09633333,8.76507273 4.14090909,8.82319091 C4.18539394,8.88136364 4.25509091,8.92033636 4.33260606,8.92999091 C4.56015152,8.95849091 4.79151515,8.97321818 5.0199697,8.97321818 C5.30245455,8.97321818 5.58669697,8.95096364 5.86418182,8.90754545 C5.94133333,8.89543636 6.00975758,8.8548 6.05215152,8.79504545 C6.09436364,8.73526364 6.10672727,8.66271818 6.08636364,8.59442727 C6.03869697,8.4351 6.04706061,8.27165455 6.11109091,8.12228182 C6.23666667,7.82833636 6.55633333,7.6305 6.90645455,7.6305 C7.01054545,7.6305 7.1129697,7.64803636 7.21106061,7.68177273 C7.381,7.74070909 7.52366667,7.84816364 7.62375758,7.99227273 C7.66578788,8.05202727 7.73330303,8.09364545 7.81045455,8.10627273 C7.88721212,8.11903636 7.96693939,8.10218182 8.02951515,8.05941818 C8.4400303,7.77970909 8.79739394,7.44643636 9.09181818,7.06911818 C9.13693939,7.01146364 9.1529697,6.9399 9.13624242,6.87095455 C9.11948485,6.80230909 9.07181818,6.74271818 9.00448485,6.70715455 C8.84945455,6.62577273 8.72878788,6.50509091 8.65690909,6.35869091 C8.46639394,5.9727 8.6600303,5.51888182 9.08851515,5.34741818 C9.25448485,5.28092727 9.43936364,5.26489091 9.61769697,5.30042727 C9.69409091,5.31531818 9.77378788,5.30121818 9.83787879,5.26112727 C9.90209091,5.22114545 9.94451515,5.15858182 9.95506061,5.08884545 C10.0240909,4.63148182 10.0148182,4.17046364 9.92712121,3.71817273 L9.92712121,3.71817273 Z M5.88660606,6.2487 C5.61021212,6.3594 5.31742424,6.41539091 5.01681818,6.41539091 C4.17069697,6.41539091 3.40169697,5.96601818 3.05778788,5.27050909 C2.57778788,4.29905455 3.0649697,3.15676364 4.14484848,2.72457273 C4.42133333,2.61370909 4.7140303,2.55769091 5.01463636,2.55769091 C5.86075758,2.55769091 6.62972727,3.00722727 6.97366667,3.70276364 C7.45387879,4.67421818 6.9660303,5.81631818 5.88660606,6.2487 L5.88660606,6.2487 Z" id="Shape"></path>
                            <path d="M5.01484848,3.06079091 C4.79330303,3.06079091 4.57657576,3.10224545 4.37215152,3.18409091 C3.57451515,3.50361818 3.21375758,4.34781818 3.56887879,5.06593636 C3.82287879,5.58016364 4.39136364,5.91229091 5.01684848,5.91229091 C5.23839394,5.91229091 5.45484848,5.871 5.65951515,5.78912727 C6.45724242,5.4696 6.81754545,4.6254 6.46290909,3.90728182 C6.20887879,3.39291818 5.64042424,3.06079091 5.01484848,3.06079091 L5.01484848,3.06079091 Z" id="Shape"></path>
                        </g>
                    </g>
                </g>
            </g>
        </g>
    </g>
</svg>