<?xml version="1.0" encoding="UTF-8" standalone="no"?>
<svg width="29px" height="20px" viewBox="0 0 29 20" version="1.1" xmlns="http://www.w3.org/2000/svg" xmlns:xlink="http://www.w3.org/1999/xlink" xmlns:sketch="http://www.bohemiancoding.com/sketch/ns">
    <!-- Generator: Sketch 3.3.2 (12043) - http://www.bohemiancoding.com/sketch -->
    <title>Fill 1 Copy 2 + Fill 2 Copy 2 Copy Copy Copy Copy Copy Copy Copy</title>
    <desc>Created with Sketch.</desc>
    <defs></defs>
    <g id="Acounts" stroke="none" stroke-width="1" fill="none" fill-rule="evenodd" sketch:type="MSPage">
        <g id="Desktop---User-cabinet---Profile-(Max-width:-1366px)" sketch:type="MSArtboardGroup" transform="translate(-1210.000000, -22.000000)" fill="#FFFFFF">
            <g id="Fill-1-Copy-2-+-Fill-2-Copy-2-Copy-Copy-Copy-Copy-Copy-Copy-Copy" sketch:type="MSLayerGroup" transform="translate(1210.000000, 22.000000)">
                <path d="M25.7915161,7.12760582 C25.6998559,7.03814073 25.7663021,6.88732814 25.8968216,6.88732814 L27.0928542,6.88732814 C27.7783779,6.88732814 28.3339753,6.35508183 28.3339753,5.69843644 C28.3339753,5.14261679 27.7593932,4.75436668 27.2126948,4.94124932 L25.451869,5.54222754 C25.1448517,5.64702951 24.8034247,5.52831075 24.6379023,5.25934743 L22.3615247,1.55606055 C21.8717802,0.759111167 20.9777221,0.269467284 20.0118783,0.269467284 L8.65431457,0.269467284 C7.68847076,0.269467284 6.79441265,0.759111167 6.3043715,1.55606055 L4.02829057,5.25934743 C3.8627682,5.52831075 3.52134123,5.64702951 3.21432393,5.54222754 L1.45379476,4.94124932 C0.906799679,4.75436668 0.331920904,5.14261679 0.331920904,5.69843644 C0.331920904,6.35508183 0.887815034,6.88732814 1.57363533,6.88732814 L2.76937132,6.88732814 C2.89989075,6.88732814 2.966337,7.03814073 2.8749734,7.12760582 L1.34048016,8.62976736 C0.789035554,9.16968211 0.480238441,9.8947754 0.480238441,10.6496904 L0.480238441,18.9330221 C0.480238441,19.4016488 0.877136172,19.7816624 1.36688068,19.7816624 L3.74678389,19.7816624 C4.23623176,19.7816624 4.63312949,19.4016488 4.63312949,18.9330221 L4.63312949,18.6521301 C4.63312949,18.3976516 4.84878319,18.1911718 5.11486485,18.1911718 L7.12486412,18.1911718 C7.75877328,18.1911718 6.4912516,17.509533 7.12486412,17.509533 L21.5413288,17.509533 C22.1752379,17.509533 20.9077162,18.1911718 21.5413288,18.1911718 L23.5516247,18.1911718 C23.8177063,18.1911718 24.0327668,18.3976516 24.0327668,18.6521301 L24.0327668,18.9330221 C24.0327668,19.4016488 24.4299611,19.7816624 24.9197056,19.7816624 L27.2996088,19.7816624 C27.7887601,19.7816624 28.1856578,19.4016488 28.1856578,18.9330221 L28.1856578,10.6496904 C28.1856578,9.8947754 27.8771573,9.16968211 27.3257127,8.62976736 L25.7915161,7.12760582 L25.7915161,7.12760582 Z M4.83721442,5.40078749 L7.1213045,1.87756686 C7.51760896,1.26636405 8.21559129,0.894586881 8.96696794,0.894586881 L19.6995216,0.894586881 C20.4506016,0.894586881 21.1485839,1.26636405 21.5448884,1.87756686 L23.8292751,5.40078749 C24.0087393,5.67741924 23.8007981,6.03527962 23.4605577,6.03527962 L5.20563519,6.03527962 C4.86569139,6.03527962 4.6577502,5.67741924 4.83721442,5.40078749 L4.83721442,5.40078749 Z M2.48727136,9.98906877 C2.65160719,9.67807106 2.91175615,9.43949747 3.21729028,9.28641275 C3.38637227,9.92005284 3.97964242,10.3886795 4.69482959,10.3886795 C5.31687334,10.3886795 5.84814676,10.0342273 6.0878279,9.52555437 L6.47612321,9.6138834 C7.09312417,9.75333534 7.57752925,10.2111694 7.73148285,10.800219 C7.88187683,11.3770558 7.3885727,11.9209468 6.77157175,11.8530669 C5.77250481,11.7434367 4.38484593,11.5946122 3.32734189,11.4818578 C2.57922823,11.4020492 2.1476242,10.6323654 2.48727136,9.98906877 L2.48727136,9.98906877 Z M12.9685751,16.5833563 C12.9685751,16.8565798 12.7318603,17.0755563 12.446794,17.0658998 L4.49638072,16.7983565 C4.22911252,16.789268 4.03392664,16.6080657 3.96985346,16.384829 C4.06714977,16.4120945 4.1688956,16.4279994 4.27479432,16.4279994 C4.87992987,16.4279994 5.37115756,15.9576686 5.37115756,15.3782757 C5.37115756,15.0633017 5.22195011,14.7886581 4.9926512,14.5963791 C5.18338756,14.5165706 5.38865903,14.4651637 5.60638917,14.4802165 L11.7680929,14.8999924 C12.4444209,14.946003 12.9685751,15.4847817 12.9685751,16.1343267 L12.9685751,16.5833563 L12.9685751,16.5833563 Z M14.3330964,12.8800694 L10.8592031,12.8800694 C10.3721283,12.8800694 9.92865885,12.6113901 9.72012439,12.1901941 L9.02629495,10.7891423 C8.8871731,10.5082503 9.10134363,10.1839039 9.42615903,10.1839039 L19.2403305,10.1839039 C19.5651459,10.1839039 19.7787231,10.5082503 19.6398979,10.7891423 L18.9463651,12.1901941 C18.7378307,12.6113901 18.2943612,12.8800694 17.8072864,12.8800694 L14.3330964,12.8800694 L14.3330964,12.8800694 Z M24.1701088,16.7983565 L16.2193989,17.0658998 C15.9340359,17.0755563 15.6976178,16.8565798 15.6976178,16.5833563 L15.6976178,16.1343267 C15.6976178,15.4847817 16.221772,14.946003 16.8983966,14.8999924 L23.0595071,14.4802165 C23.2772372,14.4651637 23.4828053,14.5165706 23.6735417,14.5963791 C23.4445394,14.7886581 23.2950353,15.0633017 23.2950353,15.3782757 C23.2950353,15.9576686 23.786263,16.4279994 24.3911019,16.4279994 C24.4972973,16.4279994 24.5990431,16.4120945 24.6963394,16.384829 C24.6325629,16.6080657 24.4370804,16.789268 24.1701088,16.7983565 L24.1701088,16.7983565 Z M25.3391476,11.4818578 C24.281347,11.5946122 22.8936881,11.7434367 21.8949178,11.8530669 C21.2779168,11.9209468 20.7843161,11.3770558 20.9350067,10.800219 C21.0886636,10.2111694 21.5727721,9.75333534 22.1900697,9.6138834 L22.5786616,9.52555437 C22.8183428,10.0342273 23.3493195,10.3886795 23.9713633,10.3886795 C24.6862538,10.3886795 25.279524,9.92005284 25.4491992,9.28641275 C25.7547334,9.43949747 26.0145857,9.67807106 26.1789215,9.98906877 C26.5185687,10.6323654 26.0872613,11.4020492 25.3391476,11.4818578 L25.3391476,11.4818578 Z" id="Fill-1-Copy-2" sketch:type="MSShapeGroup"></path>
                <path d="M14.216546,4.79757701 L15.8358769,2.0437562 C16.0393685,1.69668843 16.4229177,1.48225622 16.8388001,1.48225622 L19.6986588,1.48225622 C20.085471,1.48225622 20.4470691,1.66828681 20.6597565,1.97758043 L22.5872912,4.77684383 C22.7465842,5.00831701 22.5730527,5.31647456 22.2832402,5.31647456 L14.5330556,5.31647456 C14.2551086,5.31647456 14.0800939,5.02961823 14.216546,4.79757701" id="Fill-2-Copy-2" sketch:type="MSShapeGroup"></path>
            </g>
        </g>
    </g>
</svg>