<?xml version="1.0" encoding="UTF-8" standalone="no"?>
<svg width="232px" height="19px" viewBox="0 0 232 19" version="1.1" xmlns="http://www.w3.org/2000/svg" xmlns:xlink="http://www.w3.org/1999/xlink" xmlns:sketch="http://www.bohemiancoding.com/sketch/ns">
    <!-- Generator: Sketch 3.3.2 (12043) - http://www.bohemiancoding.com/sketch -->
    <title>Logo</title>
    <desc>Created with Sketch.</desc>
    <defs>
        <linearGradient x1="50%" y1="0%" x2="50%" y2="100%" id="linearGradient-1">
            <stop stop-color="#F5515F" offset="0%"></stop>
            <stop stop-color="#9F031B" offset="100%"></stop>
        </linearGradient>
    </defs>
    <g id="Acounts" stroke="none" stroke-width="1" fill="none" fill-rule="evenodd" sketch:type="MSPage">
        <g id="Desktop---User-cabinet---Profile-(Max-width:-1366px)" sketch:type="MSArtboardGroup" transform="translate(-19.000000, -22.000000)">
            <g id="Logo" sketch:type="MSLayerGroup" transform="translate(20.000000, 23.000000)">
                <g id="Symbol-logo-Copy" transform="translate(0.000000, 0.070906)" sketch:type="MSShapeGroup">
                    <path d="M0,8.42498337 C0,9.2808756 0.14406717,10.1069679 0.411487417,10.8845755 C0.71065366,11.7544946 1.16419832,12.5637343 1.74311988,13.2861347 C3.41972477,15.3782663 6.14790288,16.7420503 9.22319824,16.7420503 C11.3624521,16.7420503 14.0570215,15.5810899 17.4600832,13.1936996 C18.4300733,12.5123956 19.3095023,11.8350362 20.007156,11.2756038 C20.703961,11.8362725 21.582737,12.5123956 22.5520742,13.1936996 C25.9546788,15.5810899 28.6495093,16.7420503 30.7887632,16.7420503 C35.8750085,16.7420503 40.0132021,13.0113631 40.0132021,8.42498337 C40.0132021,3.8387214 35.8750085,0.108446277 30.7887632,0.108446277 C28.6495093,0.108446277 25.9546788,1.26858251 22.5520742,3.6576801 L22.5520742,3.6576801 C21.582737,4.33774778 20.703961,5.01428294 20.007156,5.57453954 C19.3095023,5.01504832 18.4300733,4.33892528 17.4600832,3.6576801" id="Imported-Layers" stroke="#141E34" stroke-width="2" fill="#FFFFFF"></path>
                    <path d="M15.839911,2.57962728 C15.2168056,2.18955622 14.6200281,1.84639986 14.0484202,1.54963768 C12.186233,0.58284444 10.5911769,0.108446277 9.22319824,0.108446277 C6.14790288,0.108446277 3.41972477,1.47207969 1.74311988,3.56406607 C1.16419832,4.28641636 0.71065366,5.09560665 0.411487417,5.9654833 C0.274904615,6.36262099 0.170499399,6.77240773 0.101031526,7.19235476" id="Path" stroke="url(#linearGradient-1)" stroke-width="2" fill="#FFFFFF"></path>
                    <path d="M13.8047634,4.52184026 L13.7126668,4.40168325 L8.65691283,7.62696209 C8.18575574,7.26794956 7.5271784,7.20041033 7.03442453,7.50186866 C6.48718227,7.83653566 6.3329019,8.51136703 6.63898025,9.08264572 L5.87825268,9.56159088 L6.55346201,10.203438 L7.23313963,9.67916748 C7.68121053,9.92744708 8.23751351,9.94663182 8.66771122,9.68354295 C9.20465158,9.35504648 9.36389672,8.6986145 9.0804081,8.13440387 L13.8047634,4.52184026" id="Fill-21-Copy" fill="#141E34"></path>
                </g>
                <path d="M45.9106225,17.0858436 L52.1083465,17.0858436 L61.1579457,10.9437839 L54.5875748,13.2884343 L59.7938849,4.46632795 L66.9844095,16.8622461 L73.6778405,16.7504474 L63.637174,0 L56.1991425,0 L45.9106225,17.0858436" id="Fill-22-Copy-3" fill="#131E33" sketch:type="MSShapeGroup"></path>
                <path d="M74.8632673,4.9209098 L75.0438711,11.9286289 C75.0438711,11.9286289 74.9152646,13.9210197 75.1111208,14.5521516 C75.698343,16.4461719 79.1391735,17.3446215 81.1854381,17.3446215 C81.1854381,17.3446215 83.6150957,17.4701609 84.4082269,17.3446215 C85.2994595,17.2028432 87.1353086,16.4508563 87.2594087,15.3341181 L87.2594087,16.8974266 L92.3426586,16.8974266 L92.3426586,4.94807876 L87.5072622,4.94807876 L87.5072622,11.984216 C87.5072622,11.984216 86.8874551,13.4357258 83.5405663,13.4357258 C83.5405663,13.4357258 79.9454773,13.8826084 79.9454773,11.8724173 L79.9454773,4.83659232 L74.8632673,4.9209098" id="Fill-23-Copy-3" fill="#131E33" sketch:type="MSShapeGroup"></path>
                <path d="M123.896322,4.46454676 L118.453598,4.46454676 C114.943785,4.46454676 112.088096,6.6386885 112.088096,9.30999106 L112.088096,13.1539311 C112.088096,15.8261705 114.943785,18 118.453598,18 L123.896322,18 C127.406136,18 130.262171,15.8261705 130.262171,13.1539311 L130.262171,9.30999106 C130.262171,6.6386885 127.406136,4.46454676 123.896322,4.46454676 L123.896322,4.46454676 Z M117.015355,9.30999106 C117.015355,9.04173657 117.619216,8.64325843 118.453598,8.64325843 L123.896322,8.64325843 C124.732091,8.64325843 125.335953,9.04173657 125.335953,9.30999106 L125.335953,13.1539311 C125.335953,13.4231225 124.732091,13.8203515 123.896322,13.8203515 L118.453598,13.8203515 C117.619216,13.8203515 117.015355,13.4231225 117.015355,13.1539311 L117.015355,9.30999106 L117.015355,9.30999106 Z" id="Fill-24-Copy-3" fill="#131E33" sketch:type="MSShapeGroup"></path>
                <path d="M105.966285,11.4875217 C105.966285,13.9168019 104.013616,13.9168019 104.013616,13.9168019 C102.061986,13.9168019 102.107397,12.9533966 102.107397,12.9533966 L102.107397,8.64008929 L99.6205423,8.1373073 L109.499324,8.1373073 L109.499324,4.7874052 L102.107397,4.7874052 L102.107397,2.23227338 L97.3662887,2.23227338 L97.3662887,4.7874052 L94.7165095,4.7874052 L94.7165095,8.1373073 L97.3662887,8.1373073 L97.3662887,12.9533966 L97.4127396,12.9533966 L97.4127396,14.3352664 C97.4127396,16.5968485 101.039027,17.1836356 101.039027,17.1836356 L105.873037,17.1836356 C109.034815,17.1836356 110.243231,14.418647 110.243231,14.418647 L110.243231,11.4875217 L105.966285,11.4875217" id="Fill-25-Copy-3" fill="#131E33" sketch:type="MSShapeGroup"></path>
                <path d="M153.529783,3.65045709 C153.293369,3.05867332 152.95712,2.60304666 152.519303,2.28482626 C152.080793,1.965669 151.533782,1.75362616 150.876884,1.6474486 C150.219639,1.54095875 149.478505,1.48818225 148.653482,1.48818225 L133.595775,1.48818225 L133.595775,17.9666277 L136.07223,17.9666277 L136.07223,3.30850288 L148.0725,3.30850288 C148.611538,3.30850288 149.086792,3.34316673 149.499997,3.41155757 C149.912508,3.47994841 150.261583,3.60517548 150.548955,3.78692649 C150.834593,3.96867749 151.049861,4.21944391 151.19268,4.53828889 C151.3355,4.85650929 151.407602,5.25842259 151.407602,5.7440288 L151.407602,7.31483215 C151.407602,8.17955471 151.133404,8.78695283 150.586046,9.13577735 C150.039035,9.48460188 149.268436,9.65885799 148.274595,9.65885799 L143.535914,9.65885799 L148.703053,5.5741447 L136.557885,11.4823015 L141.699371,11.5007264 L141.719824,11.4801155 L148.173374,11.4801155 C149.520796,11.4801155 150.57322,11.3661307 151.332033,11.1387858 C152.089806,10.9108164 152.658656,10.5663639 153.037542,10.10293 C153.416082,9.64012078 153.65215,9.06395136 153.744358,8.3737972 C153.836913,7.68270618 153.883711,6.88231473 153.883711,5.97231056 C153.883711,5.01577563 153.765157,4.24224086 153.529783,3.65045709" id="Fill-26-Copy-3" fill="#131E33" sketch:type="MSShapeGroup"></path>
                <path d="M171.69248,6.87397551 C171.061233,6.51859296 170.306927,6.27532143 169.431293,6.14603463 C168.554967,6.01737241 167.603764,5.95272901 166.576645,5.95272901 L163.468943,5.95272901 C162.441131,5.95272901 161.490275,6.01737241 160.613602,6.14603463 C159.738315,6.27532143 158.984008,6.51859296 158.353109,6.87397551 C157.721169,7.23123178 157.228235,7.71309054 156.874307,8.31986408 C156.520726,8.92663763 156.344282,9.70860415 156.344282,10.6645145 L156.344282,13.2130883 C156.344282,14.1689986 156.520726,14.9509652 156.874307,15.5574264 C157.228235,16.1648245 157.721169,16.6469956 158.353109,17.003315 C158.984008,17.3599467 159.738315,17.6025937 160.613602,17.7315682 C161.490275,17.8602304 162.441131,17.9245615 163.468943,17.9245615 L166.576645,17.9245615 C167.603764,17.9245615 168.554967,17.8602304 169.431293,17.7315682 C170.306927,17.6025937 171.061233,17.3599467 171.69248,17.003315 C172.32442,16.6469956 172.816314,16.1648245 173.170588,15.5574264 C173.524169,14.9509652 173.70096,14.1689986 173.70096,13.2130883 L173.70096,10.6645145 C173.70096,9.70860415 173.524169,8.92663763 173.170588,8.31986408 C172.816314,7.71309054 172.32442,7.23123178 171.69248,6.87397551 L171.69248,6.87397551 Z M171.527822,13.1000404 C171.527822,13.7823874 171.422788,14.3323247 171.212025,14.7495401 C171.00161,15.16738 170.706959,15.4940322 170.328072,15.7285597 C169.949186,15.9643363 169.49473,16.1232904 168.963665,16.206671 C168.43364,16.2903639 167.856124,16.3312735 167.233197,16.3312735 L162.811698,16.3312735 C162.171786,16.3312735 161.59115,16.2903639 161.068404,16.206671 C160.546699,16.1232904 160.096403,15.9643363 159.717516,15.7285597 C159.338283,15.4940322 159.042939,15.16738 158.83287,14.7495401 C158.621761,14.3323247 158.516727,13.7823874 158.516727,13.1000404 L158.516727,10.7775624 C158.516727,10.0952154 158.621761,9.54559036 158.83287,9.12806271 C159.042939,8.71084735 159.338283,8.38450748 159.717516,8.14997998 C160.096403,7.91451562 160.546699,7.75524928 161.068404,7.67061952 C161.59115,7.58786348 162.171786,7.54601702 162.811698,7.54601702 L167.233197,7.54601702 C167.856124,7.54601702 168.43364,7.58786348 168.963665,7.67061952 C169.49473,7.75524928 169.949186,7.91451562 170.328072,8.14997998 C170.706959,8.38450748 171.00161,8.71084735 171.212025,9.12806271 C171.422788,9.54559036 171.527822,10.0952154 171.527822,10.7775624 L171.527822,13.1000404 L171.527822,13.1000404 Z" id="Fill-27-Copy-3" fill="#131E33" sketch:type="MSShapeGroup"></path>
                <path d="M189.716633,6.89677246 C189.295802,6.57105717 188.739085,6.33215765 188.049255,6.18007391 C187.358385,6.02861474 186.50771,5.95272901 185.49723,5.95272901 L183.450619,5.95272901 C183.080399,5.95272901 182.705325,5.97958569 182.326785,6.03267447 C181.947899,6.08545096 181.581145,6.18007391 181.227217,6.31716788 C180.874329,6.45363728 180.549173,6.64382003 180.254522,6.88553013 C179.959871,7.12880166 179.712364,7.44015175 179.509575,7.8192681 L179.459311,7.8192681 L179.459311,6.1347923 L177.438352,6.1347923 L177.438352,17.7428105 L179.61045,17.7428105 L179.61045,10.3684665 C179.61045,9.98903783 179.682553,9.62865869 179.825372,9.28701677 C179.968191,8.9463117 180.179646,8.64682852 180.456965,8.38825493 C180.73463,8.12999362 181.089251,7.92575795 181.518402,7.7739865 C181.947899,7.62221504 182.449152,7.54601702 183.021122,7.54601702 L184.360571,7.54601702 C185.320786,7.54601702 186.099358,7.58442832 186.69802,7.65968947 C187.295295,7.73619978 187.75391,7.89140639 188.073867,8.12687075 C188.39417,8.36171054 188.609092,8.69929273 188.718979,9.13961733 C188.827827,9.57931735 188.882944,10.1561113 188.882944,10.8687502 L188.882944,11.3699707 L190.903903,11.3699707 L190.903903,9.98154294 C190.903903,9.26859184 190.811001,8.65807085 190.625891,8.14997998 C190.440434,7.64126454 190.137117,7.22404918 189.716633,6.89677246" id="Fill-28-Copy-3" fill="#131E33" sketch:type="MSShapeGroup"></path>
                <path d="M222.34502,6.65849751 C221.755718,6.37056895 221.044396,6.18007391 220.210707,6.08888612 C219.376671,5.9983229 218.454587,5.95272901 217.444107,5.95272901 L214.007783,5.95272901 C213.031275,5.95272901 212.201399,6.00987752 211.519196,6.12323768 C210.836992,6.23722242 210.281661,6.41179082 209.852164,6.64725518 C209.422667,6.88240726 209.110684,7.1900099 208.917254,7.56881397 C208.723131,7.9485549 208.627109,8.40386927 208.627109,8.93506937 L208.627109,9.50343162 L210.799554,9.50343162 L210.799554,9.09371114 C210.799554,8.85137647 210.841152,8.6352739 210.925734,8.44477886 C211.009623,8.25584526 211.170121,8.09251919 211.405842,7.9557375 C211.641909,7.8192681 211.969838,7.7165257 212.390669,7.64813486 C212.8115,7.58036859 213.367524,7.54601702 214.058394,7.54601702 L217.242012,7.54601702 C218.067034,7.54601702 218.782516,7.5728737 219.389844,7.62596248 C219.995439,7.67905126 220.496692,7.78491654 220.892218,7.94418288 C221.28809,8.1040738 221.578928,8.34266103 221.763691,8.66119372 C221.949148,8.9800387 222.042396,9.39756635 222.042396,9.91346439 L222.042396,12.0985362 L221.991439,12.0985362 C221.805982,11.8249728 221.595914,11.5970033 221.359499,11.41494 C221.123779,11.2338136 220.829474,11.089537 220.4752,10.9827349 C220.121965,10.8768696 219.695934,10.8050436 219.199881,10.7669446 C218.702787,10.7288456 218.101006,10.7094838 217.39315,10.7094838 L213.906562,10.7094838 C212.963679,10.7094838 212.12583,10.7404002 211.393016,10.8003593 C210.660895,10.8618799 210.045594,10.9939772 209.5485,11.199462 C209.051753,11.4036977 208.677027,11.7041178 208.424667,12.0985362 C208.172307,12.4929546 208.045433,13.0166598 208.045433,13.6693395 L208.045433,14.4428743 C208.045433,14.9884396 208.109217,15.4781055 208.23505,15.910623 C208.36123,16.3425158 208.579965,16.707267 208.891949,17.003315 C209.203585,17.2987385 209.624416,17.5267079 210.155135,17.685662 C210.685853,17.844616 211.363204,17.9245615 212.18892,17.9245615 L217.39315,17.9245615 C218.218173,17.9245615 218.89691,17.905512 219.427629,17.8677253 C219.958001,17.8299386 220.387151,17.7578003 220.71612,17.6516227 C221.044396,17.5460697 221.300569,17.404916 221.486026,17.2306599 C221.67183,17.0564038 221.839954,16.8399889 221.991439,16.5820399 L222.042396,16.5820399 L222.042396,17.7428105 L224.214841,17.7428105 L224.214841,9.95874599 C224.214841,9.09371114 224.050876,8.39949726 223.721907,7.87610433 C223.394325,7.3527114 222.934669,6.94705066 222.34502,6.65849751 L222.34502,6.65849751 Z M222.042396,14.624313 C222.042396,14.9884396 221.941175,15.2810525 221.738733,15.5005902 C221.536983,15.7204402 221.221533,15.8962578 220.791343,16.0246077 C220.362192,16.1532699 219.797156,16.2369628 219.099353,16.2744373 C218.39947,16.3134731 217.561275,16.3312735 216.584766,16.3312735 L213.705159,16.3312735 C212.963679,16.3312735 212.365711,16.2969219 211.910908,16.2291556 C211.456106,16.1610771 211.102524,16.0508398 210.850164,15.8990683 C210.597458,15.7479215 210.429333,15.553679 210.345098,15.3185269 C210.260516,15.0830625 210.218571,14.8063763 210.218571,14.4881559 L210.218571,14.1240293 C210.218571,13.7595905 210.272995,13.4601073 210.382536,13.2243306 C210.49173,12.9898031 210.685853,12.8036801 210.963518,12.667523 C211.241877,12.530429 211.607938,12.4361184 212.063087,12.382405 C212.517543,12.3299408 213.098178,12.3033964 213.806034,12.3033964 L217.14079,12.3033964 C217.965466,12.3033964 218.686148,12.3218213 219.301102,12.3596081 C219.915363,12.3986439 220.424936,12.4814 220.829474,12.6103745 C221.234013,12.7390367 221.536983,12.9211 221.738733,13.1556275 C221.941175,13.3917164 222.042396,13.7065017 222.042396,14.1009201 L222.042396,14.624313 L222.042396,14.624313 Z" id="Fill-29-Copy-3" fill="#131E33" sketch:type="MSShapeGroup"></path>
                <path d="M228.312285,1.48818225 L230.485076,1.48818225 L230.485076,17.9666277 L228.312285,17.9666277 L228.312285,1.48818225 Z" id="Fill-30-Copy-3" fill="#131E33" sketch:type="MSShapeGroup"></path>
                <path d="M204.142691,12.4521992 L204.142691,13.3169218 C204.142691,13.9243199 204.10456,14.4214807 204.028644,14.8074674 C203.953768,15.1950155 203.79743,15.4985584 203.561362,15.7184084 C203.325295,15.9382584 202.989046,16.0903422 202.550882,16.1737228 C202.113066,16.2574157 201.53139,16.2983253 200.808282,16.2983253 L200.125385,16.2983253 C199.535736,16.2983253 199.034829,16.2524191 198.622318,16.1621682 C198.20946,16.0712927 197.877024,15.9154615 197.624318,15.6956115 C197.372304,15.4754492 197.190314,15.1875206 197.080773,14.8302643 C196.971579,14.4742572 196.917502,14.0226903 196.917502,13.4761881 L196.917502,7.95058284 L195.938567,7.69513211 L205.532057,7.69513211 L205.532057,6.1018441 L196.917502,6.1018441 L196.917502,3.34841007 L194.744364,3.34841007 L194.744364,6.1018441 L191.914674,6.1018441 L191.914674,7.69513211 L194.744364,7.69513211 L194.744364,14.2272382 C194.744364,14.698167 194.815773,15.153169 194.958939,15.5928691 C195.102452,16.0338182 195.358625,16.4238646 195.729192,16.7655066 C196.100105,17.1062116 196.613491,17.3794627 197.27039,17.5849475 C197.926941,17.7898078 198.760977,17.8916133 199.771457,17.8916133 L200.959074,17.8916133 C202.138024,17.8916133 203.056642,17.785748 203.713194,17.5737052 C204.370092,17.3610378 204.862333,17.0649897 205.190956,16.6858734 C205.519578,16.3064447 205.721327,15.8633096 205.79759,15.3542818 C205.873506,14.8458787 205.911291,14.3040608 205.911291,13.7266423 L205.911291,12.4521992 L204.142691,12.4521992" id="Fill-31-Copy-3" fill="#131E33" sketch:type="MSShapeGroup"></path>
            </g>
        </g>
    </g>
</svg>