<?xml version="1.0" encoding="utf-8"?>
<!-- Generator: Adobe Illustrator 18.1.1, SVG Export Plug-In . SVG Version: 6.00 Build 0)  -->
<svg version="1.1" id="Layer_1" xmlns="http://www.w3.org/2000/svg" xmlns:xlink="http://www.w3.org/1999/xlink" x="0px" y="0px"
	 viewBox="-297 388 17 17" enable-background="new -297 388 17 17" xml:space="preserve">
<g id="shopping-cart">
	<path fill="#1EAAF1" d="M-291.7,401.3c-0.9,0-1.6,0.7-1.6,1.6c0,0.9,0.7,1.6,1.6,1.6c0.9,0,1.6-0.7,1.6-1.6
		C-290.1,402-290.8,401.3-291.7,401.3z M-296.5,388.5v1.6h1.6l2.9,6.1l-1.1,1.9c-0.1,0.2-0.2,0.6-0.2,0.8c0,0.9,0.7,1.6,1.6,1.6h9.6
		v-1.6h-9.3c-0.1,0-0.2-0.1-0.2-0.2v-0.1l0.7-1.4h5.9c0.6,0,1.1-0.3,1.4-0.8l2.9-5.2c0.2-0.2,0.2-0.2,0.2-0.4c0-0.5-0.3-0.8-0.8-0.8
		h-11.8l-0.7-1.6H-296.5z M-283.7,401.3c-0.9,0-1.6,0.7-1.6,1.6c0,0.9,0.7,1.6,1.6,1.6c0.9,0,1.6-0.7,1.6-1.6
		C-282.1,402-282.8,401.3-283.7,401.3z"/>
</g>
</svg>
