<?xml version="1.0" encoding="utf-8"?>
<!-- Generator: Adobe Illustrator 16.0.2, SVG Export Plug-In . SVG Version: 6.00 Build 0)  -->
<!DOCTYPE svg PUBLIC "-//W3C//DTD SVG 1.1//EN" "http://www.w3.org/Graphics/SVG/1.1/DTD/svg11.dtd">
<svg version="1.1" id="Layer_1" xmlns="http://www.w3.org/2000/svg" xmlns:xlink="http://www.w3.org/1999/xlink" x="0px" y="0px"
	 width="589.635px" height="165.796px" viewBox="0 0 589.635 165.796" enable-background="new 0 0 589.635 165.796"
	 xml:space="preserve">
<path fill="#231F20" d="M589.635,0L341.346,30.149l-0.579,19.019l-10.092,17.077l-22.899,1.94l-0.196-34.155l-92.424,11.648
	l-47.67-24.361c0,0-2.147-1.259-4.477,1.069c-2.328,2.33-46.768,51.231-46.768,51.231L0.583,162.303L0,165.796l40.737-2.266
	L164.562,26.463l142.813,119.422l2.612-3.269l-0.075,1.444l256.543-15.525L589.159,3.758L589.635,0z M467.68,96.323l-23.87,0.971
	l7.956-20.182l23.288-0.583L467.68,96.323z M483.785,60.035l-23.481,0.583l7.764-19.018l21.609-1.584L483.785,60.035z"/>
</svg>
