<?xml version="1.0" encoding="utf-8"?>
<!-- Generator: Adobe Illustrator 16.0.2, SVG Export Plug-In . SVG Version: 6.00 Build 0)  -->
<!DOCTYPE svg PUBLIC "-//W3C//DTD SVG 1.1//EN" "http://www.w3.org/Graphics/SVG/1.1/DTD/svg11.dtd">
<svg version="1.1" id="Layer_1" xmlns="http://www.w3.org/2000/svg" xmlns:xlink="http://www.w3.org/1999/xlink" x="0px" y="0px"
	 width="512.678px" height="150.388px" viewBox="0 0 512.678 150.388" enable-background="new 0 0 512.678 150.388"
	 xml:space="preserve">
<g>
	<path fill="#231F20" d="M0.275,44.643L0,136.261l63.091,5.213l0.549-98.203l-51.57-1.645L0.275,44.643z M37.854,48.482
		l10.836-1.919v59.25H37.854V48.482z"/>
	<path fill="#231F20" d="M402.42,20.871l-0.014-5.579L262.237,2.949l-27.156,3.839L161.499,0L70.224,18.035l87.777,5.761v6.034
		L72.692,41.351l-0.549,100.945l9.875,0.274l0.822-100.122l35.112-5.076l-0.48,109.003l43.821,4.012l13.578-1.234l3.702-1.646
		c0,0-4.114-9.875-1.233-10.697c2.88-0.824,7.405,3.703,11.52,0c4.115-3.703,3.704-7.817,3.704-7.817s6.172-2.88,8.23-2.47
		c2.057,0.412,6.582-0.822,6.582,0.412s-1.234,8.641,2.88,6.583c4.113-2.058,9.053-4.114,10.285-3.703
		c1.236,0.411,4.115-2.056,4.115-2.056l-0.822-4.527c0,0,4.938,2.059,6.994,2.881c2.058,0.822,11.111-4.526,11.111-4.526
		s10.285,0,12.343,0.822c0,0,7.132-3.703,6.859-1.233c-0.275,2.469-1.373,3.84-1.373,5.211c0,1.373-0.549,4.663,1.373,4.938
		c1.92,0.274,16.182-3.84,16.182-2.195c0,1.646-1.371,2.744-2.467,3.842c-1.098,1.097-2.469,2.742-2.469,2.742l67.203-1.646
		c0,0,3.566-3.018,17.008-3.292c13.441-0.273,13.441,2.195,13.441,2.195l32.641-0.275l-0.039-16.994l5.525,0.263
		c0,0,6.311,2.742,7.133,2.469c0.824-0.274,4.664,1.097,6.584,1.097s4.115-4.115,5.76-5.486c1.646-1.371,7.953-0.549,9.875-0.549
		c1.92,0,3.018-1.92,3.018-1.92s1.371-1.098,3.291-1.371s5.762,0.549,7.682,0c1.922-0.549,5.762,0,5.762,0l-1.098-66.107
		l56.506-2.744V30.105L402.42,20.871z M250.579,120.626l-10.149-0.137l-0.273-83.938l10.971-2.469L250.579,120.626z
		 M382.108,121.997l-99.434,1.508l0.547-88.874l98.887,5.897V121.997z M402.614,105.608l0.375-59.594l19.443,1.097l0.41,58.29
		L402.614,105.608z"/>
	<polygon fill="#231F20" points="493.545,46.083 494.78,135.985 507.124,136.192 506.506,45.877 	"/>
</g>
</svg>
