<?xml version="1.0" encoding="utf-8"?>
<!-- Generator: Adobe Illustrator 16.0.2, SVG Export Plug-In . SVG Version: 6.00 Build 0)  -->
<!DOCTYPE svg PUBLIC "-//W3C//DTD SVG 1.1//EN" "http://www.w3.org/Graphics/SVG/1.1/DTD/svg11.dtd">
<svg version="1.1" id="Layer_1" xmlns="http://www.w3.org/2000/svg" xmlns:xlink="http://www.w3.org/1999/xlink" x="0px" y="0px"
	 width="707px" height="213px" viewBox="0 0 707 213" enable-background="new 0 0 707 213" xml:space="preserve">
<path fill="#231F20" d="M706,51L656,0L300.5,16.5L274,11L50.5,22L50,28.5l-48.5,3L0,167l4.5,5.5c0,0,1-2.5,1.5-4.5s9-0.5,9-0.5l2,6
	l4.5-0.5c0,0,10.5-1.5,12-1.5s-1.5,5-1.5,7s7.5,1,11.5-0.5s7.5,9,7.5,9h40l3.5-1.5h5.5h4.5l7.5-3c0,0,9,0.5,10.5,0.5s6,3,8.5,3
	s11,2.5,11,2.5l133,3c0,0,23-14,23-15.5s-2.5-6.5-2.5-9s6-7,8-8s7.5,3.5,11,3.5s5,3,8,2.5s6.5-1,9-2.5s0-4,5.5-5s14,7.5,14,7.5V55
	l59.667-2l0.833,155l75,2l38-9.5v-156L628,39l0.167-5h3.333l-0.25-11.128L649,22.5v11.731h-20.774L631.5,213H649V38h22.5l3,167
	l32.5-16.5L706,51z M242.334,173.5l-158.167-1.166v-114l158.5-5.5L242.334,173.5z"/>
</svg>
