<?xml version="1.0" encoding="utf-8"?>
<!-- Generator: Adobe Illustrator 16.0.2, SVG Export Plug-In . SVG Version: 6.00 Build 0)  -->
<!DOCTYPE svg PUBLIC "-//W3C//DTD SVG 1.1//EN" "http://www.w3.org/Graphics/SVG/1.1/DTD/svg11.dtd">
<svg version="1.1" id="Layer_1" xmlns="http://www.w3.org/2000/svg" xmlns:xlink="http://www.w3.org/1999/xlink" x="0px" y="0px"
	 width="385.088px" height="183.316px" viewBox="0 0 385.088 183.316" enable-background="new 0 0 385.088 183.316"
	 xml:space="preserve">
<g>
	<path fill="#231F20" d="M385.083,40.411l-1.295-0.214l-0.23-0.498l-116.32-12.884c0,0-0.387,0.631-0.387,2.086
		c0,1.618,0.631,1.695,0.631,1.695l42.604,4.544l0.084,9.793l-24.275,16.528l1.396,76.029h3.199l-0.135-73.799l24.271-17.305
		l-0.014-10.732c0,0,68.285,7.423,69.449,7.423S385.083,40.411,385.083,40.411z"/>
	<path fill="#231F20" d="M0,5.361l28.189,1.458v11.297L6.854,39.475L6.03,178.021l1.512,3.025c0,0,0.698,2.27,3.259,2.27
		c2.562,0,2.766-2.734,2.562-3.316c-0.205-0.582-2.153-4.016-2.153-4.016l1.403-134.413l21.454-22.466L33.835,7.168l15.231,0.661
		l0.278-4.688L0.257,0L0,5.361z"/>
</g>
</svg>
