<?xml version="1.0" encoding="utf-8"?>
<!-- Generator: Adobe Illustrator 16.0.2, SVG Export Plug-In . SVG Version: 6.00 Build 0)  -->
<!DOCTYPE svg PUBLIC "-//W3C//DTD SVG 1.1//EN" "http://www.w3.org/Graphics/SVG/1.1/DTD/svg11.dtd">
<svg version="1.1" id="Layer_1" xmlns="http://www.w3.org/2000/svg" xmlns:xlink="http://www.w3.org/1999/xlink" x="0px" y="0px"
	 width="731.589px" height="262.579px" viewBox="0 0 731.589 262.579" enable-background="new 0 0 731.589 262.579"
	 xml:space="preserve">
<g>
	<path fill="#231F20" d="M35.356,51.098l17.396-0.99c0,0,0.919-0.115,0.919-2.475c0-2.122-0.565-3.041-0.565-3.041L6.223,47.138
		L5.94,48.977H0c0,0,0.99,3.889,2.688,3.889c1.697,0,25.881-1.273,25.881-1.273l0.283,15.557l31.538,25.88L59.54,213.808h4.667
		l2.687-124.03l-31.538-24.75V51.098z"/>
	<path fill="#231F20" d="M507.736,18.904L731.589,5.091L731.306,0L396.128,21.213l0.849,4.526l103.899-6.412l-0.281,18.386
		l16.688,32.953l0.706,183.004c0,0-2.368,4.171-2.616,4.879c-0.247,0.706,0,4.03,3.113,4.03c3.11,0,3.959-2.758,3.959-2.758
		l1.838-3.677V68.12l-16.547-31.609V18.904z"/>
</g>
</svg>
