<?xml version="1.0" encoding="utf-8"?>
<!-- Generator: Adobe Illustrator 16.0.2, SVG Export Plug-In . SVG Version: 6.00 Build 0)  -->
<!DOCTYPE svg PUBLIC "-//W3C//DTD SVG 1.1//EN" "http://www.w3.org/Graphics/SVG/1.1/DTD/svg11.dtd">
<svg version="1.1" id="Layer_1" xmlns="http://www.w3.org/2000/svg" xmlns:xlink="http://www.w3.org/1999/xlink" x="0px" y="0px"
	 width="326.666px" height="120.5px" viewBox="0 0 326.666 120.5" enable-background="new 0 0 326.666 120.5" xml:space="preserve">
<g>
	<path fill="#231F20" d="M0,119.334l158.167,1.166v-5.666L110,114.465V7.486l48.5-1.652V1.167L0,5.333V119.334z M56.833,9.297
		l46.667-1.59v106.707l-46.667-0.357V9.297z M6.833,11l43.5-1.482v104.49l-44.5-0.342L6.833,11z"/>
	<polygon fill="#231F20" points="201.833,118.666 209.833,118.666 209.833,3.667 202.167,2.5 	"/>
	<path fill="#231F20" d="M326.5,0l-57.667,0.917l0.333,96.25l57.5,0.833L326.5,0z M321.333,88.5l-42-0.666V11L322,10.583
		L321.333,88.5z"/>
</g>
</svg>
