<?xml version="1.0" encoding="utf-8"?>
<!-- Generator: Adobe Illustrator 16.0.2, SVG Export Plug-In . SVG Version: 6.00 Build 0)  -->
<!DOCTYPE svg PUBLIC "-//W3C//DTD SVG 1.1//EN" "http://www.w3.org/Graphics/SVG/1.1/DTD/svg11.dtd">
<svg version="1.1" id="Layer_1" xmlns="http://www.w3.org/2000/svg" xmlns:xlink="http://www.w3.org/1999/xlink" x="0px" y="0px"
	 width="548.796px" height="165.337px" viewBox="0 0 548.796 165.337" enable-background="new 0 0 548.796 165.337"
	 xml:space="preserve">
<path fill="#231F20" d="M548.018,39.586L509.205,0L233.257,12.808l-20.571-4.269L39.201,17.077l-0.389,5.046L1.165,24.451L0,129.63
	l3.493,4.27c0,0,0.776-1.941,1.165-3.493c0.388-1.552,6.985-0.389,6.985-0.389l1.552,4.658l3.494-0.39c0,0,8.149-1.164,9.314-1.164
	c1.165,0-1.165,3.882-1.165,5.435c0,1.552,5.822,0.775,8.927-0.39c3.104-1.163,5.821,6.986,5.821,6.986h31.05l2.716-1.163h4.27
	h3.493l5.821-2.329c0,0,6.986,0.389,8.15,0.389c1.165,0,4.658,2.328,6.599,2.328c1.94,0,8.539,1.94,8.539,1.94l103.238,2.33
	c0,0,17.854-10.868,17.854-12.032c0-1.165-1.94-5.047-1.94-6.986c0-1.94,4.657-5.435,6.211-6.211
	c1.552-0.775,5.821,2.717,8.537,2.717c2.717,0,3.882,2.329,6.21,1.941c2.329-0.388,5.045-0.776,6.985-1.941
	c1.94-1.164,0-3.104,4.27-3.88s10.867,5.821,10.867,5.821V42.691l46.315-1.551l0.646,120.316l58.218,1.551l29.496-7.373V34.542
	l80.34-4.269l0.13-3.881h2.588l-0.195-8.637l13.779-0.289v9.106h-16.127l2.543,138.766h13.584V29.497h17.465l2.328,129.63
	l25.229-12.808L548.018,39.586z M188.107,134.676L65.333,133.77V45.279l123.031-4.268L188.107,134.676z"/>
</svg>
