<?xml version="1.0" encoding="utf-8"?>
<!-- Generator: Adobe Illustrator 16.0.2, SVG Export Plug-In . SVG Version: 6.00 Build 0)  -->
<!DOCTYPE svg PUBLIC "-//W3C//DTD SVG 1.1//EN" "http://www.w3.org/Graphics/SVG/1.1/DTD/svg11.dtd">
<svg version="1.1" id="Layer_1" xmlns="http://www.w3.org/2000/svg" xmlns:xlink="http://www.w3.org/1999/xlink" x="0px" y="0px"
	 width="567.879px" height="203.821px" viewBox="0 0 567.879 203.821" enable-background="new 0 0 567.879 203.821"
	 xml:space="preserve">
<g>
	<path fill="#231F20" d="M27.444,39.663l13.504-0.767c0,0,0.713-0.089,0.713-1.921c0-1.646-0.439-2.36-0.439-2.36L4.831,36.589
		l-0.22,1.428H0c0,0,0.77,3.02,2.087,3.02c1.317,0,20.09-0.988,20.09-0.988l0.218,12.075l24.48,20.089l-0.658,93.751h3.623
		l2.086-96.276L27.444,50.477V39.663z"/>
	<path fill="#231F20" d="M394.12,14.673l173.76-10.722L567.662,0L307.487,16.466l0.658,3.513l80.648-4.977l-0.216,14.271
		l12.953,25.58l0.548,142.053c0,0-1.838,3.237-2.03,3.786c-0.193,0.549,0,3.129,2.415,3.129c2.416,0,3.073-2.142,3.073-2.142
		l1.427-2.853V52.876L394.12,28.341V14.673z"/>
</g>
</svg>
