<?xml version="1.0" encoding="utf-8"?>
<!-- Generator: Adobe Illustrator 16.0.2, SVG Export Plug-In . SVG Version: 6.00 Build 0)  -->
<!DOCTYPE svg PUBLIC "-//W3C//DTD SVG 1.1//EN" "http://www.w3.org/Graphics/SVG/1.1/DTD/svg11.dtd">
<svg version="1.1" id="Layer_1" xmlns="http://www.w3.org/2000/svg" xmlns:xlink="http://www.w3.org/1999/xlink" x="0px" y="0px"
	 width="468.25px" height="136.708px" viewBox="-123.5 -13.75 468.25 136.708"
	 enable-background="new -123.5 -13.75 468.25 136.708" xml:space="preserve">
<g>
	<polygon fill="#231F20" points="122.792,91.292 135.167,91.375 135.167,86.625 132.542,86.542 132.292,-3.833 135.834,-4.625 
		135.959,-13.75 122.667,-10.958 	"/>
	<polygon fill="#231F20" points="-113.833,11.167 -110.291,10.375 -110.166,1.25 -123.458,4.042 -123.5,73.292 -110.125,73.375 
		-110.125,68.625 -113.75,68.542 	"/>
	<path fill="#231F20" d="M295.231-5.75l-120.395-7.375l-0.084,5l35.791,1.875l0.125,95.875l-36.375,0.625l-0.25,4.75l121-2.25
		l0.25-98l-0.08,0.068L295.231-5.75z M250.981,89.687l-33.75-0.125l0.063-95.438L217.2-5.934l34.453,1.85L250.981,89.687z
		 M289.731,88.687l-32.625,0.5l0.061-92.975l32.75,1.759L289.731,88.687z"/>
	<polygon fill="#231F20" points="344.042,2.083 320.417,0.875 320.5,7.917 336.668,9.042 336.584,65.958 320.084,65.875 320,73.208 
		344.75,73.125 	"/>
	<path fill="#231F20" d="M-25.75-0.208l-0.334-9.333l-42.333,6.167l-1.167,121.167l42.834,5.166l0.332-9.5l-11.5-1l1.33-111.407
		L-25.75-0.208z M-47.406,111.798l-14.845-1.174l0.667-106.666l15.16-1.763L-47.406,111.798z"/>
</g>
</svg>
