<?xml version="1.0" encoding="utf-8"?>
<!-- Generator: Adobe Illustrator 16.0.2, SVG Export Plug-In . SVG Version: 6.00 Build 0)  -->
<!DOCTYPE svg PUBLIC "-//W3C//DTD SVG 1.1//EN" "http://www.w3.org/Graphics/SVG/1.1/DTD/svg11.dtd">
<svg version="1.1" id="Layer_1" xmlns="http://www.w3.org/2000/svg" xmlns:xlink="http://www.w3.org/1999/xlink" x="0px" y="0px"
	 width="623px" height="182.75px" viewBox="0 0 623 182.75" enable-background="new 0 0 623 182.75" xml:space="preserve">
<g>
	<path fill="#231F20" d="M0.333,54.25L0,165.583l76.667,6.333l0.667-119.333l-62.667-2L0.333,54.25z M46,58.917l13.167-2.333v72H46
		V58.917z"/>
	<path fill="#231F20" d="M489.016,25.363L489,18.583l-170.333-15l-33,4.667L196.25,0L85.333,21.917l106.667,7v7.333l-103.667,14
		l-0.667,122.667l12,0.334l1-121.667l42.667-6.167l-0.583,132.458L196,182.75l16.5-1.5l4.5-2c0,0-5-12-1.5-13s9,4.5,14,0
		s4.5-9.5,4.5-9.5s7.5-3.5,10-3s8-1,8,0.5s-1.5,10.5,3.5,8s11-5,12.5-4.5s5-2.5,5-2.5l-1-5.5c0,0,6,2.5,8.5,3.5s13.5-5.5,13.5-5.5
		s12.5,0,15,1c0,0,8.668-4.5,8.334-1.5s-1.667,4.666-1.667,6.333s-0.666,5.667,1.667,6S337,154.917,337,156.917
		s-1.667,3.334-3,4.667s-3,3.333-3,3.333l81.667-2c0,0,4.332-3.666,20.666-4c16.334-0.333,16.334,2.667,16.334,2.667l39.666-0.333
		l-0.048-20.653l6.715,0.319c0,0,7.667,3.334,8.667,3c1-0.332,5.666,1.334,8,1.334s5-5,7-6.667s9.666-0.667,12-0.667
		s3.666-2.333,3.666-2.333s1.667-1.333,4-1.667c2.333-0.332,7,0.667,9.334,0c2.334-0.666,7,0,7,0l-1.334-80.333L623,50.25V36.583
		L489.016,25.363z M304.5,146.583l-12.334-0.167l-0.333-102l13.333-3L304.5,146.583z M464.333,148.25L343.5,150.083l0.666-108
		l120.167,7.167V148.25z M489.251,128.333l0.457-72.417l23.625,1.333l0.5,70.833L489.251,128.333z"/>
	<polygon fill="#231F20" points="599.75,56 601.25,165.25 616.25,165.5 615.5,55.75 	"/>
</g>
</svg>
