<?xml version="1.0" encoding="utf-8"?>
<!-- Generator: Adobe Illustrator 16.0.2, SVG Export Plug-In . SVG Version: 6.00 Build 0)  -->
<!DOCTYPE svg PUBLIC "-//W3C//DTD SVG 1.1//EN" "http://www.w3.org/Graphics/SVG/1.1/DTD/svg11.dtd">
<svg version="1.1" id="Layer_1" xmlns="http://www.w3.org/2000/svg" xmlns:xlink="http://www.w3.org/1999/xlink" x="0px" y="0px"
	 width="759.613px" height="213.59px" viewBox="0 0 759.613 213.59" enable-background="new 0 0 759.613 213.59"
	 xml:space="preserve">
<path fill="#231F20" d="M760.113,0L440.25,38.84l-0.75,24.5l-13,22l-29.5,2.5l-0.25-44L277.679,58.847l-61.413-31.385
	c0,0-2.767-1.622-5.767,1.378s-60.25,66-60.25,66l-149,114.251l-0.75,4.5l52.481-2.92L212.5,34.09l183.981,153.85l3.367-4.21
	l-0.099,1.861l330.5-20L759.5,4.84L760.113,0z M603,124.091l-30.75,1.25L582.5,99.34l30-0.75L603,124.091z M623.75,77.34
	l-30.25,0.75l10-24.5l27.84-2.04L623.75,77.34z"/>
</svg>
