<?xml version="1.0" encoding="utf-8"?>
<!-- Generator: Adobe Illustrator 16.0.2, SVG Export Plug-In . SVG Version: 6.00 Build 0)  -->
<!DOCTYPE svg PUBLIC "-//W3C//DTD SVG 1.1//EN" "http://www.w3.org/Graphics/SVG/1.1/DTD/svg11.dtd">
<svg version="1.1" id="Layer_1" xmlns="http://www.w3.org/2000/svg" xmlns:xlink="http://www.w3.org/1999/xlink" x="0px" y="0px"
	 width="467.954px" height="222.764px" viewBox="0 0 467.954 222.764" enable-background="new 0 0 467.954 222.764"
	 xml:space="preserve">
<g>
	<g>
		<path fill="#231F20" d="M467.947,49.107l-1.572-0.26l-0.278-0.605L324.746,32.586c0,0-0.472,0.766-0.472,2.533
			c0,1.966,0.767,2.062,0.767,2.062l51.771,5.521l0.101,11.899l-29.498,20.085l1.697,92.39H353l-0.165-89.681l29.497-21.027
			l-0.02-13.042c0,0,82.981,9.021,84.396,9.021S467.947,49.107,467.947,49.107z"/>
		<path fill="#231F20" d="M0,6.514l34.256,1.772v13.728L8.328,47.97l-1,168.358l1.838,3.678c0,0,0.849,2.758,3.959,2.758
			c3.113,0,3.36-3.324,3.113-4.031c-0.248-0.707-2.616-4.879-2.616-4.879l1.706-163.337l26.069-27.3L41.116,8.709l18.509,0.805
			l0.339-5.696L0.313,0L0,6.514z"/>
	</g>
</g>
</svg>
