<?xml version="1.0" encoding="utf-8"?>
<!-- Generator: Adobe Illustrator 16.0.2, SVG Export Plug-In . SVG Version: 6.00 Build 0)  -->
<!DOCTYPE svg PUBLIC "-//W3C//DTD SVG 1.1//EN" "http://www.w3.org/Graphics/SVG/1.1/DTD/svg11.dtd">
<svg version="1.1" id="Layer_1" xmlns="http://www.w3.org/2000/svg" xmlns:xlink="http://www.w3.org/1999/xlink" x="0px" y="0px"
	 width="385.333px" height="112.5px" viewBox="0 0 385.333 112.5" enable-background="new 0 0 385.333 112.5" xml:space="preserve">
<g>
	<polygon fill="#231F20" points="202.679,86.441 212.862,86.508 212.862,82.6 210.702,82.532 210.497,8.161 213.411,7.508 
		213.515,0 202.575,2.297 	"/>
	<polygon fill="#231F20" points="7.956,20.504 10.871,19.853 10.974,12.343 0.036,14.641 0,71.627 11.007,71.697 11.007,67.788 
		8.024,67.719 	"/>
	<path fill="#231F20" d="M344.581,6.583l-99.074-6.069l-0.068,4.114l29.451,1.543l0.104,78.897l-29.934,0.514l-0.205,3.909
		l99.572-1.852l0.205-80.646l-0.064,0.056L344.581,6.583z M308.169,85.12l-27.775-0.103l0.053-78.538l-0.076-0.047l28.35,1.522
		L308.169,85.12z M340.056,84.297l-26.848,0.41l0.049-76.51l26.953,1.449L340.056,84.297z"/>
	<polygon fill="#231F20" points="384.749,13.029 365.308,12.035 365.378,17.83 378.681,18.756 378.614,65.594 365.034,65.525 
		364.966,71.56 385.333,71.491 	"/>
	<path fill="#231F20" d="M80.441,11.144l-0.275-7.68L45.33,8.538l-0.96,99.711l35.25,4.252l0.273-7.818l-9.464-0.823l1.094-91.678
		L80.441,11.144z M62.621,103.316l-12.216-0.966l0.548-87.777l12.476-1.451L62.621,103.316z"/>
</g>
</svg>
