<?xml version="1.0" encoding="utf-8"?>
<!-- Generator: Adobe Illustrator 16.0.2, SVG Export Plug-In . SVG Version: 6.00 Build 0)  -->
<!DOCTYPE svg PUBLIC "-//W3C//DTD SVG 1.1//EN" "http://www.w3.org/Graphics/SVG/1.1/DTD/svg11.dtd">
<svg version="1.1" id="Layer_1" xmlns="http://www.w3.org/2000/svg" xmlns:xlink="http://www.w3.org/1999/xlink" x="0px" y="0px"
	 width="170.514px" height="223px" viewBox="0 0 170.514 223" enable-background="new 0 0 170.514 223" xml:space="preserve">
<g>
	<path fill="#F3F1E7" d="M170.514,90.213c0-0.957-0.021-1.912-0.053-2.865c0.018-0.698,0.053-1.392,0.053-2.094
		c0-45.811-36.324-83.282-81.683-85.163C87.646,0.035,86.455,0,85.258,0c-1.198,0-2.389,0.035-3.574,0.091
		C36.325,1.972,0,39.443,0,85.254c0,0.702,0.036,1.396,0.053,2.094C0.021,88.301,0,89.256,0,90.213
		c0,4.788,0.896,9.981,2.484,15.441c2.323,9.425,6.219,18.232,11.391,26.138C38.028,175.479,85.258,223,85.258,223
		s47.229-47.521,71.381-91.208c5.172-7.905,9.067-16.713,11.391-26.138C169.617,100.194,170.514,95.001,170.514,90.213z
		 M157.62,85.254c0,39.902-32.462,72.366-72.362,72.366c-39.902,0-72.364-32.464-72.364-72.366c0-39.899,32.462-72.36,72.364-72.36
		C125.158,12.894,157.62,45.354,157.62,85.254z"/>
	<path fill="#FFFFFF" d="M85.258,8.901c42.102,0,76.354,34.252,76.354,76.353c0,42.104-34.253,76.358-76.354,76.358
		c-42.104,0-76.356-34.254-76.356-76.358C8.901,43.153,43.154,8.901,85.258,8.901 M85.258,6.901
		c-43.274,0-78.356,35.081-78.356,78.353c0,43.277,35.082,78.358,78.356,78.358c43.273,0,78.354-35.081,78.354-78.358
		C163.612,41.982,128.531,6.901,85.258,6.901L85.258,6.901z"/>
	<g opacity="0.6">
		<path opacity="0.5" fill="#414141" d="M61.621,94.581c0,0,11.757-1.339,26.344-2.37c14.588-1.031,26.479-1.362,26.479-1.362
			s-11.757,1.34-26.343,2.37C73.514,94.25,61.621,94.581,61.621,94.581z"/>
		<path opacity="0.5" fill="#414141" d="M48.903,100.016c0,0,18.584-1.822,41.595-3.449c23.01-1.626,41.73-2.439,41.73-2.439
			s-18.584,1.822-41.594,3.449C67.623,99.201,48.903,100.016,48.903,100.016z"/>
		<path opacity="0.5" fill="#414141" d="M47.386,103.783c0,0,18.585-1.822,41.596-3.448c23.011-1.624,41.731-2.438,41.731-2.438
			s-18.586,1.822-41.596,3.448C66.106,102.971,47.386,103.783,47.386,103.783z"/>
		<path opacity="0.5" fill="#414141" d="M45.869,107.553c0,0,18.585-1.822,41.596-3.448c23.01-1.626,41.731-2.439,41.731-2.439
			s-18.585,1.822-41.595,3.448C64.591,106.738,45.869,107.553,45.869,107.553z"/>
		<path opacity="0.5" fill="#414141" d="M54.52,110.605c0,0,14.298-1.521,32.02-2.772c17.723-1.252,32.156-1.764,32.156-1.764
			s-14.298,1.521-32.02,2.772C68.953,110.094,54.52,110.605,54.52,110.605z"/>
		<path opacity="0.5" fill="#414141" d="M42.836,115.094c0,0,18.585-1.823,41.595-3.45c23.011-1.626,41.732-2.44,41.732-2.44
			s-18.585,1.823-41.596,3.45C61.557,114.279,42.836,115.094,42.836,115.094z"/>
		<path opacity="0.5" fill="#414141" d="M52.492,118.071c0,0,15.078-1.574,33.764-2.894c18.684-1.319,33.898-1.885,33.898-1.885
			s-15.078,1.574-33.762,2.893C67.707,117.506,52.492,118.071,52.492,118.071z"/>
	</g>
	<polygon fill="#303841" points="54.292,83.058 50.715,83.951 61.316,61.087 68.215,61.981 	"/>
	<g>
		<polygon fill="#FFFFFF" points="73.356,106.613 116.1,105.785 116.117,80.994 73.356,78.139 		"/>
		<path fill="#303841" d="M73.356,107.635c-0.268,0-0.524-0.104-0.716-0.292c-0.196-0.193-0.307-0.455-0.307-0.729V78.139
			c0-0.282,0.117-0.553,0.324-0.746c0.206-0.194,0.485-0.283,0.766-0.273l42.762,2.855c0.537,0.036,0.955,0.482,0.954,1.021
			l-0.019,24.791c0,0.556-0.445,1.01-1.002,1.021l-42.743,0.827C73.369,107.635,73.362,107.635,73.356,107.635z M74.378,79.231
			v26.34l40.7-0.788l0.018-22.833L74.378,79.231z"/>
	</g>
	<g>
		<polygon fill="#F2ECE2" points="53.908,81.227 62.637,63.046 73.366,78.545 		"/>
		<path fill="#303841" d="M53.908,82.249c-0.323,0-0.632-0.153-0.825-0.42c-0.222-0.304-0.259-0.705-0.096-1.044l8.729-18.181
			c0.157-0.329,0.478-0.548,0.841-0.577c0.379-0.023,0.714,0.139,0.921,0.438l10.729,15.498c0.202,0.293,0.238,0.668,0.095,0.993
			c-0.143,0.325-0.443,0.553-0.796,0.601l-19.458,2.683C54.001,82.246,53.955,82.249,53.908,82.249z M62.797,65.073l-7.145,14.882
			L71.58,77.76L62.797,65.073z"/>
	</g>
	<polygon fill="#303841" points="100.403,65.813 120.84,82.419 75.239,80.839 61.274,61.088 	"/>
	<g>
		<polygon fill="#F2ECE2" points="73.356,78.139 73.356,106.613 53.908,106.349 53.908,81.227 		"/>
		<path fill="#303841" d="M73.356,107.635c-0.005,0-0.01,0-0.015,0l-19.447-0.265c-0.559-0.008-1.008-0.463-1.008-1.021V81.227
			c0-0.502,0.365-0.93,0.861-1.008l19.448-3.089c0.295-0.05,0.596,0.038,0.823,0.231c0.228,0.194,0.358,0.478,0.358,0.777v28.475
			c0,0.273-0.109,0.535-0.305,0.727C73.883,107.529,73.625,107.635,73.356,107.635z M54.931,105.341l17.403,0.236V79.335
			L54.931,82.1V105.341z"/>
	</g>
</g>
</svg>
