<?xml version="1.0" encoding="utf-8"?>
<!-- Generator: Adobe Illustrator 16.0.2, SVG Export Plug-In . SVG Version: 6.00 Build 0)  -->
<!DOCTYPE svg PUBLIC "-//W3C//DTD SVG 1.1//EN" "http://www.w3.org/Graphics/SVG/1.1/DTD/svg11.dtd">
<svg version="1.1" id="Layer_1" xmlns="http://www.w3.org/2000/svg" xmlns:xlink="http://www.w3.org/1999/xlink" x="0px" y="0px"
	 width="170.514px" height="223px" viewBox="0 0 170.514 223" enable-background="new 0 0 170.514 223" xml:space="preserve">
<g>
	<path fill="#F3F1E7" d="M170.514,90.213c0-0.957-0.022-1.912-0.054-2.865c0.018-0.698,0.054-1.392,0.054-2.094
		c0-45.811-36.325-83.282-81.683-85.163C87.646,0.035,86.454,0,85.257,0s-2.389,0.035-3.574,0.091
		C36.325,1.972-0.001,39.443-0.001,85.254c0,0.702,0.037,1.396,0.054,2.094c-0.031,0.953-0.054,1.908-0.054,2.865
		c0,4.788,0.896,9.981,2.485,15.441c2.323,9.425,6.219,18.232,11.391,26.138C38.028,175.479,85.257,223,85.257,223
		s47.229-47.521,71.381-91.208c5.172-7.905,9.068-16.713,11.391-26.138C169.617,100.194,170.514,95.001,170.514,90.213z
		 M157.62,85.254c0,39.902-32.463,72.366-72.363,72.366c-39.901,0-72.363-32.464-72.363-72.366c0-39.899,32.462-72.36,72.363-72.36
		C125.157,12.894,157.62,45.354,157.62,85.254z"/>
	<path fill="#FFFFFF" d="M85.257,8.901c42.103,0,76.355,34.252,76.355,76.353c0,42.104-34.253,76.358-76.355,76.358
		S8.901,127.358,8.901,85.254C8.901,43.153,43.154,8.901,85.257,8.901 M85.257,6.901c-43.273,0-78.355,35.081-78.355,78.353
		c0,43.277,35.082,78.358,78.355,78.358s78.355-35.081,78.355-78.358C163.612,41.982,128.53,6.901,85.257,6.901L85.257,6.901z"/>
	<g opacity="0.6">
		<path opacity="0.5" fill="#414141" d="M61.621,94.581c0,0,11.757-1.339,26.344-2.37s26.479-1.362,26.479-1.362
			s-11.757,1.34-26.344,2.37C73.514,94.25,61.621,94.581,61.621,94.581z"/>
		<path opacity="0.5" fill="#414141" d="M48.903,100.016c0,0,18.584-1.822,41.594-3.449c23.011-1.626,41.731-2.439,41.731-2.439
			s-18.585,1.822-41.595,3.449C67.622,99.201,48.903,100.016,48.903,100.016z"/>
		<path opacity="0.5" fill="#414141" d="M47.386,103.783c0,0,18.584-1.822,41.596-3.448c23.01-1.624,41.73-2.438,41.73-2.438
			s-18.585,1.822-41.595,3.448C66.106,102.971,47.386,103.783,47.386,103.783z"/>
		<path opacity="0.5" fill="#414141" d="M45.868,107.553c0,0,18.586-1.822,41.596-3.448c23.011-1.626,41.732-2.439,41.732-2.439
			s-18.586,1.822-41.596,3.448C64.591,106.738,45.868,107.553,45.868,107.553z"/>
		<path opacity="0.5" fill="#414141" d="M54.519,110.605c0,0,14.299-1.521,32.02-2.772c17.723-1.252,32.156-1.764,32.156-1.764
			s-14.297,1.521-32.02,2.772C68.952,110.094,54.519,110.605,54.519,110.605z"/>
		<path opacity="0.5" fill="#414141" d="M42.835,115.094c0,0,18.586-1.823,41.596-3.45c23.01-1.626,41.732-2.44,41.732-2.44
			s-18.586,1.823-41.596,3.45C61.556,114.279,42.835,115.094,42.835,115.094z"/>
		<path opacity="0.5" fill="#414141" d="M52.491,118.071c0,0,15.079-1.574,33.764-2.894s33.899-1.885,33.899-1.885
			s-15.078,1.574-33.763,2.893C67.706,117.506,52.491,118.071,52.491,118.071z"/>
	</g>
	<g>
		<g>
			<polygon fill="#F2ECE2" points="93.082,75.613 93.082,103.479 82.505,102.264 82.505,77.68 			"/>
			<path fill="#303841" d="M93.082,104.479c-0.038,0-0.076-0.002-0.114-0.007l-10.577-1.215c-0.505-0.058-0.886-0.485-0.886-0.993
				V77.68c0-0.479,0.339-0.89,0.809-0.981l10.577-2.066c0.293-0.06,0.597,0.019,0.827,0.21c0.23,0.189,0.364,0.473,0.364,0.771
				v27.865c0,0.285-0.122,0.557-0.334,0.746C93.563,104.389,93.326,104.479,93.082,104.479z M83.505,101.372l8.577,0.985v-25.53
				l-8.577,1.676V101.372z"/>
		</g>
		<g>
			<polyline fill="#F2ECE2" points="42.941,102.264 38.932,99.063 38.932,83.269 42.941,77.559 			"/>
			<path fill="#303841" d="M42.317,103.045l-4.01-3.2c-0.237-0.189-0.376-0.478-0.376-0.781V83.269c0-0.206,0.063-0.406,0.182-0.574
				l4.01-5.71l1.637,1.148l-3.828,5.452v14.997l3.634,2.9L42.317,103.045z"/>
		</g>
		<path fill="none" stroke="#303841" stroke-width="2" stroke-linejoin="round" stroke-miterlimit="10" d="M82.317,77.68"/>
		<g>
			<polygon fill="#F1F2F2" points="38.932,83.269 35.422,83.269 38.23,77.618 42.941,77.57 			"/>
			<polygon fill="#303841" points="42.941,77.57 38.23,77.618 35.422,83.269 38.932,83.269 42.941,77.57 			"/>
		</g>
		<polygon fill="#303841" points="102.068,62.127 136.922,78.773 93.082,75.613 		"/>
		<polygon fill="#303841" points="38.417,77.558 60.04,65.003 89.434,67.716 82.317,77.68 		"/>
		<g>
			<polygon fill="#FFFFFF" points="42.941,77.559 42.941,102.264 82.505,102.264 82.505,77.68 			"/>
			<path fill="#303841" d="M82.505,103.264H42.941c-0.553,0-1-0.447-1-1V77.559c0-0.266,0.105-0.521,0.294-0.708
				c0.188-0.188,0.441-0.292,0.706-0.292c0.001,0,0.002,0,0.003,0l39.563,0.121c0.551,0.002,0.997,0.449,0.997,1v24.584
				C83.505,102.816,83.058,103.264,82.505,103.264z M43.941,101.264h37.563V78.677l-37.563-0.115V101.264z"/>
		</g>
		<path fill="none" stroke="#303841" stroke-width="2" stroke-linejoin="round" stroke-miterlimit="10" d="M82.505,77.68"/>
		<g>
			<polygon fill="#FFFFFF" points="93.082,103.479 131.68,102.669 131.695,78.408 93.082,75.613 			"/>
			<path fill="#303841" d="M93.082,104.479c-0.262,0-0.513-0.103-0.699-0.285c-0.192-0.188-0.301-0.446-0.301-0.715V75.613
				c0-0.277,0.115-0.543,0.319-0.732c0.203-0.189,0.475-0.288,0.753-0.265l38.613,2.795c0.523,0.037,0.928,0.474,0.928,0.998
				l-0.016,24.261c0,0.544-0.436,0.987-0.979,0.999l-38.598,0.81C93.096,104.479,93.089,104.479,93.082,104.479z M94.082,76.688
				v25.769l36.599-0.768l0.014-22.351L94.082,76.688z"/>
		</g>
		<g>
			<polygon fill="#575E63" points="82.317,77.68 89.434,67.716 102.068,62.127 93.082,75.613 			"/>
		</g>
	</g>
</g>
</svg>
