<?xml version="1.0" encoding="utf-8"?>
<!-- Generator: Adobe Illustrator 16.0.2, SVG Export Plug-In . SVG Version: 6.00 Build 0)  -->
<!DOCTYPE svg PUBLIC "-//W3C//DTD SVG 1.1//EN" "http://www.w3.org/Graphics/SVG/1.1/DTD/svg11.dtd">
<svg version="1.1" id="Layer_1" xmlns="http://www.w3.org/2000/svg" xmlns:xlink="http://www.w3.org/1999/xlink" x="0px" y="0px"
	 width="170.514px" height="223px" viewBox="0 0 170.514 223" enable-background="new 0 0 170.514 223" xml:space="preserve">
<g>
	<path fill="#F3F1E7" d="M170.514,90.213c0-0.957-0.022-1.912-0.054-2.865c0.018-0.698,0.054-1.392,0.054-2.094
		c0-45.811-36.325-83.282-81.683-85.163C87.646,0.035,86.454,0,85.257,0s-2.388,0.035-3.573,0.091C36.325,1.972,0,39.443,0,85.254
		c0,0.702,0.036,1.396,0.053,2.094C0.021,88.301,0,89.256,0,90.213c0,4.788,0.896,9.981,2.484,15.441
		c2.323,9.425,6.219,18.232,11.391,26.138C38.028,175.479,85.257,223,85.257,223s47.229-47.521,71.381-91.208
		c5.172-7.905,9.068-16.713,11.391-26.138C169.617,100.194,170.514,95.001,170.514,90.213z M157.62,85.254
		c0,39.902-32.463,72.366-72.363,72.366c-39.901,0-72.363-32.464-72.363-72.366c0-39.899,32.462-72.36,72.363-72.36
		C125.157,12.894,157.62,45.354,157.62,85.254z"/>
	<path fill="#FFFFFF" d="M85.257,8.901c42.103,0,76.355,34.252,76.355,76.353c0,42.104-34.253,76.358-76.355,76.358
		S8.901,127.358,8.901,85.254C8.901,43.153,43.154,8.901,85.257,8.901 M85.257,6.901c-43.273,0-78.355,35.081-78.355,78.353
		c0,43.277,35.082,78.358,78.355,78.358s78.355-35.081,78.355-78.358C163.612,41.982,128.53,6.901,85.257,6.901L85.257,6.901z"/>
	<g opacity="0.6">
		<path opacity="0.5" fill="#414141" d="M61.621,94.581c0,0,11.757-1.339,26.344-2.37s26.479-1.362,26.479-1.362
			s-11.757,1.34-26.344,2.37C73.514,94.25,61.621,94.581,61.621,94.581z"/>
		<path opacity="0.5" fill="#414141" d="M48.903,100.016c0,0,18.584-1.822,41.594-3.449c23.011-1.626,41.731-2.439,41.731-2.439
			s-18.585,1.822-41.595,3.449C67.623,99.201,48.903,100.016,48.903,100.016z"/>
		<path opacity="0.5" fill="#414141" d="M47.386,103.783c0,0,18.585-1.822,41.596-3.448c23.01-1.624,41.73-2.438,41.73-2.438
			s-18.585,1.822-41.595,3.448C66.106,102.971,47.386,103.783,47.386,103.783z"/>
		<path opacity="0.5" fill="#414141" d="M45.869,107.553c0,0,18.585-1.822,41.595-3.448c23.011-1.626,41.732-2.439,41.732-2.439
			s-18.586,1.822-41.596,3.448C64.591,106.738,45.869,107.553,45.869,107.553z"/>
		<path opacity="0.5" fill="#414141" d="M54.52,110.605c0,0,14.298-1.521,32.019-2.772c17.723-1.252,32.156-1.764,32.156-1.764
			s-14.297,1.521-32.02,2.772C68.953,110.094,54.52,110.605,54.52,110.605z"/>
		<path opacity="0.5" fill="#414141" d="M42.836,115.094c0,0,18.585-1.823,41.595-3.45c23.01-1.626,41.732-2.44,41.732-2.44
			s-18.586,1.823-41.596,3.45C61.557,114.279,42.836,115.094,42.836,115.094z"/>
		<path opacity="0.5" fill="#414141" d="M52.492,118.071c0,0,15.078-1.574,33.763-2.894s33.899-1.885,33.899-1.885
			s-15.078,1.574-33.763,2.893C67.707,117.506,52.492,118.071,52.492,118.071z"/>
	</g>
	<g>
		<polygon fill="#303841" points="87.692,61.178 126.378,78.862 77.719,75.505 		"/>
		<g>
			<polygon fill="#F2ECE2" points="77.719,75.505 77.719,105.108 50.033,104.834 50.033,78.716 			"/>
			<path fill="#303841" d="M77.719,106.146c-0.003,0-0.007,0-0.01,0l-27.686-0.274c-0.548-0.005-0.99-0.468-0.99-1.037V78.716
				c0-0.528,0.383-0.972,0.889-1.03l27.686-3.212c0.282-0.031,0.565,0.062,0.777,0.259c0.213,0.196,0.334,0.478,0.334,0.772v29.604
				c0,0.276-0.106,0.542-0.297,0.737C78.235,106.038,77.982,106.146,77.719,106.146z M51.033,103.807l25.686,0.254V76.665
				l-25.686,2.979V103.807z"/>
		</g>
		<g>
			<polygon fill="#FFFFFF" points="77.719,105.108 120.56,104.248 120.576,78.475 77.719,75.505 			"/>
			<path fill="#303841" d="M77.719,106.146c-0.262,0-0.514-0.106-0.7-0.297c-0.192-0.195-0.3-0.462-0.3-0.74V75.505
				c0-0.286,0.114-0.561,0.316-0.758c0.202-0.196,0.475-0.288,0.75-0.277l42.857,2.969c0.525,0.037,0.934,0.489,0.934,1.036
				l-0.017,25.774c0,0.564-0.437,1.025-0.98,1.036l-42.841,0.86C77.731,106.146,77.725,106.146,77.719,106.146z M78.719,76.614
				v27.437l40.842-0.819l0.015-23.787L78.719,76.614z"/>
		</g>
		<g>
			<polygon fill="#575E63" points="45.425,79.247 87.692,61.178 77.719,75.505 			"/>
		</g>
	</g>
</g>
</svg>
