<?xml version="1.0" encoding="utf-8"?>
<!-- Generator: Adobe Illustrator 16.0.2, SVG Export Plug-In . SVG Version: 6.00 Build 0)  -->
<!DOCTYPE svg PUBLIC "-//W3C//DTD SVG 1.1//EN" "http://www.w3.org/Graphics/SVG/1.1/DTD/svg11.dtd">
<svg version="1.1" id="Layer_1" xmlns="http://www.w3.org/2000/svg" xmlns:xlink="http://www.w3.org/1999/xlink" x="0px" y="0px"
	 width="170.514px" height="223px" viewBox="0 0 170.514 223" enable-background="new 0 0 170.514 223" xml:space="preserve">
<g>
	<path fill="#F3F1E7" d="M170.514,90.213c0-0.957-0.021-1.912-0.053-2.865c0.018-0.698,0.053-1.392,0.053-2.094
		c0-45.811-36.324-83.282-81.683-85.163C87.646,0.035,86.455,0,85.258,0c-1.198,0-2.389,0.035-3.574,0.091
		C36.325,1.972,0,39.443,0,85.254c0,0.702,0.036,1.396,0.053,2.094C0.022,88.301,0,89.256,0,90.213
		c0,4.788,0.896,9.981,2.484,15.441c2.323,9.425,6.219,18.232,11.391,26.138C38.029,175.479,85.258,223,85.258,223
		s47.229-47.521,71.381-91.208c5.172-7.905,9.067-16.713,11.391-26.138C169.617,100.194,170.514,95.001,170.514,90.213z
		 M157.62,85.254c0,39.902-32.462,72.366-72.362,72.366c-39.902,0-72.364-32.464-72.364-72.366c0-39.899,32.462-72.36,72.364-72.36
		C125.158,12.894,157.62,45.354,157.62,85.254z"/>
	<path fill="#FFFFFF" d="M85.258,8.901c42.102,0,76.354,34.252,76.354,76.353c0,42.104-34.253,76.358-76.354,76.358
		c-42.104,0-76.356-34.254-76.356-76.358C8.902,43.153,43.155,8.901,85.258,8.901 M85.258,6.901
		c-43.274,0-78.356,35.081-78.356,78.353c0,43.277,35.082,78.358,78.356,78.358c43.273,0,78.354-35.081,78.354-78.358
		C163.613,41.982,128.531,6.901,85.258,6.901L85.258,6.901z"/>
	<g opacity="0.6">
		<path opacity="0.5" fill="#414141" d="M61.621,94.581c0,0,11.757-1.339,26.344-2.37c14.588-1.031,26.479-1.362,26.479-1.362
			s-11.757,1.34-26.343,2.37C73.514,94.25,61.621,94.581,61.621,94.581z"/>
		<path opacity="0.5" fill="#414141" d="M48.904,100.016c0,0,18.584-1.822,41.595-3.449c23.01-1.626,41.73-2.439,41.73-2.439
			s-18.584,1.822-41.594,3.449C67.623,99.201,48.904,100.016,48.904,100.016z"/>
		<path opacity="0.5" fill="#414141" d="M47.386,103.783c0,0,18.585-1.822,41.596-3.448c23.011-1.624,41.731-2.438,41.731-2.438
			s-18.586,1.822-41.596,3.448C66.107,102.971,47.386,103.783,47.386,103.783z"/>
		<path opacity="0.5" fill="#414141" d="M45.869,107.553c0,0,18.585-1.822,41.596-3.448c23.01-1.626,41.731-2.439,41.731-2.439
			s-18.585,1.822-41.595,3.448C64.591,106.738,45.869,107.553,45.869,107.553z"/>
		<path opacity="0.5" fill="#414141" d="M54.52,110.605c0,0,14.298-1.521,32.02-2.772c17.723-1.252,32.156-1.764,32.156-1.764
			s-14.298,1.521-32.02,2.772C68.953,110.094,54.52,110.605,54.52,110.605z"/>
		<path opacity="0.5" fill="#414141" d="M42.836,115.094c0,0,18.585-1.823,41.595-3.45c23.011-1.626,41.732-2.44,41.732-2.44
			s-18.585,1.823-41.596,3.45C61.557,114.279,42.836,115.094,42.836,115.094z"/>
		<path opacity="0.5" fill="#414141" d="M52.492,118.071c0,0,15.078-1.574,33.764-2.894c18.684-1.319,33.898-1.885,33.898-1.885
			s-15.078,1.574-33.762,2.893C67.707,117.506,52.492,118.071,52.492,118.071z"/>
	</g>
	<g>
		<polygon fill="#F2ECE2" points="69.9,77.051 69.9,109.087 56.354,105.34 56.354,62.13 		"/>
		<path fill="#303841" d="M69.9,110.087c-0.09,0-0.179-0.012-0.267-0.036l-13.546-3.747c-0.433-0.12-0.733-0.515-0.733-0.964V62.13
			c0-0.413,0.255-0.784,0.64-0.933c0.384-0.15,0.823-0.045,1.101,0.261L70.64,76.379c0.167,0.184,0.26,0.424,0.26,0.672v32.036
			c0,0.313-0.146,0.606-0.395,0.796C70.329,110.017,70.115,110.087,69.9,110.087z M57.354,104.579l11.546,3.193V77.437
			L57.354,64.719V104.579z"/>
	</g>
	<g>
		<polygon fill="#FFFFFF" points="69.9,109.087 117.99,108.156 118.01,80.265 69.9,77.051 		"/>
		<path fill="#303841" d="M69.9,110.087c-0.262,0-0.514-0.103-0.7-0.286c-0.192-0.188-0.3-0.445-0.3-0.714V77.051
			c0-0.276,0.114-0.541,0.316-0.73s0.476-0.276,0.75-0.268l48.11,3.214c0.525,0.035,0.934,0.472,0.934,0.999l-0.02,27.892
			c-0.001,0.544-0.438,0.988-0.98,0.999l-48.091,0.931C69.912,110.087,69.906,110.087,69.9,110.087z M70.9,78.12v29.947
			l46.091-0.892l0.02-25.976L70.9,78.12z"/>
	</g>
	<polygon fill="#303841" points="53.049,60.168 105.168,61.893 122.797,81.245 71.827,81.82 	"/>
</g>
<path opacity="0.65" fill="#1EAAF1" d="M170.514,85.254c0-45.811-36.324-83.282-81.683-85.163C87.646,0.035,86.455,0,85.257,0
	s-2.388,0.035-3.574,0.091C36.325,1.972,0,39.443,0,85.254c0,0.702,0.036,1.396,0.053,2.094C0.022,88.301,0,89.256,0,90.213
	c0,4.788,0.896,9.981,2.484,15.441c2.323,9.425,6.22,18.232,11.392,26.138C38.028,175.479,85.257,223,85.257,223
	s47.229-47.521,71.381-91.208c5.172-7.905,9.067-16.713,11.391-26.138c1.589-5.46,2.484-10.653,2.484-15.441
	c0-0.957-0.021-1.912-0.053-2.865C170.479,86.649,170.514,85.956,170.514,85.254z"/>
<path fill="#FFFFFF" d="M103.605,76.979l-22.94,22.94c-0.202,0.202-0.529,0.202-0.731,0L66.908,86.893
	c-0.202-0.201-0.202-0.528,0-0.73l3.164-3.165c0.202-0.202,0.529-0.202,0.731,0l9.496,9.496l19.412-19.411
	c0.203-0.202,0.528-0.202,0.729,0l3.164,3.165C103.809,76.448,103.809,76.775,103.605,76.979z"/>
</svg>
