<?xml version="1.0" encoding="utf-8"?>
<!-- Generator: Adobe Illustrator 16.0.2, SVG Export Plug-In . SVG Version: 6.00 Build 0)  -->
<!DOCTYPE svg PUBLIC "-//W3C//DTD SVG 1.1//EN" "http://www.w3.org/Graphics/SVG/1.1/DTD/svg11.dtd">
<svg version="1.1" id="Layer_1" xmlns="http://www.w3.org/2000/svg" xmlns:xlink="http://www.w3.org/1999/xlink" x="0px" y="0px"
	 width="322.843px" height="71px" viewBox="0 0 322.843 71" enable-background="new 0 0 322.843 71" xml:space="preserve">
<path fill="#1EAAF1" d="M162.94,12.75h-10.886v26.43c0,0.315,0,1.077-0.692,1.077c-0.51,0-0.888-0.636-1.209-1.077l-16.155-22.816
	c-2.726-3.866-6.976-4.117-9.381-4.117c-5.131,0-9.947,2.09-9.947,7.857v37.014h12.764v-23.83c0-1.269,0.699-1.269,0.888-1.269
	c0.44,0,0.888,0.633,1.203,1.073l14.295,20.157c2.789,3.939,6.27,4.386,9.632,4.386c9.318,0,9.633-6.351,9.633-7.934L162.94,12.75
	L162.94,12.75z M109.511,57.118V12.75H95.188v44.368H109.511L109.511,57.118z M0,57.118h14.323V39.502
	c0.3,1.391,1.069,2.894,2.391,4.373l20.153,22.379c5.319,6.55,15.519,7.13,18.413-3.439l5.313-16.33h15.784l3.446,10.625h14.911
	l-13.96-39.562C77.726,8.934,59.11,8.228,56.056,17.93L43.179,54.406L32.89,43.872v-0.255l0,0
	c8.976,0.06,12.736-7.651,12.736-15.956c0-8.846-6.151-14.91-17.497-14.91H7.668c-1.706,0-4.313,0.318-5.956,2.156
	C0.125,16.679,0,19.216,0,21.244V57.118L0,57.118z M14.323,36.874v-9.608c0-1.08-0.063-1.968,0.825-2.789
	c0.636-0.633,1.398-0.695,2.216-0.695h7.927c3.481,0,6.725,1.524,6.725,4.816c0,3.551-4.208,5.005-8.137,5.005h-5.194
	C16.406,33.606,14.806,34.931,14.323,36.874L14.323,36.874z M67.918,22.715c0.112-0.374,0.377-1.108,0.566-1.108
	c0.189,0,0.447,0.734,0.559,1.108l3.95,13.062h-9.024L67.918,22.715L67.918,22.715z M102.353,0L102.353,0
	c3.936,0,7.158,3.222,7.158,7.158v2.055H95.188V7.158C95.188,3.222,98.41,0,102.353,0L102.353,0z"/>
<path fill="#1EAAF1" d="M303.424,65.5l19.419-52.714h-15.337l-7.291,21.583c-1.069,3.139-3.949,2.576-4.543,0.395l-7.291-21.978
	h-15.345l12.422,33.19c1.587,3.719,5.104,6.109,8.948,5.606l-3.174,9.388C287.611,70.414,299.831,75.447,303.424,65.5L303.424,65.5z
	 M230.654,57.111h14.925l3.446-10.625h15.784l3.446,10.625h14.911l-13.96-39.562c-3.041-8.616-21.663-9.322-24.711,0.381
	L230.654,57.111L230.654,57.111z M256.351,22.715c0.119-0.374,0.378-1.108,0.566-1.108s0.454,0.734,0.566,1.108l3.942,13.062h-9.018
	L256.351,22.715L256.351,22.715z M186.111,39.75c-0.063,0.318-0.447,1.077-0.699,1.077c-0.188,0-0.503-0.189-0.825-1.332
	l-7.347-26.745h-14.077l10.337,35.682c2.292,7.539,5.194,9.203,10.898,9.203c6.718,0,8.871-2.929,10.269-7.682l5.641-19.266
	c0.126-0.314,0.315-1.139,0.629-1.139c0.321,0,0.51,0.825,0.636,1.139l5.641,19.266c1.391,4.753,3.544,7.682,10.262,7.682
	c5.704,0,8.878-3.188,10.905-9.203l12.016-35.682h-14.575l-8.535,26.745c-0.357,1.129-0.629,1.332-0.825,1.332
	c-0.251,0-0.629-0.758-0.692-1.077l-6.655-22.687c-1.335-4.565-5.704-4.816-8.179-4.816c-2.468,0-6.844,0.251-8.172,4.816
	L186.111,39.75L186.111,39.75z"/>
</svg>
