<?xml version="1.0" encoding="utf-8"?>
<!-- Generator: Adobe Illustrator 16.0.2, SVG Export Plug-In . SVG Version: 6.00 Build 0)  -->
<!DOCTYPE svg PUBLIC "-//W3C//DTD SVG 1.1//EN" "http://www.w3.org/Graphics/SVG/1.1/DTD/svg11.dtd">
<svg version="1.1" id="Layer_1" xmlns="http://www.w3.org/2000/svg" xmlns:xlink="http://www.w3.org/1999/xlink" x="0px" y="0px"
	 width="353.059px" height="167.244px" viewBox="0 0 353.059 167.244" enable-background="new 0 0 353.059 167.244"
	 xml:space="preserve">
<g>
	<path fill-rule="evenodd" clip-rule="evenodd" fill="#FFFFFF" d="M154.04,12.284l-42.74,32.853c-3.329,2.507-1.013,5.68,1.461,5.68
		h12.712v43.719h32.649c-2.629-7.522-0.206-16.555,8.837-21.855C181.736,64.011,197.613,37.668,154.04,12.284L154.04,12.284z
		 M149.636,39.953h11.934v5.064h-11.934V39.953L149.636,39.953z M161.57,46.352v12.071h-5.298V46.352H161.57L161.57,46.352z
		 M154.934,46.352v12.071h-5.298V46.352H154.934L154.934,46.352z"/>
	<path fill="#FFFFFF" d="M178.349,107.232l-12.063-3.134v28.346c0,0.344,0,1.177-0.757,1.177c-0.559,0-0.971-0.695-1.323-1.177
		l-17.666-24.952c-2.981-4.228-7.629-4.502-10.259-4.502c-5.611,0-10.878,2.285-10.878,8.592v40.481h13.959V126
		c0-1.388,0.764-1.388,0.971-1.388c0.481,0,0.971,0.691,1.314,1.173l15.633,22.043c3.051,4.312,6.857,4.801,10.534,4.801
		c10.19,0,10.534-6.948,10.534-8.68V107.232L178.349,107.232z M119.762,152.063V103.54h-15.668v48.523H119.762L119.762,152.063z
		 M0,152.063h15.664v-19.268c0.329,1.521,1.17,3.164,2.614,4.781l22.039,24.478c5.817,7.163,16.971,7.797,20.136-3.761l5.81-17.861
		h17.261l3.769,11.623h16.306l-15.266-43.268c-3.333-9.422-23.69-10.194-27.031,0.417L47.22,149.094l-11.253-11.521v-0.279l0,0
		c9.815,0.065,13.928-8.366,13.928-17.448c0-9.674-6.727-16.306-19.134-16.306H8.386c-1.865,0-4.717,0.348-6.513,2.358
		C0.138,107.836,0,110.611,0,112.828V152.063L0,152.063z M15.664,129.921v-10.507c0-1.182-0.069-2.152,0.902-3.051
		c0.695-0.691,1.529-0.76,2.423-0.76h8.669c3.807,0,7.354,1.666,7.354,5.267c0,3.884-4.602,5.474-8.898,5.474h-5.68
		C17.942,126.348,16.191,127.796,15.664,129.921L15.664,129.921z M74.274,114.438c0.122-0.409,0.413-1.212,0.619-1.212
		c0.206,0,0.489,0.803,0.611,1.212l4.319,14.283h-9.869L74.274,114.438L74.274,114.438z M111.934,89.597L111.934,89.597
		c4.304,0,7.828,3.524,7.828,7.828v2.247h-15.668v-2.247C104.094,93.121,107.619,89.597,111.934,89.597L111.934,89.597z"/>
	<path fill="#FFFFFF" d="M331.823,161.229l21.236-57.651h-16.771l-7.974,23.603c-1.169,3.433-4.318,2.817-4.969,0.432l-7.973-24.034
		h-16.78l13.585,36.296c1.735,4.067,5.58,6.682,9.784,6.131l-3.471,10.271C314.532,166.604,327.894,172.107,331.823,161.229
		L331.823,161.229z M252.245,152.056h16.32l3.77-11.623h17.261l3.769,11.623h16.306l-15.266-43.268
		c-3.325-9.422-23.69-10.194-27.023,0.417L252.245,152.056L252.245,152.056z M280.345,114.438c0.13-0.409,0.413-1.212,0.619-1.212
		c0.207,0,0.497,0.803,0.619,1.212l4.312,14.283h-9.861L280.345,114.438L280.345,114.438z M203.53,133.067
		c-0.068,0.348-0.489,1.177-0.765,1.177c-0.206,0-0.55-0.206-0.901-1.456l-8.034-29.248l-14.846,3.662l10.756,35.359
		c2.507,8.244,5.68,10.067,11.917,10.067c7.347,0,9.701-3.207,11.23-8.405l6.169-21.067c0.138-0.345,0.344-1.246,0.688-1.246
		c0.352,0,0.559,0.901,0.696,1.246l6.169,21.067c1.521,5.198,3.876,8.405,11.222,8.405c6.242,0,9.713-3.489,11.93-10.067
		l13.141-39.021h-15.938l-9.338,29.248c-0.39,1.234-0.688,1.456-0.902,1.456c-0.275,0-0.688-0.829-0.757-1.177l-7.277-24.811
		c-1.46-4.992-6.238-5.267-8.944-5.267c-2.698,0-7.483,0.274-8.937,5.267L203.53,133.067L203.53,133.067z"/>
	<path fill-rule="evenodd" clip-rule="evenodd" fill="#FFFFFF" d="M188.837,87.831c1.957,0,3.547,1.586,3.547,3.539
		c0,1.961-1.59,3.547-3.547,3.547s-3.539-1.586-3.539-3.547C185.298,89.417,186.88,87.831,188.837,87.831L188.837,87.831z
		 M199.609,86.421c8.232-10.348,10.357-22.609,3.394-36.625c-1.605-2.817-4.877-1.104-4.144,1.314
		c3.876,14.299,1.14,22.517-4.869,30.608C190.267,85.904,196.245,90.461,199.609,86.421L199.609,86.421z M233.978,78.581V40.642
		h6.161c2.271,0,4.399-2.909,1.346-5.214L195.412,0l-23.736,18.251c19.976,9.747,40.891,26.626,41.234,47.854
		c0.092,34.591-30.769,47.182-50.407,35.375c14.249,15.713,51.034,4.269,57.892-22.899H233.978L233.978,78.581z"/>
</g>
</svg>
