<?xml version="1.0" encoding="utf-8"?>
<!-- Generator: Adobe Illustrator 16.0.2, SVG Export Plug-In . SVG Version: 6.00 Build 0)  -->
<!DOCTYPE svg PUBLIC "-//W3C//DTD SVG 1.1//EN" "http://www.w3.org/Graphics/SVG/1.1/DTD/svg11.dtd">
<svg version="1.1" id="Layer_1" xmlns="http://www.w3.org/2000/svg" xmlns:xlink="http://www.w3.org/1999/xlink" x="0px" y="0px"
	 width="198.794px" height="60.16px" viewBox="184.03 11.042 198.794 60.16" enable-background="new 184.03 11.042 198.794 60.16"
	 xml:space="preserve">
<g>
	<g>
		<path fill="#FFFFFF" d="M224.591,29.321h4.573v15.727h11.744c-0.945-2.706-0.074-5.955,3.179-7.862
			c5.315-3.119,11.026-12.595-4.647-21.726l-15.374,11.818C222.867,28.18,223.701,29.321,224.591,29.321z M242.149,32.057h-1.906
			v-4.342h1.906V32.057z M237.856,25.414h4.293v1.821h-4.293V25.414z M237.856,27.715h1.906v4.342h-1.906V27.715z"/>
		<path fill="#FFFFFF" d="M206.08,50.324l-5.065,14.349l-4.048-4.145v-0.1c3.531,0.022,5.01-3.01,5.01-6.276
			c0-3.48-2.419-5.866-6.883-5.866h-8.048c-0.671,0-1.696,0.125-2.343,0.849c-0.625,0.697-0.674,1.695-0.674,2.493v14.113h5.635
			V58.81c0.118,0.547,0.42,1.139,0.939,1.72l7.928,8.806c2.093,2.576,6.105,2.805,7.244-1.354l2.09-6.424h6.209l1.355,4.181h5.865
			l-5.491-15.564C214.606,46.785,207.282,46.507,206.08,50.324z M193.422,56.489h-2.043c-0.896,0.002-1.525,0.522-1.715,1.287
			v-3.779c0-0.426-0.025-0.774,0.324-1.099c0.25-0.248,0.55-0.272,0.871-0.272h3.119c1.369,0,2.645,0.599,2.645,1.895
			C196.623,55.917,194.969,56.489,193.422,56.489z M209.194,57.345l1.553-5.138c0.045-0.147,0.148-0.437,0.223-0.437
			s0.176,0.289,0.221,0.437l1.553,5.138H209.194z"/>
		<rect x="221.473" y="48.286" fill="#FFFFFF" width="5.637" height="17.455"/>
		<path fill="#FFFFFF" d="M224.293,43.271c-1.552,0-2.82,1.269-2.82,2.816v0.809h5.637v-0.809
			C227.11,44.539,225.842,43.271,224.293,43.271z"/>
		<path fill="#FFFFFF" d="M280.21,50.324l-5.444,15.414h5.87l1.356-4.181h6.209l1.355,4.181h5.865l-5.491-15.564
			C288.735,46.785,281.409,46.507,280.21,50.324z M283.323,57.345l1.551-5.138c0.047-0.147,0.148-0.437,0.223-0.437
			s0.179,0.289,0.223,0.437l1.551,5.138H283.323z"/>
		<path fill="#FFFFFF" d="M304.996,48.3l-2.868,8.49c-0.42,1.235-1.553,1.014-1.787,0.155l-2.868-8.645h-6.036l4.887,13.056
			c0.624,1.463,2.008,2.404,3.52,2.206l-1.249,3.694c-1.423,3.715,3.384,5.694,4.797,1.781L311.03,48.3H304.996z"/>
		<path fill="#FFFFFF" d="M272.865,48.286l-3.358,10.521c-0.141,0.443-0.248,0.523-0.325,0.523c-0.099,0-0.247-0.298-0.271-0.423
			l-2.618-8.926c-0.525-1.795-2.243-1.894-3.217-1.894c-0.971,0-2.692,0.098-3.215,1.894l-2.619,8.926
			c-0.023,0.125-0.175,0.423-0.274,0.423c-0.074,0-0.198-0.074-0.324-0.523l-2.646-9.637c4.217-1.563,8.089-5.016,9.313-9.862h4.886
			V25.661h2.216c0.817,0,1.583-1.046,0.484-1.875l-16.573-12.744l-8.538,6.565c7.186,3.506,14.709,9.578,14.833,17.214
			c0.033,12.443-11.068,16.972-18.132,12.724c0.404,0.446,0.863,0.825,1.36,1.151v9.987c0,0.124,0,0.424-0.272,0.424
			c-0.201,0-0.35-0.25-0.476-0.424l-6.354-8.976c-1.072-1.521-2.744-1.619-3.691-1.619c-2.018,0-3.912,0.821-3.912,3.091v14.562
			h5.021v-9.376c0-0.499,0.274-0.499,0.349-0.499c0.173,0,0.35,0.249,0.473,0.422l5.624,7.93c1.098,1.551,2.466,1.727,3.789,1.727
			c3.665,0,3.789-2.499,3.789-3.122V50.075c0.125,0.009,0.251,0.014,0.378,0.019l3.72,12.229c0.902,2.966,2.043,3.621,4.287,3.621
			c2.643,0,3.489-1.154,4.039-3.023l2.219-7.578c0.05-0.124,0.124-0.448,0.248-0.448c0.127,0,0.201,0.324,0.25,0.448l2.219,7.578
			c0.548,1.869,1.395,3.023,4.037,3.023c2.246,0,3.494-1.255,4.292-3.621l4.727-14.037H272.865z"/>
		<path fill="#FFFFFF" d="M255.831,42.129c2.962-3.723,3.726-8.133,1.221-13.175c-0.577-1.013-1.754-0.397-1.49,0.473
			c1.395,5.144,0.41,8.1-1.752,11.01C252.471,41.942,254.621,43.582,255.831,42.129z"/>
		<circle fill="#FFFFFF" cx="251.958" cy="43.909" r="1.274"/>
	</g>
	<g>
		<path fill="#848F9B" d="M328.449,46.689h1.059v5.812h-1.059v-4.125l-0.031-0.011l-2.568,4.136h-1.053v-5.812h1.053v4.125
			l0.033,0.011L328.449,46.689z"/>
		<path fill="#848F9B" d="M337.405,52.501h-1.058V50.03h-2.589v2.471h-1.059v-5.812h1.059v2.514h2.589v-2.514h1.058V52.501z"/>
		<path fill="#848F9B" d="M345.081,47.511h-1.918v4.99h-1.059v-4.99h-1.891v-0.822h4.867V47.511z"/>
		<path fill="#848F9B" d="M350.19,52.614c-0.834,0-1.484-0.267-1.952-0.8c-0.467-0.534-0.7-1.235-0.7-2.105v-0.236
			c0-0.834,0.24-1.524,0.722-2.07c0.481-0.546,1.07-0.819,1.765-0.819c0.777,0,1.359,0.242,1.748,0.725s0.583,1.126,0.583,1.928
			v0.559h-3.717l-0.017,0.027c0,0.583,0.129,1.057,0.387,1.42c0.258,0.364,0.652,0.545,1.182,0.545c0.358,0,0.673-0.051,0.943-0.153
			c0.271-0.103,0.502-0.243,0.695-0.422l0.414,0.688c-0.208,0.201-0.482,0.37-0.822,0.508
			C351.08,52.545,350.67,52.614,350.19,52.614z M350.024,47.415c-0.369,0-0.674,0.142-0.916,0.427
			c-0.241,0.284-0.389,0.649-0.443,1.093l0.012,0.027h2.621v-0.086c0-0.422-0.104-0.771-0.313-1.047
			C350.778,47.552,350.457,47.415,350.024,47.415z"/>
		<path fill="#848F9B" d="M360.144,49.815c0,0.838-0.201,1.514-0.602,2.027c-0.401,0.514-0.955,0.771-1.66,0.771
			c-0.358,0-0.672-0.06-0.942-0.18c-0.271-0.12-0.501-0.3-0.69-0.54v2.841h-1.059v-8.046h0.812l0.167,0.752
			c0.189-0.279,0.426-0.492,0.709-0.639c0.282-0.147,0.611-0.22,0.988-0.22c0.719,0,1.278,0.286,1.678,0.856
			c0.399,0.571,0.6,1.326,0.6,2.264V49.815z M359.085,49.703c0-0.659-0.13-1.201-0.39-1.625c-0.26-0.425-0.642-0.637-1.146-0.637
			c-0.305,0-0.563,0.069-0.778,0.207c-0.215,0.138-0.389,0.327-0.521,0.566v2.809c0.133,0.24,0.307,0.427,0.521,0.561
			c0.215,0.135,0.478,0.202,0.789,0.202c0.501,0,0.881-0.184,1.139-0.55c0.258-0.367,0.387-0.841,0.387-1.421V49.703z"/>
		<path fill="#848F9B" d="M367.798,52.501h-1.058V50.03h-2.589v2.471h-1.059v-5.812h1.059v2.514h2.589v-2.514h1.058V52.501z"/>
		<path fill="#848F9B" d="M373.402,52.614c-0.834,0-1.484-0.267-1.952-0.8c-0.467-0.534-0.7-1.235-0.7-2.105v-0.236
			c0-0.834,0.24-1.524,0.722-2.07c0.481-0.546,1.07-0.819,1.765-0.819c0.777,0,1.359,0.242,1.748,0.725s0.583,1.126,0.583,1.928
			v0.559h-3.717l-0.017,0.027c0,0.583,0.129,1.057,0.387,1.42c0.258,0.364,0.652,0.545,1.182,0.545c0.358,0,0.673-0.051,0.943-0.153
			c0.271-0.103,0.502-0.243,0.695-0.422l0.414,0.688c-0.208,0.201-0.482,0.37-0.822,0.508
			C374.292,52.545,373.882,52.614,373.402,52.614z M373.236,47.415c-0.369,0-0.674,0.142-0.916,0.427
			c-0.241,0.284-0.389,0.649-0.443,1.093l0.012,0.027h2.621v-0.086c0-0.422-0.104-0.771-0.313-1.047
			C373.99,47.552,373.669,47.415,373.236,47.415z"/>
		<path fill="#848F9B" d="M382.823,47.511h-1.918v4.99h-1.059v-4.99h-1.891v-0.822h4.867V47.511z"/>
		<path fill="#848F9B" d="M328.106,64.315h0.033l1.9-4.426h1.322v5.812h-1.059v-4.034l-0.032-0.011l-1.783,4.044h-0.73l-1.815-4.136
			l-0.032,0.011v4.125h-1.058V59.89h1.363L328.106,64.315z"/>
		<path fill="#848F9B" d="M338.227,65.701c-0.036-0.175-0.063-0.33-0.083-0.465c-0.02-0.134-0.031-0.269-0.035-0.405
			c-0.197,0.279-0.454,0.513-0.771,0.701c-0.317,0.188-0.658,0.282-1.023,0.282c-0.605,0-1.066-0.155-1.383-0.464
			c-0.317-0.31-0.476-0.737-0.476-1.281c0-0.555,0.225-0.989,0.674-1.303c0.449-0.313,1.06-0.47,1.829-0.47h1.149v-0.575
			c0-0.34-0.104-0.61-0.312-0.808c-0.208-0.199-0.501-0.298-0.881-0.298c-0.344,0-0.621,0.086-0.832,0.258
			c-0.212,0.172-0.317,0.378-0.317,0.618l-1.005,0.011l-0.01-0.032c-0.025-0.422,0.172-0.809,0.593-1.16s0.964-0.526,1.63-0.526
			c0.659,0,1.189,0.167,1.59,0.502c0.401,0.335,0.602,0.817,0.602,1.448v2.798c0,0.208,0.012,0.408,0.033,0.602
			s0.061,0.383,0.117,0.569H338.227z M336.471,64.928c0.383,0,0.729-0.099,1.036-0.295s0.509-0.422,0.602-0.677V63.01h-1.187
			c-0.427,0-0.768,0.107-1.023,0.322s-0.385,0.467-0.385,0.757c0,0.258,0.081,0.462,0.242,0.612S336.156,64.928,336.471,64.928z"/>
		<path fill="#848F9B" d="M346.047,60.728h-2.637v4.974h-1.059V59.89h3.695V60.728z"/>
		<path fill="#848F9B" d="M352.134,65.701c-0.036-0.175-0.063-0.33-0.083-0.465c-0.02-0.134-0.031-0.269-0.035-0.405
			c-0.197,0.279-0.454,0.513-0.771,0.701c-0.317,0.188-0.658,0.282-1.023,0.282c-0.605,0-1.066-0.155-1.383-0.464
			c-0.317-0.31-0.476-0.737-0.476-1.281c0-0.555,0.225-0.989,0.674-1.303c0.449-0.313,1.06-0.47,1.829-0.47h1.149v-0.575
			c0-0.34-0.104-0.61-0.312-0.808c-0.208-0.199-0.501-0.298-0.881-0.298c-0.344,0-0.621,0.086-0.832,0.258
			c-0.212,0.172-0.317,0.378-0.317,0.618l-1.005,0.011l-0.01-0.032c-0.025-0.422,0.172-0.809,0.593-1.16s0.964-0.526,1.63-0.526
			c0.659,0,1.189,0.167,1.59,0.502c0.401,0.335,0.602,0.817,0.602,1.448v2.798c0,0.208,0.012,0.408,0.033,0.602
			s0.061,0.383,0.117,0.569H352.134z M350.378,64.928c0.383,0,0.729-0.099,1.036-0.295s0.509-0.422,0.602-0.677V63.01h-1.187
			c-0.427,0-0.768,0.107-1.023,0.322s-0.385,0.467-0.385,0.757c0,0.258,0.081,0.462,0.242,0.612S350.063,64.928,350.378,64.928z"/>
		<path fill="#848F9B" d="M358.515,62.307c0.412,0,0.716-0.072,0.911-0.215s0.292-0.347,0.292-0.612c0-0.24-0.107-0.445-0.324-0.615
			c-0.217-0.17-0.531-0.255-0.943-0.255c-0.365,0-0.671,0.088-0.918,0.263s-0.371,0.389-0.371,0.639h-0.998l-0.012-0.032
			c-0.021-0.498,0.192-0.903,0.64-1.217c0.447-0.313,1.001-0.47,1.659-0.47c0.717,0,1.283,0.146,1.7,0.438
			c0.417,0.292,0.626,0.708,0.626,1.249c0,0.261-0.087,0.501-0.261,0.72s-0.414,0.39-0.722,0.516
			c0.351,0.115,0.62,0.287,0.808,0.516c0.188,0.229,0.282,0.507,0.282,0.833c0,0.541-0.226,0.966-0.677,1.276
			c-0.451,0.31-1.036,0.464-1.757,0.464c-0.662,0-1.231-0.153-1.707-0.459c-0.477-0.306-0.704-0.749-0.683-1.329l0.011-0.032h0.999
			c0,0.272,0.129,0.508,0.387,0.709s0.589,0.301,0.993,0.301c0.42,0,0.752-0.089,1-0.269c0.246-0.179,0.37-0.399,0.37-0.661
			c0-0.308-0.109-0.535-0.327-0.679c-0.219-0.146-0.545-0.218-0.979-0.218h-1.117v-0.859H358.515z"/>
		<path fill="#848F9B" d="M367.487,59.89h1.059v5.812h-1.059v-4.125l-0.031-0.011l-2.568,4.136h-1.053V59.89h1.053v4.125
			l0.033,0.011L367.487,59.89z"/>
		<path fill="#848F9B" d="M376.442,65.701h-1.058V63.23h-2.589v2.471h-1.059V59.89h1.059v2.514h2.589V59.89h1.058V65.701z"/>
	</g>
</g>
</svg>
