<?xml version="1.0" encoding="utf-8"?>
<!-- Generator: Adobe Illustrator 16.0.2, SVG Export Plug-In . SVG Version: 6.00 Build 0)  -->
<!DOCTYPE svg PUBLIC "-//W3C//DTD SVG 1.1//EN" "http://www.w3.org/Graphics/SVG/1.1/DTD/svg11.dtd">
<svg version="1.1" id="Layer_1" xmlns="http://www.w3.org/2000/svg" xmlns:xlink="http://www.w3.org/1999/xlink" x="0px" y="0px"
	 width="87.012px" height="24px" viewBox="0 0 87.012 24" enable-background="new 0 0 87.012 24" xml:space="preserve">
<g>
	<path fill="#656D76" d="M8.918,7.562H8.874C8.25,6.428,7.153,5.866,5.576,5.866c-1.663,0-3.009,0.607-4.036,1.826
		S0,10.529,0,12.551c0,1.937,0.464,3.444,1.397,4.521c0.93,1.08,2.161,1.618,3.689,1.618c1.663,0,2.927-0.66,3.787-1.98h0.045v1.683
		h3.774V0.29H8.918V7.562z M8.992,12.445c0,1.011-0.241,1.821-0.721,2.438C7.789,15.494,7.166,15.8,6.399,15.8
		c-0.803,0-1.431-0.29-1.888-0.873c-0.452-0.578-0.681-1.406-0.681-2.481c0-1.146,0.236-2.047,0.705-2.707
		c0.469-0.656,1.125-0.982,1.961-0.982c0.738,0,1.341,0.261,1.802,0.787s0.693,1.186,0.693,1.981V12.445z"/>
	<path fill="#656D76" d="M51.856,16.635v1.757h3.571v-7.308c0-3.477-1.745-5.218-5.23-5.218c-0.75,0-1.581,0.102-2.49,0.31
		c-0.913,0.208-1.631,0.444-2.156,0.717v2.841c1.313-0.869,2.698-1.301,4.154-1.301c1.451,0,2.176,0.669,2.176,2.006l-3.322,0.44
		c-2.808,0.367-4.215,1.737-4.215,4.109c0,0.265,0.02,0.517,0.058,0.756c-0.163,0.037-0.324,0.056-0.483,0.056
		c-1.011,0-1.516-0.636-1.516-1.912v-4.94h2.747V6.164h-2.747V2.45L38.64,3.526v2.637h-1.981v2.784h1.981v5.601
		c0,2.76,1.333,4.142,3.991,4.142c1.12,0,1.96-0.146,2.519-0.44V17.45c0.067,0.08,0.139,0.158,0.214,0.232
		c0.681,0.673,1.614,1.007,2.805,1.007c1.605,0,2.82-0.685,3.64-2.055H51.856z M49.48,16.016c-0.51,0-0.913-0.139-1.215-0.412
		c-0.298-0.272-0.444-0.627-0.444-1.056c0-0.949,0.611-1.504,1.839-1.663l2.221-0.285v0.823c0,0.75-0.224,1.37-0.668,1.859
		C50.765,15.771,50.189,16.016,49.48,16.016z"/>
	<path fill="#656D76" d="M86.596,9.966c-0.277-0.758-0.676-1.431-1.198-2.018c-0.521-0.587-1.112-1.04-1.772-1.357
		c-0.661-0.318-1.366-0.477-2.116-0.477c-0.733,0-1.435,0.159-2.104,0.477c-0.668,0.318-1.263,0.771-1.785,1.357
		c-0.064,0.075-0.127,0.152-0.188,0.23c-0.137-0.183-0.286-0.357-0.447-0.523C76.768,7.432,76.54,7.231,76.3,7.052V0h-0.245v6.879
		c-0.268-0.178-0.549-0.331-0.844-0.458c-0.66-0.286-1.357-0.428-2.091-0.428c-0.701,0-1.402,0.163-2.104,0.489
		c-0.315,0.15-0.609,0.327-0.88,0.53l0.416-0.897l-0.221-0.098l-0.629,1.359c-0.149,0.141-0.29,0.291-0.423,0.451
		c-0.521,0.587-0.925,1.259-1.21,2.018c-0.236,0.628-0.375,1.281-0.416,1.959l-2.776,6.001l-2.226-5.185l3.008-6.506l-0.22-0.098
		l-2.935,6.31l-2.69-6.31l-0.22,0.098l2.788,6.506l-2.397,5.185L54.924,6.017l-0.22,0.098l5.258,12.302l2.544-5.502l2.348,5.502
		l2.79-6.022c0.017,0.771,0.15,1.507,0.401,2.208c0.27,0.75,0.665,1.418,1.187,2.005s1.117,1.04,1.785,1.357
		c0.669,0.318,1.37,0.477,2.104,0.477c1.088,0,2.066-0.316,2.935-0.948v0.948H76.3v-1.138c0.024-0.02,0.049-0.04,0.073-0.061
		c0.336-0.284,0.637-0.597,0.901-0.937c0.108,0.146,0.224,0.288,0.346,0.423c0.522,0.587,1.117,1.04,1.785,1.357
		c0.669,0.318,1.37,0.478,2.104,0.478c0.75,0,1.455-0.159,2.116-0.478c0.66-0.317,1.251-0.771,1.772-1.357
		c0.522-0.587,0.921-1.255,1.198-2.005s0.416-1.541,0.416-2.373S86.873,10.725,86.596,9.966z M76.813,7.827
		C76.981,8,77.137,8.186,77.279,8.383c-0.432,0.597-0.758,1.268-0.979,2.012V7.36C76.479,7.503,76.651,7.659,76.813,7.827z
		 M77.427,8.598c0.193,0.297,0.36,0.619,0.499,0.965c0.27,0.668,0.412,1.386,0.428,2.152h-2.049
		c0.068-0.732,0.246-1.421,0.533-2.067C77.006,9.27,77.202,8.92,77.427,8.598z M71.103,6.714c0.628-0.318,1.3-0.477,2.018-0.477
		c0.733,0,1.415,0.143,2.042,0.428c0.317,0.144,0.615,0.314,0.893,0.511v4.54h-8.097l1.926-4.158
		C70.254,7.219,70.66,6.938,71.103,6.714z M68.302,9.917c0.265-0.693,0.623-1.304,1.073-1.833L67.98,11.1
		C68.049,10.693,68.156,10.299,68.302,9.917z M74.759,17.902c-0.521,0.196-1.067,0.294-1.639,0.294c-0.718,0-1.394-0.159-2.03-0.477
		c-0.636-0.318-1.189-0.746-1.662-1.284c-0.474-0.538-0.849-1.17-1.126-1.896c-0.276-0.726-0.415-1.496-0.415-2.312
		c0-0.128,0.004-0.256,0.011-0.382l0.014-0.03v0.144h8.121c-0.001,0.024-0.002,0.049-0.002,0.073c0,0.098,0,0.204,0,0.318
		c0,0.098,0,0.196,0,0.293s0.009,0.195,0.024,0.293v4.249C75.655,17.49,75.223,17.729,74.759,17.902z M76.3,16.989v-2.706
		c0.13,0.456,0.306,0.893,0.525,1.309c0.094,0.177,0.196,0.346,0.306,0.51C76.883,16.432,76.605,16.729,76.3,16.989z M86.352,14.662
		c-0.277,0.726-0.652,1.357-1.125,1.896s-1.027,0.966-1.663,1.284c-0.636,0.317-1.321,0.477-2.055,0.477
		c-0.685,0-1.329-0.139-1.932-0.416c-0.604-0.276-1.138-0.66-1.603-1.149c-0.195-0.206-0.376-0.427-0.541-0.661
		c0.399-0.564,0.706-1.199,0.92-1.906l-0.244-0.073c-0.18,0.619-0.432,1.178-0.758,1.675c-0.021,0.031-0.041,0.062-0.062,0.092
		c-0.168-0.263-0.319-0.542-0.452-0.838c-0.294-0.652-0.473-1.361-0.538-2.127V11.96h2.299v-0.123c0-0.815-0.139-1.582-0.416-2.299
		c-0.159-0.414-0.36-0.798-0.602-1.152c0.124-0.162,0.255-0.316,0.394-0.462c0.465-0.489,0.999-0.872,1.603-1.149
		c0.603-0.277,1.247-0.416,1.932-0.416c0.733,0,1.419,0.159,2.055,0.477s1.19,0.746,1.663,1.284s0.848,1.17,1.125,1.896
		s0.416,1.504,0.416,2.335C86.768,13.166,86.629,13.937,86.352,14.662z"/>
	<path fill="#656D76" d="M18.793,5.866c-0.75,0-1.582,0.102-2.491,0.31c-0.913,0.208-1.63,0.444-2.156,0.717v2.841
		c1.313-0.869,2.699-1.301,4.154-1.301c1.451,0,2.177,0.669,2.177,2.006l-3.322,0.44c-2.809,0.367-4.215,1.737-4.215,4.109
		c0,1.121,0.338,2.021,1.019,2.694s1.614,1.007,2.804,1.007c1.606,0,2.821-0.685,3.641-2.055h0.049v1.757h3.57v-7.308
		C24.022,7.606,22.278,5.866,18.793,5.866z M20.477,13.423c0,0.75-0.225,1.37-0.669,1.859c-0.448,0.489-1.023,0.733-1.732,0.733
		c-0.509,0-0.913-0.139-1.214-0.412c-0.297-0.272-0.444-0.627-0.444-1.056c0-0.949,0.611-1.504,1.838-1.663l2.222-0.285V13.423z"/>
	<path fill="#656D76" d="M36.795,18.392v-7.488c0-3.358-1.353-5.038-4.06-5.038c-1.72,0-3.028,0.742-3.93,2.234h-0.049V6.164h-3.771
		v12.228h3.771v-6.974c0-0.77,0.212-1.41,0.636-1.912c0.419-0.501,0.958-0.75,1.61-0.75c1.354,0,2.03,0.946,2.03,2.841v6.794H36.795
		z"/>
	<path fill="#656D76" d="M37.074,21.438c-0.262,0-0.461,0.114-0.597,0.344H36.47v-0.304h-0.277V24h0.277v-1.045h0.007
		c0.121,0.194,0.293,0.291,0.518,0.291c0.244,0,0.437-0.087,0.577-0.261c0.141-0.174,0.211-0.405,0.211-0.694
		c0-0.26-0.062-0.467-0.187-0.621C37.471,21.515,37.297,21.438,37.074,21.438z M37.356,22.82c-0.095,0.129-0.227,0.192-0.394,0.192
		c-0.143,0-0.261-0.049-0.354-0.148c-0.093-0.1-0.139-0.222-0.139-0.364v-0.241c0-0.169,0.049-0.309,0.147-0.421
		c0.098-0.112,0.227-0.168,0.388-0.168c0.152,0,0.272,0.055,0.361,0.164c0.089,0.109,0.133,0.26,0.133,0.451
		C37.499,22.515,37.451,22.692,37.356,22.82z"/>
	<path fill="#656D76" d="M40.652,21.438c-0.245,0-0.434,0.108-0.566,0.327h-0.007v-1.117h-0.277v2.558h0.277v-0.979
		c0-0.163,0.046-0.296,0.138-0.4s0.206-0.156,0.341-0.156c0.268,0,0.401,0.18,0.401,0.54v0.995h0.276v-1.064
		C41.236,21.672,41.042,21.438,40.652,21.438z"/>
	<path fill="#656D76" d="M44.217,21.438c-0.262,0-0.461,0.114-0.598,0.344h-0.007v-0.304h-0.276V24h0.276v-1.045h0.007
		c0.121,0.194,0.294,0.291,0.518,0.291c0.244,0,0.438-0.087,0.577-0.261c0.141-0.174,0.211-0.405,0.211-0.694
		c0-0.26-0.062-0.467-0.187-0.621C44.613,21.515,44.439,21.438,44.217,21.438z M44.499,22.82c-0.095,0.129-0.227,0.192-0.394,0.192
		c-0.144,0-0.261-0.049-0.354-0.148c-0.094-0.1-0.14-0.222-0.14-0.364v-0.241c0-0.169,0.049-0.309,0.147-0.421
		c0.098-0.112,0.227-0.168,0.388-0.168c0.151,0,0.272,0.055,0.36,0.164c0.09,0.109,0.134,0.26,0.134,0.451
		C44.642,22.515,44.594,22.692,44.499,22.82z"/>
	<path fill="#656D76" d="M68.928,21.438c-0.254,0-0.445,0.119-0.573,0.357c-0.032-0.107-0.093-0.193-0.181-0.259
		c-0.088-0.066-0.19-0.099-0.309-0.099c-0.235,0-0.414,0.104-0.536,0.313h-0.007v-0.273h-0.277v1.728h0.277V22.22
		c0-0.163,0.039-0.295,0.117-0.397c0.079-0.102,0.179-0.152,0.301-0.152c0.262,0,0.393,0.17,0.393,0.51v1.025h0.277V22.22
		c0-0.15,0.041-0.279,0.124-0.388s0.183-0.162,0.302-0.162c0.139,0,0.238,0.043,0.297,0.129c0.059,0.085,0.089,0.223,0.089,0.414
		v0.992h0.276v-1.064C69.498,21.672,69.309,21.438,68.928,21.438z"/>
	<path fill="#656D76" d="M49.746,22.429c-0.043-0.039-0.095-0.074-0.155-0.105c-0.061-0.03-0.13-0.061-0.206-0.09
		c-0.057-0.022-0.108-0.043-0.153-0.063c-0.045-0.019-0.083-0.04-0.114-0.063c-0.032-0.023-0.056-0.051-0.072-0.082
		c-0.017-0.03-0.024-0.067-0.024-0.112c0-0.036,0.008-0.069,0.024-0.099c0.017-0.03,0.039-0.056,0.068-0.077
		c0.03-0.021,0.066-0.038,0.107-0.05c0.043-0.012,0.089-0.018,0.141-0.018c0.166,0,0.312,0.041,0.438,0.125v-0.28
		c-0.118-0.052-0.252-0.077-0.401-0.077c-0.084,0-0.166,0.01-0.245,0.031c-0.08,0.021-0.15,0.054-0.212,0.096
		c-0.063,0.042-0.111,0.095-0.148,0.157s-0.056,0.134-0.056,0.215c0,0.066,0.01,0.124,0.029,0.174s0.049,0.094,0.087,0.133
		c0.04,0.038,0.088,0.073,0.146,0.104c0.059,0.03,0.125,0.062,0.202,0.092c0.055,0.021,0.106,0.042,0.154,0.062
		s0.09,0.042,0.125,0.067c0.035,0.024,0.063,0.053,0.084,0.085c0.021,0.031,0.031,0.07,0.031,0.116c0,0.162-0.121,0.243-0.364,0.243
		c-0.182,0-0.348-0.056-0.498-0.167v0.298c0.131,0.068,0.285,0.103,0.462,0.103c0.091,0,0.177-0.01,0.259-0.03
		s0.154-0.052,0.218-0.094c0.063-0.041,0.113-0.094,0.15-0.156c0.038-0.063,0.057-0.137,0.057-0.223c0-0.07-0.012-0.13-0.034-0.181
		S49.789,22.467,49.746,22.429z"/>
	<path fill="#656D76" d="M80.834,21.438c-0.254,0-0.445,0.119-0.573,0.357c-0.033-0.107-0.093-0.193-0.181-0.259
		c-0.088-0.066-0.191-0.099-0.309-0.099c-0.235,0-0.414,0.104-0.537,0.313h-0.007v-0.273h-0.276v1.728h0.276V22.22
		c0-0.163,0.04-0.295,0.118-0.397c0.079-0.102,0.179-0.152,0.301-0.152c0.262,0,0.393,0.17,0.393,0.51v1.025h0.277V22.22
		c0-0.15,0.041-0.279,0.124-0.388c0.082-0.108,0.183-0.162,0.301-0.162c0.14,0,0.239,0.043,0.298,0.129
		c0.059,0.085,0.089,0.223,0.089,0.414v0.992h0.276v-1.064C81.404,21.672,81.215,21.438,80.834,21.438z"/>
	<rect x="71.599" y="20.647" fill="#656D76" width="0.277" height="2.558"/>
	<path fill="#656D76" d="M85.389,21.438c-0.255,0-0.446,0.119-0.574,0.357c-0.033-0.107-0.093-0.193-0.181-0.259
		c-0.088-0.066-0.19-0.099-0.309-0.099c-0.235,0-0.414,0.104-0.536,0.313h-0.007v-0.273h-0.277v1.728h0.277V22.22
		c0-0.163,0.039-0.295,0.118-0.397c0.078-0.102,0.178-0.152,0.3-0.152c0.262,0,0.394,0.17,0.394,0.51v1.025h0.276V22.22
		c0-0.15,0.041-0.279,0.124-0.388c0.082-0.108,0.184-0.162,0.301-0.162c0.14,0,0.239,0.043,0.299,0.129
		c0.059,0.085,0.088,0.223,0.088,0.414v0.992h0.277v-1.064C85.959,21.672,85.769,21.438,85.389,21.438z"/>
	<path fill="#656D76" d="M76.815,22.429c-0.044-0.039-0.095-0.074-0.155-0.105c-0.061-0.03-0.13-0.061-0.206-0.09
		c-0.058-0.022-0.108-0.043-0.153-0.063c-0.045-0.019-0.084-0.04-0.115-0.063s-0.055-0.051-0.072-0.082
		c-0.016-0.03-0.023-0.067-0.023-0.112c0-0.036,0.008-0.069,0.023-0.099c0.018-0.03,0.04-0.056,0.069-0.077
		c0.03-0.021,0.065-0.038,0.107-0.05s0.089-0.018,0.141-0.018c0.165,0,0.312,0.041,0.438,0.125v-0.28
		c-0.118-0.052-0.252-0.077-0.402-0.077c-0.084,0-0.166,0.01-0.245,0.031s-0.149,0.054-0.212,0.096
		c-0.062,0.042-0.111,0.095-0.148,0.157s-0.055,0.134-0.055,0.215c0,0.066,0.01,0.124,0.029,0.174s0.049,0.094,0.087,0.133
		c0.039,0.038,0.088,0.073,0.146,0.104c0.059,0.03,0.125,0.062,0.201,0.092c0.056,0.021,0.107,0.042,0.154,0.062
		c0.048,0.02,0.09,0.042,0.125,0.067c0.036,0.024,0.063,0.053,0.085,0.085c0.021,0.031,0.031,0.07,0.031,0.116
		c0,0.162-0.122,0.243-0.364,0.243c-0.182,0-0.348-0.056-0.498-0.167v0.298c0.13,0.068,0.284,0.103,0.462,0.103
		c0.091,0,0.177-0.01,0.259-0.03s0.154-0.052,0.218-0.094c0.063-0.041,0.112-0.094,0.15-0.156s0.057-0.137,0.057-0.223
		c0-0.07-0.012-0.13-0.034-0.181C76.891,22.512,76.857,22.467,76.815,22.429z"/>
	<path fill="#656D76" d="M56.029,21.438c-0.27,0-0.484,0.081-0.643,0.244s-0.238,0.39-0.238,0.68c0,0.267,0.077,0.481,0.229,0.643
		c0.153,0.161,0.357,0.242,0.612,0.242c0.262,0,0.471-0.083,0.627-0.249c0.155-0.166,0.233-0.387,0.233-0.662
		c0-0.281-0.072-0.501-0.217-0.66C56.488,21.517,56.287,21.438,56.029,21.438z M56.422,22.839c-0.096,0.116-0.233,0.174-0.412,0.174
		c-0.176,0-0.315-0.059-0.42-0.177c-0.105-0.118-0.158-0.279-0.158-0.484c0-0.213,0.053-0.379,0.156-0.5s0.244-0.182,0.422-0.182
		c0.179,0,0.316,0.059,0.412,0.176c0.097,0.117,0.145,0.283,0.145,0.499C56.566,22.559,56.519,22.724,56.422,22.839z"/>
	<path fill="#656D76" d="M64.663,20.966l-0.276,0.09v0.422h-0.298v0.236h0.298v1.022c0,0.337,0.15,0.506,0.453,0.506
		c0.107,0,0.193-0.018,0.258-0.054v-0.236c-0.05,0.038-0.11,0.058-0.181,0.058c-0.091,0-0.155-0.025-0.194-0.074
		c-0.04-0.05-0.06-0.132-0.06-0.248v-0.974h0.435v-0.236h-0.435V20.966z"/>
	<path fill="#656D76" d="M52.561,21.438c-0.227,0-0.416,0.084-0.568,0.254c-0.152,0.169-0.229,0.388-0.229,0.657
		c0,0.284,0.07,0.505,0.21,0.662c0.14,0.156,0.331,0.235,0.575,0.235c0.25,0,0.45-0.055,0.602-0.166v-0.26
		c-0.162,0.129-0.342,0.192-0.536,0.192c-0.173,0-0.31-0.052-0.408-0.156s-0.151-0.254-0.155-0.446h1.22v-0.145
		c0-0.26-0.062-0.463-0.186-0.609C52.961,21.511,52.787,21.438,52.561,21.438z M52.055,22.176c0.021-0.15,0.077-0.272,0.168-0.366
		c0.092-0.093,0.202-0.14,0.332-0.14c0.136,0,0.241,0.044,0.317,0.133c0.075,0.09,0.114,0.214,0.115,0.373H52.055z"/>
	<path fill="#656D76" d="M61.613,21.438c-0.245,0-0.434,0.108-0.566,0.327H61.04v-1.117h-0.277v2.558h0.277v-0.979
		c0-0.163,0.046-0.296,0.138-0.4c0.093-0.104,0.206-0.156,0.342-0.156c0.268,0,0.401,0.18,0.401,0.54v0.995h0.276v-1.064
		C62.197,21.672,62.003,21.438,61.613,21.438z"/>
</g>
</svg>
