<?xml version="1.0" encoding="utf-8"?>
<!-- Generator: Adobe Illustrator 16.0.2, SVG Export Plug-In . SVG Version: 6.00 Build 0)  -->
<!DOCTYPE svg PUBLIC "-//W3C//DTD SVG 1.1//EN" "http://www.w3.org/Graphics/SVG/1.1/DTD/svg11.dtd">
<svg version="1.1" id="Layer_1" xmlns="http://www.w3.org/2000/svg" xmlns:xlink="http://www.w3.org/1999/xlink" x="0px" y="0px"
	 width="198.793px" height="60.16px" viewBox="0 0 198.793 60.16" enable-background="new 0 0 198.793 60.16" xml:space="preserve">
<g>
	<path fill="#FFFFFF" d="M40.561,18.279h4.574v15.727h11.744c-0.945-2.706-0.074-5.955,3.178-7.862
		c5.315-3.119,11.026-12.595-4.646-21.726L40.037,16.236C38.838,17.138,39.672,18.279,40.561,18.279z M58.12,21.015h-1.906v-4.342
		h1.906V21.015z M53.827,14.372h4.293v1.821h-4.293V14.372z M53.827,16.673h1.906v4.342h-1.906V16.673z"/>
	<path fill="#FFFFFF" d="M22.051,39.282l-5.065,14.349l-4.048-4.146v-0.1c3.531,0.022,5.01-3.01,5.01-6.275
		c0-3.48-2.419-5.866-6.883-5.866H3.016c-0.67,0-1.695,0.125-2.342,0.849C0.049,38.79,0,39.788,0,40.586v14.113h5.636v-6.931
		c0.117,0.547,0.42,1.139,0.938,1.719l7.928,8.807c2.093,2.576,6.104,2.805,7.244-1.354l2.09-6.424h6.209l1.355,4.181h5.864
		l-5.49-15.564C30.577,35.743,23.252,35.465,22.051,39.282z M9.393,45.447H7.35c-0.896,0.002-1.525,0.521-1.715,1.286v-3.778
		c0-0.427-0.025-0.774,0.323-1.099c0.25-0.248,0.55-0.272,0.871-0.272h3.119c1.369,0,2.646,0.599,2.646,1.896
		C12.594,44.875,10.94,45.447,9.393,45.447z M25.165,46.304l1.553-5.139c0.045-0.146,0.148-0.438,0.224-0.438
		s0.176,0.289,0.221,0.438l1.554,5.139H25.165z"/>
	<rect x="37.444" y="37.244" fill="#FFFFFF" width="5.637" height="17.455"/>
	<path fill="#FFFFFF" d="M40.264,32.229c-1.553,0-2.82,1.269-2.82,2.815v0.81h5.637v-0.81
		C43.081,33.497,41.813,32.229,40.264,32.229z"/>
	<path fill="#FFFFFF" d="M96.18,39.282l-5.443,15.414h5.87l1.356-4.182h6.209l1.354,4.182h5.864l-5.49-15.564
		C104.706,35.743,97.379,35.465,96.18,39.282z M99.293,46.304l1.551-5.139c0.047-0.146,0.148-0.438,0.224-0.438
		s0.179,0.289,0.223,0.438l1.552,5.139H99.293z"/>
	<path fill="#FFFFFF" d="M120.966,37.258l-2.867,8.49c-0.421,1.235-1.554,1.015-1.787,0.155l-2.868-8.646h-6.036l4.887,13.056
		c0.624,1.463,2.008,2.404,3.521,2.207l-1.249,3.693c-1.423,3.715,3.384,5.694,4.797,1.781L127,37.258H120.966z"/>
	<path fill="#FFFFFF" d="M88.835,37.244l-3.358,10.521c-0.141,0.443-0.248,0.523-0.324,0.523c-0.1,0-0.247-0.298-0.271-0.423
		l-2.617-8.927c-0.525-1.795-2.244-1.894-3.217-1.894c-0.972,0-2.693,0.099-3.216,1.894l-2.618,8.927
		c-0.023,0.125-0.176,0.423-0.275,0.423c-0.073,0-0.197-0.074-0.323-0.523l-2.646-9.637c4.217-1.563,8.088-5.016,9.313-9.861h4.886
		V14.619h2.216c0.817,0,1.584-1.046,0.484-1.875L70.294,0l-8.538,6.565c7.187,3.506,14.709,9.578,14.834,17.213
		c0.032,12.443-11.068,16.973-18.133,12.725c0.404,0.446,0.863,0.825,1.36,1.15v9.988c0,0.123,0,0.424-0.272,0.424
		c-0.201,0-0.35-0.25-0.476-0.424l-6.354-8.977c-1.072-1.521-2.744-1.619-3.69-1.619c-2.019,0-3.912,0.821-3.912,3.092v14.562h5.021
		v-9.376c0-0.499,0.274-0.499,0.35-0.499c0.173,0,0.35,0.249,0.473,0.422l5.624,7.93c1.099,1.552,2.466,1.728,3.789,1.728
		c3.665,0,3.789-2.5,3.789-3.122V39.033c0.125,0.009,0.251,0.014,0.378,0.019l3.721,12.229c0.901,2.966,2.043,3.62,4.286,3.62
		c2.644,0,3.489-1.153,4.039-3.022l2.22-7.578c0.049-0.124,0.123-0.448,0.248-0.448c0.127,0,0.2,0.324,0.25,0.448l2.219,7.578
		c0.548,1.869,1.395,3.022,4.037,3.022c2.246,0,3.494-1.254,4.291-3.62l4.728-14.037H88.835z"/>
	<path fill="#FFFFFF" d="M71.801,31.087c2.963-3.723,3.727-8.133,1.222-13.175c-0.577-1.013-1.755-0.397-1.49,0.473
		c1.396,5.144,0.41,8.101-1.752,11.011C68.442,30.899,70.592,32.54,71.801,31.087z"/>
	<circle fill="#FFFFFF" cx="67.928" cy="32.867" r="1.274"/>
</g>
<g>
	<path fill="#1DAAF1" d="M144.419,35.647h1.06v5.812h-1.06v-4.125l-0.03-0.011l-2.568,4.136h-1.053v-5.812h1.053v4.125l0.033,0.011
		L144.419,35.647z"/>
	<path fill="#1DAAF1" d="M153.375,41.459h-1.058v-2.472h-2.589v2.472h-1.06v-5.812h1.06v2.514h2.589v-2.514h1.058V41.459z"/>
	<path fill="#1DAAF1" d="M161.051,36.469h-1.918v4.99h-1.059v-4.99h-1.891v-0.821h4.866L161.051,36.469L161.051,36.469z"/>
	<path fill="#1DAAF1" d="M166.161,41.572c-0.834,0-1.484-0.267-1.952-0.8c-0.467-0.535-0.7-1.235-0.7-2.105v-0.236
		c0-0.834,0.24-1.523,0.723-2.07c0.48-0.545,1.069-0.818,1.765-0.818c0.777,0,1.359,0.242,1.748,0.725
		c0.389,0.483,0.583,1.127,0.583,1.928v0.56h-3.717l-0.018,0.027c0,0.583,0.129,1.057,0.388,1.42
		c0.258,0.364,0.651,0.545,1.182,0.545c0.358,0,0.673-0.052,0.943-0.153c0.271-0.103,0.502-0.242,0.694-0.422l0.414,0.688
		c-0.208,0.201-0.481,0.371-0.821,0.509C167.05,41.503,166.641,41.572,166.161,41.572z M165.995,36.373
		c-0.369,0-0.674,0.142-0.916,0.427c-0.241,0.284-0.389,0.649-0.443,1.094l0.013,0.026h2.621v-0.086
		c0-0.422-0.104-0.771-0.313-1.047C166.749,36.51,166.427,36.373,165.995,36.373z"/>
	<path fill="#1DAAF1" d="M176.115,38.772c0,0.838-0.201,1.515-0.602,2.027c-0.401,0.514-0.955,0.771-1.66,0.771
		c-0.358,0-0.672-0.061-0.942-0.18c-0.271-0.121-0.501-0.301-0.689-0.541v2.842h-1.06v-8.047h0.813l0.167,0.752
		c0.188-0.278,0.426-0.491,0.709-0.639c0.281-0.146,0.61-0.22,0.987-0.22c0.72,0,1.278,0.286,1.679,0.856
		c0.398,0.57,0.6,1.326,0.6,2.264L176.115,38.772L176.115,38.772z M175.056,38.661c0-0.659-0.131-1.201-0.391-1.625
		c-0.26-0.426-0.642-0.637-1.146-0.637c-0.306,0-0.563,0.068-0.778,0.207c-0.215,0.138-0.389,0.326-0.521,0.565v2.81
		c0.134,0.24,0.308,0.427,0.521,0.561c0.215,0.135,0.478,0.202,0.789,0.202c0.501,0,0.881-0.185,1.139-0.55
		c0.258-0.367,0.388-0.842,0.388-1.422L175.056,38.661L175.056,38.661z"/>
	<path fill="#1DAAF1" d="M183.769,41.459h-1.059v-2.472h-2.589v2.472h-1.059v-5.812h1.059v2.514h2.589v-2.514h1.059V41.459z"/>
	<path fill="#1DAAF1" d="M189.373,41.572c-0.834,0-1.483-0.267-1.952-0.8c-0.467-0.535-0.699-1.235-0.699-2.105v-0.236
		c0-0.834,0.239-1.523,0.722-2.07c0.48-0.545,1.069-0.818,1.765-0.818c0.777,0,1.359,0.242,1.748,0.725
		c0.389,0.483,0.583,1.127,0.583,1.928v0.56h-3.717l-0.017,0.027c0,0.583,0.129,1.057,0.387,1.42
		c0.258,0.364,0.651,0.545,1.182,0.545c0.358,0,0.673-0.052,0.943-0.153c0.271-0.103,0.502-0.242,0.694-0.422l0.414,0.688
		c-0.208,0.201-0.481,0.371-0.821,0.509C190.262,41.503,189.853,41.572,189.373,41.572z M189.207,36.373
		c-0.369,0-0.674,0.142-0.916,0.427c-0.241,0.284-0.389,0.649-0.442,1.094l0.012,0.026h2.621v-0.086
		c0-0.422-0.104-0.771-0.313-1.047C189.96,36.51,189.64,36.373,189.207,36.373z"/>
	<path fill="#1DAAF1" d="M198.793,36.469h-1.918v4.99h-1.059v-4.99h-1.892v-0.821h4.867L198.793,36.469L198.793,36.469z"/>
	<path fill="#1DAAF1" d="M144.077,53.272h0.033l1.899-4.426h1.322v5.813h-1.059v-4.034l-0.032-0.011l-1.783,4.044h-0.729
		l-1.815-4.136l-0.032,0.011v4.125h-1.058v-5.81h1.363L144.077,53.272z"/>
	<path fill="#1DAAF1" d="M154.198,54.659c-0.036-0.176-0.063-0.33-0.083-0.465c-0.021-0.135-0.031-0.27-0.035-0.405
		c-0.197,0.278-0.454,0.513-0.771,0.701c-0.317,0.188-0.658,0.282-1.023,0.282c-0.605,0-1.066-0.155-1.383-0.465
		c-0.317-0.31-0.477-0.736-0.477-1.281c0-0.555,0.226-0.988,0.675-1.303c0.448-0.313,1.06-0.47,1.829-0.47h1.148v-0.575
		c0-0.34-0.104-0.609-0.312-0.808c-0.208-0.199-0.501-0.298-0.882-0.298c-0.344,0-0.621,0.086-0.832,0.258
		c-0.212,0.172-0.316,0.378-0.316,0.618l-1.005,0.011l-0.011-0.031c-0.024-0.423,0.173-0.81,0.594-1.16
		c0.421-0.352,0.964-0.526,1.63-0.526c0.659,0,1.188,0.167,1.59,0.502s0.602,0.817,0.602,1.448v2.798
		c0,0.208,0.013,0.407,0.033,0.602c0.021,0.194,0.062,0.384,0.117,0.569h-1.089V54.659z M152.442,53.886
		c0.383,0,0.729-0.099,1.036-0.295c0.307-0.195,0.509-0.422,0.602-0.677v-0.946h-1.187c-0.428,0-0.769,0.107-1.023,0.322
		s-0.385,0.467-0.385,0.757c0,0.259,0.081,0.462,0.242,0.612C151.887,53.81,152.126,53.886,152.442,53.886z"/>
	<path fill="#1DAAF1" d="M162.018,49.687h-2.638v4.974h-1.059v-5.812h3.695L162.018,49.687L162.018,49.687z"/>
	<path fill="#1DAAF1" d="M168.105,54.659c-0.036-0.176-0.063-0.33-0.083-0.465c-0.021-0.135-0.031-0.27-0.035-0.405
		c-0.197,0.278-0.454,0.513-0.771,0.701c-0.316,0.188-0.657,0.282-1.022,0.282c-0.605,0-1.066-0.155-1.383-0.465
		c-0.317-0.31-0.477-0.736-0.477-1.281c0-0.555,0.226-0.988,0.674-1.303c0.449-0.313,1.061-0.47,1.829-0.47h1.149v-0.575
		c0-0.34-0.104-0.609-0.313-0.808c-0.208-0.199-0.501-0.298-0.881-0.298c-0.344,0-0.621,0.086-0.832,0.258
		c-0.212,0.172-0.316,0.378-0.316,0.618l-1.005,0.011l-0.011-0.031c-0.024-0.423,0.172-0.81,0.593-1.16
		c0.422-0.352,0.965-0.526,1.631-0.526c0.658,0,1.188,0.167,1.59,0.502c0.4,0.335,0.602,0.817,0.602,1.448v2.798
		c0,0.208,0.012,0.407,0.033,0.602c0.021,0.194,0.061,0.384,0.117,0.569h-1.089V54.659z M166.349,53.886
		c0.383,0,0.729-0.099,1.035-0.295c0.308-0.195,0.51-0.422,0.603-0.677v-0.946h-1.188c-0.427,0-0.768,0.107-1.022,0.322
		s-0.385,0.467-0.385,0.757c0,0.259,0.081,0.462,0.241,0.612C165.794,53.81,166.034,53.886,166.349,53.886z"/>
	<path fill="#1DAAF1" d="M174.486,51.265c0.412,0,0.716-0.072,0.911-0.215c0.194-0.143,0.292-0.347,0.292-0.611
		c0-0.24-0.107-0.445-0.324-0.615s-0.531-0.256-0.943-0.256c-0.364,0-0.671,0.089-0.918,0.264s-0.371,0.389-0.371,0.639h-0.998
		l-0.012-0.031c-0.021-0.498,0.192-0.903,0.641-1.217c0.446-0.313,1.001-0.471,1.658-0.471c0.718,0,1.283,0.146,1.7,0.438
		c0.417,0.293,0.626,0.709,0.626,1.25c0,0.261-0.087,0.5-0.261,0.72c-0.174,0.219-0.414,0.39-0.722,0.516
		c0.351,0.115,0.62,0.287,0.808,0.517c0.188,0.229,0.282,0.506,0.282,0.832c0,0.541-0.227,0.967-0.677,1.276
		c-0.451,0.31-1.036,0.464-1.758,0.464c-0.661,0-1.23-0.152-1.707-0.459c-0.477-0.306-0.703-0.748-0.683-1.328l0.011-0.033h0.999
		c0,0.272,0.129,0.509,0.388,0.709c0.258,0.201,0.589,0.302,0.992,0.302c0.42,0,0.752-0.089,1-0.269
		c0.246-0.18,0.37-0.399,0.37-0.662c0-0.308-0.108-0.535-0.327-0.679c-0.219-0.146-0.545-0.218-0.979-0.218h-1.117v-0.859h1.118
		V51.265z"/>
	<path fill="#1DAAF1" d="M183.458,48.849h1.06v5.812h-1.06v-4.125l-0.031-0.011l-2.567,4.136h-1.053v-5.812h1.053v4.125l0.033,0.01
		L183.458,48.849z"/>
	<path fill="#1DAAF1" d="M192.413,54.659h-1.058v-2.471h-2.589v2.471h-1.06v-5.811h1.06v2.514h2.589v-2.514h1.058V54.659z"/>
</g>
</svg>
