<?xml version="1.0" encoding="utf-8"?>
<!-- Generator: Adobe Illustrator 18.1.1, SVG Export Plug-In . SVG Version: 6.00 Build 0)  -->
<svg version="1.1" id="Layer_1" xmlns="http://www.w3.org/2000/svg" xmlns:xlink="http://www.w3.org/1999/xlink" x="0px" y="0px"
	 viewBox="-256 384.9 82 72" enable-background="new -256 384.9 82 72" xml:space="preserve">
<g>
	<path fill="#1EAAF1" d="M-239.1,408.6v-0.7l1.1-0.2l-3.6-1.1c1.2-1.3,2.5-2.5,3.8-3.7l13,2.4l-11.3-3.9c1.6-1.3,3.3-2.5,5.1-3.6
		l12.8,3.2l-10.6-4.4c4.7-2.4,10-4,15.9-4.1c-0.4,2.7-1.7,9.2-5.5,14.6h3.2c4.4-6.9,5.1-14.9,5.1-15.4c0,0,0,0,0-0.1
		c0.2-0.5-0.1-1-0.7-1.3c-20.5-9.4-31.2-4.4-35.8-0.6c-7,5.9-8.2,15.7-4.6,20.3c0.1,0.1,0.2,0.2,0.3,0.3c0.4,0.3,1.1,0.4,1.5,0.1
		c0.6-0.3,0.8-0.9,0.4-1.4c-2.7-3.4-2-12.3,4.4-17.7c4.6-3.9,13.3-6.9,28.9-0.8c-5.3,0.4-10.1,1.9-14.4,4l0.2-5.4l-2.9,6.8
		c-1.9,1.1-3.7,2.4-5.3,3.7l-0.8-8.8l-1.6,10.6c0,0.1,0,0.1,0,0.2c0,0,0,0,0,0.1c-1,0.9-2,1.9-3,2.9l-1.7-6.6l-0.3,8.7
		c-6.5,7.5-9.9,15-10.2,15.6c-0.2,0.4,0,0.9,0.5,1.2c0.1,0.1,0.2,0.1,0.3,0.2c0.7,0.2,1.5,0,1.7-0.5c0.1-0.2,3.5-7.6,10.1-15.2
		L-239.1,408.6z"/>
	<path fill="#1EAAF1" d="M-245.8,413.3c-0.2,0.5,0.1,1.2,0.8,1.4c2,0.7,4,1.2,5.8,1.6v-2.1c-1.6-0.3-3.3-0.8-5-1.4
		C-244.8,412.5-245.5,412.8-245.8,413.3z"/>
	<path fill="#1EAAF1" d="M-198.6,406.9c0.4-0.6,0.4-1.4,0-1.8c-0.4-0.4-1.1-0.2-1.6,0.4c-0.4,0.6-0.9,1.2-1.2,1.8
		c0.7,0.2,1.4,0.5,2,0.8C-199.2,407.7-198.9,407.3-198.6,406.9z"/>
	<path fill="#1EAAF1" d="M-175.8,411.2c-3.6-8.4-12.6-12.5-18-10.3c-0.1,0.1-0.3,0.1-0.4,0.2c-0.4,0.3-0.6,0.9-0.6,1.4
		c0.1,0.7,0.7,1,1.3,0.8c4-1.6,12.4,1.6,15.7,9.4c2.4,5.6,2.8,14.8-7.7,27.9c1.2-5.2,1.2-10.3,0.4-15l5.1,1.8l-5.7-4.8
		c-0.5-2.1-1.2-4.2-2-6.2l8.6,1.8l-9.7-4.6c-0.1,0-0.1-0.1-0.2-0.1c0,0-0.1,0-0.1,0c-0.6-1.3-1.2-2.5-1.9-3.7l6.8,0.3l-8.3-2.8
		c-5.3-8.5-11.4-13.9-12-14.3c-0.4-0.3-0.9-0.3-1.3,0.1c-0.1,0.1-0.2,0.2-0.3,0.3c-0.4,0.6-0.4,1.4,0,1.8c0.1,0.1,6.3,5.6,11.6,14.1
		l-1.1,2.4c0.3,0.4,0.6,0.9,0.8,1.4l1.3-2c0.9,1.5,1.7,3.1,2.4,4.7l-2.2,4.2c0,0.8-0.1,1.6-0.2,2.4l3.3-4.5c0.8,1.9,1.4,3.8,1.9,5.9
		l-6.8,11.3l7.3-8.9c1,5.2,1,10.7-0.7,16.4c-2.5-1.2-8.7-4.5-12.7-10c-0.8,0.3-1.7,0.5-2.7,0.7c5.1,8.2,14.9,12.1,15.4,12.3
		c0,0,0.1,0,0.1,0c0.4,0.3,1,0.2,1.4-0.3C-171.8,428.5-173.5,416.7-175.8,411.2z"/>
	<path fill="#1EAAF1" d="M-213.8,430.6v2.6l0,0h-0.8c1.3,2.6,2.2,5.8,2.8,9.3c0.1,0.7,0.7,1.3,1.3,1.2c0.6,0,1-0.7,0.8-1.4
		c-0.7-4.4-1.9-8.2-3.6-11.4C-213.5,430.8-213.6,430.7-213.8,430.6z"/>
	<path fill="#1EAAF1" d="M-198.3,445.5c-0.2,0-8.4,0.5-18.2-1.7l-3.9-10l1.9,9.5c-1.7-0.4-3.4-1-5.1-1.6l-2.8-8.8
		c-0.2,0-0.4,0.1-0.6,0.1l1.2,7.8c-1.9-0.8-3.7-1.7-5.5-2.8l-1.2-4.6c-0.4,0-0.9,0-1.3,0l0.3,3.3c-1.6-1.1-3.2-2.4-4.7-3.7l-1.1-0.1
		v-1c-2-2.1-3.8-4.5-5.3-7.3c1.1-0.4,3-1,5.3-1.5v-2.8c-4.2,0.8-7.1,2.1-7.4,2.2c0,0,0,0-0.1,0c-0.5,0.1-0.9,0.6-0.8,1.2
		c1.4,22.5,10.8,29.6,16.4,31.9c8.5,3.4,17.7-0.1,20-5.5c0.1-0.1,0.1-0.3,0.1-0.4c0-0.5-0.2-1.1-0.6-1.4c-0.5-0.4-1.2-0.2-1.4,0.4
		c-1.7,4-9.9,7.6-17.7,4.4c-5.6-2.3-12.4-8.5-14.3-25.2c2.9,4.5,6.4,8.1,10.3,10.8l-4.8,2.3l7.4-0.6c1.9,1.1,3.8,2.1,5.8,2.9
		l-7.4,4.9l10.1-3.6c0.1,0,0.1-0.1,0.2-0.1c0,0,0,0,0.1-0.1c1.3,0.5,2.6,0.9,3.9,1.2l-5,4.6l7.8-3.9c9.7,2.2,17.9,1.7,18.6,1.7
		c0.5,0,0.8-0.5,0.9-1c0-0.1,0-0.3,0-0.4C-197.1,446-197.7,445.4-198.3,445.5z"/>
	<path fill="#1EAAF1" d="M-237.2,422.7l-0.2,0.5l0,0.1c0,1.9,0.5,3.4,1.7,4.4c1.2,1.1,2.8,1.6,4.8,1.6c2,0,3.7-0.7,5-2.1
		c1.3-1.4,1.9-3.2,1.9-5.3v-3.1c0-2.1-0.6-3.9-1.9-5.3c-1.3-1.4-2.9-2.1-5-2.1c-2,0-3.6,0.6-4.8,1.7c-1.2,1.1-1.8,2.6-1.7,4.4l0,0.1
		l0.2,0.5h3.6v-0.5c0-1,0.2-1.7,0.7-2.1c0.5-0.5,1.2-0.7,2.1-0.7c0.9,0,1.6,0.4,2.2,1.1c0.5,0.7,0.8,1.6,0.8,2.7h-5.8v3.3h5.8v0.1
		c0,1.2-0.3,2.2-0.8,3c-0.5,0.7-1.2,1.1-2.2,1.1c-1,0-1.7-0.2-2.1-0.7c-0.5-0.5-0.7-1.2-0.7-2.1v-0.5H-237.2z"/>
	<polygon fill="#1EAAF1" points="-218.2,418.6 -218.4,418.6 -218.4,411.7 -222.2,411.7 -222.2,429.1 -218.4,429.1 -218.4,422.1 
		-217.9,422.1 -212.6,429.1 -207.7,429.1 -214.8,420 -208.7,412.3 -209.1,411.7 -212.8,411.7 	"/>
	<path fill="#1EAAF1" d="M-201.3,429.4c2.2,0,3.9-0.7,5.3-2.1c1.3-1.4,2-3.2,2-5.3v-2.9c0-2.1-0.7-3.9-2-5.3
		c-1.4-1.4-3.1-2.1-5.3-2.1c-2.1,0-3.9,0.7-5.2,2.1c-1.3,1.4-2,3.2-2,5.3v2.9c0,2.1,0.7,3.9,2,5.3
		C-205.2,428.6-203.4,429.4-201.3,429.4z M-203.7,415.9c0.6-0.7,1.4-1.1,2.4-1.1c1.1,0,1.9,0.4,2.5,1.1c0.6,0.8,1,1.8,1,3v3
		c0,1.3-0.3,2.3-1,3c-0.6,0.8-1.4,1.1-2.5,1.1c-1,0-1.8-0.4-2.4-1.1c-0.6-0.8-0.9-1.8-0.9-3v-3
		C-204.7,417.7-204.3,416.7-203.7,415.9z"/>
</g>
</svg>
