<?xml version="1.0" encoding="utf-8"?>
<!-- Generator: Adobe Illustrator 18.1.1, SVG Export Plug-In . SVG Version: 6.00 Build 0)  -->
<svg version="1.1" id="Layer_1" xmlns="http://www.w3.org/2000/svg" xmlns:xlink="http://www.w3.org/1999/xlink" x="0px" y="0px"
	 viewBox="-263 386.9 69 69" enable-background="new -263 386.9 69 69" xml:space="preserve">
<g>
	<path fill="#1EAAF1" d="M-242,420.7c0.8,2.8,1.9,4.3,3.1,4.3c0.3,0,0.9-0.1,1.3-0.8c0.9-1.2,1.3-4.2,0.5-8c1.3,1.6,2.2,3.7,2.4,5.9
		c0.2,1.9-0.1,4.8-2.4,7.6l-1.1,1.4l1.7-0.6c2.4-0.9,7-2.6,7-8.8c0-3.4-2.5-8-4.7-12.1c-1.4-2.7-2.8-5.3-3.1-6.8l-0.1-0.7l-0.6,0.3
		c-2.3,1.3-11,8.8-11,22.5c0,5,2.5,12.3,7.9,16.3l3.1,2.2l-2.4-3C-241.1,439.8-246.1,429.1-242,420.7z"/>
	<path fill="#1EAAF1" d="M-210.9,420.8l-23.3,12.4c-0.5-0.1-1-0.2-1.5-0.2c-2.4,0-4.3,1.4-4.3,3.2c0,1.8,1.9,3.2,4.3,3.2
		c2.3,0,4.2-1.4,4.3-3.1l22.5-11.9c0.5-0.3,0.8-0.7,1-1.2c0.1-0.5,0.1-1-0.2-1.5C-208.7,420.7-209.9,420.3-210.9,420.8z"/>
	<path fill="#1EAAF1" d="M-225.7,386.9h-5.6c-17.5,0-31.7,13.9-31.7,31v38h2.9v-38c0-15.5,12.9-28.1,28.8-28.1h5.6
		c15.9,0,28.8,12.6,28.8,28.1v38h2.9v-38C-194,400.8-208.2,386.9-225.7,386.9z"/>
</g>
</svg>
