<?xml version="1.0" encoding="utf-8"?>
<!-- Generator: Adobe Illustrator 18.1.1, SVG Export Plug-In . SVG Version: 6.00 Build 0)  -->
<svg version="1.1" id="Capa_1" xmlns="http://www.w3.org/2000/svg" xmlns:xlink="http://www.w3.org/1999/xlink" x="0px" y="0px"
	 viewBox="-262 382.9 70 76" enable-background="new -262 382.9 70 76" xml:space="preserve">
<g>
	<path fill="#1EAAF1" d="M-194.1,390.7h-5.4v-4.8c0-1.3-1-2.4-2.3-2.4h-57.3c-0.5,0-0.9,0.1-1.3,0.4c-0.2,0.2-0.5,0.4-0.6,0.6
		c-0.3,0.4-0.4,0.8-0.4,1.3v13c0,0.5,0.1,0.9,0.4,1.3c0.2,0.2,0.4,0.5,0.6,0.6c0.4,0.3,0.8,0.4,1.3,0.4h57.3c1.3,0,2.3-1,2.3-2.3
		v-4.9h3.8v10.3l-34.2,6.2c-0.8,0.1-1.3,0.8-1.3,1.6v9.6h-2.7c-1.3,0-2.3,1-2.3,2.3v32c0,1.3,1,2.3,2.3,2.3h8.5c1.3,0,2.3-1,2.3-2.3
		v-32c0-1.3-1-2.3-2.3-2.3h-2.7v-8.2l34.2-6.2c0.8-0.1,1.3-0.8,1.3-1.6v-13.3C-192.5,391.4-193.2,390.7-194.1,390.7z M-224.8,396.8
		c-1.7,0-2.5-1.3-2.5-2.6c0-0.7,0.2-1.3,0.6-1.8c0.5-0.5,1.1-0.8,1.9-0.8c1.7,0,2.5,1.3,2.5,2.6
		C-222.2,395.4-223.1,396.8-224.8,396.8z M-201.2,386.2c-0.4,0-0.9,0-1.3-0.1c-0.4,0.8-1.2,1.4-2.2,1.4c-0.6,0.1-1.3,0.2-2.1,0.4
		c-0.1,0.6-0.2,1.2-0.3,1.8c-0.2,1.3-0.5,2.4-0.5,3.7c0,1.5-1.5,2.6-2.8,2.6c-0.9,0-1.7-0.5-2.1-1.4c-1.9-4.3-3.5-5.3-7.9-5.3
		l-0.6,0c-2.8,0-5.4-0.5-8.1-1.5c-1,0.1-2.1,0.2-3.2,0.2c0,0,0,0,0,0c-0.3,1.1-0.2,2.2-0.1,3.3c0.1,1.4,0.2,2.9-0.5,4.6
		c-0.4,1.1-1.5,1.9-2.7,1.9c-0.9,0-1.7-0.5-2.1-1.3c-0.8-1.3-1.1-2.6-1.4-3.7c-0.1-0.3-0.2-0.6-0.2-0.9c-0.4,0.6-1.1,1-2,1
		c-0.9,0-1.6-0.4-2.1-1c-0.3-0.5-0.5-1.2-0.5-1.8c-0.2,0-0.4,0.1-0.6,0.1c-0.8,0.2-1.5,0.3-2.3,0.3c-1.5,0-2.9-0.3-4.2-0.7v3.3
		c0,1.4-1.2,2.6-2.6,2.6c-1.4,0-2.6-1.2-2.6-2.6v-4c-1.1,0.1-2.1,0.5-3.1,1.1c-0.1,0.1-0.3,0.2-0.5,0.2l-0.6,0.2v-4.9
		c0-0.7,0.5-1.2,1.2-1.2h57.3c0.6,0,1.1,0.4,1.2,1l0.1,0.6L-201.2,386.2z"/>
</g>
</svg>
