<?xml version="1.0" encoding="utf-8"?>
<!-- Generator: Adobe Illustrator 18.1.1, SVG Export Plug-In . SVG Version: 6.00 Build 0)  -->
<svg version="1.1" id="Capa_1" xmlns="http://www.w3.org/2000/svg" xmlns:xlink="http://www.w3.org/1999/xlink" x="0px" y="0px"
	 viewBox="17 -16 83 83" enable-background="new 17 -16 83 83" xml:space="preserve">
<path fill="#1EAAF1" d="M58.5,52.8c-2,0-3.6,1.6-3.6,3.6v7.1c0,2,1.6,3.6,3.6,3.6s3.6-1.6,3.6-3.6v-7.1
	C62.1,54.4,60.5,52.8,58.5,52.8z"/>
<path fill="#1EAAF1" d="M31.2,25.5c0-2-1.6-3.6-3.6-3.6h-7.1c-2,0-3.6,1.6-3.6,3.6c0,2,1.6,3.6,3.6,3.6h7.1
	C29.6,29.1,31.2,27.5,31.2,25.5z"/>
<path fill="#1EAAF1" d="M58.5-1.8c2,0,3.6-1.6,3.6-3.6v-7.1c0-2-1.6-3.6-3.6-3.6s-3.6,1.6-3.6,3.6v7.1C54.9-3.4,56.5-1.8,58.5-1.8z"
	/>
<path fill="#1EAAF1" d="M82.2,5.3c1,0,1.9-0.4,2.5-1l4.7-4.7c0.6-0.6,1-1.5,1-2.5c0-2-1.6-3.6-3.6-3.6c-1,0-1.9,0.4-2.5,1l-4.7,4.7
	c-0.6,0.6-1,1.5-1,2.5C78.7,3.7,80.2,5.3,82.2,5.3z"/>
<path fill="#1EAAF1" d="M32.3,4.3c0.6,0.6,1.5,1,2.5,1c2,0,3.6-1.6,3.6-3.6c0-1-0.4-1.9-1-2.5l-4.7-4.7c-0.6-0.6-1.5-1-2.5-1
	c-2,0-3.6,1.6-3.6,3.6c0,1,0.4,1.9,1,2.5L32.3,4.3z"/>
<path fill="#1EAAF1" d="M34.8,45.7c-1,0-1.9,0.4-2.5,1l-4.7,4.7c-0.6,0.6-1,1.5-1,2.5c0,2,1.6,3.6,3.6,3.6c1,0,1.9-0.4,2.5-1
	l4.7-4.7c0.6-0.6,1-1.5,1-2.5C38.3,47.3,36.8,45.7,34.8,45.7z"/>
<path fill="#1EAAF1" d="M84.7,46.7c-0.6-0.6-1.5-1-2.5-1c-2,0-3.6,1.6-3.6,3.6c0,1,0.4,1.9,1,2.5l4.7,4.7c0.6,0.6,1.5,1,2.5,1
	c2,0,3.6-1.6,3.6-3.6c0-1-0.4-1.9-1-2.5L84.7,46.7z"/>
<path fill="#1EAAF1" d="M96.4,21.9h-7.1c-2,0-3.6,1.6-3.6,3.6s1.6,3.6,3.6,3.6h7.1c2,0,3.6-1.6,3.6-3.6
	C100,23.5,98.4,21.9,96.4,21.9z"/>
<path fill="#1EAAF1" d="M58.5,0.6c-13.7,0-24.9,11.2-24.9,24.9s11.2,24.9,24.9,24.9s24.9-11.2,24.9-24.9S72.2,0.6,58.5,0.6z
	 M58.5,45.2c-10.9,0-19.7-8.8-19.7-19.7S47.6,5.8,58.5,5.8s19.7,8.8,19.7,19.7S69.4,45.2,58.5,45.2z"/>
<g>
	<path fill="#1EAAF1" d="M57.4,17.7c-0.1,0-0.3-0.1-0.6-0.1c-0.4-0.1-1.2-0.1-1.7,0c-0.2,0-0.4,0.1-0.6,0.1
		c-0.2,0.1-0.3,0.2-0.4,0.3C54,18.1,54,18.3,54,18.4v9.9c0,0.5-0.1,1-0.2,1.4c-0.1,0.4-0.3,0.7-0.6,1c-0.2,0.3-0.6,0.5-0.9,0.6
		c-0.7,0.3-1.8,0.3-2.6,0c-0.4-0.1-0.7-0.3-0.9-0.6c-0.3-0.3-0.5-0.6-0.6-1c-0.1-0.4-0.2-1-0.2-1.6v-9.7c0-0.2-0.1-0.3-0.2-0.5
		c-0.1-0.1-0.2-0.2-0.4-0.3c-0.2-0.1-0.3-0.1-0.6-0.1c-0.5-0.1-1.3-0.1-1.7,0c-0.2,0-0.4,0.1-0.6,0.1c-0.2,0.1-0.4,0.2-0.5,0.3
		c-0.1,0.1-0.2,0.3-0.2,0.5v10c0,1.1,0.2,2.1,0.5,2.9c0.3,0.8,0.8,1.5,1.4,2.1c0.6,0.6,1.4,1,2.2,1.3c0.9,0.3,1.8,0.4,2.9,0.4
		c1.1,0,2.2-0.2,3-0.5c0.9-0.3,1.7-0.8,2.3-1.3c0.6-0.6,1.1-1.3,1.4-2.2c0.3-0.8,0.5-1.8,0.5-2.8v-9.9c0-0.2-0.1-0.3-0.2-0.5
		C57.8,17.8,57.6,17.7,57.4,17.7z"/>
	<path fill="#1EAAF1" d="M74.8,17.9c-0.1-0.2-0.4-0.3-0.7-0.3c-0.5-0.1-1.5,0-1.9,0c-0.3,0-0.5,0.1-0.6,0.1
		c-0.2,0.1-0.4,0.2-0.4,0.4c-0.1,0.1-0.1,0.3-0.2,0.4L67.3,30l-3.7-11.6c-0.1-0.2-0.1-0.3-0.2-0.4c-0.1-0.2-0.2-0.3-0.5-0.4
		c-0.2-0.1-0.4-0.1-0.6-0.1c-0.2,0-0.5,0-0.9,0c-0.5,0-0.8,0-1.1,0c-0.3,0-0.6,0.1-0.8,0.3c-0.1,0.1-0.3,0.3-0.3,0.7
		c0,0.2,0.1,0.5,0.2,0.8l4.9,14.6c0,0.1,0.1,0.2,0.1,0.3c0.1,0.1,0.2,0.2,0.3,0.3c0.1,0.1,0.2,0.1,0.4,0.2c0.1,0,0.3,0.1,0.5,0.1
		c0.2,0,0.4,0,0.6,0c0.2,0,0.5,0,0.9,0c0.4,0,0.8,0,1,0c0.3,0,0.5,0,0.7-0.1c0.2-0.1,0.4-0.2,0.5-0.3c0.1-0.1,0.2-0.3,0.2-0.5
		l4.9-14.6c0.1-0.3,0.2-0.6,0.2-0.8C75,18.2,74.9,18,74.8,17.9z"/>
</g>
</svg>
