<?xml version="1.0" encoding="utf-8"?>
<!-- Generator: Adobe Illustrator 18.1.1, SVG Export Plug-In . SVG Version: 6.00 Build 0)  -->
<svg version="1.1" id="Layer_1" xmlns="http://www.w3.org/2000/svg" xmlns:xlink="http://www.w3.org/1999/xlink" x="0px" y="0px"
	 viewBox="-265 362.9 65 116" enable-background="new -265 362.9 65 116" xml:space="preserve">
<g>
	<path fill="#1EAAF1" d="M-201.5,434.4c0-6.5-9.3-11.8-20.6-11.8l-0.2,0l-0.1,0c-11.4,0-20.6,5.3-20.6,11.8c0,0.2,0,0.4,0,0.6
		l0,33.1h0.2c0.7,6.2,9.6,11,20.6,11c11,0,19.8-4.8,20.6-11h0.2v-32.6l-0.1-0.3C-201.5,435-201.5,434.7-201.5,434.4z M-222.3,476.8
		c-10.1,0-18.3-4.3-18.3-9.5v-0.5h-0.2v-26.9c3.5,3.9,10.5,6.4,18.3,6.4c7.7,0,14.7-2.5,18.3-6.3l0.2,0.3l0.2-0.2v26.8h-0.2v0.5
		C-204,472.6-212.2,476.8-222.3,476.8z M-222.1,432.6c7,0,13.5,2.1,16.5,5.5c-2.9,3.5-9.6,5.8-16.9,5.8c-7,0-13.5-2.1-16.5-5.5
		C-236.1,434.9-229.4,432.6-222.1,432.6z M-204.4,436c-3.7-3.5-10.4-5.7-17.7-5.7c-7.6,0-14.3,2.3-18,5.9c-0.2-0.6-0.4-1.2-0.4-1.8
		c0-5.2,8.1-9.5,18.1-9.5c10,0,18.2,4.3,18.2,9.5C-204.1,434.9-204.2,435.5-204.4,436z"/>
	<path fill="#1EAAF1" d="M-200.5,398.9h-0.2c-0.3-1.3-1-2.5-2-3.7c0.5-1.1,0.8-2.2,0.8-3.3v-14.8c0.2-0.7,0.3-1.4,0.3-2.1
		c0-6.5-9.3-11.8-20.6-11.8l-0.2,0l0,0.5l-0.1-0.5c-11.4,0-20.6,5.3-20.6,11.8c0,0.2,0,0.4,0,0.6l0,16.3c0,1.1,0.3,2.3,0.8,3.3
		c-0.2,0.2-0.3,0.4-0.5,0.6l-1.6-2.2l0-0.3l-0.3,0l-0.1-0.1l-0.2,0.1l-16.3-0.1l-3.2,8.9l-0.1,12.6l17.8,0.1l0.7,0l0.3,0v-0.3
		l1.9-2.4c2.4,5.5,11.2,9.5,21.3,9.5c11.9,0,21.6-5.4,22-12.1h0L-200.5,398.9L-200.5,398.9z M-240.7,404.8l0.2-0.2l-0.1-0.1
		c1.2-1.3,2.8-2.5,4.8-3.5c3.7,1.8,8.4,2.8,13.3,2.8c5,0,9.8-1,13.5-2.9c2.3,0.8,4.1,1.8,5.6,3.1c-3.1,4.1-11.2,7.2-19.1,7.2
		C-230.4,411.1-237.6,408.6-240.7,404.8z M-222.1,373.2c7,0,13.4,2.1,16.5,5.5c-2.9,3.5-9.6,5.8-16.9,5.8c-7,0-13.5-2.1-16.5-5.5
		C-236.1,375.5-229.4,373.2-222.1,373.2z M-204.4,376.6c-3.7-3.5-10.4-5.7-17.7-5.7c-7.6,0-14.3,2.3-18,5.9
		c-0.2-0.6-0.4-1.2-0.4-1.8c0-5.2,8.1-9.5,18.1-9.5c10,0,18.2,4.3,18.2,9.5C-204.1,375.5-204.2,376-204.4,376.6z M-204.2,380.5
		L-204.2,380.5l0.1,11.4c0,5.2-8.2,9.5-18.3,9.5c-10.1,0-18.3-4.3-18.3-9.5v-11.5c3.5,3.9,10.5,6.4,18.3,6.4
		C-214.8,386.8-207.7,384.4-204.2,380.5z M-202.8,408.9c0,5.7-8.8,10.3-19.7,10.3c-10.9,0-19.7-4.6-19.7-10.3v-2.4
		c3.7,4.2,11.3,6.9,19.7,6.9c7.7,0,15.5-2.7,19.7-6.7V408.9z M-248,404.4v8l-14.1-0.1l0-8H-248z M-261.7,402.1l2.2-6.6l12.6,0
		l-0.9,6.5H-261.7z"/>
</g>
</svg>
