<?xml version="1.0" encoding="utf-8"?>
<!-- Generator: Adobe Illustrator 18.1.1, SVG Export Plug-In . SVG Version: 6.00 Build 0)  -->
<svg version="1.1" id="Layer_1" xmlns="http://www.w3.org/2000/svg" xmlns:xlink="http://www.w3.org/1999/xlink" x="0px" y="0px"
	 viewBox="-260 387.1 73.9 66.7" enable-background="new -260 387.1 73.9 66.7" xml:space="preserve">
<g>
	<path fill="#1EAAF1" d="M-186.8,398.3c-1-1.6-3.2-2.7-3.3-2.8l-0.1-0.1l-9.5-0.1c-2.2,0-4.4,2-4.5,2.1l-0.5,0.5l1.9,3.1l0.8-0.8
		c0.3-0.3,1.1-0.9,1.9-0.9c0.5,0,2.8,0.1,2.8,2.5c0,1.6-0.4,2.8-0.7,3.3h-5.5l0.2,1.1c0.1,0.3,1.5,7.2-1.5,16.9
		c-2.1,6.8-6.4,12.6-11.1,15.5l0,0l-0.5,0c0,0-0.1,0-0.3,0c-0.8,0-3.8-0.1-7.8-2.1c-5-2.4-7.2-5.2-10.8-10.6
		c-3.7-5.6-4.3-19.3-4.4-22.5l1-0.1l-0.3-6.9l-1.8,0.2c0.9-1,1.7-2.3,1.8-3.6c0.1-3.1-8.2-6-9.3-6l-0.1,0c-1.6,0-7.8,2.2-9.4,3.1
		c-0.9,0.5-1.3,1.2-1.6,1.8l-0.4-0.3l0.2,1.8c0,0,0,0,0,0l2.9,29.7c0,0.4-0.1,2.2,2.2,3.4c1.7,0.9,4.5,2.1,5.7,2.6
		c0.6,2.4,3.2,11.8,12.5,18.3c6,4.3,11,6.3,16,6.3c2.7,0,5.4-0.5,8.9-1.7c8.2-2.8,15.6-11.1,18.2-20.8c2.2-8,2.3-17.1,2.4-20.5
		c0-0.4,0-1.1,0-1.1c0.2-0.3,1.6-1.5,2.1-2c1-0.8,1.7-1.5,2.1-2C-186,404.6-185.7,400-186.8,398.3z M-247.5,428l-0.5-0.2
		c-0.4-0.2-4.1-1.7-6-2.7c-1.4-0.7-1.3-1.6-1.3-1.7l0-0.1l-1.1-11.4c0.4,0.5,1,0.8,1.7,0.8c1.2,0,2.1-0.9,2.1-2.1v-5.1
		c0-1.2-0.9-2.1-2.1-2.1c-1.2,0-2.1,0.9-2.1,2.1v1.7l-1.2-12l5.9,4l0,0.3l0.3,0l0.1,0.1c0,2.4,0.5,15,4.4,24.9
		c4.3,10.6,12.5,18.2,21,19.4c8.3,1.2,15.3-2.2,20.7-10.3c4.9-7.3,5.8-20.7,6-24.3c1.8-0.4,6-1.8,6-6.2c0-2.4-0.9-4.6-2.5-6.1l5.2,0
		c0.5,0.3,1.9,1.1,2.5,2.1c0.7,1.1,0.4,4.9-0.1,5.5c-0.2,0.3-1.1,1.1-1.8,1.6c-1.7,1.4-2.6,2.2-2.7,3c0,0.2,0,0.5,0,1.5
		c0,3.3-0.1,12.2-2.3,20c-2.5,9.1-9.4,17-17.1,19.6c-3.3,1.1-5.9,1.6-8.4,1.6c-4.6,0-9.2-1.8-15-5.9c-9.8-7-11.8-17.6-11.9-17.7
		L-247.5,428z M-248.6,388.9c1,0.1,3.8,1.2,5.8,2.4c-0.6,0.3-1.1,0.9-1.1,1.7v0.3c0,1,0.8,1.9,1.9,1.9c0.1,0,0.1,0,0.2,0
		c-0.5,0.7-1.2,1.4-1.8,1.9l-3.8,0.4l-1.9,0.2l0,0l-1.9,0.2l-3.5-2.4c0.1,0,0.3,0.1,0.4,0.1c1,0,1.9-0.8,1.9-1.9v-0.3
		c0-1-0.8-1.9-1.9-1.9c-1,0-1.9,0.8-1.9,1.9v0.3c0,0.4,0.1,0.8,0.3,1.1l-2.2-1.5c0.1-0.4,0.2-0.9,0.9-1.3
		C-255.5,390.9-249.7,388.9-248.6,388.9z M-241.8,393v0.3c0,0.1-0.3,0.1-0.3,0V393c0-0.1,0.1-0.1,0.1-0.1
		C-241.9,392.8-241.8,392.9-241.8,393z M-203.5,424.6c-0.8,3-1.9,5.9-3.4,8.2c-3.1,4.7-6.8,7.7-11.1,9
		C-212,439.3-206.2,432.7-203.5,424.6z M-254.4,393.6v-0.3c0-0.1,0.1-0.1,0.1-0.1c0.1,0,0.1,0.1,0.1,0.1v0.3
		C-254.1,393.7-254.4,393.7-254.4,393.6z M-249.8,399.5C-249.8,399.5-249.8,399.4-249.8,399.5l0.7-0.2l0,0.2
		C-249.1,399.5-249.8,399.5-249.8,399.5z M-200.2,397.7c-0.9,0-1.7,0.4-2.3,0.8l0-0.1c0.6-0.5,1.8-1.2,2.8-1.2
		c1.3,0,4.5,1.8,4.5,6.1c0,1.4-0.7,2.4-1.5,3.1c0.3-0.6,1-2.1,1-4.5C-195.7,399-198,397.7-200.2,397.7z M-200.4,407.8l-0.8,0.1
		l0,0.8c0,0,0,0.5-0.1,1.2c0-1.2-0.2-2.2-0.3-2.9h3.8C-199,407.6-200.3,407.8-200.4,407.8z M-221.7,440.8c-0.8,0.1-1.5,0.1-2.1,0.1
		c-5,0-9.3-1.6-16.6-9.8c-5.6-6.3-7.2-19.5-7.7-26.5l6.6-0.8c0.1,3.6,0.8,17.3,4.7,23.2c3.7,5.6,6.1,8.6,11.5,11.2
		c2.5,1.2,4.6,1.8,6.2,2C-220,440.6-220.9,440.8-221.7,440.8z M-247,402.7l-0.3-3.5l0,0l6.6-0.6l0.2,3.4L-247,402.7z M-255,410.7
		v-5.1c0-0.2,0.2-0.3,0.4-0.3s0.4,0.2,0.4,0.3v5.1c0,0.2-0.2,0.3-0.4,0.3S-255,410.9-255,410.7z"/>
	<path fill="#1EAAF1" d="M-252.9,419.9c-1.2,0-2.2,1-2.2,2.2s1,2.2,2.2,2.2s2.2-1,2.2-2.2C-250.8,420.9-251.7,419.9-252.9,419.9z
		 M-252.9,421.7c0.2,0,0.4,0.2,0.4,0.4s-0.2,0.4-0.4,0.4s-0.4-0.2-0.4-0.4C-253.4,421.9-253.2,421.7-252.9,421.7z"/>
	<path fill="#1EAAF1" d="M-248.3,393.7c1,0,1.9-0.8,1.9-1.9v-0.3c0-1-0.8-1.9-1.9-1.9c-1,0-1.9,0.8-1.9,1.9v0.3
		C-250.2,392.8-249.4,393.7-248.3,393.7z M-248.2,391.8c0,0.1-0.3,0.1-0.3,0v-0.3c0-0.1,0.1-0.1,0.1-0.1c0.1,0,0.1,0.1,0.1,0.1
		C-248.2,391.6-248.2,391.8-248.2,391.8z"/>
</g>
</svg>
