<?xml version="1.0" encoding="utf-8"?>
<!-- Generator: Adobe Illustrator 18.1.1, SVG Export Plug-In . SVG Version: 6.00 Build 0)  -->
<svg version="1.1" id="Capa_1" xmlns="http://www.w3.org/2000/svg" xmlns:xlink="http://www.w3.org/1999/xlink" x="0px" y="0px"
	 viewBox="-264 385.9 66 71" enable-background="new -264 385.9 66 71" xml:space="preserve">
<g>
	<path fill="#1EAAF1" d="M-236.5,404.2c1.1-0.2,2.2-0.2,3.3,0v-7.7l7.3-7.3l-2.3-2.3l-4.9,4.9v-5.5h-3.3v5.5l-4.9-4.9l-2.3,2.3
		l7.3,7.3V404.2z"/>
	<path fill="#1EAAF1" d="M-224.3,416.4h0.8v-3.3h-0.8c0.1,0.6,0.1,1.1,0.1,1.6C-224.2,415.3-224.2,415.9-224.3,416.4z"/>
	<path fill="#1EAAF1" d="M-233.2,425.4c-1.1,0.2-2.2,0.2-3.3,0v7.7l-7.3,7.3l2.3,2.3l4.9-4.9v5.5h3.3v-5.5l3.2,3.2c0,0,0-0.1,0-0.1
		c0-1.4,0.2-2.8,0.5-4.1l-3.6-3.6C-233.2,433.1-233.2,425.4-233.2,425.4z"/>
	<path fill="#1EAAF1" d="M-245.5,413.1h-7.7l-7.3-7.3l-2.3,2.3l4.9,4.9h-5.5v3.3h5.5l-4.9,4.9l2.3,2.3l7.3-7.3h7.7
		c-0.1-0.6-0.1-1.1-0.1-1.6C-245.6,414.2-245.6,413.7-245.5,413.1z"/>
	<path fill="#1EAAF1" d="M-249,403.1l5.5,5.4c0.7-0.9,1.4-1.7,2.3-2.3l-5.5-5.4l0-10.3l-3.3,0l0,7l-3.9-3.8l-2.3,2.3l3.9,3.8l-7,0
		l0,3.3L-249,403.1z"/>
	<path fill="#1EAAF1" d="M-226.2,408.5l2.7-2.7v-4.6l-5.1,5C-227.6,406.8-226.9,407.6-226.2,408.5z"/>
	<path fill="#1EAAF1" d="M-219.8,390.5l-3.2,0l0,4C-222.4,392.7-221.3,391.4-219.8,390.5z"/>
	<path fill="#1EAAF1" d="M-223.5,427.6v-3.8l-2.7-2.7c-0.6,0.9-1.4,1.7-2.3,2.3l4.6,4.5C-223.8,427.8-223.6,427.7-223.5,427.6z"/>
	<path fill="#1EAAF1" d="M-243.6,421.1l-5.5,5.4l-10.3,0l0,3.3l7,0l-3.9,3.8l2.3,2.3l3.9-3.8l0,7l3.3,0l0-10.3l5.5-5.4
		C-242.1,422.7-242.9,422-243.6,421.1z"/>
	<path fill="#1EAAF1" d="M-234.9,407.5c-4,0-7.3,3.3-7.3,7.3c0,4,3.3,7.3,7.3,7.3c4,0,7.3-3.3,7.3-7.3
		C-227.6,410.8-230.9,407.5-234.9,407.5z"/>
	<path fill="#1EAAF1" d="M-212.5,398.6c-0.4,0-1,0-1.4,0.9c-0.2,0.5-0.3,1.2-0.3,2.1v15.2h3.5v-15.2c0-0.9-0.1-1.6-0.3-2.1
		C-211.5,398.6-212.1,398.6-212.5,398.6z"/>
	<path fill="#1EAAF1" d="M-205.3,429.7l-0.2-0.1v-30.7c0-3.3-2.3-6.2-5.5-6.9c-0.5-0.1-1.1-0.2-1.6-0.2c-2.6,0-4.9,1.4-6.2,3.6
		c-0.6,1.1-0.9,2.2-0.9,3.5v30.9l-0.2,0.1c-1.2,0.7-2.3,1.7-3.2,2.8c-1.5,1.8-2.6,3.9-3,6.2c-0.2,1.1-0.3,1.9-0.3,2.8l0,0.2
		c0.1,7.7,6.4,13.9,14.1,13.9c1,0,1.9-0.1,2.9-0.3c6.5-1.3,11.2-7.1,11.2-13.8C-198.3,436.9-201,432.2-205.3,429.7z M-212.4,451.4
		c-5.3,0-9.7-4.3-9.7-9.7c0-0.3,0-0.5,0.1-0.8c0-0.5,0.1-1,0.2-1.4c0.4-1.5,1.1-2.9,2.2-3.9c0.4-0.4,0.9-0.8,1.6-1.2
		c0.5-0.3,1-0.6,1.5-0.7v-32c0-0.9,0.1-1.7,0.3-2.4c0.1-0.4,0.2-0.7,0.4-1c0.4-0.7,0.9-1.2,1.5-1.5c0.5-0.3,1.1-0.4,1.7-0.4
		c1.8,0,3.9,0.9,3.9,5.3v31.8c3.2,1,5.5,3.9,5.8,7.5c0,0.2,0.1,0.5,0.1,0.8C-202.7,447-207.1,451.4-212.4,451.4z"/>
	<path fill="#1EAAF1" d="M-207.2,439.8c-0.4,0-0.7,0.1-0.9,0.3c-0.1,0.1-0.1,0.2-0.1,0.4c0.2,2.2-0.5,4.3-2,6.1
		c-0.2,0.3-0.2,0.4-0.1,0.5c0.1,0.3,0.6,0.6,1.2,0.6c0.3,0,0.7-0.1,1-0.4c1.7-1.9,2.5-4.3,2.2-6.6
		C-206.1,440-206.8,439.8-207.2,439.8z"/>
</g>
</svg>
