<?xml version="1.0" encoding="utf-8"?>
<!-- Generator: Adobe Illustrator 18.1.1, SVG Export Plug-In . SVG Version: 6.00 Build 0)  -->
<svg version="1.1" id="Layer_1" xmlns="http://www.w3.org/2000/svg" xmlns:xlink="http://www.w3.org/1999/xlink" x="0px" y="0px"
	 viewBox="-246 382.7 102.8 76.2" enable-background="new -246 382.7 102.8 76.2" xml:space="preserve">
<path fill="#1EAAF1" d="M-146.2,412.4c-3.1-11.7-7.7-23.1-8.2-24.3l-2.4-5.4l-0.8,0.3c0,0-14.3,4.3-30.2,9.1l-0.7-1.8
	c0-0.1-0.1-0.2-0.2-0.3c-0.4-0.5-4.4-4.7-6.6-5.5c-1.7-0.6-2.6-0.6-3.9,0c-1.6,0.7-2.4,2.9-2.6,3.5c-0.1,0.2-0.2,0.4-0.2,0.7
	c-0.3,1.4-0.4,6.8-0.4,7.9c-14.9,4.5-27.8,8.4-28.1,8.6c-0.6,0.3-1.1,1.5-0.9,2.1c0.3,0.6,1.1,2.4,1.1,2.4l0.7-0.2c0,0,0,0.1,0,0.1
	c0,0,2.8,4.9,4.7,9.3c1.7,3.7,2.8,9.1,3.1,10.4l-22.7,6.1c-3.2,1.4-0.9,6.9-0.1,8.8c0.7,1.5,1.7,2,2.1,2.1c0.2,0.1,0.3,0.1,0.3,0.1
	l2-0.5c0.1,0.2,0.2,0.5,0.3,0.7l0,0.1l0,0c4.8,9.9,12.7,12,14.3,12.2c0.1,0,0.2,0,0.2,0c1.5,0,3.8-0.9,7.4-1.8
	c0.2,0,0.5,0.1,0.7,0.1c0.4,0,0.8-0.1,1.2-0.2c2.3-0.7,3.2-2.1,3.3-2.3l-0.2-0.1c14.8-3.7,37.3-9.2,51.6-12.7l0,0l1.3,0.8
	c0.1,0.1,0.3,0.1,0.5,0.1c0.1,0,0.1,0,0.2,0c0.4-0.1,9.4-2.1,12.1-3.2C-142.3,437.4-141.9,428.3-146.2,412.4z M-200.3,389.1
	c0-0.2,0.1-0.3,0.1-0.4l0,0c0,0,0,0,0,0c0.2-0.6,0.7-1,1.7-1.3c0.4-0.1,2.2-0.2,3.2,0.9c1,1,3.6,3.5,4.9,4.7
	c-3.4,1-6.9,2.1-10.3,3.1C-200.6,394-200.5,390.1-200.3,389.1z M-229.6,406.7c3.9-1.2,45.5-13.8,69.8-21.2c0,0.2,0.1,0.3,0.2,0.5
	l0.2,0.5l-69.9,21.1l-0.4-0.8C-229.6,406.7-229.6,406.7-229.6,406.7z M-223.3,418.2c-1.5-3.3-3.4-6.8-4.3-8.5l2.2-0.6
	c0.5,1,2.1,4.2,4.3,9.1c2,4.5,3.3,9.5,3.4,10.1l-2.4,0.6C-220.4,427.3-221.5,422-223.3,418.2z M-160.5,426.8c0.3,0,0.5,0,0.8-0.1
	c0.3,1,0.7,2,1.1,2.9c0,0.1,2.6,5.3,5.8,8.4c-12.8,3.1-49.6,12.1-66.5,16.4c-0.1,0-0.2,0.1-0.3,0.1c-3.3-2.1-7.3-7.5-9.6-11.4
	l66.3-17.3C-162.1,426.4-161.4,426.8-160.5,426.8z M-164.2,423.3c0.1,0.3,0.3,0.6,0.5,0.9l-76.5,20c-0.1,0-0.2,0-0.3,0l-1.5,0.4
	c-0.2-0.2-0.5-0.5-0.8-1c-0.7-1.6-1.2-3-1.4-4.1c-0.3-1.8,0.2-2.2,0.5-2.4l78.1-21.2C-165.7,417.8-165.5,420.4-164.2,423.3z
	 M-220.5,456.1c-0.2,0-0.3,0.1-0.5,0.1c-1.9,0.5-3.3,1-4.1,1c0,0-0.1,0-0.1,0c-0.1,0-7.9-1.2-12.8-10.9l7.7-2
	c1.3,2.2,5.5,8.8,9.8,11.6C-220.5,456-220.5,456-220.5,456.1z M-147.9,438c-0.3,0.1-0.8,0.3-1.3,0.5c-2.9-1.1-6.9-7.5-7.8-9.6
	c-1.1-2.5-2.1-6.5-2.1-6.5s-0.1,2.2-0.8,2.5c-0.1,0.1-0.2,0.1-0.4,0.1c0,0,0,0,0,0l0,0c-0.1,0-0.1,0-0.2,0c-0.2,0-0.4-0.1-0.6-0.2
	c-0.4-0.3-0.8-1-1.4-2.2c-2.3-5.1-0.7-9.1-0.7-9.1l-0.1,0c0,0,0-0.1,0-0.1l-46.6,12.6c-1-2.5-5.2-13.4-7.8-19.4l52.7-15.9
	c0.5,1.2,1.6,3.8,3.3,7.5c6.2,13.9,7.1,32,7.1,32s4.4,7.6,6.7,6.6c5.6-2.5-0.3-29.2-9.2-49.2l0,0l0-0.1l0.3-0.1c0,0-0.4-0.9-1-2.3
	c-0.2-0.6-0.2-1-0.1-1.4l2.2,4.9c0.5,1.2,5,12.4,8.2,24C-143.9,427.4-144,436.3-147.9,438z M-196.5,389.2c0.2,0.5,0,1.1-0.5,1.4
	c-0.1,0.1-0.3,0.1-0.4,0.1c-0.4,0-0.8-0.2-0.9-0.6c-0.2-0.5,0-1.1,0.5-1.4c0.1-0.1,0.3-0.1,0.4-0.1
	C-197,388.6-196.7,388.9-196.5,389.2z"/>
</svg>
