<?xml version="1.0" encoding="utf-8"?>
<!-- Generator: Adobe Illustrator 18.1.1, SVG Export Plug-In . SVG Version: 6.00 Build 0)  -->
<svg version="1.1" id="Слой_1" xmlns="http://www.w3.org/2000/svg" xmlns:xlink="http://www.w3.org/1999/xlink" x="0px" y="0px"
	 viewBox="0 0 50 50" enable-background="new 0 0 50 50" xml:space="preserve">
<path fill="#656565" d="M42.4,44.9L42.4,44.9l-6.5-10.8c-0.5-0.8-1.6-1.1-2.4-0.5l-3.8,2.2l0.3,0.5c-1.6,0.8-3.2-1.1-5.9-4.6
	l-5.4-9.2c-1.1-2.4-1.9-4.9-0.3-5.9l0.3,0.3l3.8-2.2l0,0c0.8-0.5,1.1-1.6,0.5-2.4l0,0L16.5,1.4c-0.5-0.8-1.6-1.1-2.4-0.5L10.3,3
	l0.3,0.3c-2.2,1.6-7.3,10,3,28.1C24.4,50.3,34.9,50.3,37.4,49l0.3,0.5l3.8-2.2l0,0C42.7,46.8,43,45.7,42.4,44.9z"/>
</svg>
