<svg xmlns="http://www.w3.org/2000/svg" xmlns:xlink="http://www.w3.org/1999/xlink" preserveAspectRatio="xMidYMid" width="30.03" height="26.031" viewBox="0 0 30.03 26.031">
  <defs>
    <style>
      .cls-1 {
        fill: #252532;
        fill-rule: evenodd;
      }
    </style>
  </defs>
  <path d="M17.598,8.657 L17.598,2.618 C17.598,1.185 16.429,0.013 15.000,0.013 C13.571,0.013 12.402,1.185 12.402,2.618 L12.402,8.657 L-0.010,8.657 L4.460,26.027 L25.541,26.027 L30.011,8.657 L17.598,8.657 ZM24.007,24.042 L5.994,24.042 L2.546,10.642 L12.402,10.642 L12.402,16.019 C12.402,17.452 13.571,18.624 15.000,18.624 C16.429,18.624 17.598,17.452 17.598,16.019 L17.598,10.642 L27.455,10.642 L24.007,24.042 ZM16.323,16.019 C16.323,16.751 15.731,17.345 15.000,17.345 C14.270,17.345 13.678,16.751 13.678,16.019 C13.678,15.286 14.270,14.692 15.000,14.692 C15.731,14.692 16.323,15.286 16.323,16.019 Z" class="cls-1"/>
</svg>
