<svg xmlns="http://www.w3.org/2000/svg" xmlns:xlink="http://www.w3.org/1999/xlink" preserveAspectRatio="xMidYMid" width="28.031" height="17.06" viewBox="0 0 28.031 17.06">
  <defs>
    <style>
      .cls-1 {
        fill: #515152;
        fill-rule: evenodd;
      }
    </style>
  </defs>
  <path d="M14.025,17.059 C8.579,17.059 3.459,14.061 0.329,9.040 L0.015,8.535 L0.329,8.031 C3.459,3.009 8.579,0.011 14.025,0.011 C19.472,0.011 24.592,3.009 27.722,8.031 L28.036,8.535 L27.722,9.040 C24.591,14.061 19.471,17.059 14.025,17.059 ZM2.379,8.535 C4.268,11.339 6.864,13.367 9.762,14.379 C7.875,13.080 6.641,10.945 6.641,8.535 C6.641,6.126 7.875,3.990 9.762,2.692 C6.864,3.704 4.268,5.732 2.379,8.535 ZM18.288,2.692 C20.176,3.990 21.410,6.126 21.410,8.535 C21.410,10.945 20.176,13.080 18.288,14.379 C21.187,13.367 23.783,11.339 25.672,8.535 C23.783,5.732 21.186,3.704 18.288,2.692 ZM14.025,3.326 C11.063,3.326 8.653,5.663 8.653,8.535 C8.653,11.407 11.063,13.744 14.025,13.744 C16.987,13.744 19.397,11.407 19.397,8.535 C19.397,5.663 16.987,3.326 14.025,3.326 Z" class="cls-1"/>
</svg>
