<svg xmlns="http://www.w3.org/2000/svg" xmlns:xlink="http://www.w3.org/1999/xlink" preserveAspectRatio="xMidYMid" width="31.906" height="25" viewBox="0 0 31.906 25">
  <defs>
    <style>
      .cls-1 {
        fill: #515152;
        fill-rule: evenodd;
      }
    </style>
  </defs>
  <path d="M31.790,10.025 L31.873,10.052 L30.003,15.705 C29.486,17.162 28.359,18.266 26.903,18.754 L9.093,24.725 C8.568,24.902 8.033,24.985 7.506,24.985 C5.435,24.985 3.498,23.689 2.798,21.638 L0.682,15.431 C0.261,14.708 0.001,13.880 0.001,12.987 L0.001,4.915 C0.001,2.200 2.229,-0.009 4.967,-0.009 L23.767,-0.009 C25.304,-0.009 26.728,0.678 27.677,1.878 L30.866,5.914 C31.810,7.109 32.108,8.619 31.790,10.025 ZM4.683,21.006 C5.209,22.548 6.901,23.376 8.456,22.856 L23.205,17.912 L4.967,17.912 C4.471,17.912 4.002,17.817 3.550,17.683 L4.683,21.006 ZM29.300,7.131 L26.111,3.095 C25.542,2.376 24.688,1.964 23.767,1.964 L4.967,1.964 C3.326,1.964 1.991,3.288 1.991,4.915 L1.991,12.987 C1.991,14.615 3.326,15.939 4.967,15.939 L23.767,15.939 C24.688,15.939 25.542,15.526 26.111,14.807 L29.300,10.771 C30.146,9.700 30.146,8.203 29.300,7.131 ZM25.050,11.191 C23.802,11.191 22.791,10.188 22.791,8.951 C22.791,7.714 23.802,6.711 25.050,6.711 C26.297,6.711 27.309,7.714 27.309,8.951 C27.309,10.188 26.297,11.191 25.050,11.191 Z" class="cls-1"/>
</svg>
