<svg xmlns="http://www.w3.org/2000/svg" xmlns:xlink="http://www.w3.org/1999/xlink" preserveAspectRatio="xMidYMid" width="27.063" height="26" viewBox="0 0 27.063 26">
  <defs>
    <style>
      .cls-1 {
        fill: #515152;
        fill-rule: evenodd;
      }
    </style>
  </defs>
  <path d="M23.516,17.764 L23.516,25.991 L14.956,18.205 L5.732,18.205 C2.572,18.205 0.002,15.707 0.002,12.637 L0.002,5.568 C0.002,2.498 2.572,0.000 5.732,0.000 L21.321,0.000 C24.481,0.000 27.051,2.498 27.051,5.568 L27.051,12.637 C27.051,14.902 25.631,16.912 23.516,17.764 ZM25.017,5.568 C25.017,3.588 23.359,1.976 21.321,1.976 L5.732,1.976 C3.693,1.976 2.035,3.588 2.035,5.568 L2.035,12.637 C2.035,14.617 3.693,16.229 5.732,16.229 L15.760,16.229 L21.482,21.435 L21.482,16.291 L22.244,16.098 C23.877,15.687 25.017,14.264 25.017,12.637 L25.017,5.568 ZM5.107,10.258 L22.391,10.258 L22.391,12.645 L5.107,12.645 L5.107,10.258 ZM5.107,5.188 L22.391,5.188 L22.391,7.575 L5.107,7.575 L5.107,5.188 Z" class="cls-1"/>
</svg>
